<!-- Include into html file with following line: -->
<!-- <img width="252.00" height="212.40" src="examples"> -->
<svg xmlns="http://www.w3.org/2000/svg" xmlns:xlink="http://www.w3.org/1999/xlink" width="252.00" height="212.40">
<defs>
<clipPath id="zplot_pattern_0"> <circle cx="36.00" cy="171.00" r="2.00"/> </clipPath>
<clipPath id="zplot_pattern_1"> <circle cx="64.80" cy="171.00" r="2.00"/> </clipPath>
<clipPath id="zplot_pattern_2"> <circle cx="93.60" cy="171.00" r="2.00"/> </clipPath>
<clipPath id="zplot_pattern_3"> <circle cx="122.40" cy="171.00" r="2.00"/> </clipPath>
<clipPath id="zplot_pattern_4"> <circle cx="151.20" cy="171.00" r="2.00"/> </clipPath>
<clipPath id="zplot_pattern_5"> <circle cx="180.00" cy="171.00" r="2.00"/> </clipPath>
<clipPath id="zplot_pattern_6"> <circle cx="208.80" cy="171.00" r="2.00"/> </clipPath>
<clipPath id="zplot_pattern_7"> <circle cx="237.60" cy="171.00" r="2.00"/> </clipPath>
<clipPath id="zplot_pattern_8"> <circle cx="44.26" cy="47.60" r="2.50"/> </clipPath>
</defs>
<path d="M 35.75,176.40 L 237.85,176.40 " style="stroke: #000000; stroke-width: 0.50; fill: none;"/>
<path d="M 36.00,176.65 L 36.00,32.15 " style="stroke: #000000; stroke-width: 0.50; fill: none;"/>
<path d="M 35.75,32.40 L 237.85,32.40 " style="stroke: #000000; stroke-width: 0.50; fill: none;"/>
<path d="M 237.60,176.65 L 237.60,32.15 " style="stroke: #000000; stroke-width: 0.50; fill: none;"/>
<path d="M 36.00,178.40 L 36.00,174.40 " style="stroke: #000000; stroke-width: 0.50; fill: none;"/>
<path d="M 64.80,178.40 L 64.80,174.40 " style="stroke: #000000; stroke-width: 0.50; fill: none;"/>
<path d="M 93.60,178.40 L 93.60,174.40 " style="stroke: #000000; stroke-width: 0.50; fill: none;"/>
<path d="M 122.40,178.40 L 122.40,174.40 " style="stroke: #000000; stroke-width: 0.50; fill: none;"/>
<path d="M 151.20,178.40 L 151.20,174.40 " style="stroke: #000000; stroke-width: 0.50; fill: none;"/>
<path d="M 180.00,178.40 L 180.00,174.40 " style="stroke: #000000; stroke-width: 0.50; fill: none;"/>
<path d="M 208.80,178.40 L 208.80,174.40 " style="stroke: #000000; stroke-width: 0.50; fill: none;"/>
<path d="M 237.60,178.40 L 237.60,174.40 " style="stroke: #000000; stroke-width: 0.50; fill: none;"/>
<path d="M 36.00,34.40 L 36.00,30.40 " style="stroke: #000000; stroke-width: 0.50; fill: none;"/>
<path d="M 64.80,34.40 L 64.80,30.40 " style="stroke: #000000; stroke-width: 0.50; fill: none;"/>
<path d="M 93.60,34.40 L 93.60,30.40 " style="stroke: #000000; stroke-width: 0.50; fill: none;"/>
<path d="M 122.40,34.40 L 122.40,30.40 " style="stroke: #000000; stroke-width: 0.50; fill: none;"/>
<path d="M 151.20,34.40 L 151.20,30.40 " style="stroke: #000000; stroke-width: 0.50; fill: none;"/>
<path d="M 180.00,34.40 L 180.00,30.40 " style="stroke: #000000; stroke-width: 0.50; fill: none;"/>
<path d="M 208.80,34.40 L 208.80,30.40 " style="stroke: #000000; stroke-width: 0.50; fill: none;"/>
<path d="M 237.60,34.40 L 237.60,30.40 " style="stroke: #000000; stroke-width: 0.50; fill: none;"/>
<path d="M 34.00,176.40 L 38.00,176.40 " style="stroke: #000000; stroke-width: 0.50; fill: none;"/>
<path d="M 34.00,140.40 L 38.00,140.40 " style="stroke: #000000; stroke-width: 0.50; fill: none;"/>
<path d="M 34.00,104.40 L 38.00,104.40 " style="stroke: #000000; stroke-width: 0.50; fill: none;"/>
<path d="M 34.00,68.40 L 38.00,68.40 " style="stroke: #000000; stroke-width: 0.50; fill: none;"/>
<path d="M 34.00,32.40 L 38.00,32.40 " style="stroke: #000000; stroke-width: 0.50; fill: none;"/>
<path d="M 235.60,176.40 L 239.60,176.40 " style="stroke: #000000; stroke-width: 0.50; fill: none;"/>
<path d="M 235.60,140.40 L 239.60,140.40 " style="stroke: #000000; stroke-width: 0.50; fill: none;"/>
<path d="M 235.60,104.40 L 239.60,104.40 " style="stroke: #000000; stroke-width: 0.50; fill: none;"/>
<path d="M 235.60,68.40 L 239.60,68.40 " style="stroke: #000000; stroke-width: 0.50; fill: none;"/>
<path d="M 235.60,32.40 L 239.60,32.40 " style="stroke: #000000; stroke-width: 0.50; fill: none;"/>
<text x="36.00" y="181.40" style="font-family: default; font-size: 10; text-anchor: middle; alignment-baseline: hanging; "> 0</text>
<text x="64.80" y="181.40" style="font-family: default; font-size: 10; text-anchor: middle; alignment-baseline: hanging; "> 1</text>
<text x="93.60" y="181.40" style="font-family: default; font-size: 10; text-anchor: middle; alignment-baseline: hanging; "> 2</text>
<text x="122.40" y="181.40" style="font-family: default; font-size: 10; text-anchor: middle; alignment-baseline: hanging; "> 3</text>
<text x="151.20" y="181.40" style="font-family: default; font-size: 10; text-anchor: middle; alignment-baseline: hanging; "> 4</text>
<text x="180.00" y="181.40" style="font-family: default; font-size: 10; text-anchor: middle; alignment-baseline: hanging; "> 5</text>
<text x="208.80" y="181.40" style="font-family: default; font-size: 10; text-anchor: middle; alignment-baseline: hanging; "> 6</text>
<text x="237.60" y="181.40" style="font-family: default; font-size: 10; text-anchor: middle; alignment-baseline: hanging; "> 7</text>
<text x="31.00" y="176.40" style="font-family: default; font-size: 10; text-anchor: end; alignment-baseline: middle; "> 0</text>
<text x="31.00" y="140.40" style="font-family: default; font-size: 10; text-anchor: end; alignment-baseline: middle; "> 5</text>
<text x="31.00" y="104.40" style="font-family: default; font-size: 10; text-anchor: end; alignment-baseline: middle; "> 10</text>
<text x="31.00" y="68.40" style="font-family: default; font-size: 10; text-anchor: end; alignment-baseline: middle; "> 15</text>
<text x="31.00" y="32.40" style="font-family: default; font-size: 10; text-anchor: end; alignment-baseline: middle; "> 20</text>
<text x="136.80" y="24.90" style="font-family: default; font-size: 10; text-anchor: middle; alignment-baseline: baseline; "> Example of Lines and Points</text>
<text x="136.80" y="194.40" style="font-family: default; font-size: 10; text-anchor: middle; alignment-baseline: hanging; "> X title</text>
<text x="16.88" y="104.40" transform="rotate(-90.00 16.88,104.40)" style="font-family: default; font-size: 10; text-anchor: middle; alignment-baseline: baseline; "> Y title</text>
<path d="M 34.75,176.40 L 37.25,176.40 " style="stroke: #000000; stroke-width: 0.50; fill: none;"/>
<path d="M 34.75,167.40 L 37.25,167.40 " style="stroke: #000000; stroke-width: 0.50; fill: none;"/>
<path d="M 34.75,158.40 L 37.25,158.40 " style="stroke: #000000; stroke-width: 0.50; fill: none;"/>
<path d="M 34.75,149.40 L 37.25,149.40 " style="stroke: #000000; stroke-width: 0.50; fill: none;"/>
<path d="M 34.75,140.40 L 37.25,140.40 " style="stroke: #000000; stroke-width: 0.50; fill: none;"/>
<path d="M 34.75,131.40 L 37.25,131.40 " style="stroke: #000000; stroke-width: 0.50; fill: none;"/>
<path d="M 34.75,122.40 L 37.25,122.40 " style="stroke: #000000; stroke-width: 0.50; fill: none;"/>
<path d="M 34.75,113.40 L 37.25,113.40 " style="stroke: #000000; stroke-width: 0.50; fill: none;"/>
<path d="M 34.75,104.40 L 37.25,104.40 " style="stroke: #000000; stroke-width: 0.50; fill: none;"/>
<path d="M 34.75,95.40 L 37.25,95.40 " style="stroke: #000000; stroke-width: 0.50; fill: none;"/>
<path d="M 34.75,86.40 L 37.25,86.40 " style="stroke: #000000; stroke-width: 0.50; fill: none;"/>
<path d="M 34.75,77.40 L 37.25,77.40 " style="stroke: #000000; stroke-width: 0.50; fill: none;"/>
<path d="M 34.75,68.40 L 37.25,68.40 " style="stroke: #000000; stroke-width: 0.50; fill: none;"/>
<path d="M 34.75,59.40 L 37.25,59.40 " style="stroke: #000000; stroke-width: 0.50; fill: none;"/>
<path d="M 34.75,50.40 L 37.25,50.40 " style="stroke: #000000; stroke-width: 0.50; fill: none;"/>
<path d="M 34.75,41.40 L 37.25,41.40 " style="stroke: #000000; stroke-width: 0.50; fill: none;"/>
<path d="M 236.35,176.40 L 238.85,176.40 " style="stroke: #000000; stroke-width: 0.50; fill: none;"/>
<path d="M 236.35,167.40 L 238.85,167.40 " style="stroke: #000000; stroke-width: 0.50; fill: none;"/>
<path d="M 236.35,158.40 L 238.85,158.40 " style="stroke: #000000; stroke-width: 0.50; fill: none;"/>
<path d="M 236.35,149.40 L 238.85,149.40 " style="stroke: #000000; stroke-width: 0.50; fill: none;"/>
<path d="M 236.35,140.40 L 238.85,140.40 " style="stroke: #000000; stroke-width: 0.50; fill: none;"/>
<path d="M 236.35,131.40 L 238.85,131.40 " style="stroke: #000000; stroke-width: 0.50; fill: none;"/>
<path d="M 236.35,122.40 L 238.85,122.40 " style="stroke: #000000; stroke-width: 0.50; fill: none;"/>
<path d="M 236.35,113.40 L 238.85,113.40 " style="stroke: #000000; stroke-width: 0.50; fill: none;"/>
<path d="M 236.35,104.40 L 238.85,104.40 " style="stroke: #000000; stroke-width: 0.50; fill: none;"/>
<path d="M 236.35,95.40 L 238.85,95.40 " style="stroke: #000000; stroke-width: 0.50; fill: none;"/>
<path d="M 236.35,86.40 L 238.85,86.40 " style="stroke: #000000; stroke-width: 0.50; fill: none;"/>
<path d="M 236.35,77.40 L 238.85,77.40 " style="stroke: #000000; stroke-width: 0.50; fill: none;"/>
<path d="M 236.35,68.40 L 238.85,68.40 " style="stroke: #000000; stroke-width: 0.50; fill: none;"/>
<path d="M 236.35,59.40 L 238.85,59.40 " style="stroke: #000000; stroke-width: 0.50; fill: none;"/>
<path d="M 236.35,50.40 L 238.85,50.40 " style="stroke: #000000; stroke-width: 0.50; fill: none;"/>
<path d="M 236.35,41.40 L 238.85,41.40 " style="stroke: #000000; stroke-width: 0.50; fill: none;"/>
<path d="M 36.00,176.40 L 64.80,176.40 L 93.60,176.40 L 122.40,176.40 L 151.20,176.40 L 180.00,176.40 L 208.80,176.40 L 237.60,176.40 " style="stroke: #ffa500; stroke-width: 0.50; fill: none;"/>
<path d="M 34.00,178.40 L 34.00,174.40 L 38.00,174.40 L 38.00,178.40 Z" style="stroke: #ffa500; stroke-width: 0.50; fill: #ffa500;"/>
<path d="M 34.00,178.40 L 34.00,174.40 L 38.00,174.40 L 38.00,178.40 Z" style="stroke: #ffa500; stroke-width: 0.50; fill: none;"/>
<path d="M 62.80,178.40 L 62.80,174.40 L 66.80,174.40 L 66.80,178.40 Z" style="stroke: #ffa500; stroke-width: 0.50; fill: #ffa500;"/>
<path d="M 62.80,178.40 L 62.80,174.40 L 66.80,174.40 L 66.80,178.40 Z" style="stroke: #ffa500; stroke-width: 0.50; fill: none;"/>
<path d="M 91.60,178.40 L 91.60,174.40 L 95.60,174.40 L 95.60,178.40 Z" style="stroke: #ffa500; stroke-width: 0.50; fill: #ffa500;"/>
<path d="M 91.60,178.40 L 91.60,174.40 L 95.60,174.40 L 95.60,178.40 Z" style="stroke: #ffa500; stroke-width: 0.50; fill: none;"/>
<path d="M 120.40,178.40 L 120.40,174.40 L 124.40,174.40 L 124.40,178.40 Z" style="stroke: #ffa500; stroke-width: 0.50; fill: #ffa500;"/>
<path d="M 120.40,178.40 L 120.40,174.40 L 124.40,174.40 L 124.40,178.40 Z" style="stroke: #ffa500; stroke-width: 0.50; fill: none;"/>
<path d="M 149.20,178.40 L 149.20,174.40 L 153.20,174.40 L 153.20,178.40 Z" style="stroke: #ffa500; stroke-width: 0.50; fill: #ffa500;"/>
<path d="M 149.20,178.40 L 149.20,174.40 L 153.20,174.40 L 153.20,178.40 Z" style="stroke: #ffa500; stroke-width: 0.50; fill: none;"/>
<path d="M 178.00,178.40 L 178.00,174.40 L 182.00,174.40 L 182.00,178.40 Z" style="stroke: #ffa500; stroke-width: 0.50; fill: #ffa500;"/>
<path d="M 178.00,178.40 L 178.00,174.40 L 182.00,174.40 L 182.00,178.40 Z" style="stroke: #ffa500; stroke-width: 0.50; fill: none;"/>
<path d="M 206.80,178.40 L 206.80,174.40 L 210.80,174.40 L 210.80,178.40 Z" style="stroke: #ffa500; stroke-width: 0.50; fill: #ffa500;"/>
<path d="M 206.80,178.40 L 206.80,174.40 L 210.80,174.40 L 210.80,178.40 Z" style="stroke: #ffa500; stroke-width: 0.50; fill: none;"/>
<path d="M 235.60,178.40 L 235.60,174.40 L 239.60,174.40 L 239.60,178.40 Z" style="stroke: #ffa500; stroke-width: 0.50; fill: #ffa500;"/>
<path d="M 235.60,178.40 L 235.60,174.40 L 239.60,174.40 L 239.60,178.40 Z" style="stroke: #ffa500; stroke-width: 0.50; fill: none;"/>
<path d="M 36.00,171.00 L 64.80,171.00 L 93.60,171.00 L 122.40,171.00 L 151.20,171.00 L 180.00,171.00 L 208.80,171.00 L 237.60,171.00 " style="stroke: #add8e5; stroke-width: 0.50; fill: none;"/>
<path d="M 34.00,173.00 L 34.00,169.00 L 38.00,169.00 L 38.00,173.00 L 34.00,173.00 Z" style="stroke: #000000; stroke-width: 0.00; fill: #add8e5;" clip-path="url(#zplot_pattern_0)"/>
<circle cx="36.00" cy="171.00" r="2.00" style="stroke: #add8e5; stroke-width: 0.50; fill: none;"/>
<path d="M 62.80,173.00 L 62.80,169.00 L 66.80,169.00 L 66.80,173.00 L 62.80,173.00 Z" style="stroke: #000000; stroke-width: 0.00; fill: #add8e5;" clip-path="url(#zplot_pattern_1)"/>
<circle cx="64.80" cy="171.00" r="2.00" style="stroke: #add8e5; stroke-width: 0.50; fill: none;"/>
<path d="M 91.60,173.00 L 91.60,169.00 L 95.60,169.00 L 95.60,173.00 L 91.60,173.00 Z" style="stroke: #000000; stroke-width: 0.00; fill: #add8e5;" clip-path="url(#zplot_pattern_2)"/>
<circle cx="93.60" cy="171.00" r="2.00" style="stroke: #add8e5; stroke-width: 0.50; fill: none;"/>
<path d="M 120.40,173.00 L 120.40,169.00 L 124.40,169.00 L 124.40,173.00 L 120.40,173.00 Z" style="stroke: #000000; stroke-width: 0.00; fill: #add8e5;" clip-path="url(#zplot_pattern_3)"/>
<circle cx="122.40" cy="171.00" r="2.00" style="stroke: #add8e5; stroke-width: 0.50; fill: none;"/>
<path d="M 149.20,173.00 L 149.20,169.00 L 153.20,169.00 L 153.20,173.00 L 149.20,173.00 Z" style="stroke: #000000; stroke-width: 0.00; fill: #add8e5;" clip-path="url(#zplot_pattern_4)"/>
<circle cx="151.20" cy="171.00" r="2.00" style="stroke: #add8e5; stroke-width: 0.50; fill: none;"/>
<path d="M 178.00,173.00 L 178.00,169.00 L 182.00,169.00 L 182.00,173.00 L 178.00,173.00 Z" style="stroke: #000000; stroke-width: 0.00; fill: #add8e5;" clip-path="url(#zplot_pattern_5)"/>
<circle cx="180.00" cy="171.00" r="2.00" style="stroke: #add8e5; stroke-width: 0.50; fill: none;"/>
<path d="M 206.80,173.00 L 206.80,169.00 L 210.80,169.00 L 210.80,173.00 L 206.80,173.00 Z" style="stroke: #000000; stroke-width: 0.00; fill: #add8e5;" clip-path="url(#zplot_pattern_6)"/>
<circle cx="208.80" cy="171.00" r="2.00" style="stroke: #add8e5; stroke-width: 0.50; fill: none;"/>
<path d="M 235.60,173.00 L 235.60,169.00 L 239.60,169.00 L 239.60,173.00 L 235.60,173.00 Z" style="stroke: #000000; stroke-width: 0.00; fill: #add8e5;" clip-path="url(#zplot_pattern_7)"/>
<circle cx="237.60" cy="171.00" r="2.00" style="stroke: #add8e5; stroke-width: 0.50; fill: none;"/>
<path d="M 36.00,165.60 L 64.80,165.60 L 93.60,165.60 L 122.40,165.60 L 151.20,165.60 L 180.00,165.60 L 208.80,165.60 L 237.60,165.60 " style="stroke: #00008c; stroke-width: 0.50; fill: none;"/>
<path d="M 34.00,167.60 L 36.00,163.60 L 38.00,167.60 Z" style="stroke: #00008c; stroke-width: 0.50; fill: #00008c;"/>
<path d="M 34.00,167.60 L 36.00,163.60 L 38.00,167.60 Z" style="stroke: #00008c; stroke-width: 0.50; fill: none;"/>
<path d="M 62.80,167.60 L 64.80,163.60 L 66.80,167.60 Z" style="stroke: #00008c; stroke-width: 0.50; fill: #00008c;"/>
<path d="M 62.80,167.60 L 64.80,163.60 L 66.80,167.60 Z" style="stroke: #00008c; stroke-width: 0.50; fill: none;"/>
<path d="M 91.60,167.60 L 93.60,163.60 L 95.60,167.60 Z" style="stroke: #00008c; stroke-width: 0.50; fill: #00008c;"/>
<path d="M 91.60,167.60 L 93.60,163.60 L 95.60,167.60 Z" style="stroke: #00008c; stroke-width: 0.50; fill: none;"/>
<path d="M 120.40,167.60 L 122.40,163.60 L 124.40,167.60 Z" style="stroke: #00008c; stroke-width: 0.50; fill: #00008c;"/>
<path d="M 120.40,167.60 L 122.40,163.60 L 124.40,167.60 Z" style="stroke: #00008c; stroke-width: 0.50; fill: none;"/>
<path d="M 149.20,167.60 L 151.20,163.60 L 153.20,167.60 Z" style="stroke: #00008c; stroke-width: 0.50; fill: #00008c;"/>
<path d="M 149.20,167.60 L 151.20,163.60 L 153.20,167.60 Z" style="stroke: #00008c; stroke-width: 0.50; fill: none;"/>
<path d="M 178.00,167.60 L 180.00,163.60 L 182.00,167.60 Z" style="stroke: #00008c; stroke-width: 0.50; fill: #00008c;"/>
<path d="M 178.00,167.60 L 180.00,163.60 L 182.00,167.60 Z" style="stroke: #00008c; stroke-width: 0.50; fill: none;"/>
<path d="M 206.80,167.60 L 208.80,163.60 L 210.80,167.60 Z" style="stroke: #00008c; stroke-width: 0.50; fill: #00008c;"/>
<path d="M 206.80,167.60 L 208.80,163.60 L 210.80,167.60 Z" style="stroke: #00008c; stroke-width: 0.50; fill: none;"/>
<path d="M 235.60,167.60 L 237.60,163.60 L 239.60,167.60 Z" style="stroke: #00008c; stroke-width: 0.50; fill: #00008c;"/>
<path d="M 235.60,167.60 L 237.60,163.60 L 239.60,167.60 Z" style="stroke: #00008c; stroke-width: 0.50; fill: none;"/>
<path d="M 36.00,160.20 L 64.80,160.20 L 93.60,160.20 L 122.40,160.20 L 151.20,160.20 L 180.00,160.20 L 208.80,160.20 L 237.60,160.20 " style="stroke: #6b8e23; stroke-width: 0.50; fill: none;"/>
<path d="M 34.00,158.20 L 36.00,162.20 L 38.00,158.20 Z" style="stroke: #6b8e23; stroke-width: 0.50; fill: #6b8e23;"/>
<path d="M 34.00,158.20 L 36.00,162.20 L 38.00,158.20 Z" style="stroke: #6b8e23; stroke-width: 0.50; fill: none;"/>
<path d="M 62.80,158.20 L 64.80,162.20 L 66.80,158.20 Z" style="stroke: #6b8e23; stroke-width: 0.50; fill: #6b8e23;"/>
<path d="M 62.80,158.20 L 64.80,162.20 L 66.80,158.20 Z" style="stroke: #6b8e23; stroke-width: 0.50; fill: none;"/>
<path d="M 91.60,158.20 L 93.60,162.20 L 95.60,158.20 Z" style="stroke: #6b8e23; stroke-width: 0.50; fill: #6b8e23;"/>
<path d="M 91.60,158.20 L 93.60,162.20 L 95.60,158.20 Z" style="stroke: #6b8e23; stroke-width: 0.50; fill: none;"/>
<path d="M 120.40,158.20 L 122.40,162.20 L 124.40,158.20 Z" style="stroke: #6b8e23; stroke-width: 0.50; fill: #6b8e23;"/>
<path d="M 120.40,158.20 L 122.40,162.20 L 124.40,158.20 Z" style="stroke: #6b8e23; stroke-width: 0.50; fill: none;"/>
<path d="M 149.20,158.20 L 151.20,162.20 L 153.20,158.20 Z" style="stroke: #6b8e23; stroke-width: 0.50; fill: #6b8e23;"/>
<path d="M 149.20,158.20 L 151.20,162.20 L 153.20,158.20 Z" style="stroke: #6b8e23; stroke-width: 0.50; fill: none;"/>
<path d="M 178.00,158.20 L 180.00,162.20 L 182.00,158.20 Z" style="stroke: #6b8e23; stroke-width: 0.50; fill: #6b8e23;"/>
<path d="M 178.00,158.20 L 180.00,162.20 L 182.00,158.20 Z" style="stroke: #6b8e23; stroke-width: 0.50; fill: none;"/>
<path d="M 206.80,158.20 L 208.80,162.20 L 210.80,158.20 Z" style="stroke: #6b8e23; stroke-width: 0.50; fill: #6b8e23;"/>
<path d="M 206.80,158.20 L 208.80,162.20 L 210.80,158.20 Z" style="stroke: #6b8e23; stroke-width: 0.50; fill: none;"/>
<path d="M 235.60,158.20 L 237.60,162.20 L 239.60,158.20 Z" style="stroke: #6b8e23; stroke-width: 0.50; fill: #6b8e23;"/>
<path d="M 235.60,158.20 L 237.60,162.20 L 239.60,158.20 Z" style="stroke: #6b8e23; stroke-width: 0.50; fill: none;"/>
<path d="M 36.00,154.80 L 64.80,154.80 L 93.60,154.80 L 122.40,154.80 L 151.20,154.80 L 180.00,154.80 L 208.80,154.80 L 237.60,154.80 " style="stroke: #9370db; stroke-width: 0.50; fill: none;"/>
<path d="M 34.00,154.80 L 36.00,152.80 L 38.00,154.80 L 36.00,156.80 Z" style="stroke: #9370db; stroke-width: 0.50; fill: #9370db;"/>
<path d="M 34.00,154.80 L 36.00,152.80 L 38.00,154.80 L 36.00,156.80 Z" style="stroke: #9370db; stroke-width: 0.50; fill: none;"/>
<path d="M 62.80,154.80 L 64.80,152.80 L 66.80,154.80 L 64.80,156.80 Z" style="stroke: #9370db; stroke-width: 0.50; fill: #9370db;"/>
<path d="M 62.80,154.80 L 64.80,152.80 L 66.80,154.80 L 64.80,156.80 Z" style="stroke: #9370db; stroke-width: 0.50; fill: none;"/>
<path d="M 91.60,154.80 L 93.60,152.80 L 95.60,154.80 L 93.60,156.80 Z" style="stroke: #9370db; stroke-width: 0.50; fill: #9370db;"/>
<path d="M 91.60,154.80 L 93.60,152.80 L 95.60,154.80 L 93.60,156.80 Z" style="stroke: #9370db; stroke-width: 0.50; fill: none;"/>
<path d="M 120.40,154.80 L 122.40,152.80 L 124.40,154.80 L 122.40,156.80 Z" style="stroke: #9370db; stroke-width: 0.50; fill: #9370db;"/>
<path d="M 120.40,154.80 L 122.40,152.80 L 124.40,154.80 L 122.40,156.80 Z" style="stroke: #9370db; stroke-width: 0.50; fill: none;"/>
<path d="M 149.20,154.80 L 151.20,152.80 L 153.20,154.80 L 151.20,156.80 Z" style="stroke: #9370db; stroke-width: 0.50; fill: #9370db;"/>
<path d="M 149.20,154.80 L 151.20,152.80 L 153.20,154.80 L 151.20,156.80 Z" style="stroke: #9370db; stroke-width: 0.50; fill: none;"/>
<path d="M 178.00,154.80 L 180.00,152.80 L 182.00,154.80 L 180.00,156.80 Z" style="stroke: #9370db; stroke-width: 0.50; fill: #9370db;"/>
<path d="M 178.00,154.80 L 180.00,152.80 L 182.00,154.80 L 180.00,156.80 Z" style="stroke: #9370db; stroke-width: 0.50; fill: none;"/>
<path d="M 206.80,154.80 L 208.80,152.80 L 210.80,154.80 L 208.80,156.80 Z" style="stroke: #9370db; stroke-width: 0.50; fill: #9370db;"/>
<path d="M 206.80,154.80 L 208.80,152.80 L 210.80,154.80 L 208.80,156.80 Z" style="stroke: #9370db; stroke-width: 0.50; fill: none;"/>
<path d="M 235.60,154.80 L 237.60,152.80 L 239.60,154.80 L 237.60,156.80 Z" style="stroke: #9370db; stroke-width: 0.50; fill: #9370db;"/>
<path d="M 235.60,154.80 L 237.60,152.80 L 239.60,154.80 L 237.60,156.80 Z" style="stroke: #9370db; stroke-width: 0.50; fill: none;"/>
<path d="M 36.00,149.40 L 64.80,149.40 L 93.60,149.40 L 122.40,149.40 L 151.20,149.40 L 180.00,149.40 L 208.80,149.40 L 237.60,149.40 " style="stroke: #007f00; stroke-width: 0.50; fill: none;"/>
<path d="M 36.00,148.40 L 36.59,150.21 L 35.05,149.09 L 36.95,149.09 L 35.41,150.21 L 36.00,148.40 Z" style="stroke: #007f00; stroke-width: 0.50; fill: #007f00;"/>
<path d="M 36.00,148.40 L 36.59,150.21 L 35.05,149.09 L 36.95,149.09 L 35.41,150.21 L 36.00,148.40 Z" style="stroke: #007f00; stroke-width: 0.50; fill: none;"/>
<path d="M 64.80,148.40 L 65.39,150.21 L 63.85,149.09 L 65.75,149.09 L 64.21,150.21 L 64.80,148.40 Z" style="stroke: #007f00; stroke-width: 0.50; fill: #007f00;"/>
<path d="M 64.80,148.40 L 65.39,150.21 L 63.85,149.09 L 65.75,149.09 L 64.21,150.21 L 64.80,148.40 Z" style="stroke: #007f00; stroke-width: 0.50; fill: none;"/>
<path d="M 93.60,148.40 L 94.19,150.21 L 92.65,149.09 L 94.55,149.09 L 93.01,150.21 L 93.60,148.40 Z" style="stroke: #007f00; stroke-width: 0.50; fill: #007f00;"/>
<path d="M 93.60,148.40 L 94.19,150.21 L 92.65,149.09 L 94.55,149.09 L 93.01,150.21 L 93.60,148.40 Z" style="stroke: #007f00; stroke-width: 0.50; fill: none;"/>
<path d="M 122.40,148.40 L 122.99,150.21 L 121.45,149.09 L 123.35,149.09 L 121.81,150.21 L 122.40,148.40 Z" style="stroke: #007f00; stroke-width: 0.50; fill: #007f00;"/>
<path d="M 122.40,148.40 L 122.99,150.21 L 121.45,149.09 L 123.35,149.09 L 121.81,150.21 L 122.40,148.40 Z" style="stroke: #007f00; stroke-width: 0.50; fill: none;"/>
<path d="M 151.20,148.40 L 151.79,150.21 L 150.25,149.09 L 152.15,149.09 L 150.61,150.21 L 151.20,148.40 Z" style="stroke: #007f00; stroke-width: 0.50; fill: #007f00;"/>
<path d="M 151.20,148.40 L 151.79,150.21 L 150.25,149.09 L 152.15,149.09 L 150.61,150.21 L 151.20,148.40 Z" style="stroke: #007f00; stroke-width: 0.50; fill: none;"/>
<path d="M 180.00,148.40 L 180.59,150.21 L 179.05,149.09 L 180.95,149.09 L 179.41,150.21 L 180.00,148.40 Z" style="stroke: #007f00; stroke-width: 0.50; fill: #007f00;"/>
<path d="M 180.00,148.40 L 180.59,150.21 L 179.05,149.09 L 180.95,149.09 L 179.41,150.21 L 180.00,148.40 Z" style="stroke: #007f00; stroke-width: 0.50; fill: none;"/>
<path d="M 208.80,148.40 L 209.39,150.21 L 207.85,149.09 L 209.75,149.09 L 208.21,150.21 L 208.80,148.40 Z" style="stroke: #007f00; stroke-width: 0.50; fill: #007f00;"/>
<path d="M 208.80,148.40 L 209.39,150.21 L 207.85,149.09 L 209.75,149.09 L 208.21,150.21 L 208.80,148.40 Z" style="stroke: #007f00; stroke-width: 0.50; fill: none;"/>
<path d="M 237.60,148.40 L 238.19,150.21 L 236.65,149.09 L 238.55,149.09 L 237.01,150.21 L 237.60,148.40 Z" style="stroke: #007f00; stroke-width: 0.50; fill: #007f00;"/>
<path d="M 237.60,148.40 L 238.19,150.21 L 236.65,149.09 L 238.55,149.09 L 237.01,150.21 L 237.60,148.40 Z" style="stroke: #007f00; stroke-width: 0.50; fill: none;"/>
<path d="M 36.00,144.00 L 64.80,144.00 L 93.60,144.00 L 122.40,144.00 L 151.20,144.00 L 180.00,144.00 L 208.80,144.00 L 237.60,144.00 " style="stroke: #ffa07a; stroke-width: 0.50; fill: none;"/>
<path d="M 34.00,146.00 L 38.00,142.00 " style="stroke: #ffa07a; stroke-width: 0.50; fill: none;"/>
<path d="M 34.00,142.00 L 38.00,146.00 " style="stroke: #ffa07a; stroke-width: 0.50; fill: none;"/>
<path d="M 62.80,146.00 L 66.80,142.00 " style="stroke: #ffa07a; stroke-width: 0.50; fill: none;"/>
<path d="M 62.80,142.00 L 66.80,146.00 " style="stroke: #ffa07a; stroke-width: 0.50; fill: none;"/>
<path d="M 91.60,146.00 L 95.60,142.00 " style="stroke: #ffa07a; stroke-width: 0.50; fill: none;"/>
<path d="M 91.60,142.00 L 95.60,146.00 " style="stroke: #ffa07a; stroke-width: 0.50; fill: none;"/>
<path d="M 120.40,146.00 L 124.40,142.00 " style="stroke: #ffa07a; stroke-width: 0.50; fill: none;"/>
<path d="M 120.40,142.00 L 124.40,146.00 " style="stroke: #ffa07a; stroke-width: 0.50; fill: none;"/>
<path d="M 149.20,146.00 L 153.20,142.00 " style="stroke: #ffa07a; stroke-width: 0.50; fill: none;"/>
<path d="M 149.20,142.00 L 153.20,146.00 " style="stroke: #ffa07a; stroke-width: 0.50; fill: none;"/>
<path d="M 178.00,146.00 L 182.00,142.00 " style="stroke: #ffa07a; stroke-width: 0.50; fill: none;"/>
<path d="M 178.00,142.00 L 182.00,146.00 " style="stroke: #ffa07a; stroke-width: 0.50; fill: none;"/>
<path d="M 206.80,146.00 L 210.80,142.00 " style="stroke: #ffa07a; stroke-width: 0.50; fill: none;"/>
<path d="M 206.80,142.00 L 210.80,146.00 " style="stroke: #ffa07a; stroke-width: 0.50; fill: none;"/>
<path d="M 235.60,146.00 L 239.60,142.00 " style="stroke: #ffa07a; stroke-width: 0.50; fill: none;"/>
<path d="M 235.60,142.00 L 239.60,146.00 " style="stroke: #ffa07a; stroke-width: 0.50; fill: none;"/>
<path d="M 36.00,138.60 L 64.80,138.60 L 93.60,138.60 L 122.40,138.60 L 151.20,138.60 L 180.00,138.60 L 208.80,138.60 L 237.60,138.60 " style="stroke: #bc8e8e; stroke-width: 0.50; fill: none;"/>
<path d="M 34.00,138.60 L 38.00,138.60 " style="stroke: #bc8e8e; stroke-width: 0.50; fill: none;"/>
<path d="M 36.00,136.60 L 36.00,140.60 " style="stroke: #bc8e8e; stroke-width: 0.50; fill: none;"/>
<path d="M 62.80,138.60 L 66.80,138.60 " style="stroke: #bc8e8e; stroke-width: 0.50; fill: none;"/>
<path d="M 64.80,136.60 L 64.80,140.60 " style="stroke: #bc8e8e; stroke-width: 0.50; fill: none;"/>
<path d="M 91.60,138.60 L 95.60,138.60 " style="stroke: #bc8e8e; stroke-width: 0.50; fill: none;"/>
<path d="M 93.60,136.60 L 93.60,140.60 " style="stroke: #bc8e8e; stroke-width: 0.50; fill: none;"/>
<path d="M 120.40,138.60 L 124.40,138.60 " style="stroke: #bc8e8e; stroke-width: 0.50; fill: none;"/>
<path d="M 122.40,136.60 L 122.40,140.60 " style="stroke: #bc8e8e; stroke-width: 0.50; fill: none;"/>
<path d="M 149.20,138.60 L 153.20,138.60 " style="stroke: #bc8e8e; stroke-width: 0.50; fill: none;"/>
<path d="M 151.20,136.60 L 151.20,140.60 " style="stroke: #bc8e8e; stroke-width: 0.50; fill: none;"/>
<path d="M 178.00,138.60 L 182.00,138.60 " style="stroke: #bc8e8e; stroke-width: 0.50; fill: none;"/>
<path d="M 180.00,136.60 L 180.00,140.60 " style="stroke: #bc8e8e; stroke-width: 0.50; fill: none;"/>
<path d="M 206.80,138.60 L 210.80,138.60 " style="stroke: #bc8e8e; stroke-width: 0.50; fill: none;"/>
<path d="M 208.80,136.60 L 208.80,140.60 " style="stroke: #bc8e8e; stroke-width: 0.50; fill: none;"/>
<path d="M 235.60,138.60 L 239.60,138.60 " style="stroke: #bc8e8e; stroke-width: 0.50; fill: none;"/>
<path d="M 237.60,136.60 L 237.60,140.60 " style="stroke: #bc8e8e; stroke-width: 0.50; fill: none;"/>
<path d="M 36.00,133.20 L 64.80,133.20 L 93.60,133.20 L 122.40,133.20 L 151.20,133.20 L 180.00,133.20 L 208.80,133.20 L 237.60,133.20 " style="stroke: #ffe2e0; stroke-width: 0.50; fill: none;"/>
<path d="M 34.00,133.20 L 38.00,133.20 " style="stroke: #ffe2e0; stroke-width: 0.50; fill: none;"/>
<path d="M 62.80,133.20 L 66.80,133.20 " style="stroke: #ffe2e0; stroke-width: 0.50; fill: none;"/>
<path d="M 91.60,133.20 L 95.60,133.20 " style="stroke: #ffe2e0; stroke-width: 0.50; fill: none;"/>
<path d="M 120.40,133.20 L 124.40,133.20 " style="stroke: #ffe2e0; stroke-width: 0.50; fill: none;"/>
<path d="M 149.20,133.20 L 153.20,133.20 " style="stroke: #ffe2e0; stroke-width: 0.50; fill: none;"/>
<path d="M 178.00,133.20 L 182.00,133.20 " style="stroke: #ffe2e0; stroke-width: 0.50; fill: none;"/>
<path d="M 206.80,133.20 L 210.80,133.20 " style="stroke: #ffe2e0; stroke-width: 0.50; fill: none;"/>
<path d="M 235.60,133.20 L 239.60,133.20 " style="stroke: #ffe2e0; stroke-width: 0.50; fill: none;"/>
<path d="M 36.00,127.80 L 64.80,127.80 L 93.60,127.80 L 122.40,127.80 L 151.20,127.80 L 180.00,127.80 L 208.80,127.80 L 237.60,127.80 " style="stroke: #6b59cc; stroke-width: 0.50; fill: none;"/>
<path d="M 36.00,125.80 L 36.00,129.80 " style="stroke: #6b59cc; stroke-width: 0.50; fill: none;"/>
<path d="M 64.80,125.80 L 64.80,129.80 " style="stroke: #6b59cc; stroke-width: 0.50; fill: none;"/>
<path d="M 93.60,125.80 L 93.60,129.80 " style="stroke: #6b59cc; stroke-width: 0.50; fill: none;"/>
<path d="M 122.40,125.80 L 122.40,129.80 " style="stroke: #6b59cc; stroke-width: 0.50; fill: none;"/>
<path d="M 151.20,125.80 L 151.20,129.80 " style="stroke: #6b59cc; stroke-width: 0.50; fill: none;"/>
<path d="M 180.00,125.80 L 180.00,129.80 " style="stroke: #6b59cc; stroke-width: 0.50; fill: none;"/>
<path d="M 208.80,125.80 L 208.80,129.80 " style="stroke: #6b59cc; stroke-width: 0.50; fill: none;"/>
<path d="M 237.60,125.80 L 237.60,129.80 " style="stroke: #6b59cc; stroke-width: 0.50; fill: none;"/>
<path d="M 36.00,122.40 L 64.80,122.40 L 93.60,122.40 L 122.40,122.40 L 151.20,122.40 L 180.00,122.40 L 208.80,122.40 L 237.60,122.40 " style="stroke: #ef7f7f; stroke-width: 0.50; fill: none;"/>
<path d="M 34.00,124.40 L 38.00,120.40 " style="stroke: #ef7f7f; stroke-width: 0.50; fill: none;"/>
<path d="M 34.00,120.40 L 38.00,124.40 " style="stroke: #ef7f7f; stroke-width: 0.50; fill: none;"/>
<path d="M 34.00,122.40 L 38.00,122.40 " style="stroke: #ef7f7f; stroke-width: 0.50; fill: none;"/>
<path d="M 36.00,120.40 L 36.00,124.40 " style="stroke: #ef7f7f; stroke-width: 0.50; fill: none;"/>
<path d="M 62.80,124.40 L 66.80,120.40 " style="stroke: #ef7f7f; stroke-width: 0.50; fill: none;"/>
<path d="M 62.80,120.40 L 66.80,124.40 " style="stroke: #ef7f7f; stroke-width: 0.50; fill: none;"/>
<path d="M 62.80,122.40 L 66.80,122.40 " style="stroke: #ef7f7f; stroke-width: 0.50; fill: none;"/>
<path d="M 64.80,120.40 L 64.80,124.40 " style="stroke: #ef7f7f; stroke-width: 0.50; fill: none;"/>
<path d="M 91.60,124.40 L 95.60,120.40 " style="stroke: #ef7f7f; stroke-width: 0.50; fill: none;"/>
<path d="M 91.60,120.40 L 95.60,124.40 " style="stroke: #ef7f7f; stroke-width: 0.50; fill: none;"/>
<path d="M 91.60,122.40 L 95.60,122.40 " style="stroke: #ef7f7f; stroke-width: 0.50; fill: none;"/>
<path d="M 93.60,120.40 L 93.60,124.40 " style="stroke: #ef7f7f; stroke-width: 0.50; fill: none;"/>
<path d="M 120.40,124.40 L 124.40,120.40 " style="stroke: #ef7f7f; stroke-width: 0.50; fill: none;"/>
<path d="M 120.40,120.40 L 124.40,124.40 " style="stroke: #ef7f7f; stroke-width: 0.50; fill: none;"/>
<path d="M 120.40,122.40 L 124.40,122.40 " style="stroke: #ef7f7f; stroke-width: 0.50; fill: none;"/>
<path d="M 122.40,120.40 L 122.40,124.40 " style="stroke: #ef7f7f; stroke-width: 0.50; fill: none;"/>
<path d="M 149.20,124.40 L 153.20,120.40 " style="stroke: #ef7f7f; stroke-width: 0.50; fill: none;"/>
<path d="M 149.20,120.40 L 153.20,124.40 " style="stroke: #ef7f7f; stroke-width: 0.50; fill: none;"/>
<path d="M 149.20,122.40 L 153.20,122.40 " style="stroke: #ef7f7f; stroke-width: 0.50; fill: none;"/>
<path d="M 151.20,120.40 L 151.20,124.40 " style="stroke: #ef7f7f; stroke-width: 0.50; fill: none;"/>
<path d="M 178.00,124.40 L 182.00,120.40 " style="stroke: #ef7f7f; stroke-width: 0.50; fill: none;"/>
<path d="M 178.00,120.40 L 182.00,124.40 " style="stroke: #ef7f7f; stroke-width: 0.50; fill: none;"/>
<path d="M 178.00,122.40 L 182.00,122.40 " style="stroke: #ef7f7f; stroke-width: 0.50; fill: none;"/>
<path d="M 180.00,120.40 L 180.00,124.40 " style="stroke: #ef7f7f; stroke-width: 0.50; fill: none;"/>
<path d="M 206.80,124.40 L 210.80,120.40 " style="stroke: #ef7f7f; stroke-width: 0.50; fill: none;"/>
<path d="M 206.80,120.40 L 210.80,124.40 " style="stroke: #ef7f7f; stroke-width: 0.50; fill: none;"/>
<path d="M 206.80,122.40 L 210.80,122.40 " style="stroke: #ef7f7f; stroke-width: 0.50; fill: none;"/>
<path d="M 208.80,120.40 L 208.80,124.40 " style="stroke: #ef7f7f; stroke-width: 0.50; fill: none;"/>
<path d="M 235.60,124.40 L 239.60,120.40 " style="stroke: #ef7f7f; stroke-width: 0.50; fill: none;"/>
<path d="M 235.60,120.40 L 239.60,124.40 " style="stroke: #ef7f7f; stroke-width: 0.50; fill: none;"/>
<path d="M 235.60,122.40 L 239.60,122.40 " style="stroke: #ef7f7f; stroke-width: 0.50; fill: none;"/>
<path d="M 237.60,120.40 L 237.60,124.40 " style="stroke: #ef7f7f; stroke-width: 0.50; fill: none;"/>
<path d="M 36.00,117.00 L 64.80,117.00 L 93.60,117.00 L 122.40,117.00 L 151.20,117.00 L 180.00,117.00 L 208.80,117.00 L 237.60,117.00 " style="stroke: #ff0000; stroke-width: 0.50; fill: none;"/>
<path d="M 34.00,119.00 L 34.00,115.00 L 38.00,115.00 L 38.00,119.00 Z" style="stroke: #ff0000; stroke-width: 0.50; fill: none;"/>
<path d="M 62.80,119.00 L 62.80,115.00 L 66.80,115.00 L 66.80,119.00 Z" style="stroke: #ff0000; stroke-width: 0.50; fill: none;"/>
<path d="M 91.60,119.00 L 91.60,115.00 L 95.60,115.00 L 95.60,119.00 Z" style="stroke: #ff0000; stroke-width: 0.50; fill: none;"/>
<path d="M 120.40,119.00 L 120.40,115.00 L 124.40,115.00 L 124.40,119.00 Z" style="stroke: #ff0000; stroke-width: 0.50; fill: none;"/>
<path d="M 149.20,119.00 L 149.20,115.00 L 153.20,115.00 L 153.20,119.00 Z" style="stroke: #ff0000; stroke-width: 0.50; fill: none;"/>
<path d="M 178.00,119.00 L 178.00,115.00 L 182.00,115.00 L 182.00,119.00 Z" style="stroke: #ff0000; stroke-width: 0.50; fill: none;"/>
<path d="M 206.80,119.00 L 206.80,115.00 L 210.80,115.00 L 210.80,119.00 Z" style="stroke: #ff0000; stroke-width: 0.50; fill: none;"/>
<path d="M 235.60,119.00 L 235.60,115.00 L 239.60,115.00 L 239.60,119.00 Z" style="stroke: #ff0000; stroke-width: 0.50; fill: none;"/>
<path d="M 36.00,111.60 L 64.80,111.60 L 93.60,111.60 L 122.40,111.60 L 151.20,111.60 L 180.00,111.60 L 208.80,111.60 L 237.60,111.60 " style="stroke: #007f00; stroke-width: 0.50; fill: none;"/>
<circle cx="36.00" cy="111.60" r="2.00" style="stroke: #007f00; stroke-width: 0.50; fill: none;"/>
<circle cx="64.80" cy="111.60" r="2.00" style="stroke: #007f00; stroke-width: 0.50; fill: none;"/>
<circle cx="93.60" cy="111.60" r="2.00" style="stroke: #007f00; stroke-width: 0.50; fill: none;"/>
<circle cx="122.40" cy="111.60" r="2.00" style="stroke: #007f00; stroke-width: 0.50; fill: none;"/>
<circle cx="151.20" cy="111.60" r="2.00" style="stroke: #007f00; stroke-width: 0.50; fill: none;"/>
<circle cx="180.00" cy="111.60" r="2.00" style="stroke: #007f00; stroke-width: 0.50; fill: none;"/>
<circle cx="208.80" cy="111.60" r="2.00" style="stroke: #007f00; stroke-width: 0.50; fill: none;"/>
<circle cx="237.60" cy="111.60" r="2.00" style="stroke: #007f00; stroke-width: 0.50; fill: none;"/>
<path d="M 36.00,106.20 L 64.80,106.20 L 93.60,106.20 L 122.40,106.20 L 151.20,106.20 L 180.00,106.20 L 208.80,106.20 L 237.60,106.20 " style="stroke: #a52828; stroke-width: 0.50; fill: none;"/>
<path d="M 34.00,108.20 L 36.00,104.20 L 38.00,108.20 Z" style="stroke: #a52828; stroke-width: 0.50; fill: none;"/>
<path d="M 62.80,108.20 L 64.80,104.20 L 66.80,108.20 Z" style="stroke: #a52828; stroke-width: 0.50; fill: none;"/>
<path d="M 91.60,108.20 L 93.60,104.20 L 95.60,108.20 Z" style="stroke: #a52828; stroke-width: 0.50; fill: none;"/>
<path d="M 120.40,108.20 L 122.40,104.20 L 124.40,108.20 Z" style="stroke: #a52828; stroke-width: 0.50; fill: none;"/>
<path d="M 149.20,108.20 L 151.20,104.20 L 153.20,108.20 Z" style="stroke: #a52828; stroke-width: 0.50; fill: none;"/>
<path d="M 178.00,108.20 L 180.00,104.20 L 182.00,108.20 Z" style="stroke: #a52828; stroke-width: 0.50; fill: none;"/>
<path d="M 206.80,108.20 L 208.80,104.20 L 210.80,108.20 Z" style="stroke: #a52828; stroke-width: 0.50; fill: none;"/>
<path d="M 235.60,108.20 L 237.60,104.20 L 239.60,108.20 Z" style="stroke: #a52828; stroke-width: 0.50; fill: none;"/>
<path d="M 36.00,100.80 L 64.80,100.80 L 93.60,100.80 L 122.40,100.80 L 151.20,100.80 L 180.00,100.80 L 208.80,100.80 L 237.60,100.80 " style="stroke: #000000; stroke-width: 0.50; fill: none;"/>
<path d="M 34.00,98.80 L 36.00,102.80 L 38.00,98.80 Z" style="stroke: #000000; stroke-width: 0.50; fill: none;"/>
<path d="M 62.80,98.80 L 64.80,102.80 L 66.80,98.80 Z" style="stroke: #000000; stroke-width: 0.50; fill: none;"/>
<path d="M 91.60,98.80 L 93.60,102.80 L 95.60,98.80 Z" style="stroke: #000000; stroke-width: 0.50; fill: none;"/>
<path d="M 120.40,98.80 L 122.40,102.80 L 124.40,98.80 Z" style="stroke: #000000; stroke-width: 0.50; fill: none;"/>
<path d="M 149.20,98.80 L 151.20,102.80 L 153.20,98.80 Z" style="stroke: #000000; stroke-width: 0.50; fill: none;"/>
<path d="M 178.00,98.80 L 180.00,102.80 L 182.00,98.80 Z" style="stroke: #000000; stroke-width: 0.50; fill: none;"/>
<path d="M 206.80,98.80 L 208.80,102.80 L 210.80,98.80 Z" style="stroke: #000000; stroke-width: 0.50; fill: none;"/>
<path d="M 235.60,98.80 L 237.60,102.80 L 239.60,98.80 Z" style="stroke: #000000; stroke-width: 0.50; fill: none;"/>
<path d="M 36.00,95.40 L 64.80,95.40 L 93.60,95.40 L 122.40,95.40 L 151.20,95.40 L 180.00,95.40 L 208.80,95.40 L 237.60,95.40 " style="stroke: #7f7f7f; stroke-width: 0.50; fill: none;"/>
<path d="M 34.00,95.40 L 36.00,93.40 L 38.00,95.40 L 36.00,97.40 Z" style="stroke: #7f7f7f; stroke-width: 0.50; fill: none;"/>
<path d="M 62.80,95.40 L 64.80,93.40 L 66.80,95.40 L 64.80,97.40 Z" style="stroke: #7f7f7f; stroke-width: 0.50; fill: none;"/>
<path d="M 91.60,95.40 L 93.60,93.40 L 95.60,95.40 L 93.60,97.40 Z" style="stroke: #7f7f7f; stroke-width: 0.50; fill: none;"/>
<path d="M 120.40,95.40 L 122.40,93.40 L 124.40,95.40 L 122.40,97.40 Z" style="stroke: #7f7f7f; stroke-width: 0.50; fill: none;"/>
<path d="M 149.20,95.40 L 151.20,93.40 L 153.20,95.40 L 151.20,97.40 Z" style="stroke: #7f7f7f; stroke-width: 0.50; fill: none;"/>
<path d="M 178.00,95.40 L 180.00,93.40 L 182.00,95.40 L 180.00,97.40 Z" style="stroke: #7f7f7f; stroke-width: 0.50; fill: none;"/>
<path d="M 206.80,95.40 L 208.80,93.40 L 210.80,95.40 L 208.80,97.40 Z" style="stroke: #7f7f7f; stroke-width: 0.50; fill: none;"/>
<path d="M 235.60,95.40 L 237.60,93.40 L 239.60,95.40 L 237.60,97.40 Z" style="stroke: #7f7f7f; stroke-width: 0.50; fill: none;"/>
<path d="M 36.00,90.00 L 64.80,90.00 L 93.60,90.00 L 122.40,90.00 L 151.20,90.00 L 180.00,90.00 L 208.80,90.00 L 237.60,90.00 " style="stroke: #008c8c; stroke-width: 0.50; fill: none;"/>
<path d="M 34.00,92.00 L 38.00,88.00 " style="stroke: #008c8c; stroke-width: 0.50; fill: none;"/>
<path d="M 62.80,92.00 L 66.80,88.00 " style="stroke: #008c8c; stroke-width: 0.50; fill: none;"/>
<path d="M 91.60,92.00 L 95.60,88.00 " style="stroke: #008c8c; stroke-width: 0.50; fill: none;"/>
<path d="M 120.40,92.00 L 124.40,88.00 " style="stroke: #008c8c; stroke-width: 0.50; fill: none;"/>
<path d="M 149.20,92.00 L 153.20,88.00 " style="stroke: #008c8c; stroke-width: 0.50; fill: none;"/>
<path d="M 178.00,92.00 L 182.00,88.00 " style="stroke: #008c8c; stroke-width: 0.50; fill: none;"/>
<path d="M 206.80,92.00 L 210.80,88.00 " style="stroke: #008c8c; stroke-width: 0.50; fill: none;"/>
<path d="M 235.60,92.00 L 239.60,88.00 " style="stroke: #008c8c; stroke-width: 0.50; fill: none;"/>
<path d="M 36.00,84.60 L 64.80,84.60 L 93.60,84.60 L 122.40,84.60 L 151.20,84.60 L 180.00,84.60 L 208.80,84.60 L 237.60,84.60 " style="stroke: #b7870a; stroke-width: 0.50; fill: none;"/>
<path d="M 34.00,82.60 L 38.00,86.60 " style="stroke: #b7870a; stroke-width: 0.50; fill: none;"/>
<path d="M 62.80,82.60 L 66.80,86.60 " style="stroke: #b7870a; stroke-width: 0.50; fill: none;"/>
<path d="M 91.60,82.60 L 95.60,86.60 " style="stroke: #b7870a; stroke-width: 0.50; fill: none;"/>
<path d="M 120.40,82.60 L 124.40,86.60 " style="stroke: #b7870a; stroke-width: 0.50; fill: none;"/>
<path d="M 149.20,82.60 L 153.20,86.60 " style="stroke: #b7870a; stroke-width: 0.50; fill: none;"/>
<path d="M 178.00,82.60 L 182.00,86.60 " style="stroke: #b7870a; stroke-width: 0.50; fill: none;"/>
<path d="M 206.80,82.60 L 210.80,86.60 " style="stroke: #b7870a; stroke-width: 0.50; fill: none;"/>
<path d="M 235.60,82.60 L 239.60,86.60 " style="stroke: #b7870a; stroke-width: 0.50; fill: none;"/>
<path d="M 41.76,42.10 L 41.76,37.10 L 46.76,37.10 L 46.76,42.10 Z" style="stroke: #ffa500; stroke-width: 0.50; fill: #ffa500;"/>
<path d="M 41.76,42.10 L 41.76,37.10 L 46.76,37.10 L 46.76,42.10 Z" style="stroke: #ffa500; stroke-width: 0.50; fill: none;"/>
<text x="50.76" y="39.60" style="font-family: default; font-size: 8; text-anchor: start; alignment-baseline: middle; "> square</text>
<path d="M 41.76,50.10 L 41.76,45.10 L 46.76,45.10 L 46.76,50.10 L 41.76,50.10 Z" style="stroke: #000000; stroke-width: 0.00; fill: #add8e5;" clip-path="url(#zplot_pattern_8)"/>
<circle cx="44.26" cy="47.60" r="2.50" style="stroke: #add8e5; stroke-width: 0.50; fill: none;"/>
<text x="50.76" y="47.60" style="font-family: default; font-size: 8; text-anchor: start; alignment-baseline: middle; "> circle</text>
<path d="M 41.76,58.10 L 44.26,53.10 L 46.76,58.10 Z" style="stroke: #00008c; stroke-width: 0.50; fill: #00008c;"/>
<path d="M 41.76,58.10 L 44.26,53.10 L 46.76,58.10 Z" style="stroke: #00008c; stroke-width: 0.50; fill: none;"/>
<text x="50.76" y="55.60" style="font-family: default; font-size: 8; text-anchor: start; alignment-baseline: middle; "> triangle</text>
<path d="M 41.76,61.10 L 44.26,66.10 L 46.76,61.10 Z" style="stroke: #6b8e23; stroke-width: 0.50; fill: #6b8e23;"/>
<path d="M 41.76,61.10 L 44.26,66.10 L 46.76,61.10 Z" style="stroke: #6b8e23; stroke-width: 0.50; fill: none;"/>
<text x="50.76" y="63.60" style="font-family: default; font-size: 8; text-anchor: start; alignment-baseline: middle; "> utriangle</text>
<path d="M 41.76,71.60 L 44.26,69.10 L 46.76,71.60 L 44.26,74.10 Z" style="stroke: #9370db; stroke-width: 0.50; fill: #9370db;"/>
<path d="M 41.76,71.60 L 44.26,69.10 L 46.76,71.60 L 44.26,74.10 Z" style="stroke: #9370db; stroke-width: 0.50; fill: none;"/>
<text x="50.76" y="71.60" style="font-family: default; font-size: 8; text-anchor: start; alignment-baseline: middle; "> diamond</text>
<path d="M 89.26,38.35 L 89.99,40.61 L 88.07,39.21 L 90.45,39.21 L 88.53,40.61 L 89.26,38.35 Z" style="stroke: #007f00; stroke-width: 0.50; fill: #007f00;"/>
<path d="M 89.26,38.35 L 89.99,40.61 L 88.07,39.21 L 90.45,39.21 L 88.53,40.61 L 89.26,38.35 Z" style="stroke: #007f00; stroke-width: 0.50; fill: none;"/>
<text x="95.76" y="39.60" style="font-family: default; font-size: 8; text-anchor: start; alignment-baseline: middle; "> star</text>
<path d="M 86.76,50.10 L 91.76,45.10 " style="stroke: #ffa07a; stroke-width: 0.50; fill: none;"/>
<path d="M 86.76,45.10 L 91.76,50.10 " style="stroke: #ffa07a; stroke-width: 0.50; fill: none;"/>
<text x="95.76" y="47.60" style="font-family: default; font-size: 8; text-anchor: start; alignment-baseline: middle; "> xline</text>
<path d="M 86.76,55.60 L 91.76,55.60 " style="stroke: #bc8e8e; stroke-width: 0.50; fill: none;"/>
<path d="M 89.26,53.10 L 89.26,58.10 " style="stroke: #bc8e8e; stroke-width: 0.50; fill: none;"/>
<text x="95.76" y="55.60" style="font-family: default; font-size: 8; text-anchor: start; alignment-baseline: middle; "> plusline</text>
<path d="M 86.76,63.60 L 91.76,63.60 " style="stroke: #ffe2e0; stroke-width: 0.50; fill: none;"/>
<text x="95.76" y="63.60" style="font-family: default; font-size: 8; text-anchor: start; alignment-baseline: middle; "> hline</text>
<path d="M 89.26,69.10 L 89.26,74.10 " style="stroke: #6b59cc; stroke-width: 0.50; fill: none;"/>
<text x="95.76" y="71.60" style="font-family: default; font-size: 8; text-anchor: start; alignment-baseline: middle; "> vline</text>
<path d="M 131.76,42.10 L 136.76,37.10 " style="stroke: #ef7f7f; stroke-width: 0.50; fill: none;"/>
<path d="M 131.76,37.10 L 136.76,42.10 " style="stroke: #ef7f7f; stroke-width: 0.50; fill: none;"/>
<path d="M 131.76,39.60 L 136.76,39.60 " style="stroke: #ef7f7f; stroke-width: 0.50; fill: none;"/>
<path d="M 134.26,37.10 L 134.26,42.10 " style="stroke: #ef7f7f; stroke-width: 0.50; fill: none;"/>
<text x="140.76" y="39.60" style="font-family: default; font-size: 8; text-anchor: start; alignment-baseline: middle; "> asterisk</text>
<path d="M 131.76,50.10 L 131.76,45.10 L 136.76,45.10 L 136.76,50.10 Z" style="stroke: #ff0000; stroke-width: 0.50; fill: none;"/>
<text x="140.76" y="47.60" style="font-family: default; font-size: 8; text-anchor: start; alignment-baseline: middle; "> square</text>
<circle cx="134.26" cy="55.60" r="2.50" style="stroke: #007f00; stroke-width: 0.50; fill: none;"/>
<text x="140.76" y="55.60" style="font-family: default; font-size: 8; text-anchor: start; alignment-baseline: middle; "> circle</text>
<path d="M 131.76,66.10 L 134.26,61.10 L 136.76,66.10 Z" style="stroke: #a52828; stroke-width: 0.50; fill: none;"/>
<text x="140.76" y="63.60" style="font-family: default; font-size: 8; text-anchor: start; alignment-baseline: middle; "> triangle</text>
<path d="M 131.76,69.10 L 134.26,74.10 L 136.76,69.10 Z" style="stroke: #000000; stroke-width: 0.50; fill: none;"/>
<text x="140.76" y="71.60" style="font-family: default; font-size: 8; text-anchor: start; alignment-baseline: middle; "> utriangle</text>
<path d="M 176.76,39.60 L 179.26,37.10 L 181.76,39.60 L 179.26,42.10 Z" style="stroke: #7f7f7f; stroke-width: 0.50; fill: none;"/>
<text x="185.76" y="39.60" style="font-family: default; font-size: 8; text-anchor: start; alignment-baseline: middle; "> diamond</text>
<path d="M 176.76,50.10 L 181.76,45.10 " style="stroke: #008c8c; stroke-width: 0.50; fill: none;"/>
<text x="185.76" y="47.60" style="font-family: default; font-size: 8; text-anchor: start; alignment-baseline: middle; "> dline1</text>
<path d="M 176.76,53.10 L 181.76,58.10 " style="stroke: #b7870a; stroke-width: 0.50; fill: none;"/>
<text x="185.76" y="55.60" style="font-family: default; font-size: 8; text-anchor: start; alignment-baseline: middle; "> dline2</text>
</svg>
