<!-- Creator: zplot version python version 1.3 script: /Users/remzi/Projects/Zplot/z-plot/zplot/zplot.pyc host: Remzis-MacBook-Pro.local -->
<!-- Include into html file with following line: -->
<!-- <img width="252.00" height="212.40" src="examples.svg"> -->
<svg xmlns="http://www.w3.org/2000/svg" xmlns:xlink="http://www.w3.org/1999/xlink" width="252.00" height="212.40">
<defs>


</defs>
<path d="M 35.75,176.40 L 237.85,176.40 " stroke="#000000" stroke-width="0.50px" fill="none" ></path>
<path d="M 36.00,176.65 L 36.00,32.15 " stroke="#000000" stroke-width="0.50px" fill="none" ></path>
<path d="M 35.75,32.40 L 237.85,32.40 " stroke="#000000" stroke-width="0.50px" fill="none" ></path>
<path d="M 237.60,176.65 L 237.60,32.15 " stroke="#000000" stroke-width="0.50px" fill="none" ></path>
<path d="M 36.00,178.40 L 36.00,174.40 " stroke="#000000" stroke-width="0.50px" fill="none" ></path>
<path d="M 64.80,178.40 L 64.80,174.40 " stroke="#000000" stroke-width="0.50px" fill="none" ></path>
<path d="M 93.60,178.40 L 93.60,174.40 " stroke="#000000" stroke-width="0.50px" fill="none" ></path>
<path d="M 122.40,178.40 L 122.40,174.40 " stroke="#000000" stroke-width="0.50px" fill="none" ></path>
<path d="M 151.20,178.40 L 151.20,174.40 " stroke="#000000" stroke-width="0.50px" fill="none" ></path>
<path d="M 180.00,178.40 L 180.00,174.40 " stroke="#000000" stroke-width="0.50px" fill="none" ></path>
<path d="M 208.80,178.40 L 208.80,174.40 " stroke="#000000" stroke-width="0.50px" fill="none" ></path>
<path d="M 237.60,178.40 L 237.60,174.40 " stroke="#000000" stroke-width="0.50px" fill="none" ></path>
<path d="M 36.00,34.40 L 36.00,30.40 " stroke="#000000" stroke-width="0.50px" fill="none" ></path>
<path d="M 64.80,34.40 L 64.80,30.40 " stroke="#000000" stroke-width="0.50px" fill="none" ></path>
<path d="M 93.60,34.40 L 93.60,30.40 " stroke="#000000" stroke-width="0.50px" fill="none" ></path>
<path d="M 122.40,34.40 L 122.40,30.40 " stroke="#000000" stroke-width="0.50px" fill="none" ></path>
<path d="M 151.20,34.40 L 151.20,30.40 " stroke="#000000" stroke-width="0.50px" fill="none" ></path>
<path d="M 180.00,34.40 L 180.00,30.40 " stroke="#000000" stroke-width="0.50px" fill="none" ></path>
<path d="M 208.80,34.40 L 208.80,30.40 " stroke="#000000" stroke-width="0.50px" fill="none" ></path>
<path d="M 237.60,34.40 L 237.60,30.40 " stroke="#000000" stroke-width="0.50px" fill="none" ></path>
<path d="M 34.00,176.40 L 38.00,176.40 " stroke="#000000" stroke-width="0.50px" fill="none" ></path>
<path d="M 34.00,140.40 L 38.00,140.40 " stroke="#000000" stroke-width="0.50px" fill="none" ></path>
<path d="M 34.00,104.40 L 38.00,104.40 " stroke="#000000" stroke-width="0.50px" fill="none" ></path>
<path d="M 34.00,68.40 L 38.00,68.40 " stroke="#000000" stroke-width="0.50px" fill="none" ></path>
<path d="M 34.00,32.40 L 38.00,32.40 " stroke="#000000" stroke-width="0.50px" fill="none" ></path>
<path d="M 235.60,176.40 L 239.60,176.40 " stroke="#000000" stroke-width="0.50px" fill="none" ></path>
<path d="M 235.60,140.40 L 239.60,140.40 " stroke="#000000" stroke-width="0.50px" fill="none" ></path>
<path d="M 235.60,104.40 L 239.60,104.40 " stroke="#000000" stroke-width="0.50px" fill="none" ></path>
<path d="M 235.60,68.40 L 239.60,68.40 " stroke="#000000" stroke-width="0.50px" fill="none" ></path>
<path d="M 235.60,32.40 L 239.60,32.40 " stroke="#000000" stroke-width="0.50px" fill="none" ></path>
<text x="36.00" y="181.40" style="font-family: Helvetica; font-size: 10; fill: #000000; text-anchor: middle; alignment-baseline: hanging; "> 0</text>
<text x="64.80" y="181.40" style="font-family: Helvetica; font-size: 10; fill: #000000; text-anchor: middle; alignment-baseline: hanging; "> 1</text>
<text x="93.60" y="181.40" style="font-family: Helvetica; font-size: 10; fill: #000000; text-anchor: middle; alignment-baseline: hanging; "> 2</text>
<text x="122.40" y="181.40" style="font-family: Helvetica; font-size: 10; fill: #000000; text-anchor: middle; alignment-baseline: hanging; "> 3</text>
<text x="151.20" y="181.40" style="font-family: Helvetica; font-size: 10; fill: #000000; text-anchor: middle; alignment-baseline: hanging; "> 4</text>
<text x="180.00" y="181.40" style="font-family: Helvetica; font-size: 10; fill: #000000; text-anchor: middle; alignment-baseline: hanging; "> 5</text>
<text x="208.80" y="181.40" style="font-family: Helvetica; font-size: 10; fill: #000000; text-anchor: middle; alignment-baseline: hanging; "> 6</text>
<text x="237.60" y="181.40" style="font-family: Helvetica; font-size: 10; fill: #000000; text-anchor: middle; alignment-baseline: hanging; "> 7</text>
<text x="31.00" y="176.40" style="font-family: Helvetica; font-size: 10; fill: #000000; text-anchor: end; alignment-baseline: middle; "> 0</text>
<text x="31.00" y="140.40" style="font-family: Helvetica; font-size: 10; fill: #000000; text-anchor: end; alignment-baseline: middle; "> 5</text>
<text x="31.00" y="104.40" style="font-family: Helvetica; font-size: 10; fill: #000000; text-anchor: end; alignment-baseline: middle; "> 10</text>
<text x="31.00" y="68.40" style="font-family: Helvetica; font-size: 10; fill: #000000; text-anchor: end; alignment-baseline: middle; "> 15</text>
<text x="31.00" y="32.40" style="font-family: Helvetica; font-size: 10; fill: #000000; text-anchor: end; alignment-baseline: middle; "> 20</text>
<text x="136.80" y="24.90" style="font-family: Helvetica; font-size: 10; fill: #000000; text-anchor: middle; alignment-baseline: baseline; "> Example of Lines and Points</text>
<text x="136.80" y="194.40" style="font-family: Helvetica; font-size: 10; fill: #000000; text-anchor: middle; alignment-baseline: hanging; "> X title</text>
<text x="16.88" y="104.40" transform="rotate(-90.00 16.88,104.40)" style="font-family: Helvetica; font-size: 10; fill: #000000; text-anchor: middle; alignment-baseline: baseline; "> Y title</text>
<path d="M 34.75,176.40 L 37.25,176.40 " stroke="#000000" stroke-width="0.50px" fill="none" ></path>
<path d="M 34.75,167.40 L 37.25,167.40 " stroke="#000000" stroke-width="0.50px" fill="none" ></path>
<path d="M 34.75,158.40 L 37.25,158.40 " stroke="#000000" stroke-width="0.50px" fill="none" ></path>
<path d="M 34.75,149.40 L 37.25,149.40 " stroke="#000000" stroke-width="0.50px" fill="none" ></path>
<path d="M 34.75,140.40 L 37.25,140.40 " stroke="#000000" stroke-width="0.50px" fill="none" ></path>
<path d="M 34.75,131.40 L 37.25,131.40 " stroke="#000000" stroke-width="0.50px" fill="none" ></path>
<path d="M 34.75,122.40 L 37.25,122.40 " stroke="#000000" stroke-width="0.50px" fill="none" ></path>
<path d="M 34.75,113.40 L 37.25,113.40 " stroke="#000000" stroke-width="0.50px" fill="none" ></path>
<path d="M 34.75,104.40 L 37.25,104.40 " stroke="#000000" stroke-width="0.50px" fill="none" ></path>
<path d="M 34.75,95.40 L 37.25,95.40 " stroke="#000000" stroke-width="0.50px" fill="none" ></path>
<path d="M 34.75,86.40 L 37.25,86.40 " stroke="#000000" stroke-width="0.50px" fill="none" ></path>
<path d="M 34.75,77.40 L 37.25,77.40 " stroke="#000000" stroke-width="0.50px" fill="none" ></path>
<path d="M 34.75,68.40 L 37.25,68.40 " stroke="#000000" stroke-width="0.50px" fill="none" ></path>
<path d="M 34.75,59.40 L 37.25,59.40 " stroke="#000000" stroke-width="0.50px" fill="none" ></path>
<path d="M 34.75,50.40 L 37.25,50.40 " stroke="#000000" stroke-width="0.50px" fill="none" ></path>
<path d="M 34.75,41.40 L 37.25,41.40 " stroke="#000000" stroke-width="0.50px" fill="none" ></path>
<path d="M 236.35,176.40 L 238.85,176.40 " stroke="#000000" stroke-width="0.50px" fill="none" ></path>
<path d="M 236.35,167.40 L 238.85,167.40 " stroke="#000000" stroke-width="0.50px" fill="none" ></path>
<path d="M 236.35,158.40 L 238.85,158.40 " stroke="#000000" stroke-width="0.50px" fill="none" ></path>
<path d="M 236.35,149.40 L 238.85,149.40 " stroke="#000000" stroke-width="0.50px" fill="none" ></path>
<path d="M 236.35,140.40 L 238.85,140.40 " stroke="#000000" stroke-width="0.50px" fill="none" ></path>
<path d="M 236.35,131.40 L 238.85,131.40 " stroke="#000000" stroke-width="0.50px" fill="none" ></path>
<path d="M 236.35,122.40 L 238.85,122.40 " stroke="#000000" stroke-width="0.50px" fill="none" ></path>
<path d="M 236.35,113.40 L 238.85,113.40 " stroke="#000000" stroke-width="0.50px" fill="none" ></path>
<path d="M 236.35,104.40 L 238.85,104.40 " stroke="#000000" stroke-width="0.50px" fill="none" ></path>
<path d="M 236.35,95.40 L 238.85,95.40 " stroke="#000000" stroke-width="0.50px" fill="none" ></path>
<path d="M 236.35,86.40 L 238.85,86.40 " stroke="#000000" stroke-width="0.50px" fill="none" ></path>
<path d="M 236.35,77.40 L 238.85,77.40 " stroke="#000000" stroke-width="0.50px" fill="none" ></path>
<path d="M 236.35,68.40 L 238.85,68.40 " stroke="#000000" stroke-width="0.50px" fill="none" ></path>
<path d="M 236.35,59.40 L 238.85,59.40 " stroke="#000000" stroke-width="0.50px" fill="none" ></path>
<path d="M 236.35,50.40 L 238.85,50.40 " stroke="#000000" stroke-width="0.50px" fill="none" ></path>
<path d="M 236.35,41.40 L 238.85,41.40 " stroke="#000000" stroke-width="0.50px" fill="none" ></path>
<path d="M 36.00,176.40 L 64.80,176.40 L 93.60,176.40 L 122.40,176.40 L 151.20,176.40 L 180.00,176.40 L 208.80,176.40 L 237.60,176.40 " stroke="#ffa500" stroke-width="0.50px" fill="none" ></path>
<rect x="34.00" y="174.40" height="4.00" width="4.00" stroke="#ffa500" stroke-width="0.5" fill="#ffa500" ></rect>
<rect x="62.80" y="174.40" height="4.00" width="4.00" stroke="#ffa500" stroke-width="0.5" fill="#ffa500" ></rect>
<rect x="91.60" y="174.40" height="4.00" width="4.00" stroke="#ffa500" stroke-width="0.5" fill="#ffa500" ></rect>
<rect x="120.40" y="174.40" height="4.00" width="4.00" stroke="#ffa500" stroke-width="0.5" fill="#ffa500" ></rect>
<rect x="149.20" y="174.40" height="4.00" width="4.00" stroke="#ffa500" stroke-width="0.5" fill="#ffa500" ></rect>
<rect x="178.00" y="174.40" height="4.00" width="4.00" stroke="#ffa500" stroke-width="0.5" fill="#ffa500" ></rect>
<rect x="206.80" y="174.40" height="4.00" width="4.00" stroke="#ffa500" stroke-width="0.5" fill="#ffa500" ></rect>
<rect x="235.60" y="174.40" height="4.00" width="4.00" stroke="#ffa500" stroke-width="0.5" fill="#ffa500" ></rect>
<path d="M 36.00,171.00 L 64.80,171.00 L 93.60,171.00 L 122.40,171.00 L 151.20,171.00 L 180.00,171.00 L 208.80,171.00 L 237.60,171.00 " stroke="#add8e5" stroke-width="0.50px" fill="none" ></path>
<circle cx="36.00" cy="171.00" r="2.00" stroke="#add8e5" stroke-width="0.5" fill="#add8e5"></circle>
<circle cx="64.80" cy="171.00" r="2.00" stroke="#add8e5" stroke-width="0.5" fill="#add8e5"></circle>
<circle cx="93.60" cy="171.00" r="2.00" stroke="#add8e5" stroke-width="0.5" fill="#add8e5"></circle>
<circle cx="122.40" cy="171.00" r="2.00" stroke="#add8e5" stroke-width="0.5" fill="#add8e5"></circle>
<circle cx="151.20" cy="171.00" r="2.00" stroke="#add8e5" stroke-width="0.5" fill="#add8e5"></circle>
<circle cx="180.00" cy="171.00" r="2.00" stroke="#add8e5" stroke-width="0.5" fill="#add8e5"></circle>
<circle cx="208.80" cy="171.00" r="2.00" stroke="#add8e5" stroke-width="0.5" fill="#add8e5"></circle>
<circle cx="237.60" cy="171.00" r="2.00" stroke="#add8e5" stroke-width="0.5" fill="#add8e5"></circle>
<path d="M 36.00,165.60 L 64.80,165.60 L 93.60,165.60 L 122.40,165.60 L 151.20,165.60 L 180.00,165.60 L 208.80,165.60 L 237.60,165.60 " stroke="#00008c" stroke-width="0.50px" fill="none" ></path>
<polygon points="34.00,167.60 36.00,163.60 38.00,167.60 " stroke="#00008c" stroke-width="0.5" fill="#00008c" ></polygon>
<polygon points="62.80,167.60 64.80,163.60 66.80,167.60 " stroke="#00008c" stroke-width="0.5" fill="#00008c" ></polygon>
<polygon points="91.60,167.60 93.60,163.60 95.60,167.60 " stroke="#00008c" stroke-width="0.5" fill="#00008c" ></polygon>
<polygon points="120.40,167.60 122.40,163.60 124.40,167.60 " stroke="#00008c" stroke-width="0.5" fill="#00008c" ></polygon>
<polygon points="149.20,167.60 151.20,163.60 153.20,167.60 " stroke="#00008c" stroke-width="0.5" fill="#00008c" ></polygon>
<polygon points="178.00,167.60 180.00,163.60 182.00,167.60 " stroke="#00008c" stroke-width="0.5" fill="#00008c" ></polygon>
<polygon points="206.80,167.60 208.80,163.60 210.80,167.60 " stroke="#00008c" stroke-width="0.5" fill="#00008c" ></polygon>
<polygon points="235.60,167.60 237.60,163.60 239.60,167.60 " stroke="#00008c" stroke-width="0.5" fill="#00008c" ></polygon>
<path d="M 36.00,160.20 L 64.80,160.20 L 93.60,160.20 L 122.40,160.20 L 151.20,160.20 L 180.00,160.20 L 208.80,160.20 L 237.60,160.20 " stroke="#6b8e23" stroke-width="0.50px" fill="none" ></path>
<polygon points="34.00,158.20 36.00,162.20 38.00,158.20 " stroke="#6b8e23" stroke-width="0.5" fill="#6b8e23" ></polygon>
<polygon points="62.80,158.20 64.80,162.20 66.80,158.20 " stroke="#6b8e23" stroke-width="0.5" fill="#6b8e23" ></polygon>
<polygon points="91.60,158.20 93.60,162.20 95.60,158.20 " stroke="#6b8e23" stroke-width="0.5" fill="#6b8e23" ></polygon>
<polygon points="120.40,158.20 122.40,162.20 124.40,158.20 " stroke="#6b8e23" stroke-width="0.5" fill="#6b8e23" ></polygon>
<polygon points="149.20,158.20 151.20,162.20 153.20,158.20 " stroke="#6b8e23" stroke-width="0.5" fill="#6b8e23" ></polygon>
<polygon points="178.00,158.20 180.00,162.20 182.00,158.20 " stroke="#6b8e23" stroke-width="0.5" fill="#6b8e23" ></polygon>
<polygon points="206.80,158.20 208.80,162.20 210.80,158.20 " stroke="#6b8e23" stroke-width="0.5" fill="#6b8e23" ></polygon>
<polygon points="235.60,158.20 237.60,162.20 239.60,158.20 " stroke="#6b8e23" stroke-width="0.5" fill="#6b8e23" ></polygon>
<path d="M 36.00,154.80 L 64.80,154.80 L 93.60,154.80 L 122.40,154.80 L 151.20,154.80 L 180.00,154.80 L 208.80,154.80 L 237.60,154.80 " stroke="#9370db" stroke-width="0.50px" fill="none" ></path>
<polygon points="34.00,154.80 36.00,152.80 38.00,154.80 36.00,156.80 " stroke="#9370db" stroke-width="0.5" fill="#9370db" ></polygon>
<polygon points="62.80,154.80 64.80,152.80 66.80,154.80 64.80,156.80 " stroke="#9370db" stroke-width="0.5" fill="#9370db" ></polygon>
<polygon points="91.60,154.80 93.60,152.80 95.60,154.80 93.60,156.80 " stroke="#9370db" stroke-width="0.5" fill="#9370db" ></polygon>
<polygon points="120.40,154.80 122.40,152.80 124.40,154.80 122.40,156.80 " stroke="#9370db" stroke-width="0.5" fill="#9370db" ></polygon>
<polygon points="149.20,154.80 151.20,152.80 153.20,154.80 151.20,156.80 " stroke="#9370db" stroke-width="0.5" fill="#9370db" ></polygon>
<polygon points="178.00,154.80 180.00,152.80 182.00,154.80 180.00,156.80 " stroke="#9370db" stroke-width="0.5" fill="#9370db" ></polygon>
<polygon points="206.80,154.80 208.80,152.80 210.80,154.80 208.80,156.80 " stroke="#9370db" stroke-width="0.5" fill="#9370db" ></polygon>
<polygon points="235.60,154.80 237.60,152.80 239.60,154.80 237.60,156.80 " stroke="#9370db" stroke-width="0.5" fill="#9370db" ></polygon>
<path d="M 36.00,149.40 L 64.80,149.40 L 93.60,149.40 L 122.40,149.40 L 151.20,149.40 L 180.00,149.40 L 208.80,149.40 L 237.60,149.40 " stroke="#007f00" stroke-width="0.50px" fill="none" ></path>
<polygon points="36.00,148.40 36.59,150.21 35.05,149.09 36.95,149.09 35.41,150.21 36.00,148.40 " stroke="#007f00" stroke-width="0.5" fill="#007f00" ></polygon>
<polygon points="64.80,148.40 65.39,150.21 63.85,149.09 65.75,149.09 64.21,150.21 64.80,148.40 " stroke="#007f00" stroke-width="0.5" fill="#007f00" ></polygon>
<polygon points="93.60,148.40 94.19,150.21 92.65,149.09 94.55,149.09 93.01,150.21 93.60,148.40 " stroke="#007f00" stroke-width="0.5" fill="#007f00" ></polygon>
<polygon points="122.40,148.40 122.99,150.21 121.45,149.09 123.35,149.09 121.81,150.21 122.40,148.40 " stroke="#007f00" stroke-width="0.5" fill="#007f00" ></polygon>
<polygon points="151.20,148.40 151.79,150.21 150.25,149.09 152.15,149.09 150.61,150.21 151.20,148.40 " stroke="#007f00" stroke-width="0.5" fill="#007f00" ></polygon>
<polygon points="180.00,148.40 180.59,150.21 179.05,149.09 180.95,149.09 179.41,150.21 180.00,148.40 " stroke="#007f00" stroke-width="0.5" fill="#007f00" ></polygon>
<polygon points="208.80,148.40 209.39,150.21 207.85,149.09 209.75,149.09 208.21,150.21 208.80,148.40 " stroke="#007f00" stroke-width="0.5" fill="#007f00" ></polygon>
<polygon points="237.60,148.40 238.19,150.21 236.65,149.09 238.55,149.09 237.01,150.21 237.60,148.40 " stroke="#007f00" stroke-width="0.5" fill="#007f00" ></polygon>
<path d="M 36.00,144.00 L 64.80,144.00 L 93.60,144.00 L 122.40,144.00 L 151.20,144.00 L 180.00,144.00 L 208.80,144.00 L 237.60,144.00 " stroke="#ffa07a" stroke-width="0.50px" fill="none" ></path>
<path d="M 34.00,146.00 L 38.00,142.00 " stroke="#ffa07a" stroke-width="0.50px" fill="none" ></path>
<path d="M 34.00,142.00 L 38.00,146.00 " stroke="#ffa07a" stroke-width="0.50px" fill="none" ></path>
<path d="M 62.80,146.00 L 66.80,142.00 " stroke="#ffa07a" stroke-width="0.50px" fill="none" ></path>
<path d="M 62.80,142.00 L 66.80,146.00 " stroke="#ffa07a" stroke-width="0.50px" fill="none" ></path>
<path d="M 91.60,146.00 L 95.60,142.00 " stroke="#ffa07a" stroke-width="0.50px" fill="none" ></path>
<path d="M 91.60,142.00 L 95.60,146.00 " stroke="#ffa07a" stroke-width="0.50px" fill="none" ></path>
<path d="M 120.40,146.00 L 124.40,142.00 " stroke="#ffa07a" stroke-width="0.50px" fill="none" ></path>
<path d="M 120.40,142.00 L 124.40,146.00 " stroke="#ffa07a" stroke-width="0.50px" fill="none" ></path>
<path d="M 149.20,146.00 L 153.20,142.00 " stroke="#ffa07a" stroke-width="0.50px" fill="none" ></path>
<path d="M 149.20,142.00 L 153.20,146.00 " stroke="#ffa07a" stroke-width="0.50px" fill="none" ></path>
<path d="M 178.00,146.00 L 182.00,142.00 " stroke="#ffa07a" stroke-width="0.50px" fill="none" ></path>
<path d="M 178.00,142.00 L 182.00,146.00 " stroke="#ffa07a" stroke-width="0.50px" fill="none" ></path>
<path d="M 206.80,146.00 L 210.80,142.00 " stroke="#ffa07a" stroke-width="0.50px" fill="none" ></path>
<path d="M 206.80,142.00 L 210.80,146.00 " stroke="#ffa07a" stroke-width="0.50px" fill="none" ></path>
<path d="M 235.60,146.00 L 239.60,142.00 " stroke="#ffa07a" stroke-width="0.50px" fill="none" ></path>
<path d="M 235.60,142.00 L 239.60,146.00 " stroke="#ffa07a" stroke-width="0.50px" fill="none" ></path>
<path d="M 36.00,138.60 L 64.80,138.60 L 93.60,138.60 L 122.40,138.60 L 151.20,138.60 L 180.00,138.60 L 208.80,138.60 L 237.60,138.60 " stroke="#bc8e8e" stroke-width="0.50px" fill="none" ></path>
<path d="M 34.00,138.60 L 38.00,138.60 " stroke="#bc8e8e" stroke-width="0.50px" fill="none" ></path>
<path d="M 36.00,136.60 L 36.00,140.60 " stroke="#bc8e8e" stroke-width="0.50px" fill="none" ></path>
<path d="M 62.80,138.60 L 66.80,138.60 " stroke="#bc8e8e" stroke-width="0.50px" fill="none" ></path>
<path d="M 64.80,136.60 L 64.80,140.60 " stroke="#bc8e8e" stroke-width="0.50px" fill="none" ></path>
<path d="M 91.60,138.60 L 95.60,138.60 " stroke="#bc8e8e" stroke-width="0.50px" fill="none" ></path>
<path d="M 93.60,136.60 L 93.60,140.60 " stroke="#bc8e8e" stroke-width="0.50px" fill="none" ></path>
<path d="M 120.40,138.60 L 124.40,138.60 " stroke="#bc8e8e" stroke-width="0.50px" fill="none" ></path>
<path d="M 122.40,136.60 L 122.40,140.60 " stroke="#bc8e8e" stroke-width="0.50px" fill="none" ></path>
<path d="M 149.20,138.60 L 153.20,138.60 " stroke="#bc8e8e" stroke-width="0.50px" fill="none" ></path>
<path d="M 151.20,136.60 L 151.20,140.60 " stroke="#bc8e8e" stroke-width="0.50px" fill="none" ></path>
<path d="M 178.00,138.60 L 182.00,138.60 " stroke="#bc8e8e" stroke-width="0.50px" fill="none" ></path>
<path d="M 180.00,136.60 L 180.00,140.60 " stroke="#bc8e8e" stroke-width="0.50px" fill="none" ></path>
<path d="M 206.80,138.60 L 210.80,138.60 " stroke="#bc8e8e" stroke-width="0.50px" fill="none" ></path>
<path d="M 208.80,136.60 L 208.80,140.60 " stroke="#bc8e8e" stroke-width="0.50px" fill="none" ></path>
<path d="M 235.60,138.60 L 239.60,138.60 " stroke="#bc8e8e" stroke-width="0.50px" fill="none" ></path>
<path d="M 237.60,136.60 L 237.60,140.60 " stroke="#bc8e8e" stroke-width="0.50px" fill="none" ></path>
<path d="M 36.00,133.20 L 64.80,133.20 L 93.60,133.20 L 122.40,133.20 L 151.20,133.20 L 180.00,133.20 L 208.80,133.20 L 237.60,133.20 " stroke="#ffe2e0" stroke-width="0.50px" fill="none" ></path>
<path d="M 34.00,133.20 L 38.00,133.20 " stroke="#ffe2e0" stroke-width="0.50px" fill="none" ></path>
<path d="M 62.80,133.20 L 66.80,133.20 " stroke="#ffe2e0" stroke-width="0.50px" fill="none" ></path>
<path d="M 91.60,133.20 L 95.60,133.20 " stroke="#ffe2e0" stroke-width="0.50px" fill="none" ></path>
<path d="M 120.40,133.20 L 124.40,133.20 " stroke="#ffe2e0" stroke-width="0.50px" fill="none" ></path>
<path d="M 149.20,133.20 L 153.20,133.20 " stroke="#ffe2e0" stroke-width="0.50px" fill="none" ></path>
<path d="M 178.00,133.20 L 182.00,133.20 " stroke="#ffe2e0" stroke-width="0.50px" fill="none" ></path>
<path d="M 206.80,133.20 L 210.80,133.20 " stroke="#ffe2e0" stroke-width="0.50px" fill="none" ></path>
<path d="M 235.60,133.20 L 239.60,133.20 " stroke="#ffe2e0" stroke-width="0.50px" fill="none" ></path>
<path d="M 36.00,127.80 L 64.80,127.80 L 93.60,127.80 L 122.40,127.80 L 151.20,127.80 L 180.00,127.80 L 208.80,127.80 L 237.60,127.80 " stroke="#6b59cc" stroke-width="0.50px" fill="none" ></path>
<path d="M 36.00,125.80 L 36.00,129.80 " stroke="#6b59cc" stroke-width="0.50px" fill="none" ></path>
<path d="M 64.80,125.80 L 64.80,129.80 " stroke="#6b59cc" stroke-width="0.50px" fill="none" ></path>
<path d="M 93.60,125.80 L 93.60,129.80 " stroke="#6b59cc" stroke-width="0.50px" fill="none" ></path>
<path d="M 122.40,125.80 L 122.40,129.80 " stroke="#6b59cc" stroke-width="0.50px" fill="none" ></path>
<path d="M 151.20,125.80 L 151.20,129.80 " stroke="#6b59cc" stroke-width="0.50px" fill="none" ></path>
<path d="M 180.00,125.80 L 180.00,129.80 " stroke="#6b59cc" stroke-width="0.50px" fill="none" ></path>
<path d="M 208.80,125.80 L 208.80,129.80 " stroke="#6b59cc" stroke-width="0.50px" fill="none" ></path>
<path d="M 237.60,125.80 L 237.60,129.80 " stroke="#6b59cc" stroke-width="0.50px" fill="none" ></path>
<path d="M 36.00,122.40 L 64.80,122.40 L 93.60,122.40 L 122.40,122.40 L 151.20,122.40 L 180.00,122.40 L 208.80,122.40 L 237.60,122.40 " stroke="#ef7f7f" stroke-width="0.50px" fill="none" ></path>
<path d="M 34.00,124.40 L 38.00,120.40 " stroke="#ef7f7f" stroke-width="0.50px" fill="none" ></path>
<path d="M 34.00,120.40 L 38.00,124.40 " stroke="#ef7f7f" stroke-width="0.50px" fill="none" ></path>
<path d="M 34.00,122.40 L 38.00,122.40 " stroke="#ef7f7f" stroke-width="0.50px" fill="none" ></path>
<path d="M 36.00,120.40 L 36.00,124.40 " stroke="#ef7f7f" stroke-width="0.50px" fill="none" ></path>
<path d="M 62.80,124.40 L 66.80,120.40 " stroke="#ef7f7f" stroke-width="0.50px" fill="none" ></path>
<path d="M 62.80,120.40 L 66.80,124.40 " stroke="#ef7f7f" stroke-width="0.50px" fill="none" ></path>
<path d="M 62.80,122.40 L 66.80,122.40 " stroke="#ef7f7f" stroke-width="0.50px" fill="none" ></path>
<path d="M 64.80,120.40 L 64.80,124.40 " stroke="#ef7f7f" stroke-width="0.50px" fill="none" ></path>
<path d="M 91.60,124.40 L 95.60,120.40 " stroke="#ef7f7f" stroke-width="0.50px" fill="none" ></path>
<path d="M 91.60,120.40 L 95.60,124.40 " stroke="#ef7f7f" stroke-width="0.50px" fill="none" ></path>
<path d="M 91.60,122.40 L 95.60,122.40 " stroke="#ef7f7f" stroke-width="0.50px" fill="none" ></path>
<path d="M 93.60,120.40 L 93.60,124.40 " stroke="#ef7f7f" stroke-width="0.50px" fill="none" ></path>
<path d="M 120.40,124.40 L 124.40,120.40 " stroke="#ef7f7f" stroke-width="0.50px" fill="none" ></path>
<path d="M 120.40,120.40 L 124.40,124.40 " stroke="#ef7f7f" stroke-width="0.50px" fill="none" ></path>
<path d="M 120.40,122.40 L 124.40,122.40 " stroke="#ef7f7f" stroke-width="0.50px" fill="none" ></path>
<path d="M 122.40,120.40 L 122.40,124.40 " stroke="#ef7f7f" stroke-width="0.50px" fill="none" ></path>
<path d="M 149.20,124.40 L 153.20,120.40 " stroke="#ef7f7f" stroke-width="0.50px" fill="none" ></path>
<path d="M 149.20,120.40 L 153.20,124.40 " stroke="#ef7f7f" stroke-width="0.50px" fill="none" ></path>
<path d="M 149.20,122.40 L 153.20,122.40 " stroke="#ef7f7f" stroke-width="0.50px" fill="none" ></path>
<path d="M 151.20,120.40 L 151.20,124.40 " stroke="#ef7f7f" stroke-width="0.50px" fill="none" ></path>
<path d="M 178.00,124.40 L 182.00,120.40 " stroke="#ef7f7f" stroke-width="0.50px" fill="none" ></path>
<path d="M 178.00,120.40 L 182.00,124.40 " stroke="#ef7f7f" stroke-width="0.50px" fill="none" ></path>
<path d="M 178.00,122.40 L 182.00,122.40 " stroke="#ef7f7f" stroke-width="0.50px" fill="none" ></path>
<path d="M 180.00,120.40 L 180.00,124.40 " stroke="#ef7f7f" stroke-width="0.50px" fill="none" ></path>
<path d="M 206.80,124.40 L 210.80,120.40 " stroke="#ef7f7f" stroke-width="0.50px" fill="none" ></path>
<path d="M 206.80,120.40 L 210.80,124.40 " stroke="#ef7f7f" stroke-width="0.50px" fill="none" ></path>
<path d="M 206.80,122.40 L 210.80,122.40 " stroke="#ef7f7f" stroke-width="0.50px" fill="none" ></path>
<path d="M 208.80,120.40 L 208.80,124.40 " stroke="#ef7f7f" stroke-width="0.50px" fill="none" ></path>
<path d="M 235.60,124.40 L 239.60,120.40 " stroke="#ef7f7f" stroke-width="0.50px" fill="none" ></path>
<path d="M 235.60,120.40 L 239.60,124.40 " stroke="#ef7f7f" stroke-width="0.50px" fill="none" ></path>
<path d="M 235.60,122.40 L 239.60,122.40 " stroke="#ef7f7f" stroke-width="0.50px" fill="none" ></path>
<path d="M 237.60,120.40 L 237.60,124.40 " stroke="#ef7f7f" stroke-width="0.50px" fill="none" ></path>
<path d="M 36.00,117.00 L 64.80,117.00 L 93.60,117.00 L 122.40,117.00 L 151.20,117.00 L 180.00,117.00 L 208.80,117.00 L 237.60,117.00 " stroke="#ff0000" stroke-width="0.50px" fill="none" ></path>
<rect x="34.00" y="115.00" height="4.00" width="4.00" stroke="#ff0000" stroke-width="0.5" fill="none" ></rect>
<rect x="62.80" y="115.00" height="4.00" width="4.00" stroke="#ff0000" stroke-width="0.5" fill="none" ></rect>
<rect x="91.60" y="115.00" height="4.00" width="4.00" stroke="#ff0000" stroke-width="0.5" fill="none" ></rect>
<rect x="120.40" y="115.00" height="4.00" width="4.00" stroke="#ff0000" stroke-width="0.5" fill="none" ></rect>
<rect x="149.20" y="115.00" height="4.00" width="4.00" stroke="#ff0000" stroke-width="0.5" fill="none" ></rect>
<rect x="178.00" y="115.00" height="4.00" width="4.00" stroke="#ff0000" stroke-width="0.5" fill="none" ></rect>
<rect x="206.80" y="115.00" height="4.00" width="4.00" stroke="#ff0000" stroke-width="0.5" fill="none" ></rect>
<rect x="235.60" y="115.00" height="4.00" width="4.00" stroke="#ff0000" stroke-width="0.5" fill="none" ></rect>
<path d="M 36.00,111.60 L 64.80,111.60 L 93.60,111.60 L 122.40,111.60 L 151.20,111.60 L 180.00,111.60 L 208.80,111.60 L 237.60,111.60 " stroke="#007f00" stroke-width="0.50px" fill="none" ></path>
<circle cx="36.00" cy="111.60" r="2.00" stroke="#007f00" stroke-width="0.5" fill="none"></circle>
<circle cx="64.80" cy="111.60" r="2.00" stroke="#007f00" stroke-width="0.5" fill="none"></circle>
<circle cx="93.60" cy="111.60" r="2.00" stroke="#007f00" stroke-width="0.5" fill="none"></circle>
<circle cx="122.40" cy="111.60" r="2.00" stroke="#007f00" stroke-width="0.5" fill="none"></circle>
<circle cx="151.20" cy="111.60" r="2.00" stroke="#007f00" stroke-width="0.5" fill="none"></circle>
<circle cx="180.00" cy="111.60" r="2.00" stroke="#007f00" stroke-width="0.5" fill="none"></circle>
<circle cx="208.80" cy="111.60" r="2.00" stroke="#007f00" stroke-width="0.5" fill="none"></circle>
<circle cx="237.60" cy="111.60" r="2.00" stroke="#007f00" stroke-width="0.5" fill="none"></circle>
<path d="M 36.00,106.20 L 64.80,106.20 L 93.60,106.20 L 122.40,106.20 L 151.20,106.20 L 180.00,106.20 L 208.80,106.20 L 237.60,106.20 " stroke="#a52828" stroke-width="0.50px" fill="none" ></path>
<polygon points="34.00,108.20 36.00,104.20 38.00,108.20 " stroke="#a52828" stroke-width="0.5" fill="none" ></polygon>
<polygon points="62.80,108.20 64.80,104.20 66.80,108.20 " stroke="#a52828" stroke-width="0.5" fill="none" ></polygon>
<polygon points="91.60,108.20 93.60,104.20 95.60,108.20 " stroke="#a52828" stroke-width="0.5" fill="none" ></polygon>
<polygon points="120.40,108.20 122.40,104.20 124.40,108.20 " stroke="#a52828" stroke-width="0.5" fill="none" ></polygon>
<polygon points="149.20,108.20 151.20,104.20 153.20,108.20 " stroke="#a52828" stroke-width="0.5" fill="none" ></polygon>
<polygon points="178.00,108.20 180.00,104.20 182.00,108.20 " stroke="#a52828" stroke-width="0.5" fill="none" ></polygon>
<polygon points="206.80,108.20 208.80,104.20 210.80,108.20 " stroke="#a52828" stroke-width="0.5" fill="none" ></polygon>
<polygon points="235.60,108.20 237.60,104.20 239.60,108.20 " stroke="#a52828" stroke-width="0.5" fill="none" ></polygon>
<path d="M 36.00,100.80 L 64.80,100.80 L 93.60,100.80 L 122.40,100.80 L 151.20,100.80 L 180.00,100.80 L 208.80,100.80 L 237.60,100.80 " stroke="#000000" stroke-width="0.50px" fill="none" ></path>
<polygon points="34.00,98.80 36.00,102.80 38.00,98.80 " stroke="#000000" stroke-width="0.5" fill="none" ></polygon>
<polygon points="62.80,98.80 64.80,102.80 66.80,98.80 " stroke="#000000" stroke-width="0.5" fill="none" ></polygon>
<polygon points="91.60,98.80 93.60,102.80 95.60,98.80 " stroke="#000000" stroke-width="0.5" fill="none" ></polygon>
<polygon points="120.40,98.80 122.40,102.80 124.40,98.80 " stroke="#000000" stroke-width="0.5" fill="none" ></polygon>
<polygon points="149.20,98.80 151.20,102.80 153.20,98.80 " stroke="#000000" stroke-width="0.5" fill="none" ></polygon>
<polygon points="178.00,98.80 180.00,102.80 182.00,98.80 " stroke="#000000" stroke-width="0.5" fill="none" ></polygon>
<polygon points="206.80,98.80 208.80,102.80 210.80,98.80 " stroke="#000000" stroke-width="0.5" fill="none" ></polygon>
<polygon points="235.60,98.80 237.60,102.80 239.60,98.80 " stroke="#000000" stroke-width="0.5" fill="none" ></polygon>
<path d="M 36.00,95.40 L 64.80,95.40 L 93.60,95.40 L 122.40,95.40 L 151.20,95.40 L 180.00,95.40 L 208.80,95.40 L 237.60,95.40 " stroke="#7f7f7f" stroke-width="0.50px" fill="none" ></path>
<polygon points="34.00,95.40 36.00,93.40 38.00,95.40 36.00,97.40 " stroke="#7f7f7f" stroke-width="0.5" fill="none" ></polygon>
<polygon points="62.80,95.40 64.80,93.40 66.80,95.40 64.80,97.40 " stroke="#7f7f7f" stroke-width="0.5" fill="none" ></polygon>
<polygon points="91.60,95.40 93.60,93.40 95.60,95.40 93.60,97.40 " stroke="#7f7f7f" stroke-width="0.5" fill="none" ></polygon>
<polygon points="120.40,95.40 122.40,93.40 124.40,95.40 122.40,97.40 " stroke="#7f7f7f" stroke-width="0.5" fill="none" ></polygon>
<polygon points="149.20,95.40 151.20,93.40 153.20,95.40 151.20,97.40 " stroke="#7f7f7f" stroke-width="0.5" fill="none" ></polygon>
<polygon points="178.00,95.40 180.00,93.40 182.00,95.40 180.00,97.40 " stroke="#7f7f7f" stroke-width="0.5" fill="none" ></polygon>
<polygon points="206.80,95.40 208.80,93.40 210.80,95.40 208.80,97.40 " stroke="#7f7f7f" stroke-width="0.5" fill="none" ></polygon>
<polygon points="235.60,95.40 237.60,93.40 239.60,95.40 237.60,97.40 " stroke="#7f7f7f" stroke-width="0.5" fill="none" ></polygon>
<path d="M 36.00,90.00 L 64.80,90.00 L 93.60,90.00 L 122.40,90.00 L 151.20,90.00 L 180.00,90.00 L 208.80,90.00 L 237.60,90.00 " stroke="#008c8c" stroke-width="0.50px" fill="none" ></path>
<path d="M 34.00,92.00 L 38.00,88.00 " stroke="#008c8c" stroke-width="0.50px" fill="none" ></path>
<path d="M 62.80,92.00 L 66.80,88.00 " stroke="#008c8c" stroke-width="0.50px" fill="none" ></path>
<path d="M 91.60,92.00 L 95.60,88.00 " stroke="#008c8c" stroke-width="0.50px" fill="none" ></path>
<path d="M 120.40,92.00 L 124.40,88.00 " stroke="#008c8c" stroke-width="0.50px" fill="none" ></path>
<path d="M 149.20,92.00 L 153.20,88.00 " stroke="#008c8c" stroke-width="0.50px" fill="none" ></path>
<path d="M 178.00,92.00 L 182.00,88.00 " stroke="#008c8c" stroke-width="0.50px" fill="none" ></path>
<path d="M 206.80,92.00 L 210.80,88.00 " stroke="#008c8c" stroke-width="0.50px" fill="none" ></path>
<path d="M 235.60,92.00 L 239.60,88.00 " stroke="#008c8c" stroke-width="0.50px" fill="none" ></path>
<path d="M 36.00,84.60 L 64.80,84.60 L 93.60,84.60 L 122.40,84.60 L 151.20,84.60 L 180.00,84.60 L 208.80,84.60 L 237.60,84.60 " stroke="#b7870a" stroke-width="0.50px" fill="none" ></path>
<path d="M 34.00,82.60 L 38.00,86.60 " stroke="#b7870a" stroke-width="0.50px" fill="none" ></path>
<path d="M 62.80,82.60 L 66.80,86.60 " stroke="#b7870a" stroke-width="0.50px" fill="none" ></path>
<path d="M 91.60,82.60 L 95.60,86.60 " stroke="#b7870a" stroke-width="0.50px" fill="none" ></path>
<path d="M 120.40,82.60 L 124.40,86.60 " stroke="#b7870a" stroke-width="0.50px" fill="none" ></path>
<path d="M 149.20,82.60 L 153.20,86.60 " stroke="#b7870a" stroke-width="0.50px" fill="none" ></path>
<path d="M 178.00,82.60 L 182.00,86.60 " stroke="#b7870a" stroke-width="0.50px" fill="none" ></path>
<path d="M 206.80,82.60 L 210.80,86.60 " stroke="#b7870a" stroke-width="0.50px" fill="none" ></path>
<path d="M 235.60,82.60 L 239.60,86.60 " stroke="#b7870a" stroke-width="0.50px" fill="none" ></path>
<rect x="41.76" y="37.10" height="5.00" width="5.00" stroke="#ffa500" stroke-width="0.5" fill="#ffa500" ></rect>
<text x="50.76" y="39.60" style="font-family: Helvetica; font-size: 8; fill: #000000; text-anchor: start; alignment-baseline: middle; "> square</text>
<circle cx="44.26" cy="47.60" r="2.50" stroke="#add8e5" stroke-width="0.5" fill="#add8e5"></circle>
<text x="50.76" y="47.60" style="font-family: Helvetica; font-size: 8; fill: #000000; text-anchor: start; alignment-baseline: middle; "> circle</text>
<polygon points="41.76,58.10 44.26,53.10 46.76,58.10 " stroke="#00008c" stroke-width="0.5" fill="#00008c" ></polygon>
<text x="50.76" y="55.60" style="font-family: Helvetica; font-size: 8; fill: #000000; text-anchor: start; alignment-baseline: middle; "> triangle</text>
<polygon points="41.76,61.10 44.26,66.10 46.76,61.10 " stroke="#6b8e23" stroke-width="0.5" fill="#6b8e23" ></polygon>
<text x="50.76" y="63.60" style="font-family: Helvetica; font-size: 8; fill: #000000; text-anchor: start; alignment-baseline: middle; "> utriangle</text>
<polygon points="41.76,71.60 44.26,69.10 46.76,71.60 44.26,74.10 " stroke="#9370db" stroke-width="0.5" fill="#9370db" ></polygon>
<text x="50.76" y="71.60" style="font-family: Helvetica; font-size: 8; fill: #000000; text-anchor: start; alignment-baseline: middle; "> diamond</text>
<polygon points="89.26,38.35 89.99,40.61 88.07,39.21 90.45,39.21 88.53,40.61 89.26,38.35 " stroke="#007f00" stroke-width="0.5" fill="#007f00" ></polygon>
<text x="95.76" y="39.60" style="font-family: Helvetica; font-size: 8; fill: #000000; text-anchor: start; alignment-baseline: middle; "> star</text>
<path d="M 86.76,50.10 L 91.76,45.10 " stroke="#ffa07a" stroke-width="0.50px" fill="none" ></path>
<path d="M 86.76,45.10 L 91.76,50.10 " stroke="#ffa07a" stroke-width="0.50px" fill="none" ></path>
<text x="95.76" y="47.60" style="font-family: Helvetica; font-size: 8; fill: #000000; text-anchor: start; alignment-baseline: middle; "> xline</text>
<path d="M 86.76,55.60 L 91.76,55.60 " stroke="#bc8e8e" stroke-width="0.50px" fill="none" ></path>
<path d="M 89.26,53.10 L 89.26,58.10 " stroke="#bc8e8e" stroke-width="0.50px" fill="none" ></path>
<text x="95.76" y="55.60" style="font-family: Helvetica; font-size: 8; fill: #000000; text-anchor: start; alignment-baseline: middle; "> plusline</text>
<path d="M 86.76,63.60 L 91.76,63.60 " stroke="#ffe2e0" stroke-width="0.50px" fill="none" ></path>
<text x="95.76" y="63.60" style="font-family: Helvetica; font-size: 8; fill: #000000; text-anchor: start; alignment-baseline: middle; "> hline</text>
<path d="M 89.26,69.10 L 89.26,74.10 " stroke="#6b59cc" stroke-width="0.50px" fill="none" ></path>
<text x="95.76" y="71.60" style="font-family: Helvetica; font-size: 8; fill: #000000; text-anchor: start; alignment-baseline: middle; "> vline</text>
<path d="M 131.76,42.10 L 136.76,37.10 " stroke="#ef7f7f" stroke-width="0.50px" fill="none" ></path>
<path d="M 131.76,37.10 L 136.76,42.10 " stroke="#ef7f7f" stroke-width="0.50px" fill="none" ></path>
<path d="M 131.76,39.60 L 136.76,39.60 " stroke="#ef7f7f" stroke-width="0.50px" fill="none" ></path>
<path d="M 134.26,37.10 L 134.26,42.10 " stroke="#ef7f7f" stroke-width="0.50px" fill="none" ></path>
<text x="140.76" y="39.60" style="font-family: Helvetica; font-size: 8; fill: #000000; text-anchor: start; alignment-baseline: middle; "> asterisk</text>
<rect x="131.76" y="45.10" height="5.00" width="5.00" stroke="#ff0000" stroke-width="0.5" fill="none" ></rect>
<text x="140.76" y="47.60" style="font-family: Helvetica; font-size: 8; fill: #000000; text-anchor: start; alignment-baseline: middle; "> square</text>
<circle cx="134.26" cy="55.60" r="2.50" stroke="#007f00" stroke-width="0.5" fill="none"></circle>
<text x="140.76" y="55.60" style="font-family: Helvetica; font-size: 8; fill: #000000; text-anchor: start; alignment-baseline: middle; "> circle</text>
<polygon points="131.76,66.10 134.26,61.10 136.76,66.10 " stroke="#a52828" stroke-width="0.5" fill="none" ></polygon>
<text x="140.76" y="63.60" style="font-family: Helvetica; font-size: 8; fill: #000000; text-anchor: start; alignment-baseline: middle; "> triangle</text>
<polygon points="131.76,69.10 134.26,74.10 136.76,69.10 " stroke="#000000" stroke-width="0.5" fill="none" ></polygon>
<text x="140.76" y="71.60" style="font-family: Helvetica; font-size: 8; fill: #000000; text-anchor: start; alignment-baseline: middle; "> utriangle</text>
<polygon points="176.76,39.60 179.26,37.10 181.76,39.60 179.26,42.10 " stroke="#7f7f7f" stroke-width="0.5" fill="none" ></polygon>
<text x="185.76" y="39.60" style="font-family: Helvetica; font-size: 8; fill: #000000; text-anchor: start; alignment-baseline: middle; "> diamond</text>
<path d="M 176.76,50.10 L 181.76,45.10 " stroke="#008c8c" stroke-width="0.50px" fill="none" ></path>
<text x="185.76" y="47.60" style="font-family: Helvetica; font-size: 8; fill: #000000; text-anchor: start; alignment-baseline: middle; "> dline1</text>
<path d="M 176.76,53.10 L 181.76,58.10 " stroke="#b7870a" stroke-width="0.50px" fill="none" ></path>
<text x="185.76" y="55.60" style="font-family: Helvetica; font-size: 8; fill: #000000; text-anchor: start; alignment-baseline: middle; "> dline2</text>
</svg>
