<!-- Include into html file with following line: -->
<!-- <img width="270.00" height="342.00" src="ggplot"> -->
<svg xmlns="http://www.w3.org/2000/svg" xmlns:xlink="http://www.w3.org/1999/xlink" width="270.00" height="342.00">
<defs>
</defs>
<path d="M 36.00,306.00 L 36.00,18.00 L 252.00,18.00 L 252.00,306.00 Z" style="stroke: #000000; stroke-width: 0.00; fill: #d3d3d3;"/>
<path d="M 36.00,306.00 L 252.00,306.00 " style="stroke: #d3d3d3; stroke-width: 1.00; fill: none;"/>
<path d="M 36.00,306.00 L 36.00,18.00 " style="stroke: #d3d3d3; stroke-width: 1.00; fill: none;"/>
<path d="M 86.87,310.00 L 86.87,306.00 " style="stroke: #d3d3d3; stroke-width: 1.00; fill: none;"/>
<path d="M 171.37,310.00 L 171.37,306.00 " style="stroke: #d3d3d3; stroke-width: 1.00; fill: none;"/>
<path d="M 32.00,39.13 L 36.00,39.13 " style="stroke: #d3d3d3; stroke-width: 1.00; fill: none;"/>
<text x="86.87" y="313.00" style="font-family: default; font-size: 8; text-anchor: middle; alignment-baseline: hanging; "> 0.01</text>
<text x="171.37" y="313.00" style="font-family: default; font-size: 8; text-anchor: middle; alignment-baseline: hanging; "> 0.1</text>
<text x="29.00" y="39.13" style="font-family: default; font-size: 8; text-anchor: end; alignment-baseline: middle; "> 1</text>
<text x="144.00" y="324.00" style="font-family: default; font-size: 10; text-anchor: middle; alignment-baseline: hanging; "> Radius</text>
<text x="21.55" y="162.00" transform="rotate(-90.00 21.55,162.00)" style="font-family: default; font-size: 10; text-anchor: middle; alignment-baseline: baseline; "> Scaled Temperature</text>
<path d="M 86.87,306.00 L 86.87,18.00 " style="stroke: #ffffff; stroke-width: 0.50; fill: none;"/>
<path d="M 171.37,306.00 L 171.37,18.00 " style="stroke: #ffffff; stroke-width: 0.50; fill: none;"/>
<path d="M 36.00,549.52 L 252.00,549.52 " style="stroke: #ffffff; stroke-width: 0.50; fill: none;"/>
<path d="M 36.00,39.13 L 252.00,39.13 " style="stroke: #ffffff; stroke-width: 0.50; fill: none;"/>
<path d="M 127.19,306.00 L 127.19,18.00 " style="stroke: #ffffff; stroke-width: 0.20; fill: none;"/>
<path d="M 211.68,306.00 L 211.68,18.00 " style="stroke: #ffffff; stroke-width: 0.20; fill: none;"/>
<path d="M 36.00,549.52 L 252.00,549.52 " style="stroke: #ffffff; stroke-width: 0.20; fill: none;"/>
<path d="M 36.00,39.13 L 252.00,39.13 " style="stroke: #ffffff; stroke-width: 0.20; fill: none;"/>
<path d="M 88.70,41.06 L 88.70,22.54 L 94.50,23.34 L 94.50,38.46 Z" style="stroke: #add8e5; stroke-width: 0.10; fill: #add8e5;"/>
<path d="M 88.70,41.06 L 88.70,22.54 L 94.50,23.34 L 94.50,38.46 Z" style="stroke: #add8e5; stroke-width: 0.10; fill: none;"/>
<path d="M 94.50,38.46 L 94.50,23.34 L 97.99,23.76 L 97.99,37.12 Z" style="stroke: #add8e5; stroke-width: 0.10; fill: #add8e5;"/>
<path d="M 94.50,38.46 L 94.50,23.34 L 97.99,23.76 L 97.99,37.12 Z" style="stroke: #add8e5; stroke-width: 0.10; fill: none;"/>
<path d="M 97.99,37.12 L 97.99,23.76 L 103.61,24.27 L 103.61,35.35 Z" style="stroke: #add8e5; stroke-width: 0.10; fill: #add8e5;"/>
<path d="M 97.99,37.12 L 97.99,23.76 L 103.61,24.27 L 103.61,35.35 Z" style="stroke: #add8e5; stroke-width: 0.10; fill: none;"/>
<path d="M 103.61,35.35 L 103.61,24.27 L 107.49,24.56 L 107.49,34.41 Z" style="stroke: #add8e5; stroke-width: 0.10; fill: #add8e5;"/>
<path d="M 103.61,35.35 L 103.61,24.27 L 107.49,24.56 L 107.49,34.41 Z" style="stroke: #add8e5; stroke-width: 0.10; fill: none;"/>
<path d="M 107.49,34.41 L 107.49,24.56 L 113.59,24.88 L 113.59,33.37 Z" style="stroke: #add8e5; stroke-width: 0.10; fill: #add8e5;"/>
<path d="M 107.49,34.41 L 107.49,24.56 L 113.59,24.88 L 113.59,33.37 Z" style="stroke: #add8e5; stroke-width: 0.10; fill: none;"/>
<path d="M 113.59,33.37 L 113.59,24.88 L 115.71,24.94 L 115.71,33.11 Z" style="stroke: #add8e5; stroke-width: 0.10; fill: #add8e5;"/>
<path d="M 113.59,33.37 L 113.59,24.88 L 115.71,24.94 L 115.71,33.11 Z" style="stroke: #add8e5; stroke-width: 0.10; fill: none;"/>
<path d="M 115.71,33.11 L 115.71,24.94 L 119.53,25.06 L 119.53,32.79 Z" style="stroke: #add8e5; stroke-width: 0.10; fill: #add8e5;"/>
<path d="M 115.71,33.11 L 115.71,24.94 L 119.53,25.06 L 119.53,32.79 Z" style="stroke: #add8e5; stroke-width: 0.10; fill: none;"/>
<path d="M 119.53,32.79 L 119.53,25.06 L 119.98,25.08 L 119.98,32.75 Z" style="stroke: #add8e5; stroke-width: 0.10; fill: #add8e5;"/>
<path d="M 119.53,32.79 L 119.53,25.06 L 119.98,25.08 L 119.98,32.75 Z" style="stroke: #add8e5; stroke-width: 0.10; fill: none;"/>
<path d="M 119.98,32.75 L 119.98,25.08 L 120.64,25.11 L 120.64,32.73 Z" style="stroke: #add8e5; stroke-width: 0.10; fill: #add8e5;"/>
<path d="M 119.98,32.75 L 119.98,25.08 L 120.64,25.11 L 120.64,32.73 Z" style="stroke: #add8e5; stroke-width: 0.10; fill: none;"/>
<path d="M 120.64,32.73 L 120.64,25.11 L 123.97,25.23 L 123.97,32.57 Z" style="stroke: #add8e5; stroke-width: 0.10; fill: #add8e5;"/>
<path d="M 120.64,32.73 L 120.64,25.11 L 123.97,25.23 L 123.97,32.57 Z" style="stroke: #add8e5; stroke-width: 0.10; fill: none;"/>
<path d="M 123.97,32.57 L 123.97,25.23 L 124.15,25.23 L 124.15,32.57 Z" style="stroke: #add8e5; stroke-width: 0.10; fill: #add8e5;"/>
<path d="M 123.97,32.57 L 123.97,25.23 L 124.15,25.23 L 124.15,32.57 Z" style="stroke: #add8e5; stroke-width: 0.10; fill: none;"/>
<path d="M 124.15,32.57 L 124.15,25.23 L 125.00,25.25 L 125.00,32.55 Z" style="stroke: #add8e5; stroke-width: 0.10; fill: #add8e5;"/>
<path d="M 124.15,32.57 L 124.15,25.23 L 125.00,25.25 L 125.00,32.55 Z" style="stroke: #add8e5; stroke-width: 0.10; fill: none;"/>
<path d="M 125.00,32.55 L 125.00,25.25 L 129.31,25.46 L 129.31,32.51 Z" style="stroke: #add8e5; stroke-width: 0.10; fill: #add8e5;"/>
<path d="M 125.00,32.55 L 125.00,25.25 L 129.31,25.46 L 129.31,32.51 Z" style="stroke: #add8e5; stroke-width: 0.10; fill: none;"/>
<path d="M 129.31,32.51 L 129.31,25.46 L 130.71,25.52 L 130.71,32.51 Z" style="stroke: #add8e5; stroke-width: 0.10; fill: #add8e5;"/>
<path d="M 129.31,32.51 L 129.31,25.46 L 130.71,25.52 L 130.71,32.51 Z" style="stroke: #add8e5; stroke-width: 0.10; fill: none;"/>
<path d="M 130.71,32.51 L 130.71,25.52 L 131.41,25.56 L 131.41,32.53 Z" style="stroke: #add8e5; stroke-width: 0.10; fill: #add8e5;"/>
<path d="M 130.71,32.51 L 130.71,25.52 L 131.41,25.56 L 131.41,32.53 Z" style="stroke: #add8e5; stroke-width: 0.10; fill: none;"/>
<path d="M 131.41,32.53 L 131.41,25.56 L 132.64,25.65 L 132.64,32.55 Z" style="stroke: #add8e5; stroke-width: 0.10; fill: #add8e5;"/>
<path d="M 131.41,32.53 L 131.41,25.56 L 132.64,25.65 L 132.64,32.55 Z" style="stroke: #add8e5; stroke-width: 0.10; fill: none;"/>
<path d="M 132.64,32.55 L 132.64,25.65 L 133.26,25.69 L 133.26,32.55 Z" style="stroke: #add8e5; stroke-width: 0.10; fill: #add8e5;"/>
<path d="M 132.64,32.55 L 132.64,25.65 L 133.26,25.69 L 133.26,32.55 Z" style="stroke: #add8e5; stroke-width: 0.10; fill: none;"/>
<path d="M 133.26,32.55 L 133.26,25.69 L 135.47,25.86 L 135.47,32.62 Z" style="stroke: #add8e5; stroke-width: 0.10; fill: #add8e5;"/>
<path d="M 133.26,32.55 L 133.26,25.69 L 135.47,25.86 L 135.47,32.62 Z" style="stroke: #add8e5; stroke-width: 0.10; fill: none;"/>
<path d="M 135.47,32.62 L 135.47,25.86 L 136.08,25.90 L 136.08,32.64 Z" style="stroke: #add8e5; stroke-width: 0.10; fill: #add8e5;"/>
<path d="M 135.47,32.62 L 135.47,25.86 L 136.08,25.90 L 136.08,32.64 Z" style="stroke: #add8e5; stroke-width: 0.10; fill: none;"/>
<path d="M 136.08,32.64 L 136.08,25.90 L 137.06,25.98 L 137.06,32.68 Z" style="stroke: #add8e5; stroke-width: 0.10; fill: #add8e5;"/>
<path d="M 136.08,32.64 L 136.08,25.90 L 137.06,25.98 L 137.06,32.68 Z" style="stroke: #add8e5; stroke-width: 0.10; fill: none;"/>
<path d="M 137.06,32.68 L 137.06,25.98 L 140.16,26.25 L 140.16,32.83 Z" style="stroke: #add8e5; stroke-width: 0.10; fill: #add8e5;"/>
<path d="M 137.06,32.68 L 137.06,25.98 L 140.16,26.25 L 140.16,32.83 Z" style="stroke: #add8e5; stroke-width: 0.10; fill: none;"/>
<path d="M 140.16,32.83 L 140.16,26.25 L 140.89,26.34 L 140.89,32.88 Z" style="stroke: #add8e5; stroke-width: 0.10; fill: #add8e5;"/>
<path d="M 140.16,32.83 L 140.16,26.25 L 140.89,26.34 L 140.89,32.88 Z" style="stroke: #add8e5; stroke-width: 0.10; fill: none;"/>
<path d="M 140.89,32.88 L 140.89,26.34 L 141.71,26.40 L 141.71,32.94 Z" style="stroke: #add8e5; stroke-width: 0.10; fill: #add8e5;"/>
<path d="M 140.89,32.88 L 140.89,26.34 L 141.71,26.40 L 141.71,32.94 Z" style="stroke: #add8e5; stroke-width: 0.10; fill: none;"/>
<path d="M 141.71,32.94 L 141.71,26.40 L 144.74,26.73 L 144.74,33.09 Z" style="stroke: #add8e5; stroke-width: 0.10; fill: #add8e5;"/>
<path d="M 141.71,32.94 L 141.71,26.40 L 144.74,26.73 L 144.74,33.09 Z" style="stroke: #add8e5; stroke-width: 0.10; fill: none;"/>
<path d="M 144.74,33.09 L 144.74,26.73 L 145.01,26.75 L 145.01,33.11 Z" style="stroke: #add8e5; stroke-width: 0.10; fill: #add8e5;"/>
<path d="M 144.74,33.09 L 144.74,26.73 L 145.01,26.75 L 145.01,33.11 Z" style="stroke: #add8e5; stroke-width: 0.10; fill: none;"/>
<path d="M 145.01,33.11 L 145.01,26.75 L 145.06,26.75 L 145.06,33.11 Z" style="stroke: #add8e5; stroke-width: 0.10; fill: #add8e5;"/>
<path d="M 145.01,33.11 L 145.01,26.75 L 145.06,26.75 L 145.06,33.11 Z" style="stroke: #add8e5; stroke-width: 0.10; fill: none;"/>
<path d="M 145.06,33.11 L 145.06,26.75 L 145.12,26.75 L 145.12,33.11 Z" style="stroke: #add8e5; stroke-width: 0.10; fill: #add8e5;"/>
<path d="M 145.06,33.11 L 145.06,26.75 L 145.12,26.75 L 145.12,33.11 Z" style="stroke: #add8e5; stroke-width: 0.10; fill: none;"/>
<path d="M 145.12,33.11 L 145.12,26.75 L 145.77,26.84 L 145.77,33.16 Z" style="stroke: #add8e5; stroke-width: 0.10; fill: #add8e5;"/>
<path d="M 145.12,33.11 L 145.12,26.75 L 145.77,26.84 L 145.77,33.16 Z" style="stroke: #add8e5; stroke-width: 0.10; fill: none;"/>
<path d="M 145.77,33.16 L 145.77,26.84 L 146.36,26.90 L 146.36,33.20 Z" style="stroke: #add8e5; stroke-width: 0.10; fill: #add8e5;"/>
<path d="M 145.77,33.16 L 145.77,26.84 L 146.36,26.90 L 146.36,33.20 Z" style="stroke: #add8e5; stroke-width: 0.10; fill: none;"/>
<path d="M 146.36,33.20 L 146.36,26.90 L 147.32,27.03 L 147.32,33.26 Z" style="stroke: #add8e5; stroke-width: 0.10; fill: #add8e5;"/>
<path d="M 146.36,33.20 L 146.36,26.90 L 147.32,27.03 L 147.32,33.26 Z" style="stroke: #add8e5; stroke-width: 0.10; fill: none;"/>
<path d="M 147.32,33.26 L 147.32,27.03 L 149.44,27.28 L 149.44,33.46 Z" style="stroke: #add8e5; stroke-width: 0.10; fill: #add8e5;"/>
<path d="M 147.32,33.26 L 147.32,27.03 L 149.44,27.28 L 149.44,33.46 Z" style="stroke: #add8e5; stroke-width: 0.10; fill: none;"/>
<path d="M 149.44,33.46 L 149.44,27.28 L 149.80,27.32 L 149.80,33.50 Z" style="stroke: #add8e5; stroke-width: 0.10; fill: #add8e5;"/>
<path d="M 149.44,33.46 L 149.44,27.28 L 149.80,27.32 L 149.80,33.50 Z" style="stroke: #add8e5; stroke-width: 0.10; fill: none;"/>
<path d="M 149.80,33.50 L 149.80,27.32 L 150.31,27.38 L 150.31,33.57 Z" style="stroke: #add8e5; stroke-width: 0.10; fill: #add8e5;"/>
<path d="M 149.80,33.50 L 149.80,27.32 L 150.31,27.38 L 150.31,33.57 Z" style="stroke: #add8e5; stroke-width: 0.10; fill: none;"/>
<path d="M 150.31,33.57 L 150.31,27.38 L 152.59,27.72 L 152.59,33.89 Z" style="stroke: #add8e5; stroke-width: 0.10; fill: #add8e5;"/>
<path d="M 150.31,33.57 L 150.31,27.38 L 152.59,27.72 L 152.59,33.89 Z" style="stroke: #add8e5; stroke-width: 0.10; fill: none;"/>
<path d="M 152.59,33.89 L 152.59,27.72 L 152.62,27.72 L 152.62,33.89 Z" style="stroke: #add8e5; stroke-width: 0.10; fill: #add8e5;"/>
<path d="M 152.59,33.89 L 152.59,27.72 L 152.62,27.72 L 152.62,33.89 Z" style="stroke: #add8e5; stroke-width: 0.10; fill: none;"/>
<path d="M 152.62,33.89 L 152.62,27.72 L 152.76,27.74 L 152.76,33.91 Z" style="stroke: #add8e5; stroke-width: 0.10; fill: #add8e5;"/>
<path d="M 152.62,33.89 L 152.62,27.72 L 152.76,27.74 L 152.76,33.91 Z" style="stroke: #add8e5; stroke-width: 0.10; fill: none;"/>
<path d="M 152.76,33.91 L 152.76,27.74 L 153.70,27.89 L 153.70,34.09 Z" style="stroke: #add8e5; stroke-width: 0.10; fill: #add8e5;"/>
<path d="M 152.76,33.91 L 152.76,27.74 L 153.70,27.89 L 153.70,34.09 Z" style="stroke: #add8e5; stroke-width: 0.10; fill: none;"/>
<path d="M 153.70,34.09 L 153.70,27.89 L 155.33,28.19 L 155.33,34.43 Z" style="stroke: #add8e5; stroke-width: 0.10; fill: #add8e5;"/>
<path d="M 153.70,34.09 L 153.70,27.89 L 155.33,28.19 L 155.33,34.43 Z" style="stroke: #add8e5; stroke-width: 0.10; fill: none;"/>
<path d="M 155.33,34.43 L 155.33,28.19 L 155.52,28.23 L 155.52,34.48 Z" style="stroke: #add8e5; stroke-width: 0.10; fill: #add8e5;"/>
<path d="M 155.33,34.43 L 155.33,28.19 L 155.52,28.23 L 155.52,34.48 Z" style="stroke: #add8e5; stroke-width: 0.10; fill: none;"/>
<path d="M 155.52,34.48 L 155.52,28.23 L 155.58,28.23 L 155.58,34.48 Z" style="stroke: #add8e5; stroke-width: 0.10; fill: #add8e5;"/>
<path d="M 155.52,34.48 L 155.52,28.23 L 155.58,28.23 L 155.58,34.48 Z" style="stroke: #add8e5; stroke-width: 0.10; fill: none;"/>
<path d="M 155.58,34.48 L 155.58,28.23 L 155.86,28.29 L 155.86,34.54 Z" style="stroke: #add8e5; stroke-width: 0.10; fill: #add8e5;"/>
<path d="M 155.58,34.48 L 155.58,28.23 L 155.86,28.29 L 155.86,34.54 Z" style="stroke: #add8e5; stroke-width: 0.10; fill: none;"/>
<path d="M 155.86,34.54 L 155.86,28.29 L 157.09,28.57 L 157.09,34.85 Z" style="stroke: #add8e5; stroke-width: 0.10; fill: #add8e5;"/>
<path d="M 155.86,34.54 L 155.86,28.29 L 157.09,28.57 L 157.09,34.85 Z" style="stroke: #add8e5; stroke-width: 0.10; fill: none;"/>
<path d="M 157.09,34.85 L 157.09,28.57 L 157.17,28.59 L 157.17,34.87 Z" style="stroke: #add8e5; stroke-width: 0.10; fill: #add8e5;"/>
<path d="M 157.09,34.85 L 157.09,28.57 L 157.17,28.59 L 157.17,34.87 Z" style="stroke: #add8e5; stroke-width: 0.10; fill: none;"/>
<path d="M 157.17,34.87 L 157.17,28.59 L 158.96,29.05 L 158.96,35.37 Z" style="stroke: #add8e5; stroke-width: 0.10; fill: #add8e5;"/>
<path d="M 157.17,34.87 L 157.17,28.59 L 158.96,29.05 L 158.96,35.37 Z" style="stroke: #add8e5; stroke-width: 0.10; fill: none;"/>
<path d="M 158.96,35.37 L 158.96,29.05 L 159.00,29.07 L 159.00,35.37 Z" style="stroke: #add8e5; stroke-width: 0.10; fill: #add8e5;"/>
<path d="M 158.96,35.37 L 158.96,29.05 L 159.00,29.07 L 159.00,35.37 Z" style="stroke: #add8e5; stroke-width: 0.10; fill: none;"/>
<path d="M 159.00,35.37 L 159.00,29.07 L 159.46,29.20 L 159.46,35.50 Z" style="stroke: #add8e5; stroke-width: 0.10; fill: #add8e5;"/>
<path d="M 159.00,35.37 L 159.00,29.07 L 159.46,29.20 L 159.46,35.50 Z" style="stroke: #add8e5; stroke-width: 0.10; fill: none;"/>
<path d="M 159.46,35.50 L 159.46,29.20 L 160.40,29.43 L 160.40,35.72 Z" style="stroke: #add8e5; stroke-width: 0.10; fill: #add8e5;"/>
<path d="M 159.46,35.50 L 159.46,29.20 L 160.40,29.43 L 160.40,35.72 Z" style="stroke: #add8e5; stroke-width: 0.10; fill: none;"/>
<path d="M 160.40,35.72 L 160.40,29.43 L 160.66,29.50 L 160.66,35.76 Z" style="stroke: #add8e5; stroke-width: 0.10; fill: #add8e5;"/>
<path d="M 160.40,35.72 L 160.40,29.43 L 160.66,29.50 L 160.66,35.76 Z" style="stroke: #add8e5; stroke-width: 0.10; fill: none;"/>
<path d="M 160.66,35.76 L 160.66,29.50 L 161.01,29.58 L 161.01,35.83 Z" style="stroke: #add8e5; stroke-width: 0.10; fill: #add8e5;"/>
<path d="M 160.66,35.76 L 160.66,29.50 L 161.01,29.58 L 161.01,35.83 Z" style="stroke: #add8e5; stroke-width: 0.10; fill: none;"/>
<path d="M 161.01,35.83 L 161.01,29.58 L 161.50,29.69 L 161.50,35.89 Z" style="stroke: #add8e5; stroke-width: 0.10; fill: #add8e5;"/>
<path d="M 161.01,35.83 L 161.01,29.58 L 161.50,29.69 L 161.50,35.89 Z" style="stroke: #add8e5; stroke-width: 0.10; fill: none;"/>
<path d="M 161.50,35.89 L 161.50,29.69 L 162.40,29.86 L 162.40,36.04 Z" style="stroke: #add8e5; stroke-width: 0.10; fill: #add8e5;"/>
<path d="M 161.50,35.89 L 161.50,29.69 L 162.40,29.86 L 162.40,36.04 Z" style="stroke: #add8e5; stroke-width: 0.10; fill: none;"/>
<path d="M 162.40,36.04 L 162.40,29.86 L 162.55,29.88 L 162.55,36.04 Z" style="stroke: #add8e5; stroke-width: 0.10; fill: #add8e5;"/>
<path d="M 162.40,36.04 L 162.40,29.86 L 162.55,29.88 L 162.55,36.04 Z" style="stroke: #add8e5; stroke-width: 0.10; fill: none;"/>
<path d="M 162.55,36.04 L 162.55,29.88 L 162.81,29.92 L 162.81,36.09 Z" style="stroke: #add8e5; stroke-width: 0.10; fill: #add8e5;"/>
<path d="M 162.55,36.04 L 162.55,29.88 L 162.81,29.92 L 162.81,36.09 Z" style="stroke: #add8e5; stroke-width: 0.10; fill: none;"/>
<path d="M 162.81,36.09 L 162.81,29.92 L 163.90,30.09 L 163.90,36.26 Z" style="stroke: #add8e5; stroke-width: 0.10; fill: #add8e5;"/>
<path d="M 162.81,36.09 L 162.81,29.92 L 163.90,30.09 L 163.90,36.26 Z" style="stroke: #add8e5; stroke-width: 0.10; fill: none;"/>
<path d="M 163.90,36.26 L 163.90,30.09 L 164.62,30.20 L 164.62,36.37 Z" style="stroke: #add8e5; stroke-width: 0.10; fill: #add8e5;"/>
<path d="M 163.90,36.26 L 163.90,30.09 L 164.62,30.20 L 164.62,36.37 Z" style="stroke: #add8e5; stroke-width: 0.10; fill: none;"/>
<path d="M 164.62,36.37 L 164.62,30.20 L 164.68,30.22 L 164.68,36.37 Z" style="stroke: #add8e5; stroke-width: 0.10; fill: #add8e5;"/>
<path d="M 164.62,36.37 L 164.62,30.20 L 164.68,30.22 L 164.68,36.37 Z" style="stroke: #add8e5; stroke-width: 0.10; fill: none;"/>
<path d="M 164.68,36.37 L 164.68,30.22 L 166.07,30.43 L 166.07,36.68 Z" style="stroke: #add8e5; stroke-width: 0.10; fill: #add8e5;"/>
<path d="M 164.68,36.37 L 164.68,30.22 L 166.07,30.43 L 166.07,36.68 Z" style="stroke: #add8e5; stroke-width: 0.10; fill: none;"/>
<path d="M 166.07,36.68 L 166.07,30.43 L 166.59,30.54 L 166.59,36.81 Z" style="stroke: #add8e5; stroke-width: 0.10; fill: #add8e5;"/>
<path d="M 166.07,36.68 L 166.07,30.43 L 166.59,30.54 L 166.59,36.81 Z" style="stroke: #add8e5; stroke-width: 0.10; fill: none;"/>
<path d="M 166.59,36.81 L 166.59,30.54 L 167.29,30.69 L 167.29,37.01 Z" style="stroke: #add8e5; stroke-width: 0.10; fill: #add8e5;"/>
<path d="M 166.59,36.81 L 166.59,30.54 L 167.29,30.69 L 167.29,37.01 Z" style="stroke: #add8e5; stroke-width: 0.10; fill: none;"/>
<path d="M 167.29,37.01 L 167.29,30.69 L 167.30,30.69 L 167.30,37.01 Z" style="stroke: #add8e5; stroke-width: 0.10; fill: #add8e5;"/>
<path d="M 167.29,37.01 L 167.29,30.69 L 167.30,30.69 L 167.30,37.01 Z" style="stroke: #add8e5; stroke-width: 0.10; fill: none;"/>
<path d="M 167.30,37.01 L 167.30,30.69 L 167.74,30.80 L 167.74,37.14 Z" style="stroke: #add8e5; stroke-width: 0.10; fill: #add8e5;"/>
<path d="M 167.30,37.01 L 167.30,30.69 L 167.74,30.80 L 167.74,37.14 Z" style="stroke: #add8e5; stroke-width: 0.10; fill: none;"/>
<path d="M 167.74,37.14 L 167.74,30.80 L 168.31,30.94 L 168.31,37.34 Z" style="stroke: #add8e5; stroke-width: 0.10; fill: #add8e5;"/>
<path d="M 167.74,37.14 L 167.74,30.80 L 168.31,30.94 L 168.31,37.34 Z" style="stroke: #add8e5; stroke-width: 0.10; fill: none;"/>
<path d="M 168.31,37.34 L 168.31,30.94 L 168.64,31.05 L 168.64,37.47 Z" style="stroke: #add8e5; stroke-width: 0.10; fill: #add8e5;"/>
<path d="M 168.31,37.34 L 168.31,30.94 L 168.64,31.05 L 168.64,37.47 Z" style="stroke: #add8e5; stroke-width: 0.10; fill: none;"/>
<path d="M 168.64,37.47 L 168.64,31.05 L 169.27,31.27 L 169.27,37.73 Z" style="stroke: #add8e5; stroke-width: 0.10; fill: #add8e5;"/>
<path d="M 168.64,37.47 L 168.64,31.05 L 169.27,31.27 L 169.27,37.73 Z" style="stroke: #add8e5; stroke-width: 0.10; fill: none;"/>
<path d="M 169.27,37.73 L 169.27,31.27 L 169.83,31.50 L 169.83,37.98 Z" style="stroke: #add8e5; stroke-width: 0.10; fill: #add8e5;"/>
<path d="M 169.27,37.73 L 169.27,31.27 L 169.83,31.50 L 169.83,37.98 Z" style="stroke: #add8e5; stroke-width: 0.10; fill: none;"/>
<path d="M 169.83,37.98 L 169.83,31.50 L 170.18,31.67 L 170.18,38.15 Z" style="stroke: #add8e5; stroke-width: 0.10; fill: #add8e5;"/>
<path d="M 169.83,37.98 L 169.83,31.50 L 170.18,31.67 L 170.18,38.15 Z" style="stroke: #add8e5; stroke-width: 0.10; fill: none;"/>
<path d="M 170.18,38.15 L 170.18,31.67 L 170.96,32.08 L 170.96,38.55 Z" style="stroke: #add8e5; stroke-width: 0.10; fill: #add8e5;"/>
<path d="M 170.18,38.15 L 170.18,31.67 L 170.96,32.08 L 170.96,38.55 Z" style="stroke: #add8e5; stroke-width: 0.10; fill: none;"/>
<path d="M 170.96,38.55 L 170.96,32.08 L 171.83,32.57 L 171.83,39.02 Z" style="stroke: #add8e5; stroke-width: 0.10; fill: #add8e5;"/>
<path d="M 170.96,38.55 L 170.96,32.08 L 171.83,32.57 L 171.83,39.02 Z" style="stroke: #add8e5; stroke-width: 0.10; fill: none;"/>
<path d="M 171.83,39.02 L 171.83,32.57 L 171.94,32.64 L 171.94,39.08 Z" style="stroke: #add8e5; stroke-width: 0.10; fill: #add8e5;"/>
<path d="M 171.83,39.02 L 171.83,32.57 L 171.94,32.64 L 171.94,39.08 Z" style="stroke: #add8e5; stroke-width: 0.10; fill: none;"/>
<path d="M 171.94,39.08 L 171.94,32.64 L 172.83,33.22 L 172.83,39.64 Z" style="stroke: #add8e5; stroke-width: 0.10; fill: #add8e5;"/>
<path d="M 171.94,39.08 L 171.94,32.64 L 172.83,33.22 L 172.83,39.64 Z" style="stroke: #add8e5; stroke-width: 0.10; fill: none;"/>
<path d="M 172.83,39.64 L 172.83,33.22 L 173.50,33.65 L 173.50,40.06 Z" style="stroke: #add8e5; stroke-width: 0.10; fill: #add8e5;"/>
<path d="M 172.83,39.64 L 172.83,33.22 L 173.50,33.65 L 173.50,40.06 Z" style="stroke: #add8e5; stroke-width: 0.10; fill: none;"/>
<path d="M 173.50,40.06 L 173.50,33.65 L 173.64,33.76 L 173.64,40.15 Z" style="stroke: #add8e5; stroke-width: 0.10; fill: #add8e5;"/>
<path d="M 173.50,40.06 L 173.50,33.65 L 173.64,33.76 L 173.64,40.15 Z" style="stroke: #add8e5; stroke-width: 0.10; fill: none;"/>
<path d="M 173.64,40.15 L 173.64,33.76 L 174.31,34.22 L 174.31,40.59 Z" style="stroke: #add8e5; stroke-width: 0.10; fill: #add8e5;"/>
<path d="M 173.64,40.15 L 173.64,33.76 L 174.31,34.22 L 174.31,40.59 Z" style="stroke: #add8e5; stroke-width: 0.10; fill: none;"/>
<path d="M 174.31,40.59 L 174.31,34.22 L 174.65,34.45 L 174.65,40.84 Z" style="stroke: #add8e5; stroke-width: 0.10; fill: #add8e5;"/>
<path d="M 174.31,40.59 L 174.31,34.22 L 174.65,34.45 L 174.65,40.84 Z" style="stroke: #add8e5; stroke-width: 0.10; fill: none;"/>
<path d="M 174.65,40.84 L 174.65,34.45 L 175.25,34.89 L 175.25,41.29 Z" style="stroke: #add8e5; stroke-width: 0.10; fill: #add8e5;"/>
<path d="M 174.65,40.84 L 174.65,34.45 L 175.25,34.89 L 175.25,41.29 Z" style="stroke: #add8e5; stroke-width: 0.10; fill: none;"/>
<path d="M 175.25,41.29 L 175.25,34.89 L 175.33,34.93 L 175.33,41.35 Z" style="stroke: #add8e5; stroke-width: 0.10; fill: #add8e5;"/>
<path d="M 175.25,41.29 L 175.25,34.89 L 175.33,34.93 L 175.33,41.35 Z" style="stroke: #add8e5; stroke-width: 0.10; fill: none;"/>
<path d="M 175.33,41.35 L 175.33,34.93 L 175.52,35.09 L 175.52,41.51 Z" style="stroke: #add8e5; stroke-width: 0.10; fill: #add8e5;"/>
<path d="M 175.33,41.35 L 175.33,34.93 L 175.52,35.09 L 175.52,41.51 Z" style="stroke: #add8e5; stroke-width: 0.10; fill: none;"/>
<path d="M 175.52,41.51 L 175.52,35.09 L 175.69,35.19 L 175.69,41.62 Z" style="stroke: #add8e5; stroke-width: 0.10; fill: #add8e5;"/>
<path d="M 175.52,41.51 L 175.52,35.09 L 175.69,35.19 L 175.69,41.62 Z" style="stroke: #add8e5; stroke-width: 0.10; fill: none;"/>
<path d="M 175.69,41.62 L 175.69,35.19 L 176.41,35.72 L 176.41,42.18 Z" style="stroke: #add8e5; stroke-width: 0.10; fill: #add8e5;"/>
<path d="M 175.69,41.62 L 175.69,35.19 L 176.41,35.72 L 176.41,42.18 Z" style="stroke: #add8e5; stroke-width: 0.10; fill: none;"/>
<path d="M 176.41,42.18 L 176.41,35.72 L 177.60,36.57 L 177.60,43.18 Z" style="stroke: #add8e5; stroke-width: 0.10; fill: #add8e5;"/>
<path d="M 176.41,42.18 L 176.41,35.72 L 177.60,36.57 L 177.60,43.18 Z" style="stroke: #add8e5; stroke-width: 0.10; fill: none;"/>
<path d="M 177.60,43.18 L 177.60,36.57 L 178.11,36.94 L 178.11,43.60 Z" style="stroke: #add8e5; stroke-width: 0.10; fill: #add8e5;"/>
<path d="M 177.60,43.18 L 177.60,36.57 L 178.11,36.94 L 178.11,43.60 Z" style="stroke: #add8e5; stroke-width: 0.10; fill: none;"/>
<path d="M 178.11,43.60 L 178.11,36.94 L 178.93,37.54 L 178.93,44.28 Z" style="stroke: #add8e5; stroke-width: 0.10; fill: #add8e5;"/>
<path d="M 178.11,43.60 L 178.11,36.94 L 178.93,37.54 L 178.93,44.28 Z" style="stroke: #add8e5; stroke-width: 0.10; fill: none;"/>
<path d="M 178.93,44.28 L 178.93,37.54 L 179.06,37.62 L 179.06,44.38 Z" style="stroke: #add8e5; stroke-width: 0.10; fill: #add8e5;"/>
<path d="M 178.93,44.28 L 178.93,37.54 L 179.06,37.62 L 179.06,44.38 Z" style="stroke: #add8e5; stroke-width: 0.10; fill: none;"/>
<path d="M 179.06,44.38 L 179.06,37.62 L 179.22,37.76 L 179.22,44.51 Z" style="stroke: #add8e5; stroke-width: 0.10; fill: #add8e5;"/>
<path d="M 179.06,44.38 L 179.06,37.62 L 179.22,37.76 L 179.22,44.51 Z" style="stroke: #add8e5; stroke-width: 0.10; fill: none;"/>
<path d="M 179.22,44.51 L 179.22,37.76 L 180.10,38.42 L 180.10,45.24 Z" style="stroke: #add8e5; stroke-width: 0.10; fill: #add8e5;"/>
<path d="M 179.22,44.51 L 179.22,37.76 L 180.10,38.42 L 180.10,45.24 Z" style="stroke: #add8e5; stroke-width: 0.10; fill: none;"/>
<path d="M 180.10,45.24 L 180.10,38.42 L 180.29,38.57 L 180.29,45.40 Z" style="stroke: #add8e5; stroke-width: 0.10; fill: #add8e5;"/>
<path d="M 180.10,45.24 L 180.10,38.42 L 180.29,38.57 L 180.29,45.40 Z" style="stroke: #add8e5; stroke-width: 0.10; fill: none;"/>
<path d="M 180.29,45.40 L 180.29,38.57 L 180.48,38.71 L 180.48,45.54 Z" style="stroke: #add8e5; stroke-width: 0.10; fill: #add8e5;"/>
<path d="M 180.29,45.40 L 180.29,38.57 L 180.48,38.71 L 180.48,45.54 Z" style="stroke: #add8e5; stroke-width: 0.10; fill: none;"/>
<path d="M 180.48,45.54 L 180.48,38.71 L 180.80,38.95 L 180.80,45.79 Z" style="stroke: #add8e5; stroke-width: 0.10; fill: #add8e5;"/>
<path d="M 180.48,45.54 L 180.48,38.71 L 180.80,38.95 L 180.80,45.79 Z" style="stroke: #add8e5; stroke-width: 0.10; fill: none;"/>
<path d="M 180.80,45.79 L 180.80,38.95 L 181.43,39.50 L 181.43,46.31 Z" style="stroke: #add8e5; stroke-width: 0.10; fill: #add8e5;"/>
<path d="M 180.80,45.79 L 180.80,38.95 L 181.43,39.50 L 181.43,46.31 Z" style="stroke: #add8e5; stroke-width: 0.10; fill: none;"/>
<path d="M 181.43,46.31 L 181.43,39.50 L 181.55,39.59 L 181.55,46.40 Z" style="stroke: #add8e5; stroke-width: 0.10; fill: #add8e5;"/>
<path d="M 181.43,46.31 L 181.43,39.50 L 181.55,39.59 L 181.55,46.40 Z" style="stroke: #add8e5; stroke-width: 0.10; fill: none;"/>
<path d="M 181.55,46.40 L 181.55,39.59 L 181.82,39.86 L 181.82,46.66 Z" style="stroke: #add8e5; stroke-width: 0.10; fill: #add8e5;"/>
<path d="M 181.55,46.40 L 181.55,39.59 L 181.82,39.86 L 181.82,46.66 Z" style="stroke: #add8e5; stroke-width: 0.10; fill: none;"/>
<path d="M 181.82,46.66 L 181.82,39.86 L 182.68,40.75 L 182.68,47.48 Z" style="stroke: #add8e5; stroke-width: 0.10; fill: #add8e5;"/>
<path d="M 181.82,46.66 L 181.82,39.86 L 182.68,40.75 L 182.68,47.48 Z" style="stroke: #add8e5; stroke-width: 0.10; fill: none;"/>
<path d="M 182.68,47.48 L 182.68,40.75 L 183.70,41.89 L 183.70,48.59 Z" style="stroke: #add8e5; stroke-width: 0.10; fill: #add8e5;"/>
<path d="M 182.68,47.48 L 182.68,40.75 L 183.70,41.89 L 183.70,48.59 Z" style="stroke: #add8e5; stroke-width: 0.10; fill: none;"/>
<path d="M 183.70,48.59 L 183.70,41.89 L 183.80,42.00 L 183.80,48.71 Z" style="stroke: #add8e5; stroke-width: 0.10; fill: #add8e5;"/>
<path d="M 183.70,48.59 L 183.70,41.89 L 183.80,42.00 L 183.80,48.71 Z" style="stroke: #add8e5; stroke-width: 0.10; fill: none;"/>
<path d="M 183.80,48.71 L 183.80,42.00 L 184.16,42.43 L 184.16,49.12 Z" style="stroke: #add8e5; stroke-width: 0.10; fill: #add8e5;"/>
<path d="M 183.80,48.71 L 183.80,42.00 L 184.16,42.43 L 184.16,49.12 Z" style="stroke: #add8e5; stroke-width: 0.10; fill: none;"/>
<path d="M 184.16,49.12 L 184.16,42.43 L 184.48,42.79 L 184.48,49.47 Z" style="stroke: #add8e5; stroke-width: 0.10; fill: #add8e5;"/>
<path d="M 184.16,49.12 L 184.16,42.43 L 184.48,42.79 L 184.48,49.47 Z" style="stroke: #add8e5; stroke-width: 0.10; fill: none;"/>
<path d="M 184.48,49.47 L 184.48,42.79 L 185.50,44.01 L 185.50,50.71 Z" style="stroke: #add8e5; stroke-width: 0.10; fill: #add8e5;"/>
<path d="M 184.48,49.47 L 184.48,42.79 L 185.50,44.01 L 185.50,50.71 Z" style="stroke: #add8e5; stroke-width: 0.10; fill: none;"/>
<path d="M 185.50,50.71 L 185.50,44.01 L 185.55,44.08 L 185.55,50.78 Z" style="stroke: #add8e5; stroke-width: 0.10; fill: #add8e5;"/>
<path d="M 185.50,50.71 L 185.50,44.01 L 185.55,44.08 L 185.55,50.78 Z" style="stroke: #add8e5; stroke-width: 0.10; fill: none;"/>
<path d="M 185.55,50.78 L 185.55,44.08 L 185.65,44.19 L 185.65,50.89 Z" style="stroke: #add8e5; stroke-width: 0.10; fill: #add8e5;"/>
<path d="M 185.55,50.78 L 185.55,44.08 L 185.65,44.19 L 185.65,50.89 Z" style="stroke: #add8e5; stroke-width: 0.10; fill: none;"/>
<path d="M 185.65,50.89 L 185.65,44.19 L 186.44,45.08 L 186.44,51.85 Z" style="stroke: #add8e5; stroke-width: 0.10; fill: #add8e5;"/>
<path d="M 185.65,50.89 L 185.65,44.19 L 186.44,45.08 L 186.44,51.85 Z" style="stroke: #add8e5; stroke-width: 0.10; fill: none;"/>
<path d="M 186.44,51.85 L 186.44,45.08 L 186.55,45.22 L 186.55,51.99 Z" style="stroke: #add8e5; stroke-width: 0.10; fill: #add8e5;"/>
<path d="M 186.44,51.85 L 186.44,45.08 L 186.55,45.22 L 186.55,51.99 Z" style="stroke: #add8e5; stroke-width: 0.10; fill: none;"/>
<path d="M 186.55,51.99 L 186.55,45.22 L 186.93,45.63 L 186.93,52.44 Z" style="stroke: #add8e5; stroke-width: 0.10; fill: #add8e5;"/>
<path d="M 186.55,51.99 L 186.55,45.22 L 186.93,45.63 L 186.93,52.44 Z" style="stroke: #add8e5; stroke-width: 0.10; fill: none;"/>
<path d="M 186.93,52.44 L 186.93,45.63 L 187.78,46.52 L 187.78,53.41 Z" style="stroke: #add8e5; stroke-width: 0.10; fill: #add8e5;"/>
<path d="M 186.93,52.44 L 186.93,45.63 L 187.78,46.52 L 187.78,53.41 Z" style="stroke: #add8e5; stroke-width: 0.10; fill: none;"/>
<path d="M 187.78,53.41 L 187.78,46.52 L 188.37,47.09 L 188.37,54.05 Z" style="stroke: #add8e5; stroke-width: 0.10; fill: #add8e5;"/>
<path d="M 187.78,53.41 L 187.78,46.52 L 188.37,47.09 L 188.37,54.05 Z" style="stroke: #add8e5; stroke-width: 0.10; fill: none;"/>
<path d="M 188.37,54.05 L 188.37,47.09 L 188.48,47.18 L 188.48,54.17 Z" style="stroke: #add8e5; stroke-width: 0.10; fill: #add8e5;"/>
<path d="M 188.37,54.05 L 188.37,47.09 L 188.48,47.18 L 188.48,54.17 Z" style="stroke: #add8e5; stroke-width: 0.10; fill: none;"/>
<path d="M 188.48,54.17 L 188.48,47.18 L 188.58,47.28 L 188.58,54.26 Z" style="stroke: #add8e5; stroke-width: 0.10; fill: #add8e5;"/>
<path d="M 188.48,54.17 L 188.48,47.18 L 188.58,47.28 L 188.58,54.26 Z" style="stroke: #add8e5; stroke-width: 0.10; fill: none;"/>
<path d="M 188.58,54.26 L 188.58,47.28 L 189.34,47.92 L 189.34,55.00 Z" style="stroke: #add8e5; stroke-width: 0.10; fill: #add8e5;"/>
<path d="M 188.58,54.26 L 188.58,47.28 L 189.34,47.92 L 189.34,55.00 Z" style="stroke: #add8e5; stroke-width: 0.10; fill: none;"/>
<path d="M 189.34,55.00 L 189.34,47.92 L 189.87,48.34 L 189.87,55.43 Z" style="stroke: #add8e5; stroke-width: 0.10; fill: #add8e5;"/>
<path d="M 189.34,55.00 L 189.34,47.92 L 189.87,48.34 L 189.87,55.43 Z" style="stroke: #add8e5; stroke-width: 0.10; fill: none;"/>
<path d="M 189.87,55.43 L 189.87,48.34 L 190.16,48.54 L 190.16,55.64 Z" style="stroke: #add8e5; stroke-width: 0.10; fill: #add8e5;"/>
<path d="M 189.87,55.43 L 189.87,48.34 L 190.16,48.54 L 190.16,55.64 Z" style="stroke: #add8e5; stroke-width: 0.10; fill: none;"/>
<path d="M 190.16,55.64 L 190.16,48.54 L 190.34,48.66 L 190.34,55.76 Z" style="stroke: #add8e5; stroke-width: 0.10; fill: #add8e5;"/>
<path d="M 190.16,55.64 L 190.16,48.54 L 190.34,48.66 L 190.34,55.76 Z" style="stroke: #add8e5; stroke-width: 0.10; fill: none;"/>
<path d="M 190.34,55.76 L 190.34,48.66 L 190.93,49.05 L 190.93,56.14 Z" style="stroke: #add8e5; stroke-width: 0.10; fill: #add8e5;"/>
<path d="M 190.34,55.76 L 190.34,48.66 L 190.93,49.05 L 190.93,56.14 Z" style="stroke: #add8e5; stroke-width: 0.10; fill: none;"/>
<path d="M 190.93,56.14 L 190.93,49.05 L 191.79,49.66 L 191.79,56.74 Z" style="stroke: #add8e5; stroke-width: 0.10; fill: #add8e5;"/>
<path d="M 190.93,56.14 L 190.93,49.05 L 191.79,49.66 L 191.79,56.74 Z" style="stroke: #add8e5; stroke-width: 0.10; fill: none;"/>
<path d="M 191.79,56.74 L 191.79,49.66 L 191.81,49.68 L 191.81,56.77 Z" style="stroke: #add8e5; stroke-width: 0.10; fill: #add8e5;"/>
<path d="M 191.79,56.74 L 191.79,49.66 L 191.81,49.68 L 191.81,56.77 Z" style="stroke: #add8e5; stroke-width: 0.10; fill: none;"/>
<path d="M 191.81,56.77 L 191.81,49.68 L 192.76,50.38 L 192.76,57.44 Z" style="stroke: #add8e5; stroke-width: 0.10; fill: #add8e5;"/>
<path d="M 191.81,56.77 L 191.81,49.68 L 192.76,50.38 L 192.76,57.44 Z" style="stroke: #add8e5; stroke-width: 0.10; fill: none;"/>
<path d="M 192.76,57.44 L 192.76,50.38 L 192.79,50.38 L 192.79,57.46 Z" style="stroke: #add8e5; stroke-width: 0.10; fill: #add8e5;"/>
<path d="M 192.76,57.44 L 192.76,50.38 L 192.79,50.38 L 192.79,57.46 Z" style="stroke: #add8e5; stroke-width: 0.10; fill: none;"/>
<path d="M 192.79,57.46 L 192.79,50.38 L 193.25,50.73 L 193.25,57.80 Z" style="stroke: #add8e5; stroke-width: 0.10; fill: #add8e5;"/>
<path d="M 192.79,57.46 L 192.79,50.38 L 193.25,50.73 L 193.25,57.80 Z" style="stroke: #add8e5; stroke-width: 0.10; fill: none;"/>
<path d="M 193.25,57.80 L 193.25,50.73 L 193.69,51.06 L 193.69,58.12 Z" style="stroke: #add8e5; stroke-width: 0.10; fill: #add8e5;"/>
<path d="M 193.25,57.80 L 193.25,50.73 L 193.69,51.06 L 193.69,58.12 Z" style="stroke: #add8e5; stroke-width: 0.10; fill: none;"/>
<path d="M 193.69,58.12 L 193.69,51.06 L 193.76,51.10 L 193.76,58.16 Z" style="stroke: #add8e5; stroke-width: 0.10; fill: #add8e5;"/>
<path d="M 193.69,58.12 L 193.69,51.06 L 193.76,51.10 L 193.76,58.16 Z" style="stroke: #add8e5; stroke-width: 0.10; fill: none;"/>
<path d="M 193.76,58.16 L 193.76,51.10 L 193.82,51.15 L 193.82,58.21 Z" style="stroke: #add8e5; stroke-width: 0.10; fill: #add8e5;"/>
<path d="M 193.76,58.16 L 193.76,51.10 L 193.82,51.15 L 193.82,58.21 Z" style="stroke: #add8e5; stroke-width: 0.10; fill: none;"/>
<path d="M 193.82,58.21 L 193.82,51.15 L 194.40,51.55 L 194.40,58.65 Z" style="stroke: #add8e5; stroke-width: 0.10; fill: #add8e5;"/>
<path d="M 193.82,58.21 L 193.82,51.15 L 194.40,51.55 L 194.40,58.65 Z" style="stroke: #add8e5; stroke-width: 0.10; fill: none;"/>
<path d="M 194.40,58.65 L 194.40,51.55 L 196.32,52.79 L 196.32,60.01 Z" style="stroke: #add8e5; stroke-width: 0.10; fill: #add8e5;"/>
<path d="M 194.40,58.65 L 194.40,51.55 L 196.32,52.79 L 196.32,60.01 Z" style="stroke: #add8e5; stroke-width: 0.10; fill: none;"/>
<path d="M 196.32,60.01 L 196.32,52.79 L 196.36,52.82 L 196.36,60.03 Z" style="stroke: #add8e5; stroke-width: 0.10; fill: #add8e5;"/>
<path d="M 196.32,60.01 L 196.32,52.79 L 196.36,52.82 L 196.36,60.03 Z" style="stroke: #add8e5; stroke-width: 0.10; fill: none;"/>
<path d="M 196.36,60.03 L 196.36,52.82 L 196.46,52.87 L 196.46,60.08 Z" style="stroke: #add8e5; stroke-width: 0.10; fill: #add8e5;"/>
<path d="M 196.36,60.03 L 196.36,52.82 L 196.46,52.87 L 196.46,60.08 Z" style="stroke: #add8e5; stroke-width: 0.10; fill: none;"/>
<path d="M 196.46,60.08 L 196.46,52.87 L 196.94,53.15 L 196.94,60.40 Z" style="stroke: #add8e5; stroke-width: 0.10; fill: #add8e5;"/>
<path d="M 196.46,60.08 L 196.46,52.87 L 196.94,53.15 L 196.94,60.40 Z" style="stroke: #add8e5; stroke-width: 0.10; fill: none;"/>
<path d="M 196.94,60.40 L 196.94,53.15 L 197.14,53.24 L 197.14,60.52 Z" style="stroke: #add8e5; stroke-width: 0.10; fill: #add8e5;"/>
<path d="M 196.94,60.40 L 196.94,53.15 L 197.14,53.24 L 197.14,60.52 Z" style="stroke: #add8e5; stroke-width: 0.10; fill: none;"/>
<path d="M 197.14,60.52 L 197.14,53.24 L 197.48,53.41 L 197.48,60.74 Z" style="stroke: #add8e5; stroke-width: 0.10; fill: #add8e5;"/>
<path d="M 197.14,60.52 L 197.14,53.24 L 197.48,53.41 L 197.48,60.74 Z" style="stroke: #add8e5; stroke-width: 0.10; fill: none;"/>
<path d="M 197.48,60.74 L 197.48,53.41 L 198.37,53.81 L 198.37,61.20 Z" style="stroke: #add8e5; stroke-width: 0.10; fill: #add8e5;"/>
<path d="M 197.48,60.74 L 197.48,53.41 L 198.37,53.81 L 198.37,61.20 Z" style="stroke: #add8e5; stroke-width: 0.10; fill: none;"/>
<path d="M 198.37,61.20 L 198.37,53.81 L 198.46,53.83 L 198.46,61.25 Z" style="stroke: #add8e5; stroke-width: 0.10; fill: #add8e5;"/>
<path d="M 198.37,61.20 L 198.37,53.81 L 198.46,53.83 L 198.46,61.25 Z" style="stroke: #add8e5; stroke-width: 0.10; fill: none;"/>
<path d="M 198.46,61.25 L 198.46,53.83 L 199.59,54.21 L 199.59,61.72 Z" style="stroke: #add8e5; stroke-width: 0.10; fill: #add8e5;"/>
<path d="M 198.46,61.25 L 198.46,53.83 L 199.59,54.21 L 199.59,61.72 Z" style="stroke: #add8e5; stroke-width: 0.10; fill: none;"/>
<path d="M 199.59,61.72 L 199.59,54.21 L 200.00,54.31 L 200.00,61.84 Z" style="stroke: #add8e5; stroke-width: 0.10; fill: #add8e5;"/>
<path d="M 199.59,61.72 L 199.59,54.21 L 200.00,54.31 L 200.00,61.84 Z" style="stroke: #add8e5; stroke-width: 0.10; fill: none;"/>
<path d="M 200.00,61.84 L 200.00,54.31 L 200.38,54.38 L 200.38,61.94 Z" style="stroke: #add8e5; stroke-width: 0.10; fill: #add8e5;"/>
<path d="M 200.00,61.84 L 200.00,54.31 L 200.38,54.38 L 200.38,61.94 Z" style="stroke: #add8e5; stroke-width: 0.10; fill: none;"/>
<path d="M 200.38,61.94 L 200.38,54.38 L 200.48,54.40 L 200.48,61.96 Z" style="stroke: #add8e5; stroke-width: 0.10; fill: #add8e5;"/>
<path d="M 200.38,61.94 L 200.38,54.38 L 200.48,54.40 L 200.48,61.96 Z" style="stroke: #add8e5; stroke-width: 0.10; fill: none;"/>
<path d="M 200.48,61.96 L 200.48,54.40 L 201.12,54.50 L 201.12,62.06 Z" style="stroke: #add8e5; stroke-width: 0.10; fill: #add8e5;"/>
<path d="M 200.48,61.96 L 200.48,54.40 L 201.12,54.50 L 201.12,62.06 Z" style="stroke: #add8e5; stroke-width: 0.10; fill: none;"/>
<path d="M 201.12,62.06 L 201.12,54.50 L 202.13,54.62 L 202.13,62.21 Z" style="stroke: #add8e5; stroke-width: 0.10; fill: #add8e5;"/>
<path d="M 201.12,62.06 L 201.12,54.50 L 202.13,54.62 L 202.13,62.21 Z" style="stroke: #add8e5; stroke-width: 0.10; fill: none;"/>
<path d="M 202.13,62.21 L 202.13,54.62 L 202.20,54.62 L 202.20,62.21 Z" style="stroke: #add8e5; stroke-width: 0.10; fill: #add8e5;"/>
<path d="M 202.13,62.21 L 202.13,54.62 L 202.20,54.62 L 202.20,62.21 Z" style="stroke: #add8e5; stroke-width: 0.10; fill: none;"/>
<path d="M 202.20,62.21 L 202.20,54.62 L 202.65,54.64 L 202.65,62.26 Z" style="stroke: #add8e5; stroke-width: 0.10; fill: #add8e5;"/>
<path d="M 202.20,62.21 L 202.20,54.62 L 202.65,54.64 L 202.65,62.26 Z" style="stroke: #add8e5; stroke-width: 0.10; fill: none;"/>
<path d="M 202.65,62.26 L 202.65,54.64 L 203.49,54.69 L 203.49,62.31 Z" style="stroke: #add8e5; stroke-width: 0.10; fill: #add8e5;"/>
<path d="M 202.65,62.26 L 202.65,54.64 L 203.49,54.69 L 203.49,62.31 Z" style="stroke: #add8e5; stroke-width: 0.10; fill: none;"/>
<path d="M 203.49,62.31 L 203.49,54.69 L 204.33,54.71 L 204.33,62.36 Z" style="stroke: #add8e5; stroke-width: 0.10; fill: #add8e5;"/>
<path d="M 203.49,62.31 L 203.49,54.69 L 204.33,54.71 L 204.33,62.36 Z" style="stroke: #add8e5; stroke-width: 0.10; fill: none;"/>
<path d="M 204.33,62.36 L 204.33,54.71 L 205.35,54.69 L 205.35,62.36 Z" style="stroke: #add8e5; stroke-width: 0.10; fill: #add8e5;"/>
<path d="M 204.33,62.36 L 204.33,54.71 L 205.35,54.69 L 205.35,62.36 Z" style="stroke: #add8e5; stroke-width: 0.10; fill: none;"/>
<path d="M 205.35,62.36 L 205.35,54.69 L 205.49,54.69 L 205.49,62.36 Z" style="stroke: #add8e5; stroke-width: 0.10; fill: #add8e5;"/>
<path d="M 205.35,62.36 L 205.35,54.69 L 205.49,54.69 L 205.49,62.36 Z" style="stroke: #add8e5; stroke-width: 0.10; fill: none;"/>
<path d="M 205.49,62.36 L 205.49,54.69 L 205.66,54.67 L 205.66,62.36 Z" style="stroke: #add8e5; stroke-width: 0.10; fill: #add8e5;"/>
<path d="M 205.49,62.36 L 205.49,54.69 L 205.66,54.67 L 205.66,62.36 Z" style="stroke: #add8e5; stroke-width: 0.10; fill: none;"/>
<path d="M 205.66,62.36 L 205.66,54.67 L 206.59,54.59 L 206.59,62.33 Z" style="stroke: #add8e5; stroke-width: 0.10; fill: #add8e5;"/>
<path d="M 205.66,62.36 L 205.66,54.67 L 206.59,54.59 L 206.59,62.33 Z" style="stroke: #add8e5; stroke-width: 0.10; fill: none;"/>
<path d="M 206.59,62.33 L 206.59,54.59 L 207.78,54.45 L 207.78,62.23 Z" style="stroke: #add8e5; stroke-width: 0.10; fill: #add8e5;"/>
<path d="M 206.59,62.33 L 206.59,54.59 L 207.78,54.45 L 207.78,62.23 Z" style="stroke: #add8e5; stroke-width: 0.10; fill: none;"/>
<path d="M 207.78,62.23 L 207.78,54.45 L 208.88,54.26 L 208.88,62.11 Z" style="stroke: #add8e5; stroke-width: 0.10; fill: #add8e5;"/>
<path d="M 207.78,62.23 L 207.78,54.45 L 208.88,54.26 L 208.88,62.11 Z" style="stroke: #add8e5; stroke-width: 0.10; fill: none;"/>
<path d="M 208.88,62.11 L 208.88,54.26 L 208.98,54.26 L 208.98,62.11 Z" style="stroke: #add8e5; stroke-width: 0.10; fill: #add8e5;"/>
<path d="M 208.88,62.11 L 208.88,54.26 L 208.98,54.26 L 208.98,62.11 Z" style="stroke: #add8e5; stroke-width: 0.10; fill: none;"/>
<path d="M 208.98,62.11 L 208.98,54.26 L 209.37,54.17 L 209.37,62.04 Z" style="stroke: #add8e5; stroke-width: 0.10; fill: #add8e5;"/>
<path d="M 208.98,62.11 L 208.98,54.26 L 209.37,54.17 L 209.37,62.04 Z" style="stroke: #add8e5; stroke-width: 0.10; fill: none;"/>
<path d="M 209.37,62.04 L 209.37,54.17 L 209.62,54.12 L 209.62,62.01 Z" style="stroke: #add8e5; stroke-width: 0.10; fill: #add8e5;"/>
<path d="M 209.37,62.04 L 209.37,54.17 L 209.62,54.12 L 209.62,62.01 Z" style="stroke: #add8e5; stroke-width: 0.10; fill: none;"/>
<path d="M 209.62,62.01 L 209.62,54.12 L 209.65,54.12 L 209.65,62.01 Z" style="stroke: #add8e5; stroke-width: 0.10; fill: #add8e5;"/>
<path d="M 209.62,62.01 L 209.62,54.12 L 209.65,54.12 L 209.65,62.01 Z" style="stroke: #add8e5; stroke-width: 0.10; fill: none;"/>
<path d="M 209.65,62.01 L 209.65,54.12 L 210.92,53.79 L 210.92,61.77 Z" style="stroke: #add8e5; stroke-width: 0.10; fill: #add8e5;"/>
<path d="M 209.65,62.01 L 209.65,54.12 L 210.92,53.79 L 210.92,61.77 Z" style="stroke: #add8e5; stroke-width: 0.10; fill: none;"/>
<path d="M 210.92,61.77 L 210.92,53.79 L 211.98,53.46 L 211.98,61.55 Z" style="stroke: #add8e5; stroke-width: 0.10; fill: #add8e5;"/>
<path d="M 210.92,61.77 L 210.92,53.79 L 211.98,53.46 L 211.98,61.55 Z" style="stroke: #add8e5; stroke-width: 0.10; fill: none;"/>
<path d="M 211.98,61.55 L 211.98,53.46 L 212.28,53.36 L 212.28,61.47 Z" style="stroke: #add8e5; stroke-width: 0.10; fill: #add8e5;"/>
<path d="M 211.98,61.55 L 211.98,53.46 L 212.28,53.36 L 212.28,61.47 Z" style="stroke: #add8e5; stroke-width: 0.10; fill: none;"/>
<path d="M 212.28,61.47 L 212.28,53.36 L 212.66,53.22 L 212.66,61.38 Z" style="stroke: #add8e5; stroke-width: 0.10; fill: #add8e5;"/>
<path d="M 212.28,61.47 L 212.28,53.36 L 212.66,53.22 L 212.66,61.38 Z" style="stroke: #add8e5; stroke-width: 0.10; fill: none;"/>
<path d="M 212.66,61.38 L 212.66,53.22 L 214.02,52.70 L 214.02,60.98 Z" style="stroke: #add8e5; stroke-width: 0.10; fill: #add8e5;"/>
<path d="M 212.66,61.38 L 212.66,53.22 L 214.02,52.70 L 214.02,60.98 Z" style="stroke: #add8e5; stroke-width: 0.10; fill: none;"/>
<path d="M 214.02,60.98 L 214.02,52.70 L 214.06,52.70 L 214.06,60.96 Z" style="stroke: #add8e5; stroke-width: 0.10; fill: #add8e5;"/>
<path d="M 214.02,60.98 L 214.02,52.70 L 214.06,52.70 L 214.06,60.96 Z" style="stroke: #add8e5; stroke-width: 0.10; fill: none;"/>
<path d="M 214.06,60.96 L 214.06,52.70 L 215.70,51.95 L 215.70,60.42 Z" style="stroke: #add8e5; stroke-width: 0.10; fill: #add8e5;"/>
<path d="M 214.06,60.96 L 214.06,52.70 L 215.70,51.95 L 215.70,60.42 Z" style="stroke: #add8e5; stroke-width: 0.10; fill: none;"/>
<path d="M 215.70,60.42 L 215.70,51.95 L 215.77,51.90 L 215.77,60.40 Z" style="stroke: #add8e5; stroke-width: 0.10; fill: #add8e5;"/>
<path d="M 215.70,60.42 L 215.70,51.95 L 215.77,51.90 L 215.77,60.40 Z" style="stroke: #add8e5; stroke-width: 0.10; fill: none;"/>
<path d="M 215.77,60.40 L 215.77,51.90 L 215.78,51.90 L 215.78,60.40 Z" style="stroke: #add8e5; stroke-width: 0.10; fill: #add8e5;"/>
<path d="M 215.77,60.40 L 215.77,51.90 L 215.78,51.90 L 215.78,60.40 Z" style="stroke: #add8e5; stroke-width: 0.10; fill: none;"/>
<path d="M 215.78,60.40 L 215.78,51.90 L 217.42,51.01 L 217.42,59.81 Z" style="stroke: #add8e5; stroke-width: 0.10; fill: #add8e5;"/>
<path d="M 215.78,60.40 L 215.78,51.90 L 217.42,51.01 L 217.42,59.81 Z" style="stroke: #add8e5; stroke-width: 0.10; fill: none;"/>
<path d="M 217.42,59.81 L 217.42,51.01 L 218.51,50.33 L 218.51,59.37 Z" style="stroke: #add8e5; stroke-width: 0.10; fill: #add8e5;"/>
<path d="M 217.42,59.81 L 217.42,51.01 L 218.51,50.33 L 218.51,59.37 Z" style="stroke: #add8e5; stroke-width: 0.10; fill: none;"/>
<path d="M 218.51,59.37 L 218.51,50.33 L 218.63,50.26 L 218.63,59.33 Z" style="stroke: #add8e5; stroke-width: 0.10; fill: #add8e5;"/>
<path d="M 218.51,59.37 L 218.51,50.33 L 218.63,50.26 L 218.63,59.33 Z" style="stroke: #add8e5; stroke-width: 0.10; fill: none;"/>
<path d="M 218.63,59.33 L 218.63,50.26 L 218.73,50.19 L 218.73,59.28 Z" style="stroke: #add8e5; stroke-width: 0.10; fill: #add8e5;"/>
<path d="M 218.63,59.33 L 218.63,50.26 L 218.73,50.19 L 218.73,59.28 Z" style="stroke: #add8e5; stroke-width: 0.10; fill: none;"/>
<path d="M 218.73,59.28 L 218.73,50.19 L 219.33,49.77 L 219.33,59.04 Z" style="stroke: #add8e5; stroke-width: 0.10; fill: #add8e5;"/>
<path d="M 218.73,59.28 L 218.73,50.19 L 219.33,49.77 L 219.33,59.04 Z" style="stroke: #add8e5; stroke-width: 0.10; fill: none;"/>
<path d="M 219.33,59.04 L 219.33,49.77 L 221.13,48.43 L 221.13,58.26 Z" style="stroke: #add8e5; stroke-width: 0.10; fill: #add8e5;"/>
<path d="M 219.33,59.04 L 219.33,49.77 L 221.13,48.43 L 221.13,58.26 Z" style="stroke: #add8e5; stroke-width: 0.10; fill: none;"/>
<path d="M 221.13,58.26 L 221.13,48.43 L 222.09,47.62 L 222.09,57.83 Z" style="stroke: #add8e5; stroke-width: 0.10; fill: #add8e5;"/>
<path d="M 221.13,58.26 L 221.13,48.43 L 222.09,47.62 L 222.09,57.83 Z" style="stroke: #add8e5; stroke-width: 0.10; fill: none;"/>
<path d="M 222.09,57.83 L 222.09,47.62 L 222.80,47.00 L 222.80,57.49 Z" style="stroke: #add8e5; stroke-width: 0.10; fill: #add8e5;"/>
<path d="M 222.09,57.83 L 222.09,47.62 L 222.80,47.00 L 222.80,57.49 Z" style="stroke: #add8e5; stroke-width: 0.10; fill: none;"/>
<path d="M 222.80,57.49 L 222.80,47.00 L 223.32,46.52 L 223.32,57.25 Z" style="stroke: #add8e5; stroke-width: 0.10; fill: #add8e5;"/>
<path d="M 222.80,57.49 L 222.80,47.00 L 223.32,46.52 L 223.32,57.25 Z" style="stroke: #add8e5; stroke-width: 0.10; fill: none;"/>
<path d="M 223.32,57.25 L 223.32,46.52 L 226.06,43.70 L 226.06,55.93 Z" style="stroke: #add8e5; stroke-width: 0.10; fill: #add8e5;"/>
<path d="M 223.32,57.25 L 223.32,46.52 L 226.06,43.70 L 226.06,55.93 Z" style="stroke: #add8e5; stroke-width: 0.10; fill: none;"/>
<path d="M 226.06,55.93 L 226.06,43.70 L 226.14,43.60 L 226.14,55.88 Z" style="stroke: #add8e5; stroke-width: 0.10; fill: #add8e5;"/>
<path d="M 226.06,55.93 L 226.06,43.70 L 226.14,43.60 L 226.14,55.88 Z" style="stroke: #add8e5; stroke-width: 0.10; fill: none;"/>
<path d="M 226.14,55.88 L 226.14,43.60 L 226.72,42.93 L 226.72,55.57 Z" style="stroke: #add8e5; stroke-width: 0.10; fill: #add8e5;"/>
<path d="M 226.14,55.88 L 226.14,43.60 L 226.72,42.93 L 226.72,55.57 Z" style="stroke: #add8e5; stroke-width: 0.10; fill: none;"/>
<path d="M 226.72,55.57 L 226.72,42.93 L 227.45,42.07 L 227.45,55.21 Z" style="stroke: #add8e5; stroke-width: 0.10; fill: #add8e5;"/>
<path d="M 226.72,55.57 L 226.72,42.93 L 227.45,42.07 L 227.45,55.21 Z" style="stroke: #add8e5; stroke-width: 0.10; fill: none;"/>
<path d="M 227.45,55.21 L 227.45,42.07 L 229.30,39.73 L 229.30,54.21 Z" style="stroke: #add8e5; stroke-width: 0.10; fill: #add8e5;"/>
<path d="M 227.45,55.21 L 227.45,42.07 L 229.30,39.73 L 229.30,54.21 Z" style="stroke: #add8e5; stroke-width: 0.10; fill: none;"/>
<path d="M 229.30,54.21 L 229.30,39.73 L 230.40,38.22 L 230.40,53.62 Z" style="stroke: #add8e5; stroke-width: 0.10; fill: #add8e5;"/>
<path d="M 229.30,54.21 L 229.30,39.73 L 230.40,38.22 L 230.40,53.62 Z" style="stroke: #add8e5; stroke-width: 0.10; fill: none;"/>
<path d="M 230.40,53.62 L 230.40,38.22 L 231.03,37.34 L 231.03,53.27 Z" style="stroke: #add8e5; stroke-width: 0.10; fill: #add8e5;"/>
<path d="M 230.40,53.62 L 230.40,38.22 L 231.03,37.34 L 231.03,53.27 Z" style="stroke: #add8e5; stroke-width: 0.10; fill: none;"/>
<path d="M 231.03,53.27 L 231.03,37.34 L 232.50,35.17 L 232.50,52.42 Z" style="stroke: #add8e5; stroke-width: 0.10; fill: #add8e5;"/>
<path d="M 231.03,53.27 L 231.03,37.34 L 232.50,35.17 L 232.50,52.42 Z" style="stroke: #add8e5; stroke-width: 0.10; fill: none;"/>
<path d="M 232.50,52.42 L 232.50,35.17 L 236.06,29.33 L 236.06,50.24 Z" style="stroke: #add8e5; stroke-width: 0.10; fill: #add8e5;"/>
<path d="M 232.50,52.42 L 232.50,35.17 L 236.06,29.33 L 236.06,50.24 Z" style="stroke: #add8e5; stroke-width: 0.10; fill: none;"/>
<path d="M 56.67,253.54 L 56.67,233.81 L 62.89,228.90 L 62.89,244.40 Z" style="stroke: #f97f72; stroke-width: 0.10; fill: #f97f72;"/>
<path d="M 56.67,253.54 L 56.67,233.81 L 62.89,228.90 L 62.89,244.40 Z" style="stroke: #f97f72; stroke-width: 0.10; fill: none;"/>
<path d="M 62.89,244.40 L 62.89,228.90 L 69.22,222.77 L 69.22,235.04 Z" style="stroke: #f97f72; stroke-width: 0.10; fill: #f97f72;"/>
<path d="M 62.89,244.40 L 62.89,228.90 L 69.22,222.77 L 69.22,235.04 Z" style="stroke: #f97f72; stroke-width: 0.10; fill: none;"/>
<path d="M 69.22,235.04 L 69.22,222.77 L 69.57,222.37 L 69.57,234.55 Z" style="stroke: #f97f72; stroke-width: 0.10; fill: #f97f72;"/>
<path d="M 69.22,235.04 L 69.22,222.77 L 69.57,222.37 L 69.57,234.55 Z" style="stroke: #f97f72; stroke-width: 0.10; fill: none;"/>
<path d="M 69.57,234.55 L 69.57,222.37 L 74.97,216.22 L 74.97,226.61 Z" style="stroke: #f97f72; stroke-width: 0.10; fill: #f97f72;"/>
<path d="M 69.57,234.55 L 69.57,222.37 L 74.97,216.22 L 74.97,226.61 Z" style="stroke: #f97f72; stroke-width: 0.10; fill: none;"/>
<path d="M 74.97,226.61 L 74.97,216.22 L 75.38,215.73 L 75.38,226.00 Z" style="stroke: #f97f72; stroke-width: 0.10; fill: #f97f72;"/>
<path d="M 74.97,226.61 L 74.97,216.22 L 75.38,215.73 L 75.38,226.00 Z" style="stroke: #f97f72; stroke-width: 0.10; fill: none;"/>
<path d="M 75.38,226.00 L 75.38,215.73 L 80.56,209.00 L 80.56,218.40 Z" style="stroke: #f97f72; stroke-width: 0.10; fill: #f97f72;"/>
<path d="M 75.38,226.00 L 75.38,215.73 L 80.56,209.00 L 80.56,218.40 Z" style="stroke: #f97f72; stroke-width: 0.10; fill: none;"/>
<path d="M 80.56,218.40 L 80.56,209.00 L 84.91,202.84 L 84.91,211.98 Z" style="stroke: #f97f72; stroke-width: 0.10; fill: #f97f72;"/>
<path d="M 80.56,218.40 L 80.56,209.00 L 84.91,202.84 L 84.91,211.98 Z" style="stroke: #f97f72; stroke-width: 0.10; fill: none;"/>
<path d="M 84.91,211.98 L 84.91,202.84 L 85.28,202.33 L 85.28,211.45 Z" style="stroke: #f97f72; stroke-width: 0.10; fill: #f97f72;"/>
<path d="M 84.91,211.98 L 84.91,202.84 L 85.28,202.33 L 85.28,211.45 Z" style="stroke: #f97f72; stroke-width: 0.10; fill: none;"/>
<path d="M 85.28,211.45 L 85.28,202.33 L 86.71,200.16 L 86.71,209.29 Z" style="stroke: #f97f72; stroke-width: 0.10; fill: #f97f72;"/>
<path d="M 85.28,211.45 L 85.28,202.33 L 86.71,200.16 L 86.71,209.29 Z" style="stroke: #f97f72; stroke-width: 0.10; fill: none;"/>
<path d="M 86.71,209.29 L 86.71,200.16 L 89.92,195.31 L 89.92,204.47 Z" style="stroke: #f97f72; stroke-width: 0.10; fill: #f97f72;"/>
<path d="M 86.71,209.29 L 86.71,200.16 L 89.92,195.31 L 89.92,204.47 Z" style="stroke: #f97f72; stroke-width: 0.10; fill: none;"/>
<path d="M 89.92,204.47 L 89.92,195.31 L 97.06,183.86 L 97.06,193.35 Z" style="stroke: #f97f72; stroke-width: 0.10; fill: #f97f72;"/>
<path d="M 89.92,204.47 L 89.92,195.31 L 97.06,183.86 L 97.06,193.35 Z" style="stroke: #f97f72; stroke-width: 0.10; fill: none;"/>
<path d="M 97.06,193.35 L 97.06,183.86 L 98.74,181.11 L 98.74,190.65 Z" style="stroke: #f97f72; stroke-width: 0.10; fill: #f97f72;"/>
<path d="M 97.06,193.35 L 97.06,183.86 L 98.74,181.11 L 98.74,190.65 Z" style="stroke: #f97f72; stroke-width: 0.10; fill: none;"/>
<path d="M 98.74,190.65 L 98.74,181.11 L 100.62,177.98 L 100.62,187.60 Z" style="stroke: #f97f72; stroke-width: 0.10; fill: #f97f72;"/>
<path d="M 98.74,190.65 L 98.74,181.11 L 100.62,177.98 L 100.62,187.60 Z" style="stroke: #f97f72; stroke-width: 0.10; fill: none;"/>
<path d="M 100.62,187.60 L 100.62,177.98 L 102.56,174.69 L 102.56,184.37 Z" style="stroke: #f97f72; stroke-width: 0.10; fill: #f97f72;"/>
<path d="M 100.62,187.60 L 100.62,177.98 L 102.56,174.69 L 102.56,184.37 Z" style="stroke: #f97f72; stroke-width: 0.10; fill: none;"/>
<path d="M 102.56,184.37 L 102.56,174.69 L 102.85,174.20 L 102.85,183.91 Z" style="stroke: #f97f72; stroke-width: 0.10; fill: #f97f72;"/>
<path d="M 102.56,184.37 L 102.56,174.69 L 102.85,174.20 L 102.85,183.91 Z" style="stroke: #f97f72; stroke-width: 0.10; fill: none;"/>
<path d="M 102.85,183.91 L 102.85,174.20 L 104.77,170.88 L 104.77,180.69 Z" style="stroke: #f97f72; stroke-width: 0.10; fill: #f97f72;"/>
<path d="M 102.85,183.91 L 102.85,174.20 L 104.77,170.88 L 104.77,180.69 Z" style="stroke: #f97f72; stroke-width: 0.10; fill: none;"/>
<path d="M 104.77,180.69 L 104.77,170.88 L 106.66,167.61 L 106.66,177.44 Z" style="stroke: #f97f72; stroke-width: 0.10; fill: #f97f72;"/>
<path d="M 104.77,180.69 L 104.77,170.88 L 106.66,167.61 L 106.66,177.44 Z" style="stroke: #f97f72; stroke-width: 0.10; fill: none;"/>
<path d="M 106.66,177.44 L 106.66,167.61 L 110.96,160.06 L 110.96,169.92 Z" style="stroke: #f97f72; stroke-width: 0.10; fill: #f97f72;"/>
<path d="M 106.66,177.44 L 106.66,167.61 L 110.96,160.06 L 110.96,169.92 Z" style="stroke: #f97f72; stroke-width: 0.10; fill: none;"/>
<path d="M 110.96,169.92 L 110.96,160.06 L 111.90,158.39 L 111.90,168.28 Z" style="stroke: #f97f72; stroke-width: 0.10; fill: #f97f72;"/>
<path d="M 110.96,169.92 L 110.96,160.06 L 111.90,158.39 L 111.90,168.28 Z" style="stroke: #f97f72; stroke-width: 0.10; fill: none;"/>
<path d="M 111.90,168.28 L 111.90,158.39 L 111.94,158.35 L 111.94,168.20 Z" style="stroke: #f97f72; stroke-width: 0.10; fill: #f97f72;"/>
<path d="M 111.90,168.28 L 111.90,158.39 L 111.94,158.35 L 111.94,168.20 Z" style="stroke: #f97f72; stroke-width: 0.10; fill: none;"/>
<path d="M 111.94,168.20 L 111.94,158.35 L 113.09,156.35 L 113.09,166.19 Z" style="stroke: #f97f72; stroke-width: 0.10; fill: #f97f72;"/>
<path d="M 111.94,168.20 L 111.94,158.35 L 113.09,156.35 L 113.09,166.19 Z" style="stroke: #f97f72; stroke-width: 0.10; fill: none;"/>
<path d="M 113.09,166.19 L 113.09,156.35 L 114.20,154.44 L 114.20,164.27 Z" style="stroke: #f97f72; stroke-width: 0.10; fill: #f97f72;"/>
<path d="M 113.09,166.19 L 113.09,156.35 L 114.20,154.44 L 114.20,164.27 Z" style="stroke: #f97f72; stroke-width: 0.10; fill: none;"/>
<path d="M 114.20,164.27 L 114.20,154.44 L 114.46,154.03 L 114.46,163.80 Z" style="stroke: #f97f72; stroke-width: 0.10; fill: #f97f72;"/>
<path d="M 114.20,164.27 L 114.20,154.44 L 114.46,154.03 L 114.46,163.80 Z" style="stroke: #f97f72; stroke-width: 0.10; fill: none;"/>
<path d="M 114.46,163.80 L 114.46,154.03 L 117.18,149.38 L 117.18,159.15 Z" style="stroke: #f97f72; stroke-width: 0.10; fill: #f97f72;"/>
<path d="M 114.46,163.80 L 114.46,154.03 L 117.18,149.38 L 117.18,159.15 Z" style="stroke: #f97f72; stroke-width: 0.10; fill: none;"/>
<path d="M 117.18,159.15 L 117.18,149.38 L 119.09,146.13 L 119.09,155.93 Z" style="stroke: #f97f72; stroke-width: 0.10; fill: #f97f72;"/>
<path d="M 117.18,159.15 L 117.18,149.38 L 119.09,146.13 L 119.09,155.93 Z" style="stroke: #f97f72; stroke-width: 0.10; fill: none;"/>
<path d="M 119.09,155.93 L 119.09,146.13 L 119.39,145.63 L 119.39,155.44 Z" style="stroke: #f97f72; stroke-width: 0.10; fill: #f97f72;"/>
<path d="M 119.09,155.93 L 119.09,146.13 L 119.39,145.63 L 119.39,155.44 Z" style="stroke: #f97f72; stroke-width: 0.10; fill: none;"/>
<path d="M 119.39,155.44 L 119.39,145.63 L 120.41,143.84 L 120.41,153.76 Z" style="stroke: #f97f72; stroke-width: 0.10; fill: #f97f72;"/>
<path d="M 119.39,155.44 L 119.39,145.63 L 120.41,143.84 L 120.41,153.76 Z" style="stroke: #f97f72; stroke-width: 0.10; fill: none;"/>
<path d="M 120.41,153.76 L 120.41,143.84 L 120.70,143.34 L 120.70,153.28 Z" style="stroke: #f97f72; stroke-width: 0.10; fill: #f97f72;"/>
<path d="M 120.41,153.76 L 120.41,143.84 L 120.70,143.34 L 120.70,153.28 Z" style="stroke: #f97f72; stroke-width: 0.10; fill: none;"/>
<path d="M 120.70,153.28 L 120.70,143.34 L 120.77,143.24 L 120.77,153.17 Z" style="stroke: #f97f72; stroke-width: 0.10; fill: #f97f72;"/>
<path d="M 120.70,153.28 L 120.70,143.34 L 120.77,143.24 L 120.77,153.17 Z" style="stroke: #f97f72; stroke-width: 0.10; fill: none;"/>
<path d="M 120.77,153.17 L 120.77,143.24 L 125.82,134.24 L 125.82,144.73 Z" style="stroke: #f97f72; stroke-width: 0.10; fill: #f97f72;"/>
<path d="M 120.77,153.17 L 120.77,143.24 L 125.82,134.24 L 125.82,144.73 Z" style="stroke: #f97f72; stroke-width: 0.10; fill: none;"/>
<path d="M 125.82,144.73 L 125.82,134.24 L 125.82,134.24 L 125.82,144.73 Z" style="stroke: #f97f72; stroke-width: 0.10; fill: #f97f72;"/>
<path d="M 125.82,144.73 L 125.82,134.24 L 125.82,134.24 L 125.82,144.73 Z" style="stroke: #f97f72; stroke-width: 0.10; fill: none;"/>
<path d="M 125.82,144.73 L 125.82,134.24 L 126.96,132.14 L 126.96,142.74 Z" style="stroke: #f97f72; stroke-width: 0.10; fill: #f97f72;"/>
<path d="M 125.82,144.73 L 125.82,134.24 L 126.96,132.14 L 126.96,142.74 Z" style="stroke: #f97f72; stroke-width: 0.10; fill: none;"/>
<path d="M 126.96,142.74 L 126.96,132.14 L 127.96,130.33 L 127.96,140.94 Z" style="stroke: #f97f72; stroke-width: 0.10; fill: #f97f72;"/>
<path d="M 126.96,142.74 L 126.96,132.14 L 127.96,130.33 L 127.96,140.94 Z" style="stroke: #f97f72; stroke-width: 0.10; fill: none;"/>
<path d="M 127.96,140.94 L 127.96,130.33 L 128.11,130.06 L 128.11,140.66 Z" style="stroke: #f97f72; stroke-width: 0.10; fill: #f97f72;"/>
<path d="M 127.96,140.94 L 127.96,130.33 L 128.11,130.06 L 128.11,140.66 Z" style="stroke: #f97f72; stroke-width: 0.10; fill: none;"/>
<path d="M 128.11,140.66 L 128.11,130.06 L 128.24,129.82 L 128.24,140.45 Z" style="stroke: #f97f72; stroke-width: 0.10; fill: #f97f72;"/>
<path d="M 128.11,140.66 L 128.11,130.06 L 128.24,129.82 L 128.24,140.45 Z" style="stroke: #f97f72; stroke-width: 0.10; fill: none;"/>
<path d="M 128.24,140.45 L 128.24,129.82 L 128.42,129.49 L 128.42,140.10 Z" style="stroke: #f97f72; stroke-width: 0.10; fill: #f97f72;"/>
<path d="M 128.24,140.45 L 128.24,129.82 L 128.42,129.49 L 128.42,140.10 Z" style="stroke: #f97f72; stroke-width: 0.10; fill: none;"/>
<path d="M 128.42,140.10 L 128.42,129.49 L 128.51,129.32 L 128.51,139.96 Z" style="stroke: #f97f72; stroke-width: 0.10; fill: #f97f72;"/>
<path d="M 128.42,140.10 L 128.42,129.49 L 128.51,129.32 L 128.51,139.96 Z" style="stroke: #f97f72; stroke-width: 0.10; fill: none;"/>
<path d="M 128.51,139.96 L 128.51,129.32 L 131.66,123.22 L 131.66,133.73 Z" style="stroke: #f97f72; stroke-width: 0.10; fill: #f97f72;"/>
<path d="M 128.51,139.96 L 128.51,129.32 L 131.66,123.22 L 131.66,133.73 Z" style="stroke: #f97f72; stroke-width: 0.10; fill: none;"/>
<path d="M 131.66,133.73 L 131.66,123.22 L 131.82,122.89 L 131.82,133.39 Z" style="stroke: #f97f72; stroke-width: 0.10; fill: #f97f72;"/>
<path d="M 131.66,133.73 L 131.66,123.22 L 131.82,122.89 L 131.82,133.39 Z" style="stroke: #f97f72; stroke-width: 0.10; fill: none;"/>
<path d="M 131.82,133.39 L 131.82,122.89 L 134.76,116.64 L 134.76,127.07 Z" style="stroke: #f97f72; stroke-width: 0.10; fill: #f97f72;"/>
<path d="M 131.82,133.39 L 131.82,122.89 L 134.76,116.64 L 134.76,127.07 Z" style="stroke: #f97f72; stroke-width: 0.10; fill: none;"/>
<path d="M 134.76,127.07 L 134.76,116.64 L 134.91,116.33 L 134.91,126.74 Z" style="stroke: #f97f72; stroke-width: 0.10; fill: #f97f72;"/>
<path d="M 134.76,127.07 L 134.76,116.64 L 134.91,116.33 L 134.91,126.74 Z" style="stroke: #f97f72; stroke-width: 0.10; fill: none;"/>
<path d="M 134.91,126.74 L 134.91,116.33 L 134.92,116.30 L 134.92,126.74 Z" style="stroke: #f97f72; stroke-width: 0.10; fill: #f97f72;"/>
<path d="M 134.91,126.74 L 134.91,116.33 L 134.92,116.30 L 134.92,126.74 Z" style="stroke: #f97f72; stroke-width: 0.10; fill: none;"/>
<path d="M 134.92,126.74 L 134.92,116.30 L 136.04,113.80 L 136.04,124.29 Z" style="stroke: #f97f72; stroke-width: 0.10; fill: #f97f72;"/>
<path d="M 134.92,126.74 L 134.92,116.30 L 136.04,113.80 L 136.04,124.29 Z" style="stroke: #f97f72; stroke-width: 0.10; fill: none;"/>
<path d="M 136.04,124.29 L 136.04,113.80 L 136.29,113.24 L 136.29,123.77 Z" style="stroke: #f97f72; stroke-width: 0.10; fill: #f97f72;"/>
<path d="M 136.04,124.29 L 136.04,113.80 L 136.29,113.24 L 136.29,123.77 Z" style="stroke: #f97f72; stroke-width: 0.10; fill: none;"/>
<path d="M 136.29,123.77 L 136.29,113.24 L 136.40,112.99 L 136.40,123.54 Z" style="stroke: #f97f72; stroke-width: 0.10; fill: #f97f72;"/>
<path d="M 136.29,123.77 L 136.29,113.24 L 136.40,112.99 L 136.40,123.54 Z" style="stroke: #f97f72; stroke-width: 0.10; fill: none;"/>
<path d="M 136.40,123.54 L 136.40,112.99 L 137.68,110.10 L 137.68,120.80 Z" style="stroke: #f97f72; stroke-width: 0.10; fill: #f97f72;"/>
<path d="M 136.40,123.54 L 136.40,112.99 L 137.68,110.10 L 137.68,120.80 Z" style="stroke: #f97f72; stroke-width: 0.10; fill: none;"/>
<path d="M 137.68,120.80 L 137.68,110.10 L 138.41,108.43 L 138.41,119.23 Z" style="stroke: #f97f72; stroke-width: 0.10; fill: #f97f72;"/>
<path d="M 137.68,120.80 L 137.68,110.10 L 138.41,108.43 L 138.41,119.23 Z" style="stroke: #f97f72; stroke-width: 0.10; fill: none;"/>
<path d="M 138.41,119.23 L 138.41,108.43 L 140.44,103.84 L 140.44,115.01 Z" style="stroke: #f97f72; stroke-width: 0.10; fill: #f97f72;"/>
<path d="M 138.41,119.23 L 138.41,108.43 L 140.44,103.84 L 140.44,115.01 Z" style="stroke: #f97f72; stroke-width: 0.10; fill: none;"/>
<path d="M 140.44,115.01 L 140.44,103.84 L 140.56,103.58 L 140.56,114.79 Z" style="stroke: #f97f72; stroke-width: 0.10; fill: #f97f72;"/>
<path d="M 140.44,115.01 L 140.44,103.84 L 140.56,103.58 L 140.56,114.79 Z" style="stroke: #f97f72; stroke-width: 0.10; fill: none;"/>
<path d="M 140.56,114.79 L 140.56,103.58 L 140.59,103.49 L 140.59,114.70 Z" style="stroke: #f97f72; stroke-width: 0.10; fill: #f97f72;"/>
<path d="M 140.56,114.79 L 140.56,103.58 L 140.59,103.49 L 140.59,114.70 Z" style="stroke: #f97f72; stroke-width: 0.10; fill: none;"/>
<path d="M 140.59,114.70 L 140.59,103.49 L 142.53,99.29 L 142.53,110.81 Z" style="stroke: #f97f72; stroke-width: 0.10; fill: #f97f72;"/>
<path d="M 140.59,114.70 L 140.59,103.49 L 142.53,99.29 L 142.53,110.81 Z" style="stroke: #f97f72; stroke-width: 0.10; fill: none;"/>
<path d="M 142.53,110.81 L 142.53,99.29 L 143.19,97.90 L 143.19,109.52 Z" style="stroke: #f97f72; stroke-width: 0.10; fill: #f97f72;"/>
<path d="M 142.53,110.81 L 142.53,99.29 L 143.19,97.90 L 143.19,109.52 Z" style="stroke: #f97f72; stroke-width: 0.10; fill: none;"/>
<path d="M 143.19,109.52 L 143.19,97.90 L 143.32,97.64 L 143.32,109.25 Z" style="stroke: #f97f72; stroke-width: 0.10; fill: #f97f72;"/>
<path d="M 143.19,109.52 L 143.19,97.90 L 143.32,97.64 L 143.32,109.25 Z" style="stroke: #f97f72; stroke-width: 0.10; fill: none;"/>
<path d="M 143.32,109.25 L 143.32,97.64 L 143.33,97.61 L 143.33,109.25 Z" style="stroke: #f97f72; stroke-width: 0.10; fill: #f97f72;"/>
<path d="M 143.32,109.25 L 143.32,97.64 L 143.33,97.61 L 143.33,109.25 Z" style="stroke: #f97f72; stroke-width: 0.10; fill: none;"/>
<path d="M 143.33,109.25 L 143.33,97.61 L 143.92,96.40 L 143.92,108.10 Z" style="stroke: #f97f72; stroke-width: 0.10; fill: #f97f72;"/>
<path d="M 143.33,109.25 L 143.33,97.61 L 143.92,96.40 L 143.92,108.10 Z" style="stroke: #f97f72; stroke-width: 0.10; fill: none;"/>
<path d="M 143.92,108.10 L 143.92,96.40 L 145.62,92.98 L 145.62,104.70 Z" style="stroke: #f97f72; stroke-width: 0.10; fill: #f97f72;"/>
<path d="M 143.92,108.10 L 143.92,96.40 L 145.62,92.98 L 145.62,104.70 Z" style="stroke: #f97f72; stroke-width: 0.10; fill: none;"/>
<path d="M 145.62,104.70 L 145.62,92.98 L 145.79,92.64 L 145.79,104.38 Z" style="stroke: #f97f72; stroke-width: 0.10; fill: #f97f72;"/>
<path d="M 145.62,104.70 L 145.62,92.98 L 145.79,92.64 L 145.79,104.38 Z" style="stroke: #f97f72; stroke-width: 0.10; fill: none;"/>
<path d="M 145.79,104.38 L 145.79,92.64 L 146.73,90.70 L 146.73,102.42 Z" style="stroke: #f97f72; stroke-width: 0.10; fill: #f97f72;"/>
<path d="M 145.79,104.38 L 145.79,92.64 L 146.73,90.70 L 146.73,102.42 Z" style="stroke: #f97f72; stroke-width: 0.10; fill: none;"/>
<path d="M 146.73,102.42 L 146.73,90.70 L 147.69,88.70 L 147.69,100.43 Z" style="stroke: #f97f72; stroke-width: 0.10; fill: #f97f72;"/>
<path d="M 146.73,102.42 L 146.73,90.70 L 147.69,88.70 L 147.69,100.43 Z" style="stroke: #f97f72; stroke-width: 0.10; fill: none;"/>
<path d="M 147.69,100.43 L 147.69,88.70 L 148.94,86.03 L 148.94,97.81 Z" style="stroke: #f97f72; stroke-width: 0.10; fill: #f97f72;"/>
<path d="M 147.69,100.43 L 147.69,88.70 L 148.94,86.03 L 148.94,97.81 Z" style="stroke: #f97f72; stroke-width: 0.10; fill: none;"/>
<path d="M 148.94,97.81 L 148.94,86.03 L 149.39,85.04 L 149.39,96.89 Z" style="stroke: #f97f72; stroke-width: 0.10; fill: #f97f72;"/>
<path d="M 148.94,97.81 L 148.94,86.03 L 149.39,85.04 L 149.39,96.89 Z" style="stroke: #f97f72; stroke-width: 0.10; fill: none;"/>
<path d="M 149.39,96.89 L 149.39,85.04 L 149.49,84.85 L 149.49,96.69 Z" style="stroke: #f97f72; stroke-width: 0.10; fill: #f97f72;"/>
<path d="M 149.39,96.89 L 149.39,85.04 L 149.49,84.85 L 149.49,96.69 Z" style="stroke: #f97f72; stroke-width: 0.10; fill: none;"/>
<path d="M 149.49,96.69 L 149.49,84.85 L 150.05,83.63 L 150.05,95.54 Z" style="stroke: #f97f72; stroke-width: 0.10; fill: #f97f72;"/>
<path d="M 149.49,96.69 L 149.49,84.85 L 150.05,83.63 L 150.05,95.54 Z" style="stroke: #f97f72; stroke-width: 0.10; fill: none;"/>
<path d="M 150.05,95.54 L 150.05,83.63 L 150.48,82.68 L 150.48,94.66 Z" style="stroke: #f97f72; stroke-width: 0.10; fill: #f97f72;"/>
<path d="M 150.05,95.54 L 150.05,83.63 L 150.48,82.68 L 150.48,94.66 Z" style="stroke: #f97f72; stroke-width: 0.10; fill: none;"/>
<path d="M 150.48,94.66 L 150.48,82.68 L 150.56,82.49 L 150.56,94.49 Z" style="stroke: #f97f72; stroke-width: 0.10; fill: #f97f72;"/>
<path d="M 150.48,94.66 L 150.48,82.68 L 150.56,82.49 L 150.56,94.49 Z" style="stroke: #f97f72; stroke-width: 0.10; fill: none;"/>
<path d="M 150.56,94.49 L 150.56,82.49 L 150.66,82.28 L 150.66,94.29 Z" style="stroke: #f97f72; stroke-width: 0.10; fill: #f97f72;"/>
<path d="M 150.56,94.49 L 150.56,82.49 L 150.66,82.28 L 150.66,94.29 Z" style="stroke: #f97f72; stroke-width: 0.10; fill: none;"/>
<path d="M 150.66,94.29 L 150.66,82.28 L 154.00,75.10 L 154.00,87.70 Z" style="stroke: #f97f72; stroke-width: 0.10; fill: #f97f72;"/>
<path d="M 150.66,94.29 L 150.66,82.28 L 154.00,75.10 L 154.00,87.70 Z" style="stroke: #f97f72; stroke-width: 0.10; fill: none;"/>
<path d="M 154.00,87.70 L 154.00,75.10 L 154.14,74.79 L 154.14,87.43 Z" style="stroke: #f97f72; stroke-width: 0.10; fill: #f97f72;"/>
<path d="M 154.00,87.70 L 154.00,75.10 L 154.14,74.79 L 154.14,87.43 Z" style="stroke: #f97f72; stroke-width: 0.10; fill: none;"/>
<path d="M 154.14,87.43 L 154.14,74.79 L 154.22,74.63 L 154.22,87.26 Z" style="stroke: #f97f72; stroke-width: 0.10; fill: #f97f72;"/>
<path d="M 154.14,87.43 L 154.14,74.79 L 154.22,74.63 L 154.22,87.26 Z" style="stroke: #f97f72; stroke-width: 0.10; fill: none;"/>
<path d="M 154.22,87.26 L 154.22,74.63 L 154.77,73.49 L 154.77,86.19 Z" style="stroke: #f97f72; stroke-width: 0.10; fill: #f97f72;"/>
<path d="M 154.22,87.26 L 154.22,74.63 L 154.77,73.49 L 154.77,86.19 Z" style="stroke: #f97f72; stroke-width: 0.10; fill: none;"/>
<path d="M 154.77,86.19 L 154.77,73.49 L 155.22,72.61 L 155.22,85.34 Z" style="stroke: #f97f72; stroke-width: 0.10; fill: #f97f72;"/>
<path d="M 154.77,86.19 L 154.77,73.49 L 155.22,72.61 L 155.22,85.34 Z" style="stroke: #f97f72; stroke-width: 0.10; fill: none;"/>
<path d="M 155.22,85.34 L 155.22,72.61 L 155.50,72.07 L 155.50,84.80 Z" style="stroke: #f97f72; stroke-width: 0.10; fill: #f97f72;"/>
<path d="M 155.22,85.34 L 155.22,72.61 L 155.50,72.07 L 155.50,84.80 Z" style="stroke: #f97f72; stroke-width: 0.10; fill: none;"/>
<path d="M 155.50,84.80 L 155.50,72.07 L 156.17,70.81 L 156.17,83.52 Z" style="stroke: #f97f72; stroke-width: 0.10; fill: #f97f72;"/>
<path d="M 155.50,84.80 L 155.50,72.07 L 156.17,70.81 L 156.17,83.52 Z" style="stroke: #f97f72; stroke-width: 0.10; fill: none;"/>
<path d="M 156.17,83.52 L 156.17,70.81 L 156.59,70.02 L 156.59,82.68 Z" style="stroke: #f97f72; stroke-width: 0.10; fill: #f97f72;"/>
<path d="M 156.17,83.52 L 156.17,70.81 L 156.59,70.02 L 156.59,82.68 Z" style="stroke: #f97f72; stroke-width: 0.10; fill: none;"/>
<path d="M 156.59,82.68 L 156.59,70.02 L 157.56,68.14 L 157.56,80.64 Z" style="stroke: #f97f72; stroke-width: 0.10; fill: #f97f72;"/>
<path d="M 156.59,82.68 L 156.59,70.02 L 157.56,68.14 L 157.56,80.64 Z" style="stroke: #f97f72; stroke-width: 0.10; fill: none;"/>
<path d="M 157.56,80.64 L 157.56,68.14 L 158.19,66.88 L 158.19,79.26 Z" style="stroke: #f97f72; stroke-width: 0.10; fill: #f97f72;"/>
<path d="M 157.56,80.64 L 157.56,68.14 L 158.19,66.88 L 158.19,79.26 Z" style="stroke: #f97f72; stroke-width: 0.10; fill: none;"/>
<path d="M 158.19,79.26 L 158.19,66.88 L 159.63,63.91 L 159.63,75.88 Z" style="stroke: #f97f72; stroke-width: 0.10; fill: #f97f72;"/>
<path d="M 158.19,79.26 L 158.19,66.88 L 159.63,63.91 L 159.63,75.88 Z" style="stroke: #f97f72; stroke-width: 0.10; fill: none;"/>
<path d="M 159.63,75.88 L 159.63,63.91 L 159.89,63.37 L 159.89,75.25 Z" style="stroke: #f97f72; stroke-width: 0.10; fill: #f97f72;"/>
<path d="M 159.63,75.88 L 159.63,63.91 L 159.89,63.37 L 159.89,75.25 Z" style="stroke: #f97f72; stroke-width: 0.10; fill: none;"/>
<path d="M 159.89,75.25 L 159.89,63.37 L 160.06,63.00 L 160.06,74.86 Z" style="stroke: #f97f72; stroke-width: 0.10; fill: #f97f72;"/>
<path d="M 159.89,75.25 L 159.89,63.37 L 160.06,63.00 L 160.06,74.86 Z" style="stroke: #f97f72; stroke-width: 0.10; fill: none;"/>
<path d="M 160.06,74.86 L 160.06,63.00 L 160.87,61.28 L 160.87,72.92 Z" style="stroke: #f97f72; stroke-width: 0.10; fill: #f97f72;"/>
<path d="M 160.06,74.86 L 160.06,63.00 L 160.87,61.28 L 160.87,72.92 Z" style="stroke: #f97f72; stroke-width: 0.10; fill: none;"/>
<path d="M 160.87,72.92 L 160.87,61.28 L 161.13,60.74 L 161.13,72.33 Z" style="stroke: #f97f72; stroke-width: 0.10; fill: #f97f72;"/>
<path d="M 160.87,72.92 L 160.87,61.28 L 161.13,60.74 L 161.13,72.33 Z" style="stroke: #f97f72; stroke-width: 0.10; fill: none;"/>
<path d="M 161.13,72.33 L 161.13,60.74 L 162.12,58.62 L 162.12,70.00 Z" style="stroke: #f97f72; stroke-width: 0.10; fill: #f97f72;"/>
<path d="M 161.13,72.33 L 161.13,60.74 L 162.12,58.62 L 162.12,70.00 Z" style="stroke: #f97f72; stroke-width: 0.10; fill: none;"/>
<path d="M 162.12,70.00 L 162.12,58.62 L 162.26,58.33 L 162.26,69.69 Z" style="stroke: #f97f72; stroke-width: 0.10; fill: #f97f72;"/>
<path d="M 162.12,70.00 L 162.12,58.62 L 162.26,58.33 L 162.26,69.69 Z" style="stroke: #f97f72; stroke-width: 0.10; fill: none;"/>
<path d="M 162.26,69.69 L 162.26,58.33 L 163.39,55.98 L 163.39,67.16 Z" style="stroke: #f97f72; stroke-width: 0.10; fill: #f97f72;"/>
<path d="M 162.26,69.69 L 162.26,58.33 L 163.39,55.98 L 163.39,67.16 Z" style="stroke: #f97f72; stroke-width: 0.10; fill: none;"/>
<path d="M 163.39,67.16 L 163.39,55.98 L 163.91,54.95 L 163.91,66.08 Z" style="stroke: #f97f72; stroke-width: 0.10; fill: #f97f72;"/>
<path d="M 163.39,67.16 L 163.39,55.98 L 163.91,54.95 L 163.91,66.08 Z" style="stroke: #f97f72; stroke-width: 0.10; fill: none;"/>
<path d="M 163.91,66.08 L 163.91,54.95 L 163.98,54.81 L 163.98,65.93 Z" style="stroke: #f97f72; stroke-width: 0.10; fill: #f97f72;"/>
<path d="M 163.91,66.08 L 163.91,54.95 L 163.98,54.81 L 163.98,65.93 Z" style="stroke: #f97f72; stroke-width: 0.10; fill: none;"/>
<path d="M 163.98,65.93 L 163.98,54.81 L 164.75,53.29 L 164.75,64.36 Z" style="stroke: #f97f72; stroke-width: 0.10; fill: #f97f72;"/>
<path d="M 163.98,65.93 L 163.98,54.81 L 164.75,53.29 L 164.75,64.36 Z" style="stroke: #f97f72; stroke-width: 0.10; fill: none;"/>
<path d="M 164.75,64.36 L 164.75,53.29 L 165.44,52.04 L 165.44,63.07 Z" style="stroke: #f97f72; stroke-width: 0.10; fill: #f97f72;"/>
<path d="M 164.75,64.36 L 164.75,53.29 L 165.44,52.04 L 165.44,63.07 Z" style="stroke: #f97f72; stroke-width: 0.10; fill: none;"/>
<path d="M 165.44,63.07 L 165.44,52.04 L 166.01,51.06 L 166.01,62.04 Z" style="stroke: #f97f72; stroke-width: 0.10; fill: #f97f72;"/>
<path d="M 165.44,63.07 L 165.44,52.04 L 166.01,51.06 L 166.01,62.04 Z" style="stroke: #f97f72; stroke-width: 0.10; fill: none;"/>
<path d="M 166.01,62.04 L 166.01,51.06 L 166.66,50.03 L 166.66,60.96 Z" style="stroke: #f97f72; stroke-width: 0.10; fill: #f97f72;"/>
<path d="M 166.01,62.04 L 166.01,51.06 L 166.66,50.03 L 166.66,60.96 Z" style="stroke: #f97f72; stroke-width: 0.10; fill: none;"/>
<path d="M 166.66,60.96 L 166.66,50.03 L 167.24,49.19 L 167.24,60.08 Z" style="stroke: #f97f72; stroke-width: 0.10; fill: #f97f72;"/>
<path d="M 166.66,60.96 L 166.66,50.03 L 167.24,49.19 L 167.24,60.08 Z" style="stroke: #f97f72; stroke-width: 0.10; fill: none;"/>
<path d="M 167.24,60.08 L 167.24,49.19 L 167.62,48.71 L 167.62,59.54 Z" style="stroke: #f97f72; stroke-width: 0.10; fill: #f97f72;"/>
<path d="M 167.24,60.08 L 167.24,49.19 L 167.62,48.71 L 167.62,59.54 Z" style="stroke: #f97f72; stroke-width: 0.10; fill: none;"/>
<path d="M 167.62,59.54 L 167.62,48.71 L 168.16,48.04 L 168.16,58.79 Z" style="stroke: #f97f72; stroke-width: 0.10; fill: #f97f72;"/>
<path d="M 167.62,59.54 L 167.62,48.71 L 168.16,48.04 L 168.16,58.79 Z" style="stroke: #f97f72; stroke-width: 0.10; fill: none;"/>
<path d="M 168.16,58.79 L 168.16,48.04 L 168.23,47.97 L 168.23,58.70 Z" style="stroke: #f97f72; stroke-width: 0.10; fill: #f97f72;"/>
<path d="M 168.16,58.79 L 168.16,48.04 L 168.23,47.97 L 168.23,58.70 Z" style="stroke: #f97f72; stroke-width: 0.10; fill: none;"/>
<path d="M 168.23,58.70 L 168.23,47.97 L 169.37,46.63 L 169.37,57.20 Z" style="stroke: #f97f72; stroke-width: 0.10; fill: #f97f72;"/>
<path d="M 168.23,58.70 L 168.23,47.97 L 169.37,46.63 L 169.37,57.20 Z" style="stroke: #f97f72; stroke-width: 0.10; fill: none;"/>
<path d="M 169.37,57.20 L 169.37,46.63 L 169.41,46.59 L 169.41,57.13 Z" style="stroke: #f97f72; stroke-width: 0.10; fill: #f97f72;"/>
<path d="M 169.37,57.20 L 169.37,46.63 L 169.41,46.59 L 169.41,57.13 Z" style="stroke: #f97f72; stroke-width: 0.10; fill: none;"/>
<path d="M 169.41,57.13 L 169.41,46.59 L 170.21,45.72 L 170.21,56.14 Z" style="stroke: #f97f72; stroke-width: 0.10; fill: #f97f72;"/>
<path d="M 169.41,57.13 L 169.41,46.59 L 170.21,45.72 L 170.21,56.14 Z" style="stroke: #f97f72; stroke-width: 0.10; fill: none;"/>
<path d="M 170.21,56.14 L 170.21,45.72 L 171.99,43.88 L 171.99,54.07 Z" style="stroke: #f97f72; stroke-width: 0.10; fill: #f97f72;"/>
<path d="M 170.21,56.14 L 170.21,45.72 L 171.99,43.88 L 171.99,54.07 Z" style="stroke: #f97f72; stroke-width: 0.10; fill: none;"/>
<path d="M 171.99,54.07 L 171.99,43.88 L 172.19,43.67 L 172.19,53.86 Z" style="stroke: #f97f72; stroke-width: 0.10; fill: #f97f72;"/>
<path d="M 171.99,54.07 L 171.99,43.88 L 172.19,43.67 L 172.19,53.86 Z" style="stroke: #f97f72; stroke-width: 0.10; fill: none;"/>
<path d="M 172.19,53.86 L 172.19,43.67 L 172.45,43.42 L 172.45,53.60 Z" style="stroke: #f97f72; stroke-width: 0.10; fill: #f97f72;"/>
<path d="M 172.19,53.86 L 172.19,43.67 L 172.45,43.42 L 172.45,53.60 Z" style="stroke: #f97f72; stroke-width: 0.10; fill: none;"/>
<path d="M 172.45,53.60 L 172.45,43.42 L 173.51,42.41 L 173.51,52.56 Z" style="stroke: #f97f72; stroke-width: 0.10; fill: #f97f72;"/>
<path d="M 172.45,53.60 L 172.45,43.42 L 173.51,42.41 L 173.51,52.56 Z" style="stroke: #f97f72; stroke-width: 0.10; fill: none;"/>
<path d="M 173.51,52.56 L 173.51,42.41 L 173.86,42.09 L 173.86,52.25 Z" style="stroke: #f97f72; stroke-width: 0.10; fill: #f97f72;"/>
<path d="M 173.51,52.56 L 173.51,42.41 L 173.86,42.09 L 173.86,52.25 Z" style="stroke: #f97f72; stroke-width: 0.10; fill: none;"/>
<path d="M 173.86,52.25 L 173.86,42.09 L 173.87,42.09 L 173.87,52.23 Z" style="stroke: #f97f72; stroke-width: 0.10; fill: #f97f72;"/>
<path d="M 173.86,52.25 L 173.86,42.09 L 173.87,42.09 L 173.87,52.23 Z" style="stroke: #f97f72; stroke-width: 0.10; fill: none;"/>
<path d="M 173.87,52.23 L 173.87,42.09 L 174.36,41.65 L 174.36,51.81 Z" style="stroke: #f97f72; stroke-width: 0.10; fill: #f97f72;"/>
<path d="M 173.87,52.23 L 173.87,42.09 L 174.36,41.65 L 174.36,51.81 Z" style="stroke: #f97f72; stroke-width: 0.10; fill: none;"/>
<path d="M 174.36,51.81 L 174.36,41.65 L 174.59,41.44 L 174.59,51.62 Z" style="stroke: #f97f72; stroke-width: 0.10; fill: #f97f72;"/>
<path d="M 174.36,51.81 L 174.36,41.65 L 174.59,41.44 L 174.59,51.62 Z" style="stroke: #f97f72; stroke-width: 0.10; fill: none;"/>
<path d="M 174.59,51.62 L 174.59,41.44 L 174.94,41.15 L 174.94,51.34 Z" style="stroke: #f97f72; stroke-width: 0.10; fill: #f97f72;"/>
<path d="M 174.59,51.62 L 174.59,41.44 L 174.94,41.15 L 174.94,51.34 Z" style="stroke: #f97f72; stroke-width: 0.10; fill: none;"/>
<path d="M 174.94,51.34 L 174.94,41.15 L 175.40,40.77 L 175.40,50.99 Z" style="stroke: #f97f72; stroke-width: 0.10; fill: #f97f72;"/>
<path d="M 174.94,51.34 L 174.94,41.15 L 175.40,40.77 L 175.40,50.99 Z" style="stroke: #f97f72; stroke-width: 0.10; fill: none;"/>
<path d="M 175.40,50.99 L 175.40,40.77 L 176.67,39.79 L 176.67,50.12 Z" style="stroke: #f97f72; stroke-width: 0.10; fill: #f97f72;"/>
<path d="M 175.40,50.99 L 175.40,40.77 L 176.67,39.79 L 176.67,50.12 Z" style="stroke: #f97f72; stroke-width: 0.10; fill: none;"/>
<path d="M 176.67,50.12 L 176.67,39.79 L 176.73,39.75 L 176.73,50.08 Z" style="stroke: #f97f72; stroke-width: 0.10; fill: #f97f72;"/>
<path d="M 176.67,50.12 L 176.67,39.79 L 176.73,39.75 L 176.73,50.08 Z" style="stroke: #f97f72; stroke-width: 0.10; fill: none;"/>
<path d="M 176.73,50.08 L 176.73,39.75 L 177.76,39.06 L 177.76,49.47 Z" style="stroke: #f97f72; stroke-width: 0.10; fill: #f97f72;"/>
<path d="M 176.73,50.08 L 176.73,39.75 L 177.76,39.06 L 177.76,49.47 Z" style="stroke: #f97f72; stroke-width: 0.10; fill: none;"/>
<path d="M 177.76,49.47 L 177.76,39.06 L 178.29,38.73 L 178.29,49.19 Z" style="stroke: #f97f72; stroke-width: 0.10; fill: #f97f72;"/>
<path d="M 177.76,49.47 L 177.76,39.06 L 178.29,38.73 L 178.29,49.19 Z" style="stroke: #f97f72; stroke-width: 0.10; fill: none;"/>
<path d="M 178.29,49.19 L 178.29,38.73 L 178.69,38.48 L 178.69,49.01 Z" style="stroke: #f97f72; stroke-width: 0.10; fill: #f97f72;"/>
<path d="M 178.29,49.19 L 178.29,38.73 L 178.69,38.48 L 178.69,49.01 Z" style="stroke: #f97f72; stroke-width: 0.10; fill: none;"/>
<path d="M 178.69,49.01 L 178.69,38.48 L 179.90,37.82 L 179.90,48.48 Z" style="stroke: #f97f72; stroke-width: 0.10; fill: #f97f72;"/>
<path d="M 178.69,49.01 L 178.69,38.48 L 179.90,37.82 L 179.90,48.48 Z" style="stroke: #f97f72; stroke-width: 0.10; fill: none;"/>
<path d="M 179.90,48.48 L 179.90,37.82 L 180.85,37.36 L 180.85,48.15 Z" style="stroke: #f97f72; stroke-width: 0.10; fill: #f97f72;"/>
<path d="M 179.90,48.48 L 179.90,37.82 L 180.85,37.36 L 180.85,48.15 Z" style="stroke: #f97f72; stroke-width: 0.10; fill: none;"/>
<path d="M 180.85,48.15 L 180.85,37.36 L 180.94,37.32 L 180.94,48.13 Z" style="stroke: #f97f72; stroke-width: 0.10; fill: #f97f72;"/>
<path d="M 180.85,48.15 L 180.85,37.36 L 180.94,37.32 L 180.94,48.13 Z" style="stroke: #f97f72; stroke-width: 0.10; fill: none;"/>
<path d="M 180.94,48.13 L 180.94,37.32 L 181.08,37.25 L 181.08,48.08 Z" style="stroke: #f97f72; stroke-width: 0.10; fill: #f97f72;"/>
<path d="M 180.94,48.13 L 180.94,37.32 L 181.08,37.25 L 181.08,48.08 Z" style="stroke: #f97f72; stroke-width: 0.10; fill: none;"/>
<path d="M 181.08,48.08 L 181.08,37.25 L 181.16,37.21 L 181.16,48.06 Z" style="stroke: #f97f72; stroke-width: 0.10; fill: #f97f72;"/>
<path d="M 181.08,48.08 L 181.08,37.25 L 181.16,37.21 L 181.16,48.06 Z" style="stroke: #f97f72; stroke-width: 0.10; fill: none;"/>
<path d="M 181.16,48.06 L 181.16,37.21 L 181.81,36.92 L 181.81,47.90 Z" style="stroke: #f97f72; stroke-width: 0.10; fill: #f97f72;"/>
<path d="M 181.16,48.06 L 181.16,37.21 L 181.81,36.92 L 181.81,47.90 Z" style="stroke: #f97f72; stroke-width: 0.10; fill: none;"/>
<path d="M 181.81,47.90 L 181.81,36.92 L 182.62,36.59 L 182.62,47.71 Z" style="stroke: #f97f72; stroke-width: 0.10; fill: #f97f72;"/>
<path d="M 181.81,47.90 L 181.81,36.92 L 182.62,36.59 L 182.62,47.71 Z" style="stroke: #f97f72; stroke-width: 0.10; fill: none;"/>
<path d="M 182.62,47.71 L 182.62,36.59 L 182.85,36.50 L 182.85,47.69 Z" style="stroke: #f97f72; stroke-width: 0.10; fill: #f97f72;"/>
<path d="M 182.62,47.71 L 182.62,36.59 L 182.85,36.50 L 182.85,47.69 Z" style="stroke: #f97f72; stroke-width: 0.10; fill: none;"/>
<path d="M 182.85,47.69 L 182.85,36.50 L 185.01,35.83 L 185.01,47.51 Z" style="stroke: #f97f72; stroke-width: 0.10; fill: #f97f72;"/>
<path d="M 182.85,47.69 L 182.85,36.50 L 185.01,35.83 L 185.01,47.51 Z" style="stroke: #f97f72; stroke-width: 0.10; fill: none;"/>
<path d="M 185.01,47.51 L 185.01,35.83 L 185.85,35.63 L 185.85,47.53 Z" style="stroke: #f97f72; stroke-width: 0.10; fill: #f97f72;"/>
<path d="M 185.01,47.51 L 185.01,35.83 L 185.85,35.63 L 185.85,47.53 Z" style="stroke: #f97f72; stroke-width: 0.10; fill: none;"/>
<path d="M 185.85,47.53 L 185.85,35.63 L 186.42,35.52 L 186.42,47.60 Z" style="stroke: #f97f72; stroke-width: 0.10; fill: #f97f72;"/>
<path d="M 185.85,47.53 L 185.85,35.63 L 186.42,35.52 L 186.42,47.60 Z" style="stroke: #f97f72; stroke-width: 0.10; fill: none;"/>
<path d="M 186.42,47.60 L 186.42,35.52 L 186.44,35.50 L 186.44,47.60 Z" style="stroke: #f97f72; stroke-width: 0.10; fill: #f97f72;"/>
<path d="M 186.42,47.60 L 186.42,35.52 L 186.44,35.50 L 186.44,47.60 Z" style="stroke: #f97f72; stroke-width: 0.10; fill: none;"/>
<path d="M 186.44,47.60 L 186.44,35.50 L 187.57,35.32 L 187.57,47.78 Z" style="stroke: #f97f72; stroke-width: 0.10; fill: #f97f72;"/>
<path d="M 186.44,47.60 L 186.44,35.50 L 187.57,35.32 L 187.57,47.78 Z" style="stroke: #f97f72; stroke-width: 0.10; fill: none;"/>
<path d="M 187.57,47.78 L 187.57,35.32 L 188.43,35.22 L 188.43,47.99 Z" style="stroke: #f97f72; stroke-width: 0.10; fill: #f97f72;"/>
<path d="M 187.57,47.78 L 187.57,35.32 L 188.43,35.22 L 188.43,47.99 Z" style="stroke: #f97f72; stroke-width: 0.10; fill: none;"/>
<path d="M 188.43,47.99 L 188.43,35.22 L 188.81,35.19 L 188.81,48.08 Z" style="stroke: #f97f72; stroke-width: 0.10; fill: #f97f72;"/>
<path d="M 188.43,47.99 L 188.43,35.22 L 188.81,35.19 L 188.81,48.08 Z" style="stroke: #f97f72; stroke-width: 0.10; fill: none;"/>
<path d="M 188.81,48.08 L 188.81,35.19 L 189.47,35.15 L 189.47,48.31 Z" style="stroke: #f97f72; stroke-width: 0.10; fill: #f97f72;"/>
<path d="M 188.81,48.08 L 188.81,35.19 L 189.47,35.15 L 189.47,48.31 Z" style="stroke: #f97f72; stroke-width: 0.10; fill: none;"/>
<path d="M 189.47,48.31 L 189.47,35.15 L 190.04,35.13 L 190.04,48.52 Z" style="stroke: #f97f72; stroke-width: 0.10; fill: #f97f72;"/>
<path d="M 189.47,48.31 L 189.47,35.15 L 190.04,35.13 L 190.04,48.52 Z" style="stroke: #f97f72; stroke-width: 0.10; fill: none;"/>
<path d="M 190.04,48.52 L 190.04,35.13 L 191.98,35.11 L 191.98,49.38 Z" style="stroke: #f97f72; stroke-width: 0.10; fill: #f97f72;"/>
<path d="M 190.04,48.52 L 190.04,35.13 L 191.98,35.11 L 191.98,49.38 Z" style="stroke: #f97f72; stroke-width: 0.10; fill: none;"/>
<path d="M 191.98,49.38 L 191.98,35.11 L 192.52,35.13 L 192.52,49.66 Z" style="stroke: #f97f72; stroke-width: 0.10; fill: #f97f72;"/>
<path d="M 191.98,49.38 L 191.98,35.11 L 192.52,35.13 L 192.52,49.66 Z" style="stroke: #f97f72; stroke-width: 0.10; fill: none;"/>
<path d="M 192.52,49.66 L 192.52,35.13 L 193.45,35.17 L 193.45,50.17 Z" style="stroke: #f97f72; stroke-width: 0.10; fill: #f97f72;"/>
<path d="M 192.52,49.66 L 192.52,35.13 L 193.45,35.17 L 193.45,50.17 Z" style="stroke: #f97f72; stroke-width: 0.10; fill: none;"/>
<path d="M 193.45,50.17 L 193.45,35.17 L 194.82,35.28 L 194.82,50.99 Z" style="stroke: #f97f72; stroke-width: 0.10; fill: #f97f72;"/>
<path d="M 193.45,50.17 L 193.45,35.17 L 194.82,35.28 L 194.82,50.99 Z" style="stroke: #f97f72; stroke-width: 0.10; fill: none;"/>
<path d="M 194.82,50.99 L 194.82,35.28 L 197.06,35.54 L 197.06,52.61 Z" style="stroke: #f97f72; stroke-width: 0.10; fill: #f97f72;"/>
<path d="M 194.82,50.99 L 194.82,35.28 L 197.06,35.54 L 197.06,52.61 Z" style="stroke: #f97f72; stroke-width: 0.10; fill: none;"/>
<path d="M 197.06,52.61 L 197.06,35.54 L 197.69,35.65 L 197.69,53.10 Z" style="stroke: #f97f72; stroke-width: 0.10; fill: #f97f72;"/>
<path d="M 197.06,52.61 L 197.06,35.54 L 197.69,35.65 L 197.69,53.10 Z" style="stroke: #f97f72; stroke-width: 0.10; fill: none;"/>
<path d="M 197.69,53.10 L 197.69,35.65 L 198.11,35.72 L 198.11,53.46 Z" style="stroke: #f97f72; stroke-width: 0.10; fill: #f97f72;"/>
<path d="M 197.69,53.10 L 197.69,35.65 L 198.11,35.72 L 198.11,53.46 Z" style="stroke: #f97f72; stroke-width: 0.10; fill: none;"/>
<path d="M 198.11,53.46 L 198.11,35.72 L 199.19,35.91 L 199.19,54.40 Z" style="stroke: #f97f72; stroke-width: 0.10; fill: #f97f72;"/>
<path d="M 198.11,53.46 L 198.11,35.72 L 199.19,35.91 L 199.19,54.40 Z" style="stroke: #f97f72; stroke-width: 0.10; fill: none;"/>
<path d="M 199.19,54.40 L 199.19,35.91 L 200.89,36.29 L 200.89,56.05 Z" style="stroke: #f97f72; stroke-width: 0.10; fill: #f97f72;"/>
<path d="M 199.19,54.40 L 199.19,35.91 L 200.89,36.29 L 200.89,56.05 Z" style="stroke: #f97f72; stroke-width: 0.10; fill: none;"/>
<path d="M 200.89,56.05 L 200.89,36.29 L 201.70,36.48 L 201.70,56.91 Z" style="stroke: #f97f72; stroke-width: 0.10; fill: #f97f72;"/>
<path d="M 200.89,56.05 L 200.89,36.29 L 201.70,36.48 L 201.70,56.91 Z" style="stroke: #f97f72; stroke-width: 0.10; fill: none;"/>
<path d="M 201.70,56.91 L 201.70,36.48 L 203.32,36.92 L 203.32,58.74 Z" style="stroke: #f97f72; stroke-width: 0.10; fill: #f97f72;"/>
<path d="M 201.70,56.91 L 201.70,36.48 L 203.32,36.92 L 203.32,58.74 Z" style="stroke: #f97f72; stroke-width: 0.10; fill: none;"/>
<path d="M 203.32,58.74 L 203.32,36.92 L 204.78,37.38 L 204.78,60.57 Z" style="stroke: #f97f72; stroke-width: 0.10; fill: #f97f72;"/>
<path d="M 203.32,58.74 L 203.32,36.92 L 204.78,37.38 L 204.78,60.57 Z" style="stroke: #f97f72; stroke-width: 0.10; fill: none;"/>
<path d="M 204.78,60.57 L 204.78,37.38 L 209.30,39.02 L 209.30,67.19 Z" style="stroke: #f97f72; stroke-width: 0.10; fill: #f97f72;"/>
<path d="M 204.78,60.57 L 204.78,37.38 L 209.30,39.02 L 209.30,67.19 Z" style="stroke: #f97f72; stroke-width: 0.10; fill: none;"/>
<path d="M 209.30,67.19 L 209.30,39.02 L 212.24,40.33 L 212.24,72.33 Z" style="stroke: #f97f72; stroke-width: 0.10; fill: #f97f72;"/>
<path d="M 209.30,67.19 L 209.30,39.02 L 212.24,40.33 L 212.24,72.33 Z" style="stroke: #f97f72; stroke-width: 0.10; fill: none;"/>
<path d="M 212.24,72.33 L 212.24,40.33 L 214.86,41.65 L 214.86,77.48 Z" style="stroke: #f97f72; stroke-width: 0.10; fill: #f97f72;"/>
<path d="M 212.24,72.33 L 212.24,40.33 L 214.86,41.65 L 214.86,77.48 Z" style="stroke: #f97f72; stroke-width: 0.10; fill: none;"/>
<path d="M 214.86,77.48 L 214.86,41.65 L 221.64,45.86 L 221.64,93.32 Z" style="stroke: #f97f72; stroke-width: 0.10; fill: #f97f72;"/>
<path d="M 214.86,77.48 L 214.86,41.65 L 221.64,45.86 L 221.64,93.32 Z" style="stroke: #f97f72; stroke-width: 0.10; fill: none;"/>
<path d="M 88.70,31.80 L 94.50,30.90 L 97.99,30.43 L 103.61,29.82 L 107.49,29.50 L 113.59,29.12 L 115.71,29.03 L 119.53,28.92 L 119.98,28.92 L 120.64,28.90 L 123.97,28.90 L 124.15,28.90 L 125.00,28.90 L 129.31,28.99 L 130.71,29.03 L 131.41,29.05 L 132.64,29.09 L 133.26,29.14 L 135.47,29.24 L 136.08,29.26 L 137.06,29.33 L 140.16,29.54 L 140.89,29.60 L 141.71,29.67 L 144.74,29.90 L 145.01,29.94 L 145.06,29.94 L 145.12,29.94 L 145.77,30.01 L 146.36,30.05 L 147.32,30.13 L 149.44,30.37 L 149.80,30.41 L 150.31,30.48 L 152.59,30.80 L 152.62,30.82 L 152.76,30.84 L 153.70,30.99 L 155.33,31.31 L 155.52,31.35 L 155.58,31.35 L 155.86,31.42 L 157.09,31.72 L 157.17,31.74 L 158.96,32.21 L 159.00,32.23 L 159.46,32.36 L 160.40,32.57 L 160.66,32.64 L 161.01,32.70 L 161.50,32.79 L 162.40,32.94 L 162.55,32.96 L 162.81,33.01 L 163.90,33.18 L 164.62,33.29 L 164.68,33.31 L 166.07,33.57 L 166.59,33.67 L 167.29,33.85 L 167.30,33.85 L 167.74,33.98 L 168.31,34.15 L 168.64,34.26 L 169.27,34.50 L 169.83,34.74 L 170.18,34.91 L 170.96,35.30 L 171.83,35.80 L 171.94,35.87 L 172.83,36.42 L 173.50,36.86 L 173.64,36.94 L 174.31,37.40 L 174.65,37.65 L 175.25,38.09 L 175.33,38.15 L 175.52,38.29 L 175.69,38.42 L 176.41,38.95 L 177.60,39.88 L 178.11,40.26 L 178.93,40.91 L 179.06,41.02 L 179.22,41.13 L 180.10,41.82 L 180.29,41.98 L 180.48,42.12 L 180.80,42.36 L 181.43,42.90 L 181.55,42.99 L 181.82,43.27 L 182.68,44.13 L 183.70,45.24 L 183.80,45.35 L 184.16,45.79 L 184.48,46.15 L 185.50,47.37 L 185.55,47.41 L 185.65,47.55 L 186.44,48.48 L 186.55,48.59 L 186.93,49.03 L 187.78,49.96 L 188.37,50.57 L 188.48,50.68 L 188.58,50.78 L 189.34,51.45 L 189.87,51.88 L 190.16,52.09 L 190.34,52.21 L 190.93,52.61 L 191.79,53.20 L 191.81,53.22 L 192.76,53.91 L 192.79,53.93 L 193.25,54.26 L 193.69,54.57 L 193.76,54.64 L 193.82,54.69 L 194.40,55.09 L 196.32,56.38 L 196.36,56.43 L 196.46,56.48 L 196.94,56.77 L 197.14,56.89 L 197.48,57.08 L 198.37,57.51 L 198.46,57.56 L 199.59,57.97 L 200.00,58.07 L 200.38,58.16 L 200.48,58.19 L 201.12,58.28 L 202.13,58.41 L 202.20,58.41 L 202.65,58.45 L 203.49,58.50 L 204.33,58.53 L 205.35,58.53 L 205.49,58.53 L 205.66,58.53 L 206.59,58.45 L 207.78,58.36 L 208.88,58.19 L 208.98,58.19 L 209.37,58.12 L 209.62,58.07 L 209.65,58.04 L 210.92,57.78 L 211.98,57.49 L 212.28,57.42 L 212.66,57.30 L 214.02,56.84 L 214.06,56.84 L 215.70,56.19 L 215.77,56.17 L 215.78,56.14 L 217.42,55.40 L 218.51,54.86 L 218.63,54.78 L 218.73,54.74 L 219.33,54.40 L 221.13,53.34 L 222.09,52.72 L 222.80,52.25 L 223.32,51.88 L 226.06,49.80 L 226.14,49.73 L 226.72,49.26 L 227.45,48.64 L 229.30,46.98 L 230.40,45.92 L 231.03,45.31 L 232.50,43.79 L 236.06,39.79 " style="stroke: #000000; stroke-width: 0.50; stroke-dasharray: 2,2; fill: none;"/>
<path d="M 56.67,243.68 L 62.89,236.65 L 69.22,228.90 L 69.57,228.48 L 74.97,221.41 L 75.38,220.85 L 80.56,213.67 L 84.91,207.43 L 85.28,206.86 L 86.71,204.75 L 89.92,199.89 L 97.06,188.60 L 98.74,185.87 L 100.62,182.76 L 102.56,179.52 L 102.85,179.06 L 104.77,175.79 L 106.66,172.53 L 110.96,164.97 L 111.90,163.34 L 111.94,163.26 L 113.09,161.25 L 114.20,159.37 L 114.46,158.92 L 117.18,154.25 L 119.09,151.03 L 119.39,150.55 L 120.41,148.80 L 120.70,148.29 L 120.77,148.18 L 125.82,139.48 L 125.82,139.48 L 126.96,137.43 L 127.96,135.64 L 128.11,135.37 L 128.24,135.13 L 128.42,134.78 L 128.51,134.65 L 131.66,128.46 L 131.82,128.13 L 134.76,121.86 L 134.91,121.54 L 134.92,121.54 L 136.04,119.04 L 136.29,118.50 L 136.40,118.25 L 137.68,115.45 L 138.41,113.86 L 140.44,109.43 L 140.56,109.19 L 140.59,109.10 L 142.53,105.06 L 143.19,103.69 L 143.32,103.46 L 143.33,103.43 L 143.92,102.25 L 145.62,98.85 L 145.79,98.50 L 146.73,96.57 L 147.69,94.54 L 148.94,91.91 L 149.39,90.96 L 149.49,90.76 L 150.05,89.59 L 150.48,88.67 L 150.56,88.51 L 150.66,88.28 L 154.00,81.39 L 154.14,81.10 L 154.22,80.94 L 154.77,79.84 L 155.22,78.96 L 155.50,78.43 L 156.17,77.17 L 156.59,76.35 L 157.56,74.40 L 158.19,73.07 L 159.63,69.89 L 159.89,69.31 L 160.06,68.93 L 160.87,67.11 L 161.13,66.53 L 162.12,64.31 L 162.26,64.01 L 163.39,61.57 L 163.91,60.52 L 163.98,60.37 L 164.75,58.84 L 165.44,57.54 L 166.01,56.55 L 166.66,55.50 L 167.24,54.64 L 167.62,54.12 L 168.16,53.43 L 168.23,53.34 L 169.37,51.92 L 169.41,51.85 L 170.21,50.92 L 171.99,48.98 L 172.19,48.78 L 172.45,48.52 L 173.51,47.48 L 173.86,47.16 L 173.87,47.16 L 174.36,46.73 L 174.59,46.54 L 174.94,46.24 L 175.40,45.88 L 176.67,44.94 L 176.73,44.92 L 177.76,44.26 L 178.29,43.97 L 178.69,43.74 L 179.90,43.15 L 180.85,42.75 L 180.94,42.72 L 181.08,42.66 L 181.16,42.63 L 181.81,42.41 L 182.62,42.16 L 182.85,42.09 L 185.01,41.67 L 185.85,41.58 L 186.42,41.56 L 186.44,41.56 L 187.57,41.56 L 188.43,41.60 L 188.81,41.65 L 189.47,41.74 L 190.04,41.82 L 191.98,42.25 L 192.52,42.39 L 193.45,42.66 L 194.82,43.13 L 197.06,44.08 L 197.69,44.38 L 198.11,44.58 L 199.19,45.15 L 200.89,46.18 L 201.70,46.70 L 203.32,47.85 L 204.78,48.96 L 209.30,53.10 L 212.24,56.34 L 214.86,59.57 L 221.64,69.59 " style="stroke: #000000; stroke-width: 1.00; fill: none;"/>
<path d="M 88.70,41.06 L 94.50,38.46 L 97.99,37.12 L 103.61,35.35 L 107.49,34.41 L 113.59,33.37 L 115.71,33.11 L 119.53,32.79 L 119.98,32.75 L 120.64,32.73 L 123.97,32.57 L 124.15,32.57 L 125.00,32.55 L 129.31,32.51 L 130.71,32.51 L 131.41,32.53 L 132.64,32.55 L 133.26,32.55 L 135.47,32.62 L 136.08,32.64 L 137.06,32.68 L 140.16,32.83 L 140.89,32.88 L 141.71,32.94 L 144.74,33.09 L 145.01,33.11 L 145.06,33.11 L 145.12,33.11 L 145.77,33.16 L 146.36,33.20 L 147.32,33.26 L 149.44,33.46 L 149.80,33.50 L 150.31,33.57 L 152.59,33.89 L 152.62,33.89 L 152.76,33.91 L 153.70,34.09 L 155.33,34.43 L 155.52,34.48 L 155.58,34.48 L 155.86,34.54 L 157.09,34.85 L 157.17,34.87 L 158.96,35.37 L 159.00,35.37 L 159.46,35.50 L 160.40,35.72 L 160.66,35.76 L 161.01,35.83 L 161.50,35.89 L 162.40,36.04 L 162.55,36.04 L 162.81,36.09 L 163.90,36.26 L 164.62,36.37 L 164.68,36.37 L 166.07,36.68 L 166.59,36.81 L 167.29,37.01 L 167.30,37.01 L 167.74,37.14 L 168.31,37.34 L 168.64,37.47 L 169.27,37.73 L 169.83,37.98 L 170.18,38.15 L 170.96,38.55 L 171.83,39.02 L 171.94,39.08 L 172.83,39.64 L 173.50,40.06 L 173.64,40.15 L 174.31,40.59 L 174.65,40.84 L 175.25,41.29 L 175.33,41.35 L 175.52,41.51 L 175.69,41.62 L 176.41,42.18 L 177.60,43.18 L 178.11,43.60 L 178.93,44.28 L 179.06,44.38 L 179.22,44.51 L 180.10,45.24 L 180.29,45.40 L 180.48,45.54 L 180.80,45.79 L 181.43,46.31 L 181.55,46.40 L 181.82,46.66 L 182.68,47.48 L 183.70,48.59 L 183.80,48.71 L 184.16,49.12 L 184.48,49.47 L 185.50,50.71 L 185.55,50.78 L 185.65,50.89 L 186.44,51.85 L 186.55,51.99 L 186.93,52.44 L 187.78,53.41 L 188.37,54.05 L 188.48,54.17 L 188.58,54.26 L 189.34,55.00 L 189.87,55.43 L 190.16,55.64 L 190.34,55.76 L 190.93,56.14 L 191.79,56.74 L 191.81,56.77 L 192.76,57.44 L 192.79,57.46 L 193.25,57.80 L 193.69,58.12 L 193.76,58.16 L 193.82,58.21 L 194.40,58.65 L 196.32,60.01 L 196.36,60.03 L 196.46,60.08 L 196.94,60.40 L 197.14,60.52 L 197.48,60.74 L 198.37,61.20 L 198.46,61.25 L 199.59,61.72 L 200.00,61.84 L 200.38,61.94 L 200.48,61.96 L 201.12,62.06 L 202.13,62.21 L 202.20,62.21 L 202.65,62.26 L 203.49,62.31 L 204.33,62.36 L 205.35,62.36 L 205.49,62.36 L 205.66,62.36 L 206.59,62.33 L 207.78,62.23 L 208.88,62.11 L 208.98,62.11 L 209.37,62.04 L 209.62,62.01 L 209.65,62.01 L 210.92,61.77 L 211.98,61.55 L 212.28,61.47 L 212.66,61.38 L 214.02,60.98 L 214.06,60.96 L 215.70,60.42 L 215.77,60.40 L 215.78,60.40 L 217.42,59.81 L 218.51,59.37 L 218.63,59.33 L 218.73,59.28 L 219.33,59.04 L 221.13,58.26 L 222.09,57.83 L 222.80,57.49 L 223.32,57.25 L 226.06,55.93 L 226.14,55.88 L 226.72,55.57 L 227.45,55.21 L 229.30,54.21 L 230.40,53.62 L 231.03,53.27 L 232.50,52.42 L 236.06,50.24 " style="stroke: #add8e5; stroke-width: 0.50; fill: none;"/>
<path d="M 88.70,22.54 L 94.50,23.34 L 97.99,23.76 L 103.61,24.27 L 107.49,24.56 L 113.59,24.88 L 115.71,24.94 L 119.53,25.06 L 119.98,25.08 L 120.64,25.11 L 123.97,25.23 L 124.15,25.23 L 125.00,25.25 L 129.31,25.46 L 130.71,25.52 L 131.41,25.56 L 132.64,25.65 L 133.26,25.69 L 135.47,25.86 L 136.08,25.90 L 137.06,25.98 L 140.16,26.25 L 140.89,26.34 L 141.71,26.40 L 144.74,26.73 L 145.01,26.75 L 145.06,26.75 L 145.12,26.75 L 145.77,26.84 L 146.36,26.90 L 147.32,27.03 L 149.44,27.28 L 149.80,27.32 L 150.31,27.38 L 152.59,27.72 L 152.62,27.72 L 152.76,27.74 L 153.70,27.89 L 155.33,28.19 L 155.52,28.23 L 155.58,28.23 L 155.86,28.29 L 157.09,28.57 L 157.17,28.59 L 158.96,29.05 L 159.00,29.07 L 159.46,29.20 L 160.40,29.43 L 160.66,29.50 L 161.01,29.58 L 161.50,29.69 L 162.40,29.86 L 162.55,29.88 L 162.81,29.92 L 163.90,30.09 L 164.62,30.20 L 164.68,30.22 L 166.07,30.43 L 166.59,30.54 L 167.29,30.69 L 167.30,30.69 L 167.74,30.80 L 168.31,30.94 L 168.64,31.05 L 169.27,31.27 L 169.83,31.50 L 170.18,31.67 L 170.96,32.08 L 171.83,32.57 L 171.94,32.64 L 172.83,33.22 L 173.50,33.65 L 173.64,33.76 L 174.31,34.22 L 174.65,34.45 L 175.25,34.89 L 175.33,34.93 L 175.52,35.09 L 175.69,35.19 L 176.41,35.72 L 177.60,36.57 L 178.11,36.94 L 178.93,37.54 L 179.06,37.62 L 179.22,37.76 L 180.10,38.42 L 180.29,38.57 L 180.48,38.71 L 180.80,38.95 L 181.43,39.50 L 181.55,39.59 L 181.82,39.86 L 182.68,40.75 L 183.70,41.89 L 183.80,42.00 L 184.16,42.43 L 184.48,42.79 L 185.50,44.01 L 185.55,44.08 L 185.65,44.19 L 186.44,45.08 L 186.55,45.22 L 186.93,45.63 L 187.78,46.52 L 188.37,47.09 L 188.48,47.18 L 188.58,47.28 L 189.34,47.92 L 189.87,48.34 L 190.16,48.54 L 190.34,48.66 L 190.93,49.05 L 191.79,49.66 L 191.81,49.68 L 192.76,50.38 L 192.79,50.38 L 193.25,50.73 L 193.69,51.06 L 193.76,51.10 L 193.82,51.15 L 194.40,51.55 L 196.32,52.79 L 196.36,52.82 L 196.46,52.87 L 196.94,53.15 L 197.14,53.24 L 197.48,53.41 L 198.37,53.81 L 198.46,53.83 L 199.59,54.21 L 200.00,54.31 L 200.38,54.38 L 200.48,54.40 L 201.12,54.50 L 202.13,54.62 L 202.20,54.62 L 202.65,54.64 L 203.49,54.69 L 204.33,54.71 L 205.35,54.69 L 205.49,54.69 L 205.66,54.67 L 206.59,54.59 L 207.78,54.45 L 208.88,54.26 L 208.98,54.26 L 209.37,54.17 L 209.62,54.12 L 209.65,54.12 L 210.92,53.79 L 211.98,53.46 L 212.28,53.36 L 212.66,53.22 L 214.02,52.70 L 214.06,52.70 L 215.70,51.95 L 215.77,51.90 L 215.78,51.90 L 217.42,51.01 L 218.51,50.33 L 218.63,50.26 L 218.73,50.19 L 219.33,49.77 L 221.13,48.43 L 222.09,47.62 L 222.80,47.00 L 223.32,46.52 L 226.06,43.70 L 226.14,43.60 L 226.72,42.93 L 227.45,42.07 L 229.30,39.73 L 230.40,38.22 L 231.03,37.34 L 232.50,35.17 L 236.06,29.33 " style="stroke: #add8e5; stroke-width: 0.50; fill: none;"/>
</svg>
