<!-- Include into html file with following line: -->
<!-- <img width="396.00" height="342.00" src="lineplot20"> -->
<svg xmlns="http://www.w3.org/2000/svg" xmlns:xlink="http://www.w3.org/1999/xlink" width="396.00" height="342.00">
<defs>
</defs>
<path d="M 36.00,306.00 L 36.00,241.20 L 180.00,241.20 L 180.00,306.00 Z" style="stroke: #000000; stroke-width: 0.00; fill: #d3d3d3;"/>
<path d="M 216.00,306.00 L 216.00,241.20 L 360.00,241.20 L 360.00,306.00 Z" style="stroke: #000000; stroke-width: 0.00; fill: #d3d3d3;"/>
<path d="M 36.00,234.00 L 36.00,169.20 L 180.00,169.20 L 180.00,234.00 Z" style="stroke: #000000; stroke-width: 0.00; fill: #d3d3d3;"/>
<path d="M 216.00,234.00 L 216.00,169.20 L 360.00,169.20 L 360.00,234.00 Z" style="stroke: #000000; stroke-width: 0.00; fill: #d3d3d3;"/>
<path d="M 36.00,162.00 L 36.00,97.20 L 180.00,97.20 L 180.00,162.00 Z" style="stroke: #000000; stroke-width: 0.00; fill: #d3d3d3;"/>
<path d="M 216.00,162.00 L 216.00,97.20 L 360.00,97.20 L 360.00,162.00 Z" style="stroke: #000000; stroke-width: 0.00; fill: #d3d3d3;"/>
<path d="M 36.00,90.00 L 36.00,25.20 L 180.00,25.20 L 180.00,90.00 Z" style="stroke: #000000; stroke-width: 0.00; fill: #d3d3d3;"/>
<path d="M 216.00,90.00 L 216.00,25.20 L 360.00,25.20 L 360.00,90.00 Z" style="stroke: #000000; stroke-width: 0.00; fill: #d3d3d3;"/>
<path d="M 44.47,306.00 L 44.47,306.00 L 52.94,274.90 L 52.94,306.00 Z" style="stroke: #ffc6cc; stroke-width: 0.10; fill: #ffc6cc;"/>
<path d="M 44.47,306.00 L 44.47,306.00 L 52.94,274.90 L 52.94,306.00 Z" style="stroke: #ffc6cc; stroke-width: 0.10; fill: none;"/>
<path d="M 52.94,306.00 L 52.94,274.90 L 61.41,306.00 L 61.41,306.00 Z" style="stroke: #ffc6cc; stroke-width: 0.10; fill: #ffc6cc;"/>
<path d="M 52.94,306.00 L 52.94,274.90 L 61.41,306.00 L 61.41,306.00 Z" style="stroke: #ffc6cc; stroke-width: 0.10; fill: none;"/>
<path d="M 61.41,306.00 L 61.41,306.00 L 69.88,280.08 L 69.88,306.00 Z" style="stroke: #ffc6cc; stroke-width: 0.10; fill: #ffc6cc;"/>
<path d="M 61.41,306.00 L 61.41,306.00 L 69.88,280.08 L 69.88,306.00 Z" style="stroke: #ffc6cc; stroke-width: 0.10; fill: none;"/>
<path d="M 69.88,306.00 L 69.88,280.08 L 78.35,282.67 L 78.35,306.00 Z" style="stroke: #ffc6cc; stroke-width: 0.10; fill: #ffc6cc;"/>
<path d="M 69.88,306.00 L 69.88,280.08 L 78.35,282.67 L 78.35,306.00 Z" style="stroke: #ffc6cc; stroke-width: 0.10; fill: none;"/>
<path d="M 78.35,306.00 L 78.35,282.67 L 86.82,269.71 L 86.82,306.00 Z" style="stroke: #ffc6cc; stroke-width: 0.10; fill: #ffc6cc;"/>
<path d="M 78.35,306.00 L 78.35,282.67 L 86.82,269.71 L 86.82,306.00 Z" style="stroke: #ffc6cc; stroke-width: 0.10; fill: none;"/>
<path d="M 86.82,306.00 L 86.82,269.71 L 95.29,272.30 L 95.29,306.00 Z" style="stroke: #ffc6cc; stroke-width: 0.10; fill: #ffc6cc;"/>
<path d="M 86.82,306.00 L 86.82,269.71 L 95.29,272.30 L 95.29,306.00 Z" style="stroke: #ffc6cc; stroke-width: 0.10; fill: none;"/>
<path d="M 95.29,306.00 L 95.29,272.30 L 112.24,259.34 L 112.24,306.00 Z" style="stroke: #ffc6cc; stroke-width: 0.10; fill: #ffc6cc;"/>
<path d="M 95.29,306.00 L 95.29,272.30 L 112.24,259.34 L 112.24,306.00 Z" style="stroke: #ffc6cc; stroke-width: 0.10; fill: none;"/>
<path d="M 112.24,306.00 L 112.24,259.34 L 120.71,256.75 L 120.71,306.00 Z" style="stroke: #ffc6cc; stroke-width: 0.10; fill: #ffc6cc;"/>
<path d="M 112.24,306.00 L 112.24,259.34 L 120.71,256.75 L 120.71,306.00 Z" style="stroke: #ffc6cc; stroke-width: 0.10; fill: none;"/>
<path d="M 120.71,306.00 L 120.71,256.75 L 129.18,261.94 L 129.18,306.00 Z" style="stroke: #ffc6cc; stroke-width: 0.10; fill: #ffc6cc;"/>
<path d="M 120.71,306.00 L 120.71,256.75 L 129.18,261.94 L 129.18,306.00 Z" style="stroke: #ffc6cc; stroke-width: 0.10; fill: none;"/>
<path d="M 129.18,306.00 L 129.18,261.94 L 137.65,267.12 L 137.65,306.00 Z" style="stroke: #ffc6cc; stroke-width: 0.10; fill: #ffc6cc;"/>
<path d="M 129.18,306.00 L 129.18,261.94 L 137.65,267.12 L 137.65,306.00 Z" style="stroke: #ffc6cc; stroke-width: 0.10; fill: none;"/>
<path d="M 137.65,306.00 L 137.65,267.12 L 146.12,259.34 L 146.12,306.00 Z" style="stroke: #ffc6cc; stroke-width: 0.10; fill: #ffc6cc;"/>
<path d="M 137.65,306.00 L 137.65,267.12 L 146.12,259.34 L 146.12,306.00 Z" style="stroke: #ffc6cc; stroke-width: 0.10; fill: none;"/>
<path d="M 146.12,306.00 L 146.12,259.34 L 154.59,254.16 L 154.59,306.00 Z" style="stroke: #ffc6cc; stroke-width: 0.10; fill: #ffc6cc;"/>
<path d="M 146.12,306.00 L 146.12,259.34 L 154.59,254.16 L 154.59,306.00 Z" style="stroke: #ffc6cc; stroke-width: 0.10; fill: none;"/>
<path d="M 154.59,306.00 L 154.59,254.16 L 163.06,261.94 L 163.06,306.00 Z" style="stroke: #ffc6cc; stroke-width: 0.10; fill: #ffc6cc;"/>
<path d="M 154.59,306.00 L 154.59,254.16 L 163.06,261.94 L 163.06,306.00 Z" style="stroke: #ffc6cc; stroke-width: 0.10; fill: none;"/>
<path d="M 163.06,306.00 L 163.06,261.94 L 171.53,248.98 L 171.53,306.00 Z" style="stroke: #ffc6cc; stroke-width: 0.10; fill: #ffc6cc;"/>
<path d="M 163.06,306.00 L 163.06,261.94 L 171.53,248.98 L 171.53,306.00 Z" style="stroke: #ffc6cc; stroke-width: 0.10; fill: none;"/>
<path d="M 44.47,306.00 L 52.94,274.90 L 61.41,306.00 L 69.88,280.08 L 78.35,282.67 L 86.82,269.71 L 95.29,272.30 L 112.24,259.34 L 120.71,256.75 L 129.18,261.94 L 137.65,267.12 L 146.12,259.34 L 154.59,254.16 L 163.06,261.94 L 171.53,248.98 " style="stroke: #ff0000; stroke-width: 1.00; fill: none;"/>
<path d="M 224.47,306.00 L 224.47,306.00 L 232.94,274.90 L 232.94,306.00 Z" style="stroke: #ffc6cc; stroke-width: 0.10; fill: #ffc6cc;"/>
<path d="M 224.47,306.00 L 224.47,306.00 L 232.94,274.90 L 232.94,306.00 Z" style="stroke: #ffc6cc; stroke-width: 0.10; fill: none;"/>
<path d="M 232.94,306.00 L 232.94,274.90 L 241.41,306.00 L 241.41,306.00 Z" style="stroke: #ffc6cc; stroke-width: 0.10; fill: #ffc6cc;"/>
<path d="M 232.94,306.00 L 232.94,274.90 L 241.41,306.00 L 241.41,306.00 Z" style="stroke: #ffc6cc; stroke-width: 0.10; fill: none;"/>
<path d="M 241.41,306.00 L 241.41,306.00 L 249.88,280.08 L 249.88,306.00 Z" style="stroke: #ffc6cc; stroke-width: 0.10; fill: #ffc6cc;"/>
<path d="M 241.41,306.00 L 241.41,306.00 L 249.88,280.08 L 249.88,306.00 Z" style="stroke: #ffc6cc; stroke-width: 0.10; fill: none;"/>
<path d="M 249.88,306.00 L 249.88,280.08 L 258.35,282.67 L 258.35,306.00 Z" style="stroke: #ffc6cc; stroke-width: 0.10; fill: #ffc6cc;"/>
<path d="M 249.88,306.00 L 249.88,280.08 L 258.35,282.67 L 258.35,306.00 Z" style="stroke: #ffc6cc; stroke-width: 0.10; fill: none;"/>
<path d="M 258.35,306.00 L 258.35,282.67 L 266.82,269.71 L 266.82,306.00 Z" style="stroke: #ffc6cc; stroke-width: 0.10; fill: #ffc6cc;"/>
<path d="M 258.35,306.00 L 258.35,282.67 L 266.82,269.71 L 266.82,306.00 Z" style="stroke: #ffc6cc; stroke-width: 0.10; fill: none;"/>
<path d="M 266.82,306.00 L 266.82,269.71 L 275.29,272.30 L 275.29,306.00 Z" style="stroke: #ffc6cc; stroke-width: 0.10; fill: #ffc6cc;"/>
<path d="M 266.82,306.00 L 266.82,269.71 L 275.29,272.30 L 275.29,306.00 Z" style="stroke: #ffc6cc; stroke-width: 0.10; fill: none;"/>
<path d="M 224.47,306.00 L 232.94,274.90 L 241.41,306.00 L 249.88,280.08 L 258.35,282.67 L 266.82,269.71 L 275.29,272.30 " style="stroke: #ff0000; stroke-width: 1.00; fill: none;"/>
<path d="M 292.24,306.00 L 292.24,259.34 L 300.71,256.75 L 300.71,306.00 Z" style="stroke: #ffc6cc; stroke-width: 0.10; fill: #ffc6cc;"/>
<path d="M 292.24,306.00 L 292.24,259.34 L 300.71,256.75 L 300.71,306.00 Z" style="stroke: #ffc6cc; stroke-width: 0.10; fill: none;"/>
<path d="M 300.71,306.00 L 300.71,256.75 L 309.18,261.94 L 309.18,306.00 Z" style="stroke: #ffc6cc; stroke-width: 0.10; fill: #ffc6cc;"/>
<path d="M 300.71,306.00 L 300.71,256.75 L 309.18,261.94 L 309.18,306.00 Z" style="stroke: #ffc6cc; stroke-width: 0.10; fill: none;"/>
<path d="M 309.18,306.00 L 309.18,261.94 L 317.65,267.12 L 317.65,306.00 Z" style="stroke: #ffc6cc; stroke-width: 0.10; fill: #ffc6cc;"/>
<path d="M 309.18,306.00 L 309.18,261.94 L 317.65,267.12 L 317.65,306.00 Z" style="stroke: #ffc6cc; stroke-width: 0.10; fill: none;"/>
<path d="M 317.65,306.00 L 317.65,267.12 L 326.12,259.34 L 326.12,306.00 Z" style="stroke: #ffc6cc; stroke-width: 0.10; fill: #ffc6cc;"/>
<path d="M 317.65,306.00 L 317.65,267.12 L 326.12,259.34 L 326.12,306.00 Z" style="stroke: #ffc6cc; stroke-width: 0.10; fill: none;"/>
<path d="M 326.12,306.00 L 326.12,259.34 L 334.59,254.16 L 334.59,306.00 Z" style="stroke: #ffc6cc; stroke-width: 0.10; fill: #ffc6cc;"/>
<path d="M 326.12,306.00 L 326.12,259.34 L 334.59,254.16 L 334.59,306.00 Z" style="stroke: #ffc6cc; stroke-width: 0.10; fill: none;"/>
<path d="M 334.59,306.00 L 334.59,254.16 L 343.06,261.94 L 343.06,306.00 Z" style="stroke: #ffc6cc; stroke-width: 0.10; fill: #ffc6cc;"/>
<path d="M 334.59,306.00 L 334.59,254.16 L 343.06,261.94 L 343.06,306.00 Z" style="stroke: #ffc6cc; stroke-width: 0.10; fill: none;"/>
<path d="M 343.06,306.00 L 343.06,261.94 L 351.53,248.98 L 351.53,306.00 Z" style="stroke: #ffc6cc; stroke-width: 0.10; fill: #ffc6cc;"/>
<path d="M 343.06,306.00 L 343.06,261.94 L 351.53,248.98 L 351.53,306.00 Z" style="stroke: #ffc6cc; stroke-width: 0.10; fill: none;"/>
<path d="M 292.24,259.34 L 300.71,256.75 L 309.18,261.94 L 317.65,267.12 L 326.12,259.34 L 334.59,254.16 L 343.06,261.94 L 351.53,248.98 " style="stroke: #ff0000; stroke-width: 1.00; fill: none;"/>
<path d="M 44.47,234.00 L 44.47,234.00 L 52.94,234.00 L 52.94,234.00 Z" style="stroke: #ffc6cc; stroke-width: 0.10; fill: #ffc6cc;"/>
<path d="M 44.47,234.00 L 44.47,234.00 L 52.94,234.00 L 52.94,234.00 Z" style="stroke: #ffc6cc; stroke-width: 0.10; fill: none;"/>
<path d="M 52.94,234.00 L 52.94,202.90 L 61.41,202.90 L 61.41,234.00 Z" style="stroke: #ffc6cc; stroke-width: 0.10; fill: #ffc6cc;"/>
<path d="M 52.94,234.00 L 52.94,202.90 L 61.41,202.90 L 61.41,234.00 Z" style="stroke: #ffc6cc; stroke-width: 0.10; fill: none;"/>
<path d="M 61.41,234.00 L 61.41,234.00 L 69.88,234.00 L 69.88,234.00 Z" style="stroke: #ffc6cc; stroke-width: 0.10; fill: #ffc6cc;"/>
<path d="M 61.41,234.00 L 61.41,234.00 L 69.88,234.00 L 69.88,234.00 Z" style="stroke: #ffc6cc; stroke-width: 0.10; fill: none;"/>
<path d="M 69.88,234.00 L 69.88,208.08 L 78.35,208.08 L 78.35,234.00 Z" style="stroke: #ffc6cc; stroke-width: 0.10; fill: #ffc6cc;"/>
<path d="M 69.88,234.00 L 69.88,208.08 L 78.35,208.08 L 78.35,234.00 Z" style="stroke: #ffc6cc; stroke-width: 0.10; fill: none;"/>
<path d="M 78.35,234.00 L 78.35,210.67 L 86.82,210.67 L 86.82,234.00 Z" style="stroke: #ffc6cc; stroke-width: 0.10; fill: #ffc6cc;"/>
<path d="M 78.35,234.00 L 78.35,210.67 L 86.82,210.67 L 86.82,234.00 Z" style="stroke: #ffc6cc; stroke-width: 0.10; fill: none;"/>
<path d="M 86.82,234.00 L 86.82,197.71 L 95.29,197.71 L 95.29,234.00 Z" style="stroke: #ffc6cc; stroke-width: 0.10; fill: #ffc6cc;"/>
<path d="M 86.82,234.00 L 86.82,197.71 L 95.29,197.71 L 95.29,234.00 Z" style="stroke: #ffc6cc; stroke-width: 0.10; fill: none;"/>
<path d="M 95.29,234.00 L 95.29,200.30 L 112.24,200.30 L 112.24,234.00 Z" style="stroke: #ffc6cc; stroke-width: 0.10; fill: #ffc6cc;"/>
<path d="M 95.29,234.00 L 95.29,200.30 L 112.24,200.30 L 112.24,234.00 Z" style="stroke: #ffc6cc; stroke-width: 0.10; fill: none;"/>
<path d="M 112.24,234.00 L 112.24,187.34 L 120.71,187.34 L 120.71,234.00 Z" style="stroke: #ffc6cc; stroke-width: 0.10; fill: #ffc6cc;"/>
<path d="M 112.24,234.00 L 112.24,187.34 L 120.71,187.34 L 120.71,234.00 Z" style="stroke: #ffc6cc; stroke-width: 0.10; fill: none;"/>
<path d="M 120.71,234.00 L 120.71,184.75 L 129.18,184.75 L 129.18,234.00 Z" style="stroke: #ffc6cc; stroke-width: 0.10; fill: #ffc6cc;"/>
<path d="M 120.71,234.00 L 120.71,184.75 L 129.18,184.75 L 129.18,234.00 Z" style="stroke: #ffc6cc; stroke-width: 0.10; fill: none;"/>
<path d="M 129.18,234.00 L 129.18,189.94 L 137.65,189.94 L 137.65,234.00 Z" style="stroke: #ffc6cc; stroke-width: 0.10; fill: #ffc6cc;"/>
<path d="M 129.18,234.00 L 129.18,189.94 L 137.65,189.94 L 137.65,234.00 Z" style="stroke: #ffc6cc; stroke-width: 0.10; fill: none;"/>
<path d="M 137.65,234.00 L 137.65,195.12 L 146.12,195.12 L 146.12,234.00 Z" style="stroke: #ffc6cc; stroke-width: 0.10; fill: #ffc6cc;"/>
<path d="M 137.65,234.00 L 137.65,195.12 L 146.12,195.12 L 146.12,234.00 Z" style="stroke: #ffc6cc; stroke-width: 0.10; fill: none;"/>
<path d="M 146.12,234.00 L 146.12,187.34 L 154.59,187.34 L 154.59,234.00 Z" style="stroke: #ffc6cc; stroke-width: 0.10; fill: #ffc6cc;"/>
<path d="M 146.12,234.00 L 146.12,187.34 L 154.59,187.34 L 154.59,234.00 Z" style="stroke: #ffc6cc; stroke-width: 0.10; fill: none;"/>
<path d="M 154.59,234.00 L 154.59,182.16 L 163.06,182.16 L 163.06,234.00 Z" style="stroke: #ffc6cc; stroke-width: 0.10; fill: #ffc6cc;"/>
<path d="M 154.59,234.00 L 154.59,182.16 L 163.06,182.16 L 163.06,234.00 Z" style="stroke: #ffc6cc; stroke-width: 0.10; fill: none;"/>
<path d="M 163.06,234.00 L 163.06,189.94 L 171.53,189.94 L 171.53,234.00 Z" style="stroke: #ffc6cc; stroke-width: 0.10; fill: #ffc6cc;"/>
<path d="M 163.06,234.00 L 163.06,189.94 L 171.53,189.94 L 171.53,234.00 Z" style="stroke: #ffc6cc; stroke-width: 0.10; fill: none;"/>
<path d="M 44.47,234.00 L 52.94,234.00 L 52.94,202.90 L 61.41,202.90 L 61.41,234.00 L 69.88,234.00 L 69.88,208.08 L 78.35,208.08 L 78.35,210.67 L 86.82,210.67 L 86.82,197.71 L 95.29,197.71 L 95.29,200.30 L 112.24,200.30 L 112.24,187.34 L 120.71,187.34 L 120.71,184.75 L 129.18,184.75 L 129.18,189.94 L 137.65,189.94 L 137.65,195.12 L 146.12,195.12 L 146.12,187.34 L 154.59,187.34 L 154.59,182.16 L 163.06,182.16 L 163.06,189.94 L 171.53,189.94 L 171.53,176.98 " style="stroke: #ff0000; stroke-width: 1.00; fill: none;"/>
<path d="M 224.47,234.00 L 224.47,234.00 L 232.94,234.00 L 232.94,234.00 Z" style="stroke: #ffc6cc; stroke-width: 0.10; fill: #ffc6cc;"/>
<path d="M 224.47,234.00 L 224.47,234.00 L 232.94,234.00 L 232.94,234.00 Z" style="stroke: #ffc6cc; stroke-width: 0.10; fill: none;"/>
<path d="M 232.94,234.00 L 232.94,202.90 L 241.41,202.90 L 241.41,234.00 Z" style="stroke: #ffc6cc; stroke-width: 0.10; fill: #ffc6cc;"/>
<path d="M 232.94,234.00 L 232.94,202.90 L 241.41,202.90 L 241.41,234.00 Z" style="stroke: #ffc6cc; stroke-width: 0.10; fill: none;"/>
<path d="M 241.41,234.00 L 241.41,234.00 L 249.88,234.00 L 249.88,234.00 Z" style="stroke: #ffc6cc; stroke-width: 0.10; fill: #ffc6cc;"/>
<path d="M 241.41,234.00 L 241.41,234.00 L 249.88,234.00 L 249.88,234.00 Z" style="stroke: #ffc6cc; stroke-width: 0.10; fill: none;"/>
<path d="M 249.88,234.00 L 249.88,208.08 L 258.35,208.08 L 258.35,234.00 Z" style="stroke: #ffc6cc; stroke-width: 0.10; fill: #ffc6cc;"/>
<path d="M 249.88,234.00 L 249.88,208.08 L 258.35,208.08 L 258.35,234.00 Z" style="stroke: #ffc6cc; stroke-width: 0.10; fill: none;"/>
<path d="M 258.35,234.00 L 258.35,210.67 L 266.82,210.67 L 266.82,234.00 Z" style="stroke: #ffc6cc; stroke-width: 0.10; fill: #ffc6cc;"/>
<path d="M 258.35,234.00 L 258.35,210.67 L 266.82,210.67 L 266.82,234.00 Z" style="stroke: #ffc6cc; stroke-width: 0.10; fill: none;"/>
<path d="M 266.82,234.00 L 266.82,197.71 L 275.29,197.71 L 275.29,234.00 Z" style="stroke: #ffc6cc; stroke-width: 0.10; fill: #ffc6cc;"/>
<path d="M 266.82,234.00 L 266.82,197.71 L 275.29,197.71 L 275.29,234.00 Z" style="stroke: #ffc6cc; stroke-width: 0.10; fill: none;"/>
<path d="M 224.47,234.00 L 232.94,234.00 L 232.94,202.90 L 241.41,202.90 L 241.41,234.00 L 249.88,234.00 L 249.88,208.08 L 258.35,208.08 L 258.35,210.67 L 266.82,210.67 L 266.82,197.71 L 275.29,197.71 L 275.29,200.30 " style="stroke: #ff0000; stroke-width: 1.00; fill: none;"/>
<path d="M 292.24,234.00 L 292.24,187.34 L 300.71,187.34 L 300.71,234.00 Z" style="stroke: #ffc6cc; stroke-width: 0.10; fill: #ffc6cc;"/>
<path d="M 292.24,234.00 L 292.24,187.34 L 300.71,187.34 L 300.71,234.00 Z" style="stroke: #ffc6cc; stroke-width: 0.10; fill: none;"/>
<path d="M 300.71,234.00 L 300.71,184.75 L 309.18,184.75 L 309.18,234.00 Z" style="stroke: #ffc6cc; stroke-width: 0.10; fill: #ffc6cc;"/>
<path d="M 300.71,234.00 L 300.71,184.75 L 309.18,184.75 L 309.18,234.00 Z" style="stroke: #ffc6cc; stroke-width: 0.10; fill: none;"/>
<path d="M 309.18,234.00 L 309.18,189.94 L 317.65,189.94 L 317.65,234.00 Z" style="stroke: #ffc6cc; stroke-width: 0.10; fill: #ffc6cc;"/>
<path d="M 309.18,234.00 L 309.18,189.94 L 317.65,189.94 L 317.65,234.00 Z" style="stroke: #ffc6cc; stroke-width: 0.10; fill: none;"/>
<path d="M 317.65,234.00 L 317.65,195.12 L 326.12,195.12 L 326.12,234.00 Z" style="stroke: #ffc6cc; stroke-width: 0.10; fill: #ffc6cc;"/>
<path d="M 317.65,234.00 L 317.65,195.12 L 326.12,195.12 L 326.12,234.00 Z" style="stroke: #ffc6cc; stroke-width: 0.10; fill: none;"/>
<path d="M 326.12,234.00 L 326.12,187.34 L 334.59,187.34 L 334.59,234.00 Z" style="stroke: #ffc6cc; stroke-width: 0.10; fill: #ffc6cc;"/>
<path d="M 326.12,234.00 L 326.12,187.34 L 334.59,187.34 L 334.59,234.00 Z" style="stroke: #ffc6cc; stroke-width: 0.10; fill: none;"/>
<path d="M 334.59,234.00 L 334.59,182.16 L 343.06,182.16 L 343.06,234.00 Z" style="stroke: #ffc6cc; stroke-width: 0.10; fill: #ffc6cc;"/>
<path d="M 334.59,234.00 L 334.59,182.16 L 343.06,182.16 L 343.06,234.00 Z" style="stroke: #ffc6cc; stroke-width: 0.10; fill: none;"/>
<path d="M 343.06,234.00 L 343.06,189.94 L 351.53,189.94 L 351.53,234.00 Z" style="stroke: #ffc6cc; stroke-width: 0.10; fill: #ffc6cc;"/>
<path d="M 343.06,234.00 L 343.06,189.94 L 351.53,189.94 L 351.53,234.00 Z" style="stroke: #ffc6cc; stroke-width: 0.10; fill: none;"/>
<path d="M 292.24,187.34 L 300.71,187.34 L 300.71,184.75 L 309.18,184.75 L 309.18,189.94 L 317.65,189.94 L 317.65,195.12 L 326.12,195.12 L 326.12,187.34 L 334.59,187.34 L 334.59,182.16 L 343.06,182.16 L 343.06,189.94 L 351.53,189.94 L 351.53,176.98 " style="stroke: #ff0000; stroke-width: 1.00; fill: none;"/>
<path d="M 44.47,162.00 L 52.94,130.90 L 61.41,162.00 L 69.88,136.08 L 78.35,138.67 L 86.82,125.71 L 95.29,128.30 L 112.24,115.34 L 120.71,112.75 L 129.18,117.94 L 137.65,123.12 L 146.12,115.34 L 154.59,110.16 L 163.06,117.94 L 171.53,104.98 " style="stroke: #ff0000; stroke-width: 1.00; fill: none;"/>
<path d="M 224.47,162.00 L 232.94,130.90 L 241.41,162.00 L 249.88,136.08 L 258.35,138.67 L 266.82,125.71 L 275.29,128.30 " style="stroke: #ff0000; stroke-width: 1.00; fill: none;"/>
<path d="M 292.24,115.34 L 300.71,112.75 L 309.18,117.94 L 317.65,123.12 L 326.12,115.34 L 334.59,110.16 L 343.06,117.94 L 351.53,104.98 " style="stroke: #ff0000; stroke-width: 1.00; fill: none;"/>
<path d="M 44.47,90.00 L 52.94,90.00 L 52.94,58.90 L 61.41,58.90 L 61.41,90.00 L 69.88,90.00 L 69.88,64.08 L 78.35,64.08 L 78.35,66.67 L 86.82,66.67 L 86.82,53.71 L 95.29,53.71 L 95.29,56.30 L 112.24,56.30 L 112.24,43.34 L 120.71,43.34 L 120.71,40.75 L 129.18,40.75 L 129.18,45.94 L 137.65,45.94 L 137.65,51.12 L 146.12,51.12 L 146.12,43.34 L 154.59,43.34 L 154.59,38.16 L 163.06,38.16 L 163.06,45.94 L 171.53,45.94 L 171.53,32.98 " style="stroke: #ff0000; stroke-width: 1.00; fill: none;"/>
<path d="M 224.47,90.00 L 232.94,90.00 L 232.94,58.90 L 241.41,58.90 L 241.41,90.00 L 249.88,90.00 L 249.88,64.08 L 258.35,64.08 L 258.35,66.67 L 266.82,66.67 L 266.82,53.71 L 275.29,53.71 L 275.29,56.30 " style="stroke: #ff0000; stroke-width: 1.00; fill: none;"/>
<path d="M 292.24,43.34 L 300.71,43.34 L 300.71,40.75 L 309.18,40.75 L 309.18,45.94 L 317.65,45.94 L 317.65,51.12 L 326.12,51.12 L 326.12,43.34 L 334.59,43.34 L 334.59,38.16 L 343.06,38.16 L 343.06,45.94 L 351.53,45.94 L 351.53,32.98 " style="stroke: #ff0000; stroke-width: 1.00; fill: none;"/>
<text x="108.00" y="17.42" style="font-family: default; font-size: 8; text-anchor: middle; alignment-baseline: baseline; "> no gap</text>
<text x="288.00" y="17.42" style="font-family: default; font-size: 8; text-anchor: middle; alignment-baseline: baseline; "> gap</text>
<text x="27.53" y="56.30" transform="rotate(-90.00 27.53,56.30)" style="font-family: default; font-size: 8; text-anchor: middle; alignment-baseline: middle; "> stairstep</text>
<text x="27.53" y="200.30" transform="rotate(-90.00 27.53,200.30)" style="font-family: default; font-size: 8; text-anchor: middle; alignment-baseline: middle; "> stairstep</text>
<text x="368.47" y="200.30" transform="rotate(-90.00 368.47,200.30)" style="font-family: default; font-size: 8; text-anchor: middle; alignment-baseline: middle; "> filled</text>
<text x="368.47" y="272.30" transform="rotate(-90.00 368.47,272.30)" style="font-family: default; font-size: 8; text-anchor: middle; alignment-baseline: middle; "> filled</text>
</svg>
