<!-- Creator: zplot version python version 1.0 script: /Users/remzi/Projects/Zplot-New/z-plot/zplot.pyc host: Remzis-MacBook-Air.local -->
<!-- Include into html file with following line: -->
<!-- <img width="504.00" height="288.00" src="sar-cpu.svg"> -->
<svg xmlns="http://www.w3.org/2000/svg"
xmlns:xlink="http://www.w3.org/1999/xlink">
<defs>

</defs>
<path d="M 35.75,259.20 L 468.25,259.20 " stroke="#000000" stroke-width="0.50px" fill="none"></path>
<path d="M 36.00,259.45 L 36.00,42.95 " stroke="#000000" stroke-width="0.50px" fill="none"></path>
<path d="M 36.00,263.20 L 36.00,259.20 " stroke="#000000" stroke-width="0.50px" fill="none"></path>
<path d="M 77.47,263.20 L 77.47,259.20 " stroke="#000000" stroke-width="0.50px" fill="none"></path>
<path d="M 118.94,263.20 L 118.94,259.20 " stroke="#000000" stroke-width="0.50px" fill="none"></path>
<path d="M 160.42,263.20 L 160.42,259.20 " stroke="#000000" stroke-width="0.50px" fill="none"></path>
<path d="M 201.89,263.20 L 201.89,259.20 " stroke="#000000" stroke-width="0.50px" fill="none"></path>
<path d="M 243.36,263.20 L 243.36,259.20 " stroke="#000000" stroke-width="0.50px" fill="none"></path>
<path d="M 284.83,263.20 L 284.83,259.20 " stroke="#000000" stroke-width="0.50px" fill="none"></path>
<path d="M 326.30,263.20 L 326.30,259.20 " stroke="#000000" stroke-width="0.50px" fill="none"></path>
<path d="M 367.78,263.20 L 367.78,259.20 " stroke="#000000" stroke-width="0.50px" fill="none"></path>
<path d="M 409.25,263.20 L 409.25,259.20 " stroke="#000000" stroke-width="0.50px" fill="none"></path>
<path d="M 32.00,259.20 L 36.00,259.20 " stroke="#000000" stroke-width="0.50px" fill="none"></path>
<path d="M 32.00,237.60 L 36.00,237.60 " stroke="#000000" stroke-width="0.50px" fill="none"></path>
<path d="M 32.00,216.00 L 36.00,216.00 " stroke="#000000" stroke-width="0.50px" fill="none"></path>
<path d="M 32.00,194.40 L 36.00,194.40 " stroke="#000000" stroke-width="0.50px" fill="none"></path>
<path d="M 32.00,172.80 L 36.00,172.80 " stroke="#000000" stroke-width="0.50px" fill="none"></path>
<path d="M 32.00,151.20 L 36.00,151.20 " stroke="#000000" stroke-width="0.50px" fill="none"></path>
<path d="M 32.00,129.60 L 36.00,129.60 " stroke="#000000" stroke-width="0.50px" fill="none"></path>
<path d="M 32.00,108.00 L 36.00,108.00 " stroke="#000000" stroke-width="0.50px" fill="none"></path>
<path d="M 32.00,86.40 L 36.00,86.40 " stroke="#000000" stroke-width="0.50px" fill="none"></path>
<path d="M 32.00,64.80 L 36.00,64.80 " stroke="#000000" stroke-width="0.50px" fill="none"></path>
<path d="M 32.00,43.20 L 36.00,43.20 " stroke="#000000" stroke-width="0.50px" fill="none"></path>
<text x="36.00" y="266.20" style="font-family: Helvetica; font-size: 10; fill: #000000; text-anchor: middle; alignment-baseline: hanging; "> 12 am</text>
<text x="77.47" y="266.20" style="font-family: Helvetica; font-size: 10; fill: #000000; text-anchor: middle; alignment-baseline: hanging; "> 2 am</text>
<text x="118.94" y="266.20" style="font-family: Helvetica; font-size: 10; fill: #000000; text-anchor: middle; alignment-baseline: hanging; "> 4 am</text>
<text x="160.42" y="266.20" style="font-family: Helvetica; font-size: 10; fill: #000000; text-anchor: middle; alignment-baseline: hanging; "> 6 am</text>
<text x="201.89" y="266.20" style="font-family: Helvetica; font-size: 10; fill: #000000; text-anchor: middle; alignment-baseline: hanging; "> 8 am</text>
<text x="243.36" y="266.20" style="font-family: Helvetica; font-size: 10; fill: #000000; text-anchor: middle; alignment-baseline: hanging; "> 10 am</text>
<text x="284.83" y="266.20" style="font-family: Helvetica; font-size: 10; fill: #000000; text-anchor: middle; alignment-baseline: hanging; "> 12 pm</text>
<text x="326.30" y="266.20" style="font-family: Helvetica; font-size: 10; fill: #000000; text-anchor: middle; alignment-baseline: hanging; "> 2 pm</text>
<text x="367.78" y="266.20" style="font-family: Helvetica; font-size: 10; fill: #000000; text-anchor: middle; alignment-baseline: hanging; "> 4 pm</text>
<text x="409.25" y="266.20" style="font-family: Helvetica; font-size: 10; fill: #000000; text-anchor: middle; alignment-baseline: hanging; "> 6 pm</text>
<text x="29.00" y="259.20" style="font-family: Helvetica; font-size: 10; fill: #000000; text-anchor: end; alignment-baseline: middle; "> 0</text>
<text x="29.00" y="237.60" style="font-family: Helvetica; font-size: 10; fill: #000000; text-anchor: end; alignment-baseline: middle; "> 10</text>
<text x="29.00" y="216.00" style="font-family: Helvetica; font-size: 10; fill: #000000; text-anchor: end; alignment-baseline: middle; "> 20</text>
<text x="29.00" y="194.40" style="font-family: Helvetica; font-size: 10; fill: #000000; text-anchor: end; alignment-baseline: middle; "> 30</text>
<text x="29.00" y="172.80" style="font-family: Helvetica; font-size: 10; fill: #000000; text-anchor: end; alignment-baseline: middle; "> 40</text>
<text x="29.00" y="151.20" style="font-family: Helvetica; font-size: 10; fill: #000000; text-anchor: end; alignment-baseline: middle; "> 50</text>
<text x="29.00" y="129.60" style="font-family: Helvetica; font-size: 10; fill: #000000; text-anchor: end; alignment-baseline: middle; "> 60</text>
<text x="29.00" y="108.00" style="font-family: Helvetica; font-size: 10; fill: #000000; text-anchor: end; alignment-baseline: middle; "> 70</text>
<text x="29.00" y="86.40" style="font-family: Helvetica; font-size: 10; fill: #000000; text-anchor: end; alignment-baseline: middle; "> 80</text>
<text x="29.00" y="64.80" style="font-family: Helvetica; font-size: 10; fill: #000000; text-anchor: end; alignment-baseline: middle; "> 90</text>
<text x="29.00" y="43.20" style="font-family: Helvetica; font-size: 10; fill: #000000; text-anchor: end; alignment-baseline: middle; "> 100</text>
<text x="252.00" y="35.70" style="font-family: Courier-Bold; font-size: 10; fill: #000000; text-anchor: middle; alignment-baseline: baseline; "> % CPU Utilization</text>
<path d="M 33.50,259.20 L 36.00,259.20 " stroke="#000000" stroke-width="0.50px" fill="none"></path>
<path d="M 33.50,253.80 L 36.00,253.80 " stroke="#000000" stroke-width="0.50px" fill="none"></path>
<path d="M 33.50,248.40 L 36.00,248.40 " stroke="#000000" stroke-width="0.50px" fill="none"></path>
<path d="M 33.50,243.00 L 36.00,243.00 " stroke="#000000" stroke-width="0.50px" fill="none"></path>
<path d="M 33.50,237.60 L 36.00,237.60 " stroke="#000000" stroke-width="0.50px" fill="none"></path>
<path d="M 33.50,232.20 L 36.00,232.20 " stroke="#000000" stroke-width="0.50px" fill="none"></path>
<path d="M 33.50,226.80 L 36.00,226.80 " stroke="#000000" stroke-width="0.50px" fill="none"></path>
<path d="M 33.50,221.40 L 36.00,221.40 " stroke="#000000" stroke-width="0.50px" fill="none"></path>
<path d="M 33.50,216.00 L 36.00,216.00 " stroke="#000000" stroke-width="0.50px" fill="none"></path>
<path d="M 33.50,210.60 L 36.00,210.60 " stroke="#000000" stroke-width="0.50px" fill="none"></path>
<path d="M 33.50,205.20 L 36.00,205.20 " stroke="#000000" stroke-width="0.50px" fill="none"></path>
<path d="M 33.50,199.80 L 36.00,199.80 " stroke="#000000" stroke-width="0.50px" fill="none"></path>
<path d="M 33.50,194.40 L 36.00,194.40 " stroke="#000000" stroke-width="0.50px" fill="none"></path>
<path d="M 33.50,189.00 L 36.00,189.00 " stroke="#000000" stroke-width="0.50px" fill="none"></path>
<path d="M 33.50,183.60 L 36.00,183.60 " stroke="#000000" stroke-width="0.50px" fill="none"></path>
<path d="M 33.50,178.20 L 36.00,178.20 " stroke="#000000" stroke-width="0.50px" fill="none"></path>
<path d="M 33.50,172.80 L 36.00,172.80 " stroke="#000000" stroke-width="0.50px" fill="none"></path>
<path d="M 33.50,167.40 L 36.00,167.40 " stroke="#000000" stroke-width="0.50px" fill="none"></path>
<path d="M 33.50,162.00 L 36.00,162.00 " stroke="#000000" stroke-width="0.50px" fill="none"></path>
<path d="M 33.50,156.60 L 36.00,156.60 " stroke="#000000" stroke-width="0.50px" fill="none"></path>
<path d="M 33.50,151.20 L 36.00,151.20 " stroke="#000000" stroke-width="0.50px" fill="none"></path>
<path d="M 33.50,145.80 L 36.00,145.80 " stroke="#000000" stroke-width="0.50px" fill="none"></path>
<path d="M 33.50,140.40 L 36.00,140.40 " stroke="#000000" stroke-width="0.50px" fill="none"></path>
<path d="M 33.50,135.00 L 36.00,135.00 " stroke="#000000" stroke-width="0.50px" fill="none"></path>
<path d="M 33.50,129.60 L 36.00,129.60 " stroke="#000000" stroke-width="0.50px" fill="none"></path>
<path d="M 33.50,124.20 L 36.00,124.20 " stroke="#000000" stroke-width="0.50px" fill="none"></path>
<path d="M 33.50,118.80 L 36.00,118.80 " stroke="#000000" stroke-width="0.50px" fill="none"></path>
<path d="M 33.50,113.40 L 36.00,113.40 " stroke="#000000" stroke-width="0.50px" fill="none"></path>
<path d="M 33.50,108.00 L 36.00,108.00 " stroke="#000000" stroke-width="0.50px" fill="none"></path>
<path d="M 33.50,102.60 L 36.00,102.60 " stroke="#000000" stroke-width="0.50px" fill="none"></path>
<path d="M 33.50,97.20 L 36.00,97.20 " stroke="#000000" stroke-width="0.50px" fill="none"></path>
<path d="M 33.50,91.80 L 36.00,91.80 " stroke="#000000" stroke-width="0.50px" fill="none"></path>
<path d="M 33.50,86.40 L 36.00,86.40 " stroke="#000000" stroke-width="0.50px" fill="none"></path>
<path d="M 33.50,81.00 L 36.00,81.00 " stroke="#000000" stroke-width="0.50px" fill="none"></path>
<path d="M 33.50,75.60 L 36.00,75.60 " stroke="#000000" stroke-width="0.50px" fill="none"></path>
<path d="M 33.50,70.20 L 36.00,70.20 " stroke="#000000" stroke-width="0.50px" fill="none"></path>
<path d="M 33.50,64.80 L 36.00,64.80 " stroke="#000000" stroke-width="0.50px" fill="none"></path>
<path d="M 33.50,59.40 L 36.00,59.40 " stroke="#000000" stroke-width="0.50px" fill="none"></path>
<path d="M 33.50,54.00 L 36.00,54.00 " stroke="#000000" stroke-width="0.50px" fill="none"></path>
<path d="M 33.50,48.60 L 36.00,48.60 " stroke="#000000" stroke-width="0.50px" fill="none"></path>
<path d="M 37.73,226.80 L 39.47,153.36 L 41.20,228.96 L 42.93,209.52 L 44.66,205.20 L 46.39,123.12 L 48.12,101.52 L 49.85,131.76 L 51.58,235.44 L 53.31,237.60 L 55.04,246.24 L 56.76,239.76 L 58.49,241.92 L 60.23,213.84 L 61.95,218.16 L 63.69,220.32 L 65.42,248.40 L 67.14,246.24 L 68.87,248.40 L 70.60,254.88 L 72.33,254.88 L 74.06,250.56 L 75.78,254.88 L 77.51,254.88 L 79.24,259.20 L 80.97,259.20 L 82.70,259.20 L 84.42,259.20 L 86.15,259.20 L 87.88,259.20 L 89.61,259.20 L 91.34,252.72 L 93.07,257.04 L 94.80,259.20 L 96.53,259.20 L 98.25,259.20 L 99.98,257.04 L 101.71,259.20 L 103.44,259.20 L 105.17,259.20 L 106.89,259.20 L 108.62,254.88 L 110.35,257.04 L 112.08,259.20 L 113.81,259.20 L 115.53,259.20 L 117.26,259.20 L 118.99,259.20 L 120.72,259.20 L 122.45,259.20 L 124.17,259.20 L 125.90,259.20 L 127.63,259.20 L 129.36,259.20 L 131.09,259.20 L 132.81,259.20 L 134.54,259.20 L 136.27,259.20 L 138.00,259.20 L 139.73,259.20 L 141.45,259.20 L 143.18,259.20 L 144.91,259.20 L 146.64,259.20 L 148.37,259.20 L 150.09,259.20 L 151.82,259.20 L 153.55,259.20 L 155.28,259.20 L 157.01,259.20 L 158.73,259.20 L 160.46,259.20 L 162.19,259.20 L 163.92,259.20 L 165.65,259.20 L 167.37,259.20 L 169.10,259.20 L 170.83,259.20 L 172.56,259.20 L 174.29,259.20 L 176.01,259.20 L 177.74,259.20 L 179.47,259.20 L 181.20,259.20 L 182.93,259.20 L 184.65,252.72 L 186.38,259.20 L 188.11,254.88 L 189.84,254.88 L 191.57,254.88 L 193.29,254.88 L 195.02,257.04 L 196.75,252.72 L 198.48,252.72 L 200.21,254.88 L 201.94,257.04 L 203.67,257.04 L 205.40,259.20 L 207.12,252.72 L 208.85,248.40 L 210.58,233.28 L 212.31,228.96 L 214.04,246.24 L 215.76,250.56 L 217.49,252.72 L 219.22,252.72 L 220.95,237.60 L 222.68,244.08 L 224.41,246.24 L 226.14,239.76 L 227.87,248.40 L 229.59,248.40 L 231.32,241.92 L 233.05,237.60 L 234.78,237.60 L 236.51,244.08 L 238.23,248.40 L 239.96,231.12 L 241.69,233.28 L 243.42,235.44 L 245.15,228.96 L 246.88,226.80 L 248.61,241.92 L 250.34,231.12 L 252.07,190.08 L 253.80,123.12 L 255.54,218.16 L 257.26,216.00 L 259.00,222.48 L 260.73,224.64 L 262.46,218.16 L 264.19,235.44 L 265.92,228.96 L 267.65,228.96 L 269.38,209.52 L 271.11,218.16 L 272.84,235.44 L 274.58,224.64 L 276.31,233.28 L 278.04,218.16 L 279.77,224.64 L 281.50,231.12 L 283.22,220.32 L 284.96,213.84 L 286.69,235.44 L 288.41,248.40 L 290.14,246.24 L 291.88,239.76 L 293.60,244.08 L 295.33,246.24 L 297.06,246.24 L 298.79,246.24 L 300.52,239.76 L 302.25,246.24 L 303.98,248.40 L 305.71,248.40 L 307.43,231.12 L 309.17,235.44 L 310.90,239.76 L 312.62,246.24 L 314.36,231.12 L 316.09,211.68 L 317.81,233.28 L 319.55,250.56 L 321.28,241.92 L 323.00,235.44 L 324.73,237.60 L 326.47,233.28 L 328.20,226.80 L 329.93,220.32 L 331.66,239.76 L 333.39,228.96 L 335.12,224.64 L 336.85,228.96 L 338.58,222.48 L 340.31,237.60 L 342.04,228.96 L 343.77,224.64 L 345.51,222.48 L 347.24,216.00 L 348.97,226.80 L 350.70,220.32 L 352.43,235.44 L 354.17,213.84 L 355.89,205.20 L 357.63,222.48 L 359.36,228.96 L 361.09,222.48 L 362.83,220.32 L 364.56,228.96 L 366.29,222.48 L 368.02,216.00 L 369.75,209.52 L 371.49,213.84 " stroke="#0000ff" stroke-width="0.50px" fill="none"></path>
<path d="M 37.73,168.48 L 39.47,211.68 L 41.20,228.96 L 42.93,220.32 L 44.66,203.04 L 46.39,233.28 L 48.12,239.76 L 49.85,226.80 L 51.58,233.28 L 53.31,239.76 L 55.04,237.60 L 56.76,244.08 L 58.49,203.04 L 60.23,228.96 L 61.95,226.80 L 63.69,233.28 L 65.42,244.08 L 67.14,246.24 L 68.87,244.08 L 70.60,248.40 L 72.33,248.40 L 74.06,248.40 L 75.78,246.24 L 77.51,250.56 L 79.24,252.72 L 80.97,250.56 L 82.70,250.56 L 84.42,252.72 L 86.15,250.56 L 87.88,252.72 L 89.61,252.72 L 91.34,250.56 L 93.07,250.56 L 94.80,252.72 L 96.53,250.56 L 98.25,252.72 L 99.98,252.72 L 101.71,250.56 L 103.44,250.56 L 105.17,252.72 L 106.89,250.56 L 108.62,252.72 L 110.35,250.56 L 112.08,250.56 L 113.81,250.56 L 115.53,252.72 L 117.26,250.56 L 118.99,252.72 L 120.72,252.72 L 122.45,250.56 L 124.17,250.56 L 125.90,252.72 L 127.63,250.56 L 129.36,252.72 L 131.09,252.72 L 132.81,250.56 L 134.54,250.56 L 136.27,252.72 L 138.00,250.56 L 139.73,252.72 L 141.45,252.72 L 143.18,250.56 L 144.91,250.56 L 146.64,252.72 L 148.37,250.56 L 150.09,252.72 L 151.82,252.72 L 153.55,250.56 L 155.28,250.56 L 157.01,252.72 L 158.73,250.56 L 160.46,252.72 L 162.19,252.72 L 163.92,250.56 L 165.65,250.56 L 167.37,252.72 L 169.10,252.72 L 170.83,252.72 L 172.56,252.72 L 174.29,250.56 L 176.01,250.56 L 177.74,252.72 L 179.47,250.56 L 181.20,252.72 L 182.93,248.40 L 184.65,248.40 L 186.38,250.56 L 188.11,248.40 L 189.84,246.24 L 191.57,250.56 L 193.29,250.56 L 195.02,248.40 L 196.75,246.24 L 198.48,248.40 L 200.21,248.40 L 201.94,250.56 L 203.67,250.56 L 205.40,250.56 L 207.12,248.40 L 208.85,244.08 L 210.58,239.76 L 212.31,241.92 L 214.04,244.08 L 215.76,244.08 L 217.49,239.76 L 219.22,248.40 L 220.95,235.44 L 222.68,198.72 L 224.41,244.08 L 226.14,233.28 L 227.87,244.08 L 229.59,241.92 L 231.32,239.76 L 233.05,228.96 L 234.78,233.28 L 236.51,241.92 L 238.23,239.76 L 239.96,226.80 L 241.69,222.48 L 243.42,226.80 L 245.15,213.84 L 246.88,220.32 L 248.61,239.76 L 250.34,231.12 L 252.07,213.84 L 253.80,211.68 L 255.54,164.16 L 257.26,205.20 L 259.00,211.68 L 260.73,213.84 L 262.46,218.16 L 264.19,233.28 L 265.92,231.12 L 267.65,222.48 L 269.38,222.48 L 271.11,194.40 L 272.84,181.44 L 274.58,226.80 L 276.31,231.12 L 278.04,216.00 L 279.77,224.64 L 281.50,222.48 L 283.22,226.80 L 284.96,226.80 L 286.69,228.96 L 288.41,239.76 L 290.14,231.12 L 291.88,228.96 L 293.60,192.24 L 295.33,239.76 L 297.06,237.60 L 298.79,226.80 L 300.52,239.76 L 302.25,200.88 L 303.98,209.52 L 305.71,241.92 L 307.43,211.68 L 309.17,190.08 L 310.90,235.44 L 312.62,226.80 L 314.36,194.40 L 316.09,226.80 L 317.81,226.80 L 319.55,192.24 L 321.28,226.80 L 323.00,226.80 L 324.73,190.08 L 326.47,213.84 L 328.20,222.48 L 329.93,220.32 L 331.66,226.80 L 333.39,224.64 L 335.12,216.00 L 336.85,228.96 L 338.58,222.48 L 340.31,224.64 L 342.04,218.16 L 343.77,222.48 L 345.51,222.48 L 347.24,181.44 L 348.97,220.32 L 350.70,222.48 L 352.43,190.08 L 354.17,196.56 L 355.89,194.40 L 357.63,185.76 L 359.36,209.52 L 361.09,213.84 L 362.83,220.32 L 364.56,224.64 L 366.29,209.52 L 368.02,211.68 L 369.75,209.52 L 371.49,170.64 " stroke="#ff0000" stroke-width="0.50px" fill="none"></path>
<path d="M 37.73,220.32 L 39.47,220.32 L 41.20,226.80 L 42.93,226.80 L 44.66,224.64 L 46.39,224.64 L 48.12,233.28 L 49.85,226.80 L 51.58,226.80 L 53.31,231.12 L 55.04,226.80 L 56.76,237.60 L 58.49,220.32 L 60.23,224.64 L 61.95,226.80 L 63.69,231.12 L 65.42,226.80 L 67.14,237.60 L 68.87,233.28 L 70.60,228.96 L 72.33,228.96 L 74.06,233.28 L 75.78,228.96 L 77.51,239.76 L 79.24,235.44 L 80.97,231.12 L 82.70,231.12 L 84.42,235.44 L 86.15,228.96 L 87.88,239.76 L 89.61,235.44 L 91.34,231.12 L 93.07,231.12 L 94.80,235.44 L 96.53,228.96 L 98.25,239.76 L 99.98,235.44 L 101.71,231.12 L 103.44,228.96 L 105.17,235.44 L 106.89,228.96 L 108.62,239.76 L 110.35,235.44 L 112.08,228.96 L 113.81,231.12 L 115.53,235.44 L 117.26,228.96 L 118.99,239.76 L 120.72,235.44 L 122.45,231.12 L 124.17,231.12 L 125.90,235.44 L 127.63,228.96 L 129.36,239.76 L 131.09,235.44 L 132.81,231.12 L 134.54,228.96 L 136.27,235.44 L 138.00,228.96 L 139.73,239.76 L 141.45,235.44 L 143.18,231.12 L 144.91,231.12 L 146.64,235.44 L 148.37,228.96 L 150.09,239.76 L 151.82,235.44 L 153.55,231.12 L 155.28,231.12 L 157.01,235.44 L 158.73,228.96 L 160.46,239.76 L 162.19,235.44 L 163.92,231.12 L 165.65,231.12 L 167.37,235.44 L 169.10,228.96 L 170.83,239.76 L 172.56,235.44 L 174.29,231.12 L 176.01,231.12 L 177.74,235.44 L 179.47,228.96 L 181.20,239.76 L 182.93,233.28 L 184.65,228.96 L 186.38,228.96 L 188.11,235.44 L 189.84,224.64 L 191.57,239.76 L 193.29,235.44 L 195.02,228.96 L 196.75,228.96 L 198.48,233.28 L 200.21,228.96 L 201.94,239.76 L 203.67,235.44 L 205.40,228.96 L 207.12,228.96 L 208.85,233.28 L 210.58,226.80 L 212.31,235.44 L 214.04,231.12 L 215.76,226.80 L 217.49,224.64 L 219.22,228.96 L 220.95,222.48 L 222.68,205.20 L 224.41,231.12 L 226.14,224.64 L 227.87,228.96 L 229.59,231.12 L 231.32,226.80 L 233.05,226.80 L 234.78,226.80 L 236.51,226.80 L 238.23,226.80 L 239.96,224.64 L 241.69,216.00 L 243.42,233.28 L 245.15,220.32 L 246.88,222.48 L 248.61,224.64 L 250.34,228.96 L 252.07,220.32 L 253.80,228.96 L 255.54,203.04 L 257.26,218.16 L 259.00,216.00 L 260.73,222.48 L 262.46,216.00 L 264.19,233.28 L 265.92,228.96 L 267.65,220.32 L 269.38,222.48 L 271.11,216.00 L 272.84,213.84 L 274.58,231.12 L 276.31,228.96 L 278.04,222.48 L 279.77,220.32 L 281.50,228.96 L 283.22,220.32 L 284.96,233.28 L 286.69,228.96 L 288.41,228.96 L 290.14,224.64 L 291.88,231.12 L 293.60,218.16 L 295.33,235.44 L 297.06,224.64 L 298.79,220.32 L 300.52,224.64 L 302.25,228.96 L 303.98,220.32 L 305.71,235.44 L 307.43,216.00 L 309.17,213.84 L 310.90,224.64 L 312.62,231.12 L 314.36,218.16 L 316.09,231.12 L 317.81,224.64 L 319.55,220.32 L 321.28,224.64 L 323.00,231.12 L 324.73,218.16 L 326.47,231.12 L 328.20,224.64 L 329.93,224.64 L 331.66,224.64 L 333.39,228.96 L 335.12,216.00 L 336.85,233.28 L 338.58,224.64 L 340.31,222.48 L 342.04,218.16 L 343.77,226.80 L 345.51,222.48 L 347.24,222.48 L 348.97,222.48 L 350.70,222.48 L 352.43,216.00 L 354.17,224.64 L 355.89,213.84 L 357.63,213.84 L 359.36,218.16 L 361.09,218.16 L 362.83,222.48 L 364.56,233.28 L 366.29,216.00 L 368.02,228.96 L 369.75,216.00 L 371.49,200.88 " stroke="#007f00" stroke-width="0.50px" fill="none"></path>
<path d="M 324.00,64.80 L 334.00,64.80 " stroke="#0000ff" stroke-width="0.50px" fill="none"></path>
<text x="338.00" y="64.80" style="font-family: Helvetica; font-size: 8; fill: #000000; text-anchor: start; alignment-baseline: middle; "> wio</text>
<path d="M 324.00,77.80 L 334.00,77.80 " stroke="#ff0000" stroke-width="0.50px" fill="none"></path>
<text x="338.00" y="77.80" style="font-family: Helvetica; font-size: 8; fill: #000000; text-anchor: start; alignment-baseline: middle; "> sys</text>
<path d="M 324.00,90.80 L 334.00,90.80 " stroke="#007f00" stroke-width="0.50px" fill="none"></path>
<text x="338.00" y="90.80" style="font-family: Helvetica; font-size: 8; fill: #000000; text-anchor: start; alignment-baseline: middle; "> usr</text>
</svg>
