<!-- Creator: zplot version python version 1.3 script: /Users/remzi/Projects/Zplot/z-plot/zplot/zplot.pyc host: Remzis-MacBook-Air.local -->
<!-- Include into html file with following line: -->
<!-- <img width="300.00" height="300.00" src="scatter1.svg"> -->
<svg xmlns="http://www.w3.org/2000/svg" xmlns:xlink="http://www.w3.org/1999/xlink" width="300.00" height="300.00">
<defs>


</defs>
<path d="M 10.00,290.00 L 45.62,254.38 L 81.25,218.75 L 116.88,183.12 L 152.50,147.50 L 188.12,111.88 L 223.75,76.25 L 259.38,40.62 L 295.00,5.00 " stroke="#7f7f7f" stroke-width="0.25px" fill="none" ></path>
<polygon points="24.81,264.50 27.81,258.50 30.81,264.50 " fill="#ff0000" ></polygon>
<polygon points="42.62,260.94 45.62,254.94 48.62,260.94 " fill="#ff0000" ></polygon>
<polygon points="206.50,111.31 209.50,105.31 212.50,111.31 " fill="#ff0000" ></polygon>
<polygon points="206.50,111.31 209.50,105.31 212.50,111.31 " fill="#ff0000" ></polygon>
<polygon points="67.56,214.62 70.56,208.62 73.56,214.62 " fill="#ff0000" ></polygon>
<polygon points="106.75,196.81 109.75,190.81 112.75,196.81 " fill="#ff0000" ></polygon>
<polygon points="206.50,111.31 209.50,105.31 212.50,111.31 " fill="#ff0000" ></polygon>
<polygon points="206.50,111.31 209.50,105.31 212.50,111.31 " fill="#ff0000" ></polygon>
<polygon points="206.50,111.31 209.50,105.31 212.50,111.31 " fill="#ff0000" ></polygon>
<polygon points="121.00,214.62 124.00,208.62 127.00,214.62 " fill="#ff0000" ></polygon>
<polygon points="156.62,132.69 159.62,126.69 162.62,132.69 " fill="#ff0000" ></polygon>
<polygon points="160.19,154.06 163.19,148.06 166.19,154.06 " fill="#ff0000" ></polygon>
<polygon points="206.50,111.31 209.50,105.31 212.50,111.31 " fill="#ff0000" ></polygon>
<polygon points="206.50,111.31 209.50,105.31 212.50,111.31 " fill="#ff0000" ></polygon>
<polygon points="199.38,36.50 202.38,30.50 205.38,36.50 " fill="#ff0000" ></polygon>
<polygon points="202.94,97.06 205.94,91.06 208.94,97.06 " fill="#ff0000" ></polygon>
<polygon points="206.50,161.19 209.50,155.19 212.50,161.19 " fill="#ff0000" ></polygon>
<polygon points="206.50,111.31 209.50,105.31 212.50,111.31 " fill="#ff0000" ></polygon>
<polygon points="206.50,111.31 209.50,105.31 212.50,111.31 " fill="#ff0000" ></polygon>
<polygon points="206.50,107.75 209.50,101.75 212.50,107.75 " fill="#ff0000" ></polygon>
<polygon points="210.06,100.62 213.06,94.62 216.06,100.62 " fill="#ff0000" ></polygon>
<polygon points="220.75,61.44 223.75,55.44 226.75,61.44 " fill="#ff0000" ></polygon>
<polygon points="206.50,111.31 209.50,105.31 212.50,111.31 " fill="#ff0000" ></polygon>
<polygon points="206.50,111.31 209.50,105.31 212.50,111.31 " fill="#ff0000" ></polygon>
<polygon points="206.50,111.31 209.50,105.31 212.50,111.31 " fill="#ff0000" ></polygon>
<path d="M 27.81,287.00 L 27.81,293.00 " stroke="#000000" stroke-width="0.25px" fill="none" ></path>
<path d="M 45.62,287.00 L 45.62,293.00 " stroke="#000000" stroke-width="0.25px" fill="none" ></path>
<path d="M 209.50,287.00 L 209.50,293.00 " stroke="#000000" stroke-width="0.25px" fill="none" ></path>
<path d="M 209.50,287.00 L 209.50,293.00 " stroke="#000000" stroke-width="0.25px" fill="none" ></path>
<path d="M 70.56,287.00 L 70.56,293.00 " stroke="#000000" stroke-width="0.25px" fill="none" ></path>
<path d="M 109.75,287.00 L 109.75,293.00 " stroke="#000000" stroke-width="0.25px" fill="none" ></path>
<path d="M 209.50,287.00 L 209.50,293.00 " stroke="#000000" stroke-width="0.25px" fill="none" ></path>
<path d="M 209.50,287.00 L 209.50,293.00 " stroke="#000000" stroke-width="0.25px" fill="none" ></path>
<path d="M 209.50,287.00 L 209.50,293.00 " stroke="#000000" stroke-width="0.25px" fill="none" ></path>
<path d="M 124.00,287.00 L 124.00,293.00 " stroke="#000000" stroke-width="0.25px" fill="none" ></path>
<path d="M 159.62,287.00 L 159.62,293.00 " stroke="#000000" stroke-width="0.25px" fill="none" ></path>
<path d="M 163.19,287.00 L 163.19,293.00 " stroke="#000000" stroke-width="0.25px" fill="none" ></path>
<path d="M 209.50,287.00 L 209.50,293.00 " stroke="#000000" stroke-width="0.25px" fill="none" ></path>
<path d="M 209.50,287.00 L 209.50,293.00 " stroke="#000000" stroke-width="0.25px" fill="none" ></path>
<path d="M 202.38,287.00 L 202.38,293.00 " stroke="#000000" stroke-width="0.25px" fill="none" ></path>
<path d="M 205.94,287.00 L 205.94,293.00 " stroke="#000000" stroke-width="0.25px" fill="none" ></path>
<path d="M 209.50,287.00 L 209.50,293.00 " stroke="#000000" stroke-width="0.25px" fill="none" ></path>
<path d="M 209.50,287.00 L 209.50,293.00 " stroke="#000000" stroke-width="0.25px" fill="none" ></path>
<path d="M 209.50,287.00 L 209.50,293.00 " stroke="#000000" stroke-width="0.25px" fill="none" ></path>
<path d="M 209.50,287.00 L 209.50,293.00 " stroke="#000000" stroke-width="0.25px" fill="none" ></path>
<path d="M 213.06,287.00 L 213.06,293.00 " stroke="#000000" stroke-width="0.25px" fill="none" ></path>
<path d="M 223.75,287.00 L 223.75,293.00 " stroke="#000000" stroke-width="0.25px" fill="none" ></path>
<path d="M 209.50,287.00 L 209.50,293.00 " stroke="#000000" stroke-width="0.25px" fill="none" ></path>
<path d="M 209.50,287.00 L 209.50,293.00 " stroke="#000000" stroke-width="0.25px" fill="none" ></path>
<path d="M 209.50,287.00 L 209.50,293.00 " stroke="#000000" stroke-width="0.25px" fill="none" ></path>
<path d="M 7.00,261.50 L 13.00,261.50 " stroke="#000000" stroke-width="0.25px" fill="none" ></path>
<path d="M 7.00,257.94 L 13.00,257.94 " stroke="#000000" stroke-width="0.25px" fill="none" ></path>
<path d="M 7.00,108.31 L 13.00,108.31 " stroke="#000000" stroke-width="0.25px" fill="none" ></path>
<path d="M 7.00,108.31 L 13.00,108.31 " stroke="#000000" stroke-width="0.25px" fill="none" ></path>
<path d="M 7.00,211.62 L 13.00,211.62 " stroke="#000000" stroke-width="0.25px" fill="none" ></path>
<path d="M 7.00,193.81 L 13.00,193.81 " stroke="#000000" stroke-width="0.25px" fill="none" ></path>
<path d="M 7.00,108.31 L 13.00,108.31 " stroke="#000000" stroke-width="0.25px" fill="none" ></path>
<path d="M 7.00,108.31 L 13.00,108.31 " stroke="#000000" stroke-width="0.25px" fill="none" ></path>
<path d="M 7.00,108.31 L 13.00,108.31 " stroke="#000000" stroke-width="0.25px" fill="none" ></path>
<path d="M 7.00,211.62 L 13.00,211.62 " stroke="#000000" stroke-width="0.25px" fill="none" ></path>
<path d="M 7.00,129.69 L 13.00,129.69 " stroke="#000000" stroke-width="0.25px" fill="none" ></path>
<path d="M 7.00,151.06 L 13.00,151.06 " stroke="#000000" stroke-width="0.25px" fill="none" ></path>
<path d="M 7.00,108.31 L 13.00,108.31 " stroke="#000000" stroke-width="0.25px" fill="none" ></path>
<path d="M 7.00,108.31 L 13.00,108.31 " stroke="#000000" stroke-width="0.25px" fill="none" ></path>
<path d="M 7.00,33.50 L 13.00,33.50 " stroke="#000000" stroke-width="0.25px" fill="none" ></path>
<path d="M 7.00,94.06 L 13.00,94.06 " stroke="#000000" stroke-width="0.25px" fill="none" ></path>
<path d="M 7.00,158.19 L 13.00,158.19 " stroke="#000000" stroke-width="0.25px" fill="none" ></path>
<path d="M 7.00,108.31 L 13.00,108.31 " stroke="#000000" stroke-width="0.25px" fill="none" ></path>
<path d="M 7.00,108.31 L 13.00,108.31 " stroke="#000000" stroke-width="0.25px" fill="none" ></path>
<path d="M 7.00,104.75 L 13.00,104.75 " stroke="#000000" stroke-width="0.25px" fill="none" ></path>
<path d="M 7.00,97.62 L 13.00,97.62 " stroke="#000000" stroke-width="0.25px" fill="none" ></path>
<path d="M 7.00,58.44 L 13.00,58.44 " stroke="#000000" stroke-width="0.25px" fill="none" ></path>
<path d="M 7.00,108.31 L 13.00,108.31 " stroke="#000000" stroke-width="0.25px" fill="none" ></path>
<path d="M 7.00,108.31 L 13.00,108.31 " stroke="#000000" stroke-width="0.25px" fill="none" ></path>
<path d="M 7.00,108.31 L 13.00,108.31 " stroke="#000000" stroke-width="0.25px" fill="none" ></path>
<path d="M 9.88,290.00 L 295.12,290.00 " stroke="#000000" stroke-width="0.25px" fill="none" ></path>
<path d="M 10.00,290.12 L 10.00,4.88 " stroke="#000000" stroke-width="0.25px" fill="none" ></path>
</svg>
