<!-- Include into html file with following line: -->
<!-- <img width="300.00" height="300.00" src="scatter3a"> -->
<svg xmlns="http://www.w3.org/2000/svg" xmlns:xlink="http://www.w3.org/1999/xlink" width="300.00" height="300.00">
<defs>
<clipPath id="zplot_pattern_0"> <circle cx="46.25" cy="244.00" r="4.00"/> </clipPath>
<clipPath id="zplot_pattern_1"> <circle cx="62.50" cy="240.75" r="5.00"/> </clipPath>
<clipPath id="zplot_pattern_2"> <circle cx="212.00" cy="104.25" r="7.33"/> </clipPath>
<clipPath id="zplot_pattern_3"> <circle cx="212.00" cy="104.25" r="10.00"/> </clipPath>
<clipPath id="zplot_pattern_4"> <circle cx="85.25" cy="198.50" r="11.00"/> </clipPath>
<clipPath id="zplot_pattern_5"> <circle cx="121.00" cy="182.25" r="11.67"/> </clipPath>
<clipPath id="zplot_pattern_6"> <circle cx="212.00" cy="104.25" r="13.33"/> </clipPath>
<clipPath id="zplot_pattern_7"> <circle cx="212.00" cy="104.25" r="14.00"/> </clipPath>
<clipPath id="zplot_pattern_8"> <circle cx="212.00" cy="104.25" r="14.67"/> </clipPath>
<clipPath id="zplot_pattern_9"> <circle cx="134.00" cy="198.50" r="15.33"/> </clipPath>
<clipPath id="zplot_pattern_10"> <circle cx="166.50" cy="123.75" r="16.00"/> </clipPath>
<clipPath id="zplot_pattern_11"> <circle cx="169.75" cy="143.25" r="16.67"/> </clipPath>
<clipPath id="zplot_pattern_12"> <circle cx="212.00" cy="104.25" r="6.67"/> </clipPath>
<clipPath id="zplot_pattern_13"> <circle cx="212.00" cy="104.25" r="7.33"/> </clipPath>
<clipPath id="zplot_pattern_14"> <circle cx="205.50" cy="36.00" r="8.00"/> </clipPath>
<clipPath id="zplot_pattern_15"> <circle cx="208.75" cy="91.25" r="9.33"/> </clipPath>
<clipPath id="zplot_pattern_16"> <circle cx="212.00" cy="149.75" r="4.00"/> </clipPath>
<clipPath id="zplot_pattern_17"> <circle cx="212.00" cy="104.25" r="11.33"/> </clipPath>
<clipPath id="zplot_pattern_18"> <circle cx="212.00" cy="104.25" r="14.67"/> </clipPath>
<clipPath id="zplot_pattern_19"> <circle cx="212.00" cy="101.00" r="16.67"/> </clipPath>
<clipPath id="zplot_pattern_20"> <circle cx="215.25" cy="94.50" r="17.33"/> </clipPath>
<clipPath id="zplot_pattern_21"> <circle cx="225.00" cy="58.75" r="5.67"/> </clipPath>
<clipPath id="zplot_pattern_22"> <circle cx="212.00" cy="104.25" r="13.33"/> </clipPath>
<clipPath id="zplot_pattern_23"> <circle cx="212.00" cy="104.25" r="14.00"/> </clipPath>
<clipPath id="zplot_pattern_24"> <circle cx="212.00" cy="104.25" r="15.33"/> </clipPath>
</defs>
<path d="M 29.50,270.00 L 290.50,270.00 " style="stroke: #000000; stroke-width: 1.00; fill: none;"/>
<path d="M 30.00,270.50 L 30.00,9.50 " style="stroke: #000000; stroke-width: 1.00; fill: none;"/>
<path d="M 30.00,274.00 L 30.00,270.00 " style="stroke: #000000; stroke-width: 1.00; fill: none;"/>
<path d="M 62.50,274.00 L 62.50,270.00 " style="stroke: #000000; stroke-width: 1.00; fill: none;"/>
<path d="M 95.00,274.00 L 95.00,270.00 " style="stroke: #000000; stroke-width: 1.00; fill: none;"/>
<path d="M 127.50,274.00 L 127.50,270.00 " style="stroke: #000000; stroke-width: 1.00; fill: none;"/>
<path d="M 160.00,274.00 L 160.00,270.00 " style="stroke: #000000; stroke-width: 1.00; fill: none;"/>
<path d="M 192.50,274.00 L 192.50,270.00 " style="stroke: #000000; stroke-width: 1.00; fill: none;"/>
<path d="M 225.00,274.00 L 225.00,270.00 " style="stroke: #000000; stroke-width: 1.00; fill: none;"/>
<path d="M 257.50,274.00 L 257.50,270.00 " style="stroke: #000000; stroke-width: 1.00; fill: none;"/>
<path d="M 290.00,274.00 L 290.00,270.00 " style="stroke: #000000; stroke-width: 1.00; fill: none;"/>
<path d="M 26.00,270.00 L 30.00,270.00 " style="stroke: #000000; stroke-width: 1.00; fill: none;"/>
<path d="M 26.00,237.50 L 30.00,237.50 " style="stroke: #000000; stroke-width: 1.00; fill: none;"/>
<path d="M 26.00,205.00 L 30.00,205.00 " style="stroke: #000000; stroke-width: 1.00; fill: none;"/>
<path d="M 26.00,172.50 L 30.00,172.50 " style="stroke: #000000; stroke-width: 1.00; fill: none;"/>
<path d="M 26.00,140.00 L 30.00,140.00 " style="stroke: #000000; stroke-width: 1.00; fill: none;"/>
<path d="M 26.00,107.50 L 30.00,107.50 " style="stroke: #000000; stroke-width: 1.00; fill: none;"/>
<path d="M 26.00,75.00 L 30.00,75.00 " style="stroke: #000000; stroke-width: 1.00; fill: none;"/>
<path d="M 26.00,42.50 L 30.00,42.50 " style="stroke: #000000; stroke-width: 1.00; fill: none;"/>
<path d="M 26.00,10.00 L 30.00,10.00 " style="stroke: #000000; stroke-width: 1.00; fill: none;"/>
<text x="30.00" y="277.00" style="font-family: default; font-size: 10; text-anchor: middle; alignment-baseline: hanging; "> 0</text>
<text x="62.50" y="277.00" style="font-family: default; font-size: 10; text-anchor: middle; alignment-baseline: hanging; "> 10</text>
<text x="95.00" y="277.00" style="font-family: default; font-size: 10; text-anchor: middle; alignment-baseline: hanging; "> 20</text>
<text x="127.50" y="277.00" style="font-family: default; font-size: 10; text-anchor: middle; alignment-baseline: hanging; "> 30</text>
<text x="160.00" y="277.00" style="font-family: default; font-size: 10; text-anchor: middle; alignment-baseline: hanging; "> 40</text>
<text x="192.50" y="277.00" style="font-family: default; font-size: 10; text-anchor: middle; alignment-baseline: hanging; "> 50</text>
<text x="225.00" y="277.00" style="font-family: default; font-size: 10; text-anchor: middle; alignment-baseline: hanging; "> 60</text>
<text x="257.50" y="277.00" style="font-family: default; font-size: 10; text-anchor: middle; alignment-baseline: hanging; "> 70</text>
<text x="290.00" y="277.00" style="font-family: default; font-size: 10; text-anchor: middle; alignment-baseline: hanging; "> 80</text>
<text x="23.00" y="270.00" style="font-family: default; font-size: 10; text-anchor: end; alignment-baseline: middle; "> 0</text>
<text x="23.00" y="237.50" style="font-family: default; font-size: 10; text-anchor: end; alignment-baseline: middle; "> 10</text>
<text x="23.00" y="205.00" style="font-family: default; font-size: 10; text-anchor: end; alignment-baseline: middle; "> 20</text>
<text x="23.00" y="172.50" style="font-family: default; font-size: 10; text-anchor: end; alignment-baseline: middle; "> 30</text>
<text x="23.00" y="140.00" style="font-family: default; font-size: 10; text-anchor: end; alignment-baseline: middle; "> 40</text>
<text x="23.00" y="107.50" style="font-family: default; font-size: 10; text-anchor: end; alignment-baseline: middle; "> 50</text>
<text x="23.00" y="75.00" style="font-family: default; font-size: 10; text-anchor: end; alignment-baseline: middle; "> 60</text>
<text x="23.00" y="42.50" style="font-family: default; font-size: 10; text-anchor: end; alignment-baseline: middle; "> 70</text>
<text x="23.00" y="10.00" style="font-family: default; font-size: 10; text-anchor: end; alignment-baseline: middle; "> 80</text>
<path d="M 30.00,270.00 L 290.00,10.00 " style="stroke: #7f7f7f; stroke-width: 0.25; fill: none;"/>
<path d="M 42.25,248.00 L 42.25,240.00 L 50.25,240.00 L 50.25,248.00 L 42.25,248.00 Z" style="stroke: #000000; stroke-width: 0.00; fill: #f97f72;" clip-path="url(#zplot_pattern_0)"/>
<path d="M 57.50,245.75 L 57.50,235.75 L 67.50,235.75 L 67.50,245.75 L 57.50,245.75 Z" style="stroke: #000000; stroke-width: 0.00; fill: #f97f72;" clip-path="url(#zplot_pattern_1)"/>
<path d="M 204.67,111.58 L 204.67,96.92 L 219.33,96.92 L 219.33,111.58 L 204.67,111.58 Z" style="stroke: #000000; stroke-width: 0.00; fill: #f97f72;" clip-path="url(#zplot_pattern_2)"/>
<path d="M 202.00,114.25 L 202.00,94.25 L 222.00,94.25 L 222.00,114.25 L 202.00,114.25 Z" style="stroke: #000000; stroke-width: 0.00; fill: #f97f72;" clip-path="url(#zplot_pattern_3)"/>
<path d="M 74.25,209.50 L 74.25,187.50 L 96.25,187.50 L 96.25,209.50 L 74.25,209.50 Z" style="stroke: #000000; stroke-width: 0.00; fill: #f97f72;" clip-path="url(#zplot_pattern_4)"/>
<path d="M 109.33,193.92 L 109.33,170.58 L 132.67,170.58 L 132.67,193.92 L 109.33,193.92 Z" style="stroke: #000000; stroke-width: 0.00; fill: #f97f72;" clip-path="url(#zplot_pattern_5)"/>
<path d="M 198.67,117.58 L 198.67,90.92 L 225.33,90.92 L 225.33,117.58 L 198.67,117.58 Z" style="stroke: #000000; stroke-width: 0.00; fill: #f97f72;" clip-path="url(#zplot_pattern_6)"/>
<path d="M 198.00,118.25 L 198.00,90.25 L 226.00,90.25 L 226.00,118.25 L 198.00,118.25 Z" style="stroke: #000000; stroke-width: 0.00; fill: #f97f72;" clip-path="url(#zplot_pattern_7)"/>
<path d="M 197.33,118.92 L 197.33,89.58 L 226.67,89.58 L 226.67,118.92 L 197.33,118.92 Z" style="stroke: #000000; stroke-width: 0.00; fill: #f97f72;" clip-path="url(#zplot_pattern_8)"/>
<path d="M 118.67,213.83 L 118.67,183.17 L 149.33,183.17 L 149.33,213.83 L 118.67,213.83 Z" style="stroke: #000000; stroke-width: 0.00; fill: #f97f72;" clip-path="url(#zplot_pattern_9)"/>
<path d="M 150.50,139.75 L 150.50,107.75 L 182.50,107.75 L 182.50,139.75 L 150.50,139.75 Z" style="stroke: #000000; stroke-width: 0.00; fill: #f97f72;" clip-path="url(#zplot_pattern_10)"/>
<path d="M 153.08,159.92 L 153.08,126.58 L 186.42,126.58 L 186.42,159.92 L 153.08,159.92 Z" style="stroke: #000000; stroke-width: 0.00; fill: #f97f72;" clip-path="url(#zplot_pattern_11)"/>
<path d="M 205.33,110.92 L 205.33,97.58 L 218.67,97.58 L 218.67,110.92 L 205.33,110.92 Z" style="stroke: #000000; stroke-width: 0.00; fill: #f97f72;" clip-path="url(#zplot_pattern_12)"/>
<path d="M 204.67,111.58 L 204.67,96.92 L 219.33,96.92 L 219.33,111.58 L 204.67,111.58 Z" style="stroke: #000000; stroke-width: 0.00; fill: #f97f72;" clip-path="url(#zplot_pattern_13)"/>
<path d="M 197.50,44.00 L 197.50,28.00 L 213.50,28.00 L 213.50,44.00 L 197.50,44.00 Z" style="stroke: #000000; stroke-width: 0.00; fill: #f97f72;" clip-path="url(#zplot_pattern_14)"/>
<path d="M 199.42,100.58 L 199.42,81.92 L 218.08,81.92 L 218.08,100.58 L 199.42,100.58 Z" style="stroke: #000000; stroke-width: 0.00; fill: #f97f72;" clip-path="url(#zplot_pattern_15)"/>
<path d="M 208.00,153.75 L 208.00,145.75 L 216.00,145.75 L 216.00,153.75 L 208.00,153.75 Z" style="stroke: #000000; stroke-width: 0.00; fill: #f97f72;" clip-path="url(#zplot_pattern_16)"/>
<path d="M 200.67,115.58 L 200.67,92.92 L 223.33,92.92 L 223.33,115.58 L 200.67,115.58 Z" style="stroke: #000000; stroke-width: 0.00; fill: #f97f72;" clip-path="url(#zplot_pattern_17)"/>
<path d="M 197.33,118.92 L 197.33,89.58 L 226.67,89.58 L 226.67,118.92 L 197.33,118.92 Z" style="stroke: #000000; stroke-width: 0.00; fill: #f97f72;" clip-path="url(#zplot_pattern_18)"/>
<path d="M 195.33,117.67 L 195.33,84.33 L 228.67,84.33 L 228.67,117.67 L 195.33,117.67 Z" style="stroke: #000000; stroke-width: 0.00; fill: #f97f72;" clip-path="url(#zplot_pattern_19)"/>
<path d="M 197.92,111.83 L 197.92,77.17 L 232.58,77.17 L 232.58,111.83 L 197.92,111.83 Z" style="stroke: #000000; stroke-width: 0.00; fill: #f97f72;" clip-path="url(#zplot_pattern_20)"/>
<path d="M 219.33,64.42 L 219.33,53.08 L 230.67,53.08 L 230.67,64.42 L 219.33,64.42 Z" style="stroke: #000000; stroke-width: 0.00; fill: #f97f72;" clip-path="url(#zplot_pattern_21)"/>
<path d="M 198.67,117.58 L 198.67,90.92 L 225.33,90.92 L 225.33,117.58 L 198.67,117.58 Z" style="stroke: #000000; stroke-width: 0.00; fill: #f97f72;" clip-path="url(#zplot_pattern_22)"/>
<path d="M 198.00,118.25 L 198.00,90.25 L 226.00,90.25 L 226.00,118.25 L 198.00,118.25 Z" style="stroke: #000000; stroke-width: 0.00; fill: #f97f72;" clip-path="url(#zplot_pattern_23)"/>
<path d="M 196.67,119.58 L 196.67,88.92 L 227.33,88.92 L 227.33,119.58 L 196.67,119.58 Z" style="stroke: #000000; stroke-width: 0.00; fill: #f97f72;" clip-path="url(#zplot_pattern_24)"/>
<circle cx="46.25" cy="244.00" r="4.00" style="stroke: #000000; stroke-width: 0.25; fill: none;"/>
<circle cx="62.50" cy="240.75" r="5.00" style="stroke: #000000; stroke-width: 0.25; fill: none;"/>
<circle cx="212.00" cy="104.25" r="7.33" style="stroke: #000000; stroke-width: 0.25; fill: none;"/>
<circle cx="212.00" cy="104.25" r="10.00" style="stroke: #000000; stroke-width: 0.25; fill: none;"/>
<circle cx="85.25" cy="198.50" r="11.00" style="stroke: #000000; stroke-width: 0.25; fill: none;"/>
<circle cx="121.00" cy="182.25" r="11.67" style="stroke: #000000; stroke-width: 0.25; fill: none;"/>
<circle cx="212.00" cy="104.25" r="13.33" style="stroke: #000000; stroke-width: 0.25; fill: none;"/>
<circle cx="212.00" cy="104.25" r="14.00" style="stroke: #000000; stroke-width: 0.25; fill: none;"/>
<circle cx="212.00" cy="104.25" r="14.67" style="stroke: #000000; stroke-width: 0.25; fill: none;"/>
<circle cx="134.00" cy="198.50" r="15.33" style="stroke: #000000; stroke-width: 0.25; fill: none;"/>
<circle cx="166.50" cy="123.75" r="16.00" style="stroke: #000000; stroke-width: 0.25; fill: none;"/>
<circle cx="169.75" cy="143.25" r="16.67" style="stroke: #000000; stroke-width: 0.25; fill: none;"/>
<circle cx="212.00" cy="104.25" r="6.67" style="stroke: #000000; stroke-width: 0.25; fill: none;"/>
<circle cx="212.00" cy="104.25" r="7.33" style="stroke: #000000; stroke-width: 0.25; fill: none;"/>
<circle cx="205.50" cy="36.00" r="8.00" style="stroke: #000000; stroke-width: 0.25; fill: none;"/>
<circle cx="208.75" cy="91.25" r="9.33" style="stroke: #000000; stroke-width: 0.25; fill: none;"/>
<circle cx="212.00" cy="149.75" r="4.00" style="stroke: #000000; stroke-width: 0.25; fill: none;"/>
<circle cx="212.00" cy="104.25" r="11.33" style="stroke: #000000; stroke-width: 0.25; fill: none;"/>
<circle cx="212.00" cy="104.25" r="14.67" style="stroke: #000000; stroke-width: 0.25; fill: none;"/>
<circle cx="212.00" cy="101.00" r="16.67" style="stroke: #000000; stroke-width: 0.25; fill: none;"/>
<circle cx="215.25" cy="94.50" r="17.33" style="stroke: #000000; stroke-width: 0.25; fill: none;"/>
<circle cx="225.00" cy="58.75" r="5.67" style="stroke: #000000; stroke-width: 0.25; fill: none;"/>
<circle cx="212.00" cy="104.25" r="13.33" style="stroke: #000000; stroke-width: 0.25; fill: none;"/>
<circle cx="212.00" cy="104.25" r="14.00" style="stroke: #000000; stroke-width: 0.25; fill: none;"/>
<circle cx="212.00" cy="104.25" r="15.33" style="stroke: #000000; stroke-width: 0.25; fill: none;"/>
</svg>
