<!-- Include into html file with following line: -->
<!-- <img width="300.00" height="300.00" src="scatter1"> -->
<svg xmlns="http://www.w3.org/2000/svg" xmlns:xlink="http://www.w3.org/1999/xlink" width="300.00" height="300.00">
<defs>
</defs>
<path d="M 10.00,290.00 L 45.62,254.38 L 81.25,218.75 L 116.88,183.12 L 152.50,147.50 L 188.12,111.88 L 223.75,76.25 L 259.38,40.62 L 295.00,5.00 " style="stroke: #7f7f7f; stroke-width: 0.25; fill: none;"/>
<path d="M 24.81,264.50 L 27.81,258.50 L 30.81,264.50 Z" style="stroke: #000000; stroke-width: 0.00; fill: #ff0000;"/>
<path d="M 42.62,260.94 L 45.62,254.94 L 48.62,260.94 Z" style="stroke: #000000; stroke-width: 0.00; fill: #ff0000;"/>
<path d="M 206.50,111.31 L 209.50,105.31 L 212.50,111.31 Z" style="stroke: #000000; stroke-width: 0.00; fill: #ff0000;"/>
<path d="M 206.50,111.31 L 209.50,105.31 L 212.50,111.31 Z" style="stroke: #000000; stroke-width: 0.00; fill: #ff0000;"/>
<path d="M 67.56,214.62 L 70.56,208.62 L 73.56,214.62 Z" style="stroke: #000000; stroke-width: 0.00; fill: #ff0000;"/>
<path d="M 106.75,196.81 L 109.75,190.81 L 112.75,196.81 Z" style="stroke: #000000; stroke-width: 0.00; fill: #ff0000;"/>
<path d="M 206.50,111.31 L 209.50,105.31 L 212.50,111.31 Z" style="stroke: #000000; stroke-width: 0.00; fill: #ff0000;"/>
<path d="M 206.50,111.31 L 209.50,105.31 L 212.50,111.31 Z" style="stroke: #000000; stroke-width: 0.00; fill: #ff0000;"/>
<path d="M 206.50,111.31 L 209.50,105.31 L 212.50,111.31 Z" style="stroke: #000000; stroke-width: 0.00; fill: #ff0000;"/>
<path d="M 121.00,214.62 L 124.00,208.62 L 127.00,214.62 Z" style="stroke: #000000; stroke-width: 0.00; fill: #ff0000;"/>
<path d="M 156.62,132.69 L 159.62,126.69 L 162.62,132.69 Z" style="stroke: #000000; stroke-width: 0.00; fill: #ff0000;"/>
<path d="M 160.19,154.06 L 163.19,148.06 L 166.19,154.06 Z" style="stroke: #000000; stroke-width: 0.00; fill: #ff0000;"/>
<path d="M 206.50,111.31 L 209.50,105.31 L 212.50,111.31 Z" style="stroke: #000000; stroke-width: 0.00; fill: #ff0000;"/>
<path d="M 206.50,111.31 L 209.50,105.31 L 212.50,111.31 Z" style="stroke: #000000; stroke-width: 0.00; fill: #ff0000;"/>
<path d="M 199.38,36.50 L 202.38,30.50 L 205.38,36.50 Z" style="stroke: #000000; stroke-width: 0.00; fill: #ff0000;"/>
<path d="M 202.94,97.06 L 205.94,91.06 L 208.94,97.06 Z" style="stroke: #000000; stroke-width: 0.00; fill: #ff0000;"/>
<path d="M 206.50,161.19 L 209.50,155.19 L 212.50,161.19 Z" style="stroke: #000000; stroke-width: 0.00; fill: #ff0000;"/>
<path d="M 206.50,111.31 L 209.50,105.31 L 212.50,111.31 Z" style="stroke: #000000; stroke-width: 0.00; fill: #ff0000;"/>
<path d="M 206.50,111.31 L 209.50,105.31 L 212.50,111.31 Z" style="stroke: #000000; stroke-width: 0.00; fill: #ff0000;"/>
<path d="M 206.50,107.75 L 209.50,101.75 L 212.50,107.75 Z" style="stroke: #000000; stroke-width: 0.00; fill: #ff0000;"/>
<path d="M 210.06,100.62 L 213.06,94.62 L 216.06,100.62 Z" style="stroke: #000000; stroke-width: 0.00; fill: #ff0000;"/>
<path d="M 220.75,61.44 L 223.75,55.44 L 226.75,61.44 Z" style="stroke: #000000; stroke-width: 0.00; fill: #ff0000;"/>
<path d="M 206.50,111.31 L 209.50,105.31 L 212.50,111.31 Z" style="stroke: #000000; stroke-width: 0.00; fill: #ff0000;"/>
<path d="M 206.50,111.31 L 209.50,105.31 L 212.50,111.31 Z" style="stroke: #000000; stroke-width: 0.00; fill: #ff0000;"/>
<path d="M 206.50,111.31 L 209.50,105.31 L 212.50,111.31 Z" style="stroke: #000000; stroke-width: 0.00; fill: #ff0000;"/>
<path d="M 27.81,287.00 L 27.81,293.00 " style="stroke: #000000; stroke-width: 0.25; fill: none;"/>
<path d="M 45.62,287.00 L 45.62,293.00 " style="stroke: #000000; stroke-width: 0.25; fill: none;"/>
<path d="M 209.50,287.00 L 209.50,293.00 " style="stroke: #000000; stroke-width: 0.25; fill: none;"/>
<path d="M 209.50,287.00 L 209.50,293.00 " style="stroke: #000000; stroke-width: 0.25; fill: none;"/>
<path d="M 70.56,287.00 L 70.56,293.00 " style="stroke: #000000; stroke-width: 0.25; fill: none;"/>
<path d="M 109.75,287.00 L 109.75,293.00 " style="stroke: #000000; stroke-width: 0.25; fill: none;"/>
<path d="M 209.50,287.00 L 209.50,293.00 " style="stroke: #000000; stroke-width: 0.25; fill: none;"/>
<path d="M 209.50,287.00 L 209.50,293.00 " style="stroke: #000000; stroke-width: 0.25; fill: none;"/>
<path d="M 209.50,287.00 L 209.50,293.00 " style="stroke: #000000; stroke-width: 0.25; fill: none;"/>
<path d="M 124.00,287.00 L 124.00,293.00 " style="stroke: #000000; stroke-width: 0.25; fill: none;"/>
<path d="M 159.62,287.00 L 159.62,293.00 " style="stroke: #000000; stroke-width: 0.25; fill: none;"/>
<path d="M 163.19,287.00 L 163.19,293.00 " style="stroke: #000000; stroke-width: 0.25; fill: none;"/>
<path d="M 209.50,287.00 L 209.50,293.00 " style="stroke: #000000; stroke-width: 0.25; fill: none;"/>
<path d="M 209.50,287.00 L 209.50,293.00 " style="stroke: #000000; stroke-width: 0.25; fill: none;"/>
<path d="M 202.38,287.00 L 202.38,293.00 " style="stroke: #000000; stroke-width: 0.25; fill: none;"/>
<path d="M 205.94,287.00 L 205.94,293.00 " style="stroke: #000000; stroke-width: 0.25; fill: none;"/>
<path d="M 209.50,287.00 L 209.50,293.00 " style="stroke: #000000; stroke-width: 0.25; fill: none;"/>
<path d="M 209.50,287.00 L 209.50,293.00 " style="stroke: #000000; stroke-width: 0.25; fill: none;"/>
<path d="M 209.50,287.00 L 209.50,293.00 " style="stroke: #000000; stroke-width: 0.25; fill: none;"/>
<path d="M 209.50,287.00 L 209.50,293.00 " style="stroke: #000000; stroke-width: 0.25; fill: none;"/>
<path d="M 213.06,287.00 L 213.06,293.00 " style="stroke: #000000; stroke-width: 0.25; fill: none;"/>
<path d="M 223.75,287.00 L 223.75,293.00 " style="stroke: #000000; stroke-width: 0.25; fill: none;"/>
<path d="M 209.50,287.00 L 209.50,293.00 " style="stroke: #000000; stroke-width: 0.25; fill: none;"/>
<path d="M 209.50,287.00 L 209.50,293.00 " style="stroke: #000000; stroke-width: 0.25; fill: none;"/>
<path d="M 209.50,287.00 L 209.50,293.00 " style="stroke: #000000; stroke-width: 0.25; fill: none;"/>
<path d="M 7.00,261.50 L 13.00,261.50 " style="stroke: #000000; stroke-width: 0.25; fill: none;"/>
<path d="M 7.00,257.94 L 13.00,257.94 " style="stroke: #000000; stroke-width: 0.25; fill: none;"/>
<path d="M 7.00,108.31 L 13.00,108.31 " style="stroke: #000000; stroke-width: 0.25; fill: none;"/>
<path d="M 7.00,108.31 L 13.00,108.31 " style="stroke: #000000; stroke-width: 0.25; fill: none;"/>
<path d="M 7.00,211.62 L 13.00,211.62 " style="stroke: #000000; stroke-width: 0.25; fill: none;"/>
<path d="M 7.00,193.81 L 13.00,193.81 " style="stroke: #000000; stroke-width: 0.25; fill: none;"/>
<path d="M 7.00,108.31 L 13.00,108.31 " style="stroke: #000000; stroke-width: 0.25; fill: none;"/>
<path d="M 7.00,108.31 L 13.00,108.31 " style="stroke: #000000; stroke-width: 0.25; fill: none;"/>
<path d="M 7.00,108.31 L 13.00,108.31 " style="stroke: #000000; stroke-width: 0.25; fill: none;"/>
<path d="M 7.00,211.62 L 13.00,211.62 " style="stroke: #000000; stroke-width: 0.25; fill: none;"/>
<path d="M 7.00,129.69 L 13.00,129.69 " style="stroke: #000000; stroke-width: 0.25; fill: none;"/>
<path d="M 7.00,151.06 L 13.00,151.06 " style="stroke: #000000; stroke-width: 0.25; fill: none;"/>
<path d="M 7.00,108.31 L 13.00,108.31 " style="stroke: #000000; stroke-width: 0.25; fill: none;"/>
<path d="M 7.00,108.31 L 13.00,108.31 " style="stroke: #000000; stroke-width: 0.25; fill: none;"/>
<path d="M 7.00,33.50 L 13.00,33.50 " style="stroke: #000000; stroke-width: 0.25; fill: none;"/>
<path d="M 7.00,94.06 L 13.00,94.06 " style="stroke: #000000; stroke-width: 0.25; fill: none;"/>
<path d="M 7.00,158.19 L 13.00,158.19 " style="stroke: #000000; stroke-width: 0.25; fill: none;"/>
<path d="M 7.00,108.31 L 13.00,108.31 " style="stroke: #000000; stroke-width: 0.25; fill: none;"/>
<path d="M 7.00,108.31 L 13.00,108.31 " style="stroke: #000000; stroke-width: 0.25; fill: none;"/>
<path d="M 7.00,104.75 L 13.00,104.75 " style="stroke: #000000; stroke-width: 0.25; fill: none;"/>
<path d="M 7.00,97.62 L 13.00,97.62 " style="stroke: #000000; stroke-width: 0.25; fill: none;"/>
<path d="M 7.00,58.44 L 13.00,58.44 " style="stroke: #000000; stroke-width: 0.25; fill: none;"/>
<path d="M 7.00,108.31 L 13.00,108.31 " style="stroke: #000000; stroke-width: 0.25; fill: none;"/>
<path d="M 7.00,108.31 L 13.00,108.31 " style="stroke: #000000; stroke-width: 0.25; fill: none;"/>
<path d="M 7.00,108.31 L 13.00,108.31 " style="stroke: #000000; stroke-width: 0.25; fill: none;"/>
<path d="M 9.88,290.00 L 295.12,290.00 " style="stroke: #000000; stroke-width: 0.25; fill: none;"/>
<path d="M 10.00,290.12 L 10.00,4.88 " style="stroke: #000000; stroke-width: 0.25; fill: none;"/>
</svg>
