<!-- Include into html file with following line: -->
<!-- <img width="288.00" height="180.00" src="km"> -->
<svg xmlns="http://www.w3.org/2000/svg" xmlns:xlink="http://www.w3.org/1999/xlink" width="288.00" height="180.00">
<defs>
</defs>
<path d="M 36.00,15.00 L 36.00,15.00 L 40.74,15.00 L 40.74,16.81 Z" style="stroke: #add8e5; stroke-width: 0.10; fill: #add8e5;"/>
<path d="M 36.00,15.00 L 36.00,15.00 L 40.74,15.00 L 40.74,16.81 Z" style="stroke: #add8e5; stroke-width: 0.10; fill: none;"/>
<path d="M 40.74,16.81 L 40.74,15.00 L 45.48,15.13 L 45.48,17.06 Z" style="stroke: #add8e5; stroke-width: 0.10; fill: #add8e5;"/>
<path d="M 40.74,16.81 L 40.74,15.00 L 45.48,15.13 L 45.48,17.06 Z" style="stroke: #add8e5; stroke-width: 0.10; fill: none;"/>
<path d="M 45.48,17.06 L 45.48,15.13 L 50.22,15.65 L 50.22,18.35 Z" style="stroke: #add8e5; stroke-width: 0.10; fill: #add8e5;"/>
<path d="M 45.48,17.06 L 45.48,15.13 L 50.22,15.65 L 50.22,18.35 Z" style="stroke: #add8e5; stroke-width: 0.10; fill: none;"/>
<path d="M 50.22,18.35 L 50.22,15.65 L 54.96,16.81 L 54.96,20.29 Z" style="stroke: #add8e5; stroke-width: 0.10; fill: #add8e5;"/>
<path d="M 50.22,18.35 L 50.22,15.65 L 54.96,16.81 L 54.96,20.29 Z" style="stroke: #add8e5; stroke-width: 0.10; fill: none;"/>
<path d="M 54.96,20.29 L 54.96,16.81 L 59.70,20.42 L 59.70,25.84 Z" style="stroke: #add8e5; stroke-width: 0.10; fill: #add8e5;"/>
<path d="M 54.96,20.29 L 54.96,16.81 L 59.70,20.42 L 59.70,25.84 Z" style="stroke: #add8e5; stroke-width: 0.10; fill: none;"/>
<path d="M 59.70,25.84 L 59.70,20.42 L 64.44,25.45 L 64.44,32.42 Z" style="stroke: #add8e5; stroke-width: 0.10; fill: #add8e5;"/>
<path d="M 59.70,25.84 L 59.70,20.42 L 64.44,25.45 L 64.44,32.42 Z" style="stroke: #add8e5; stroke-width: 0.10; fill: none;"/>
<path d="M 64.44,32.42 L 64.44,25.45 L 73.92,32.29 L 73.92,40.67 Z" style="stroke: #add8e5; stroke-width: 0.10; fill: #add8e5;"/>
<path d="M 64.44,32.42 L 64.44,25.45 L 73.92,32.29 L 73.92,40.67 Z" style="stroke: #add8e5; stroke-width: 0.10; fill: none;"/>
<path d="M 73.92,40.67 L 73.92,32.29 L 83.40,38.74 L 83.40,48.02 Z" style="stroke: #add8e5; stroke-width: 0.10; fill: #add8e5;"/>
<path d="M 73.92,40.67 L 73.92,32.29 L 83.40,38.74 L 83.40,48.02 Z" style="stroke: #add8e5; stroke-width: 0.10; fill: none;"/>
<path d="M 83.40,48.02 L 83.40,38.74 L 92.88,43.51 L 92.88,53.31 Z" style="stroke: #add8e5; stroke-width: 0.10; fill: #add8e5;"/>
<path d="M 83.40,48.02 L 83.40,38.74 L 92.88,43.51 L 92.88,53.31 Z" style="stroke: #add8e5; stroke-width: 0.10; fill: none;"/>
<path d="M 92.88,53.31 L 92.88,43.51 L 102.36,50.35 L 102.36,60.80 Z" style="stroke: #add8e5; stroke-width: 0.10; fill: #add8e5;"/>
<path d="M 92.88,53.31 L 92.88,43.51 L 102.36,50.35 L 102.36,60.80 Z" style="stroke: #add8e5; stroke-width: 0.10; fill: none;"/>
<path d="M 102.36,60.80 L 102.36,50.35 L 111.84,53.96 L 111.84,64.67 Z" style="stroke: #add8e5; stroke-width: 0.10; fill: #add8e5;"/>
<path d="M 102.36,60.80 L 102.36,50.35 L 111.84,53.96 L 111.84,64.67 Z" style="stroke: #add8e5; stroke-width: 0.10; fill: none;"/>
<path d="M 111.84,64.67 L 111.84,53.96 L 121.32,57.57 L 121.32,68.41 Z" style="stroke: #add8e5; stroke-width: 0.10; fill: #add8e5;"/>
<path d="M 111.84,64.67 L 111.84,53.96 L 121.32,57.57 L 121.32,68.41 Z" style="stroke: #add8e5; stroke-width: 0.10; fill: none;"/>
<path d="M 121.32,68.41 L 121.32,57.57 L 130.80,60.15 L 130.80,71.24 Z" style="stroke: #add8e5; stroke-width: 0.10; fill: #add8e5;"/>
<path d="M 121.32,68.41 L 121.32,57.57 L 130.80,60.15 L 130.80,71.24 Z" style="stroke: #add8e5; stroke-width: 0.10; fill: none;"/>
<path d="M 130.80,71.24 L 130.80,60.15 L 140.28,65.05 L 140.28,76.27 Z" style="stroke: #add8e5; stroke-width: 0.10; fill: #add8e5;"/>
<path d="M 130.80,71.24 L 130.80,60.15 L 140.28,65.05 L 140.28,76.27 Z" style="stroke: #add8e5; stroke-width: 0.10; fill: none;"/>
<path d="M 140.28,76.27 L 140.28,65.05 L 149.76,65.95 L 149.76,77.31 Z" style="stroke: #add8e5; stroke-width: 0.10; fill: #add8e5;"/>
<path d="M 140.28,76.27 L 140.28,65.05 L 149.76,65.95 L 149.76,77.31 Z" style="stroke: #add8e5; stroke-width: 0.10; fill: none;"/>
<path d="M 149.76,77.31 L 149.76,65.95 L 159.24,69.05 L 159.24,80.66 Z" style="stroke: #add8e5; stroke-width: 0.10; fill: #add8e5;"/>
<path d="M 149.76,77.31 L 149.76,65.95 L 159.24,69.05 L 159.24,80.66 Z" style="stroke: #add8e5; stroke-width: 0.10; fill: none;"/>
<path d="M 159.24,80.66 L 159.24,69.05 L 168.72,71.89 L 168.72,83.50 Z" style="stroke: #add8e5; stroke-width: 0.10; fill: #add8e5;"/>
<path d="M 159.24,80.66 L 159.24,69.05 L 168.72,71.89 L 168.72,83.50 Z" style="stroke: #add8e5; stroke-width: 0.10; fill: none;"/>
<path d="M 168.72,83.50 L 168.72,71.89 L 178.20,73.95 L 178.20,85.82 Z" style="stroke: #add8e5; stroke-width: 0.10; fill: #add8e5;"/>
<path d="M 168.72,83.50 L 168.72,71.89 L 178.20,73.95 L 178.20,85.82 Z" style="stroke: #add8e5; stroke-width: 0.10; fill: none;"/>
<path d="M 178.20,85.82 L 178.20,73.95 L 187.68,76.79 L 187.68,88.92 Z" style="stroke: #add8e5; stroke-width: 0.10; fill: #add8e5;"/>
<path d="M 178.20,85.82 L 178.20,73.95 L 187.68,76.79 L 187.68,88.92 Z" style="stroke: #add8e5; stroke-width: 0.10; fill: none;"/>
<path d="M 187.68,88.92 L 187.68,76.79 L 197.16,78.08 L 197.16,90.34 Z" style="stroke: #add8e5; stroke-width: 0.10; fill: #add8e5;"/>
<path d="M 187.68,88.92 L 187.68,76.79 L 197.16,78.08 L 197.16,90.34 Z" style="stroke: #add8e5; stroke-width: 0.10; fill: none;"/>
<path d="M 197.16,90.34 L 197.16,78.08 L 206.64,80.53 L 206.64,92.92 Z" style="stroke: #add8e5; stroke-width: 0.10; fill: #add8e5;"/>
<path d="M 197.16,90.34 L 197.16,78.08 L 206.64,80.53 L 206.64,92.92 Z" style="stroke: #add8e5; stroke-width: 0.10; fill: none;"/>
<path d="M 206.64,92.92 L 206.64,80.53 L 216.12,80.53 L 216.12,92.92 Z" style="stroke: #add8e5; stroke-width: 0.10; fill: #add8e5;"/>
<path d="M 206.64,92.92 L 206.64,80.53 L 216.12,80.53 L 216.12,92.92 Z" style="stroke: #add8e5; stroke-width: 0.10; fill: none;"/>
<path d="M 216.12,92.92 L 216.12,80.53 L 225.60,82.85 L 225.60,95.75 Z" style="stroke: #add8e5; stroke-width: 0.10; fill: #add8e5;"/>
<path d="M 216.12,92.92 L 216.12,80.53 L 225.60,82.85 L 225.60,95.75 Z" style="stroke: #add8e5; stroke-width: 0.10; fill: none;"/>
<path d="M 225.60,95.75 L 225.60,82.85 L 235.08,84.27 L 235.08,97.56 Z" style="stroke: #add8e5; stroke-width: 0.10; fill: #add8e5;"/>
<path d="M 225.60,95.75 L 225.60,82.85 L 235.08,84.27 L 235.08,97.56 Z" style="stroke: #add8e5; stroke-width: 0.10; fill: none;"/>
<path d="M 235.08,97.56 L 235.08,84.27 L 244.56,85.18 L 244.56,98.85 Z" style="stroke: #add8e5; stroke-width: 0.10; fill: #add8e5;"/>
<path d="M 235.08,97.56 L 235.08,84.27 L 244.56,85.18 L 244.56,98.85 Z" style="stroke: #add8e5; stroke-width: 0.10; fill: none;"/>
<path d="M 244.56,98.85 L 244.56,85.18 L 254.04,86.98 L 254.04,101.30 Z" style="stroke: #add8e5; stroke-width: 0.10; fill: #add8e5;"/>
<path d="M 244.56,98.85 L 244.56,85.18 L 254.04,86.98 L 254.04,101.30 Z" style="stroke: #add8e5; stroke-width: 0.10; fill: none;"/>
<path d="M 254.04,101.30 L 254.04,86.98 L 263.52,88.14 L 263.52,102.98 Z" style="stroke: #add8e5; stroke-width: 0.10; fill: #add8e5;"/>
<path d="M 254.04,101.30 L 254.04,86.98 L 263.52,88.14 L 263.52,102.98 Z" style="stroke: #add8e5; stroke-width: 0.10; fill: none;"/>
<path d="M 263.52,102.98 L 263.52,88.14 L 273.00,89.56 L 273.00,106.59 Z" style="stroke: #add8e5; stroke-width: 0.10; fill: #add8e5;"/>
<path d="M 263.52,102.98 L 263.52,88.14 L 273.00,89.56 L 273.00,106.59 Z" style="stroke: #add8e5; stroke-width: 0.10; fill: none;"/>
<path d="M 36.00,15.00 L 36.00,15.00 L 40.74,15.26 L 40.74,17.45 Z" style="stroke: #ffc6cc; stroke-width: 0.10; fill: #ffc6cc;"/>
<path d="M 36.00,15.00 L 36.00,15.00 L 40.74,15.26 L 40.74,17.45 Z" style="stroke: #ffc6cc; stroke-width: 0.10; fill: none;"/>
<path d="M 40.74,17.45 L 40.74,15.26 L 45.48,16.03 L 45.48,19.13 Z" style="stroke: #ffc6cc; stroke-width: 0.10; fill: #ffc6cc;"/>
<path d="M 40.74,17.45 L 40.74,15.26 L 45.48,16.03 L 45.48,19.13 Z" style="stroke: #ffc6cc; stroke-width: 0.10; fill: none;"/>
<path d="M 45.48,19.13 L 45.48,16.03 L 50.22,16.81 L 50.22,20.42 Z" style="stroke: #ffc6cc; stroke-width: 0.10; fill: #ffc6cc;"/>
<path d="M 45.48,19.13 L 45.48,16.03 L 50.22,16.81 L 50.22,20.42 Z" style="stroke: #ffc6cc; stroke-width: 0.10; fill: none;"/>
<path d="M 50.22,20.42 L 50.22,16.81 L 54.96,17.71 L 54.96,21.97 Z" style="stroke: #ffc6cc; stroke-width: 0.10; fill: #ffc6cc;"/>
<path d="M 50.22,20.42 L 50.22,16.81 L 54.96,17.71 L 54.96,21.97 Z" style="stroke: #ffc6cc; stroke-width: 0.10; fill: none;"/>
<path d="M 54.96,21.97 L 54.96,17.71 L 59.70,21.32 L 59.70,27.13 Z" style="stroke: #ffc6cc; stroke-width: 0.10; fill: #ffc6cc;"/>
<path d="M 54.96,21.97 L 54.96,17.71 L 59.70,21.32 L 59.70,27.13 Z" style="stroke: #ffc6cc; stroke-width: 0.10; fill: none;"/>
<path d="M 59.70,27.13 L 59.70,21.32 L 64.44,26.35 L 64.44,33.58 Z" style="stroke: #ffc6cc; stroke-width: 0.10; fill: #ffc6cc;"/>
<path d="M 59.70,27.13 L 59.70,21.32 L 64.44,26.35 L 64.44,33.58 Z" style="stroke: #ffc6cc; stroke-width: 0.10; fill: none;"/>
<path d="M 64.44,33.58 L 64.44,26.35 L 73.92,31.90 L 73.92,40.28 Z" style="stroke: #ffc6cc; stroke-width: 0.10; fill: #ffc6cc;"/>
<path d="M 64.44,33.58 L 64.44,26.35 L 73.92,31.90 L 73.92,40.28 Z" style="stroke: #ffc6cc; stroke-width: 0.10; fill: none;"/>
<path d="M 73.92,40.28 L 73.92,31.90 L 83.40,38.48 L 83.40,47.77 Z" style="stroke: #ffc6cc; stroke-width: 0.10; fill: #ffc6cc;"/>
<path d="M 73.92,40.28 L 73.92,31.90 L 83.40,38.48 L 83.40,47.77 Z" style="stroke: #ffc6cc; stroke-width: 0.10; fill: none;"/>
<path d="M 83.40,47.77 L 83.40,38.48 L 92.88,41.32 L 92.88,50.99 Z" style="stroke: #ffc6cc; stroke-width: 0.10; fill: #ffc6cc;"/>
<path d="M 83.40,47.77 L 83.40,38.48 L 92.88,41.32 L 92.88,50.99 Z" style="stroke: #ffc6cc; stroke-width: 0.10; fill: none;"/>
<path d="M 92.88,50.99 L 92.88,41.32 L 102.36,45.31 L 102.36,55.38 Z" style="stroke: #ffc6cc; stroke-width: 0.10; fill: #ffc6cc;"/>
<path d="M 92.88,50.99 L 92.88,41.32 L 102.36,45.31 L 102.36,55.38 Z" style="stroke: #ffc6cc; stroke-width: 0.10; fill: none;"/>
<path d="M 102.36,55.38 L 102.36,45.31 L 111.84,49.19 L 111.84,59.63 Z" style="stroke: #ffc6cc; stroke-width: 0.10; fill: #ffc6cc;"/>
<path d="M 102.36,55.38 L 102.36,45.31 L 111.84,49.19 L 111.84,59.63 Z" style="stroke: #ffc6cc; stroke-width: 0.10; fill: none;"/>
<path d="M 111.84,59.63 L 111.84,49.19 L 121.32,53.57 L 121.32,64.28 Z" style="stroke: #ffc6cc; stroke-width: 0.10; fill: #ffc6cc;"/>
<path d="M 111.84,59.63 L 111.84,49.19 L 121.32,53.57 L 121.32,64.28 Z" style="stroke: #ffc6cc; stroke-width: 0.10; fill: none;"/>
<path d="M 121.32,64.28 L 121.32,53.57 L 130.80,56.15 L 130.80,67.12 Z" style="stroke: #ffc6cc; stroke-width: 0.10; fill: #ffc6cc;"/>
<path d="M 121.32,64.28 L 121.32,53.57 L 130.80,56.15 L 130.80,67.12 Z" style="stroke: #ffc6cc; stroke-width: 0.10; fill: none;"/>
<path d="M 130.80,67.12 L 130.80,56.15 L 140.28,58.99 L 140.28,70.21 Z" style="stroke: #ffc6cc; stroke-width: 0.10; fill: #ffc6cc;"/>
<path d="M 130.80,67.12 L 130.80,56.15 L 140.28,58.99 L 140.28,70.21 Z" style="stroke: #ffc6cc; stroke-width: 0.10; fill: none;"/>
<path d="M 140.28,70.21 L 140.28,58.99 L 149.76,60.54 L 149.76,71.76 Z" style="stroke: #ffc6cc; stroke-width: 0.10; fill: #ffc6cc;"/>
<path d="M 140.28,70.21 L 140.28,58.99 L 149.76,60.54 L 149.76,71.76 Z" style="stroke: #ffc6cc; stroke-width: 0.10; fill: none;"/>
<path d="M 149.76,71.76 L 149.76,60.54 L 159.24,64.79 L 159.24,76.40 Z" style="stroke: #ffc6cc; stroke-width: 0.10; fill: #ffc6cc;"/>
<path d="M 149.76,71.76 L 149.76,60.54 L 159.24,64.79 L 159.24,76.40 Z" style="stroke: #ffc6cc; stroke-width: 0.10; fill: none;"/>
<path d="M 159.24,76.40 L 159.24,64.79 L 168.72,68.54 L 168.72,80.40 Z" style="stroke: #ffc6cc; stroke-width: 0.10; fill: #ffc6cc;"/>
<path d="M 159.24,76.40 L 159.24,64.79 L 168.72,68.54 L 168.72,80.40 Z" style="stroke: #ffc6cc; stroke-width: 0.10; fill: none;"/>
<path d="M 168.72,80.40 L 168.72,68.54 L 178.20,71.50 L 178.20,83.50 Z" style="stroke: #ffc6cc; stroke-width: 0.10; fill: #ffc6cc;"/>
<path d="M 168.72,80.40 L 168.72,68.54 L 178.20,71.50 L 178.20,83.50 Z" style="stroke: #ffc6cc; stroke-width: 0.10; fill: none;"/>
<path d="M 178.20,83.50 L 178.20,71.50 L 187.68,72.66 L 187.68,84.01 Z" style="stroke: #ffc6cc; stroke-width: 0.10; fill: #ffc6cc;"/>
<path d="M 178.20,83.50 L 178.20,71.50 L 187.68,72.66 L 187.68,84.01 Z" style="stroke: #ffc6cc; stroke-width: 0.10; fill: none;"/>
<path d="M 187.68,84.01 L 187.68,72.66 L 197.16,74.86 L 197.16,87.11 Z" style="stroke: #ffc6cc; stroke-width: 0.10; fill: #ffc6cc;"/>
<path d="M 187.68,84.01 L 187.68,72.66 L 197.16,74.86 L 197.16,87.11 Z" style="stroke: #ffc6cc; stroke-width: 0.10; fill: none;"/>
<path d="M 197.16,87.11 L 197.16,74.86 L 206.64,77.18 L 206.64,89.82 Z" style="stroke: #ffc6cc; stroke-width: 0.10; fill: #ffc6cc;"/>
<path d="M 197.16,87.11 L 197.16,74.86 L 206.64,77.18 L 206.64,89.82 Z" style="stroke: #ffc6cc; stroke-width: 0.10; fill: none;"/>
<path d="M 206.64,89.82 L 206.64,77.18 L 216.12,80.40 L 216.12,93.56 Z" style="stroke: #ffc6cc; stroke-width: 0.10; fill: #ffc6cc;"/>
<path d="M 206.64,89.82 L 206.64,77.18 L 216.12,80.40 L 216.12,93.56 Z" style="stroke: #ffc6cc; stroke-width: 0.10; fill: none;"/>
<path d="M 216.12,93.56 L 216.12,80.40 L 225.60,81.05 L 225.60,94.34 Z" style="stroke: #ffc6cc; stroke-width: 0.10; fill: #ffc6cc;"/>
<path d="M 216.12,93.56 L 216.12,80.40 L 225.60,81.05 L 225.60,94.34 Z" style="stroke: #ffc6cc; stroke-width: 0.10; fill: none;"/>
<path d="M 225.60,94.34 L 225.60,81.05 L 235.08,81.82 L 235.08,95.11 Z" style="stroke: #ffc6cc; stroke-width: 0.10; fill: #ffc6cc;"/>
<path d="M 225.60,94.34 L 225.60,81.05 L 235.08,81.82 L 235.08,95.11 Z" style="stroke: #ffc6cc; stroke-width: 0.10; fill: none;"/>
<path d="M 235.08,95.11 L 235.08,81.82 L 244.56,82.60 L 244.56,96.14 Z" style="stroke: #ffc6cc; stroke-width: 0.10; fill: #ffc6cc;"/>
<path d="M 235.08,95.11 L 235.08,81.82 L 244.56,82.60 L 244.56,96.14 Z" style="stroke: #ffc6cc; stroke-width: 0.10; fill: none;"/>
<path d="M 244.56,96.14 L 244.56,82.60 L 254.04,83.50 L 254.04,97.43 Z" style="stroke: #ffc6cc; stroke-width: 0.10; fill: #ffc6cc;"/>
<path d="M 244.56,96.14 L 244.56,82.60 L 254.04,83.50 L 254.04,97.43 Z" style="stroke: #ffc6cc; stroke-width: 0.10; fill: none;"/>
<path d="M 254.04,97.43 L 254.04,83.50 L 263.52,85.56 L 263.52,100.78 Z" style="stroke: #ffc6cc; stroke-width: 0.10; fill: #ffc6cc;"/>
<path d="M 254.04,97.43 L 254.04,83.50 L 263.52,85.56 L 263.52,100.78 Z" style="stroke: #ffc6cc; stroke-width: 0.10; fill: none;"/>
<path d="M 263.52,100.78 L 263.52,85.56 L 273.00,85.56 L 273.00,100.78 Z" style="stroke: #ffc6cc; stroke-width: 0.10; fill: #ffc6cc;"/>
<path d="M 263.52,100.78 L 263.52,85.56 L 273.00,85.56 L 273.00,100.78 Z" style="stroke: #ffc6cc; stroke-width: 0.10; fill: none;"/>
<path d="M 36.00,15.00 L 36.00,15.00 L 40.74,15.00 L 40.74,17.45 Z" style="stroke: #8eed8e; stroke-width: 0.10; fill: #8eed8e;"/>
<path d="M 36.00,15.00 L 36.00,15.00 L 40.74,15.00 L 40.74,17.45 Z" style="stroke: #8eed8e; stroke-width: 0.10; fill: none;"/>
<path d="M 40.74,17.45 L 40.74,15.00 L 45.48,15.13 L 45.48,19.13 Z" style="stroke: #8eed8e; stroke-width: 0.10; fill: #8eed8e;"/>
<path d="M 40.74,17.45 L 40.74,15.00 L 45.48,15.13 L 45.48,19.13 Z" style="stroke: #8eed8e; stroke-width: 0.10; fill: none;"/>
<path d="M 45.48,19.13 L 45.48,15.13 L 50.22,15.65 L 50.22,20.42 Z" style="stroke: #8eed8e; stroke-width: 0.10; fill: #8eed8e;"/>
<path d="M 45.48,19.13 L 45.48,15.13 L 50.22,15.65 L 50.22,20.42 Z" style="stroke: #8eed8e; stroke-width: 0.10; fill: none;"/>
<path d="M 50.22,20.42 L 50.22,15.65 L 54.96,16.81 L 54.96,21.97 Z" style="stroke: #8eed8e; stroke-width: 0.10; fill: #8eed8e;"/>
<path d="M 50.22,20.42 L 50.22,15.65 L 54.96,16.81 L 54.96,21.97 Z" style="stroke: #8eed8e; stroke-width: 0.10; fill: none;"/>
<path d="M 54.96,21.97 L 54.96,16.81 L 59.70,20.42 L 59.70,27.13 Z" style="stroke: #8eed8e; stroke-width: 0.10; fill: #8eed8e;"/>
<path d="M 54.96,21.97 L 54.96,16.81 L 59.70,20.42 L 59.70,27.13 Z" style="stroke: #8eed8e; stroke-width: 0.10; fill: none;"/>
<path d="M 59.70,27.13 L 59.70,20.42 L 64.44,25.45 L 64.44,33.58 Z" style="stroke: #8eed8e; stroke-width: 0.10; fill: #8eed8e;"/>
<path d="M 59.70,27.13 L 59.70,20.42 L 64.44,25.45 L 64.44,33.58 Z" style="stroke: #8eed8e; stroke-width: 0.10; fill: none;"/>
<path d="M 64.44,33.58 L 64.44,25.45 L 73.92,32.29 L 73.92,40.28 Z" style="stroke: #8eed8e; stroke-width: 0.10; fill: #8eed8e;"/>
<path d="M 64.44,33.58 L 64.44,25.45 L 73.92,32.29 L 73.92,40.28 Z" style="stroke: #8eed8e; stroke-width: 0.10; fill: none;"/>
<path d="M 73.92,40.28 L 73.92,32.29 L 83.40,38.74 L 83.40,47.77 Z" style="stroke: #8eed8e; stroke-width: 0.10; fill: #8eed8e;"/>
<path d="M 73.92,40.28 L 73.92,32.29 L 83.40,38.74 L 83.40,47.77 Z" style="stroke: #8eed8e; stroke-width: 0.10; fill: none;"/>
<path d="M 83.40,47.77 L 83.40,38.74 L 92.88,43.51 L 92.88,50.99 Z" style="stroke: #8eed8e; stroke-width: 0.10; fill: #8eed8e;"/>
<path d="M 83.40,47.77 L 83.40,38.74 L 92.88,43.51 L 92.88,50.99 Z" style="stroke: #8eed8e; stroke-width: 0.10; fill: none;"/>
<path d="M 92.88,50.99 L 92.88,43.51 L 102.36,50.35 L 102.36,55.38 Z" style="stroke: #8eed8e; stroke-width: 0.10; fill: #8eed8e;"/>
<path d="M 92.88,50.99 L 92.88,43.51 L 102.36,50.35 L 102.36,55.38 Z" style="stroke: #8eed8e; stroke-width: 0.10; fill: none;"/>
<path d="M 102.36,55.38 L 102.36,50.35 L 111.84,53.96 L 111.84,59.63 Z" style="stroke: #8eed8e; stroke-width: 0.10; fill: #8eed8e;"/>
<path d="M 102.36,55.38 L 102.36,50.35 L 111.84,53.96 L 111.84,59.63 Z" style="stroke: #8eed8e; stroke-width: 0.10; fill: none;"/>
<path d="M 111.84,59.63 L 111.84,53.96 L 121.32,57.57 L 121.32,64.28 Z" style="stroke: #8eed8e; stroke-width: 0.10; fill: #8eed8e;"/>
<path d="M 111.84,59.63 L 111.84,53.96 L 121.32,57.57 L 121.32,64.28 Z" style="stroke: #8eed8e; stroke-width: 0.10; fill: none;"/>
<path d="M 121.32,64.28 L 121.32,57.57 L 130.80,60.15 L 130.80,67.12 Z" style="stroke: #8eed8e; stroke-width: 0.10; fill: #8eed8e;"/>
<path d="M 121.32,64.28 L 121.32,57.57 L 130.80,60.15 L 130.80,67.12 Z" style="stroke: #8eed8e; stroke-width: 0.10; fill: none;"/>
<path d="M 130.80,67.12 L 130.80,60.15 L 140.28,65.05 L 140.28,70.21 Z" style="stroke: #8eed8e; stroke-width: 0.10; fill: #8eed8e;"/>
<path d="M 130.80,67.12 L 130.80,60.15 L 140.28,65.05 L 140.28,70.21 Z" style="stroke: #8eed8e; stroke-width: 0.10; fill: none;"/>
<path d="M 140.28,70.21 L 140.28,65.05 L 149.76,65.95 L 149.76,71.76 Z" style="stroke: #8eed8e; stroke-width: 0.10; fill: #8eed8e;"/>
<path d="M 140.28,70.21 L 140.28,65.05 L 149.76,65.95 L 149.76,71.76 Z" style="stroke: #8eed8e; stroke-width: 0.10; fill: none;"/>
<path d="M 149.76,71.76 L 149.76,65.95 L 159.24,69.05 L 159.24,76.40 Z" style="stroke: #8eed8e; stroke-width: 0.10; fill: #8eed8e;"/>
<path d="M 149.76,71.76 L 149.76,65.95 L 159.24,69.05 L 159.24,76.40 Z" style="stroke: #8eed8e; stroke-width: 0.10; fill: none;"/>
<path d="M 159.24,76.40 L 159.24,69.05 L 168.72,71.89 L 168.72,80.40 Z" style="stroke: #8eed8e; stroke-width: 0.10; fill: #8eed8e;"/>
<path d="M 159.24,76.40 L 159.24,69.05 L 168.72,71.89 L 168.72,80.40 Z" style="stroke: #8eed8e; stroke-width: 0.10; fill: none;"/>
<path d="M 168.72,80.40 L 168.72,71.89 L 178.20,73.95 L 178.20,83.50 Z" style="stroke: #8eed8e; stroke-width: 0.10; fill: #8eed8e;"/>
<path d="M 168.72,80.40 L 168.72,71.89 L 178.20,73.95 L 178.20,83.50 Z" style="stroke: #8eed8e; stroke-width: 0.10; fill: none;"/>
<path d="M 178.20,83.50 L 178.20,73.95 L 187.68,76.79 L 187.68,84.01 Z" style="stroke: #8eed8e; stroke-width: 0.10; fill: #8eed8e;"/>
<path d="M 178.20,83.50 L 178.20,73.95 L 187.68,76.79 L 187.68,84.01 Z" style="stroke: #8eed8e; stroke-width: 0.10; fill: none;"/>
<path d="M 187.68,84.01 L 187.68,76.79 L 197.16,78.08 L 197.16,87.11 Z" style="stroke: #8eed8e; stroke-width: 0.10; fill: #8eed8e;"/>
<path d="M 187.68,84.01 L 187.68,76.79 L 197.16,78.08 L 197.16,87.11 Z" style="stroke: #8eed8e; stroke-width: 0.10; fill: none;"/>
<path d="M 197.16,87.11 L 197.16,78.08 L 206.64,80.53 L 206.64,89.82 Z" style="stroke: #8eed8e; stroke-width: 0.10; fill: #8eed8e;"/>
<path d="M 197.16,87.11 L 197.16,78.08 L 206.64,80.53 L 206.64,89.82 Z" style="stroke: #8eed8e; stroke-width: 0.10; fill: none;"/>
<path d="M 206.64,89.82 L 206.64,80.53 L 216.12,80.53 L 216.12,93.56 Z" style="stroke: #8eed8e; stroke-width: 0.10; fill: #8eed8e;"/>
<path d="M 206.64,89.82 L 206.64,80.53 L 216.12,80.53 L 216.12,93.56 Z" style="stroke: #8eed8e; stroke-width: 0.10; fill: none;"/>
<path d="M 216.12,93.56 L 216.12,80.53 L 225.60,82.85 L 225.60,94.34 Z" style="stroke: #8eed8e; stroke-width: 0.10; fill: #8eed8e;"/>
<path d="M 216.12,93.56 L 216.12,80.53 L 225.60,82.85 L 225.60,94.34 Z" style="stroke: #8eed8e; stroke-width: 0.10; fill: none;"/>
<path d="M 225.60,94.34 L 225.60,82.85 L 235.08,84.27 L 235.08,95.11 Z" style="stroke: #8eed8e; stroke-width: 0.10; fill: #8eed8e;"/>
<path d="M 225.60,94.34 L 225.60,82.85 L 235.08,84.27 L 235.08,95.11 Z" style="stroke: #8eed8e; stroke-width: 0.10; fill: none;"/>
<path d="M 235.08,95.11 L 235.08,84.27 L 244.56,85.18 L 244.56,96.14 Z" style="stroke: #8eed8e; stroke-width: 0.10; fill: #8eed8e;"/>
<path d="M 235.08,95.11 L 235.08,84.27 L 244.56,85.18 L 244.56,96.14 Z" style="stroke: #8eed8e; stroke-width: 0.10; fill: none;"/>
<path d="M 244.56,96.14 L 244.56,85.18 L 254.04,86.98 L 254.04,97.43 Z" style="stroke: #8eed8e; stroke-width: 0.10; fill: #8eed8e;"/>
<path d="M 244.56,96.14 L 244.56,85.18 L 254.04,86.98 L 254.04,97.43 Z" style="stroke: #8eed8e; stroke-width: 0.10; fill: none;"/>
<path d="M 254.04,97.43 L 254.04,86.98 L 263.52,88.14 L 263.52,100.78 Z" style="stroke: #8eed8e; stroke-width: 0.10; fill: #8eed8e;"/>
<path d="M 254.04,97.43 L 254.04,86.98 L 263.52,88.14 L 263.52,100.78 Z" style="stroke: #8eed8e; stroke-width: 0.10; fill: none;"/>
<path d="M 263.52,100.78 L 263.52,88.14 L 273.00,89.56 L 273.00,100.78 Z" style="stroke: #8eed8e; stroke-width: 0.10; fill: #8eed8e;"/>
<path d="M 263.52,100.78 L 263.52,88.14 L 273.00,89.56 L 273.00,100.78 Z" style="stroke: #8eed8e; stroke-width: 0.10; fill: none;"/>
<path d="M 36.00,15.00 L 40.74,15.90 L 45.48,16.10 L 50.22,17.00 L 54.96,18.55 L 59.70,23.13 L 64.44,28.93 L 73.92,36.48 L 83.40,43.38 L 92.88,48.41 L 102.36,55.57 L 111.84,59.31 L 121.32,62.99 L 130.80,65.70 L 140.28,70.66 L 149.76,71.63 L 159.24,74.86 L 168.72,77.69 L 178.20,79.89 L 187.68,82.85 L 197.16,84.21 L 206.64,86.72 L 216.12,86.72 L 225.60,89.30 L 235.08,90.92 L 244.56,92.01 L 254.04,94.14 L 263.52,95.56 L 273.00,98.08 " style="stroke: #0000ff; stroke-width: 1.00; fill: none;"/>
<path d="M 36.00,15.00 L 40.74,16.35 L 45.48,17.58 L 50.22,18.61 L 54.96,19.84 L 59.70,24.22 L 64.44,29.96 L 73.92,36.09 L 83.40,43.12 L 92.88,46.15 L 102.36,50.35 L 111.84,54.41 L 121.32,58.92 L 130.80,61.63 L 140.28,64.60 L 149.76,66.15 L 159.24,70.60 L 168.72,74.47 L 178.20,77.50 L 187.68,78.34 L 197.16,80.98 L 206.64,83.50 L 216.12,86.98 L 225.60,87.69 L 235.08,88.47 L 244.56,89.37 L 254.04,90.47 L 263.52,93.17 L 273.00,93.17 " style="stroke: #ff0000; stroke-width: 1.00; fill: none;"/>
<path d="M 35.50,144.00 L 273.50,144.00 " style="stroke: #000000; stroke-width: 1.00; fill: none;"/>
<path d="M 36.00,144.50 L 36.00,14.50 " style="stroke: #000000; stroke-width: 1.00; fill: none;"/>
<path d="M 36.00,148.00 L 36.00,144.00 " style="stroke: #000000; stroke-width: 1.00; fill: none;"/>
<path d="M 92.88,148.00 L 92.88,144.00 " style="stroke: #000000; stroke-width: 1.00; fill: none;"/>
<path d="M 149.76,148.00 L 149.76,144.00 " style="stroke: #000000; stroke-width: 1.00; fill: none;"/>
<path d="M 206.64,148.00 L 206.64,144.00 " style="stroke: #000000; stroke-width: 1.00; fill: none;"/>
<path d="M 263.52,148.00 L 263.52,144.00 " style="stroke: #000000; stroke-width: 1.00; fill: none;"/>
<path d="M 32.00,144.00 L 36.00,144.00 " style="stroke: #000000; stroke-width: 1.00; fill: none;"/>
<path d="M 32.00,118.20 L 36.00,118.20 " style="stroke: #000000; stroke-width: 1.00; fill: none;"/>
<path d="M 32.00,92.40 L 36.00,92.40 " style="stroke: #000000; stroke-width: 1.00; fill: none;"/>
<path d="M 32.00,66.60 L 36.00,66.60 " style="stroke: #000000; stroke-width: 1.00; fill: none;"/>
<path d="M 32.00,40.80 L 36.00,40.80 " style="stroke: #000000; stroke-width: 1.00; fill: none;"/>
<path d="M 32.00,15.00 L 36.00,15.00 " style="stroke: #000000; stroke-width: 1.00; fill: none;"/>
<text x="36.00" y="151.00" style="font-family: default; font-size: 10; text-anchor: middle; alignment-baseline: hanging; "> 0</text>
<text x="92.88" y="151.00" style="font-family: default; font-size: 10; text-anchor: middle; alignment-baseline: hanging; "> 12</text>
<text x="149.76" y="151.00" style="font-family: default; font-size: 10; text-anchor: middle; alignment-baseline: hanging; "> 24</text>
<text x="206.64" y="151.00" style="font-family: default; font-size: 10; text-anchor: middle; alignment-baseline: hanging; "> 36</text>
<text x="263.52" y="151.00" style="font-family: default; font-size: 10; text-anchor: middle; alignment-baseline: hanging; "> 48</text>
<text x="29.00" y="144.00" style="font-family: default; font-size: 10; text-anchor: end; alignment-baseline: middle; "> 0.0</text>
<text x="29.00" y="118.20" style="font-family: default; font-size: 10; text-anchor: end; alignment-baseline: middle; "> 0.2</text>
<text x="29.00" y="92.40" style="font-family: default; font-size: 10; text-anchor: end; alignment-baseline: middle; "> 0.4</text>
<text x="29.00" y="66.60" style="font-family: default; font-size: 10; text-anchor: end; alignment-baseline: middle; "> 0.6</text>
<text x="29.00" y="40.80" style="font-family: default; font-size: 10; text-anchor: end; alignment-baseline: middle; "> 0.8</text>
<text x="29.00" y="15.00" style="font-family: default; font-size: 10; text-anchor: end; alignment-baseline: middle; "> 1.0</text>
<text x="154.50" y="164.00" style="font-family: default; font-size: 10; text-anchor: middle; alignment-baseline: hanging; "> Months</text>
<text x="154.50" y="15.00" style="font-family: Courier; font-size: 10; text-anchor: middle; alignment-baseline: baseline; "> Kaplan-Meier Example</text>
<text x="260.00" y="25.00" style="font-family: default; font-size: 8; text-anchor: end; alignment-baseline: middle; "> 95% CI Group A</text>
<path d="M 264.00,29.00 L 264.00,21.00 L 272.00,21.00 L 272.00,29.00 Z" style="stroke: #000000; stroke-width: 0.50; fill: #add8e5;"/>
<path d="M 264.00,29.00 L 264.00,21.00 L 272.00,21.00 L 272.00,29.00 Z" style="stroke: #000000; stroke-width: 0.50; fill: none;"/>
<text x="260.00" y="36.00" style="font-family: default; font-size: 8; text-anchor: end; alignment-baseline: middle; "> 95% CI Group B</text>
<path d="M 264.00,40.00 L 264.00,32.00 L 272.00,32.00 L 272.00,40.00 Z" style="stroke: #000000; stroke-width: 0.50; fill: #ffc6cc;"/>
<path d="M 264.00,40.00 L 264.00,32.00 L 272.00,32.00 L 272.00,40.00 Z" style="stroke: #000000; stroke-width: 0.50; fill: none;"/>
<text x="260.00" y="47.00" style="font-family: default; font-size: 8; text-anchor: end; alignment-baseline: middle; "> Overlap of CIs</text>
<path d="M 264.00,51.00 L 264.00,43.00 L 272.00,43.00 L 272.00,51.00 Z" style="stroke: #000000; stroke-width: 0.50; fill: #8eed8e;"/>
<path d="M 264.00,51.00 L 264.00,43.00 L 272.00,43.00 L 272.00,51.00 Z" style="stroke: #000000; stroke-width: 0.50; fill: none;"/>
<text x="260.00" y="58.00" style="font-family: default; font-size: 8; text-anchor: end; alignment-baseline: middle; "> Group A</text>
<path d="M 264.00,58.00 L 272.00,58.00 " style="stroke: #0000ff; stroke-width: 1.00; fill: none;"/>
<text x="260.00" y="69.00" style="font-family: default; font-size: 8; text-anchor: end; alignment-baseline: middle; "> Group B</text>
<path d="M 264.00,69.00 L 272.00,69.00 " style="stroke: #ff0000; stroke-width: 1.00; fill: none;"/>
</svg>
