<!-- Include into html file with following line: -->
<!-- <img width="288.00" height="180.00" src="km2"> -->
<svg xmlns="http://www.w3.org/2000/svg" xmlns:xlink="http://www.w3.org/1999/xlink" width="288.00" height="180.00">
<defs>
</defs>
<path d="M 28.80,7.20 L 28.80,7.20 L 42.80,17.49 L 42.80,38.06 Z" style="stroke: #add8e5; stroke-width: 0.10; fill: #add8e5;"/>
<path d="M 28.80,7.20 L 28.80,7.20 L 42.80,17.49 L 42.80,38.06 Z" style="stroke: #add8e5; stroke-width: 0.10; fill: none;"/>
<path d="M 42.80,38.06 L 42.80,17.49 L 56.80,27.77 L 56.80,48.34 Z" style="stroke: #add8e5; stroke-width: 0.10; fill: #add8e5;"/>
<path d="M 42.80,38.06 L 42.80,17.49 L 56.80,27.77 L 56.80,48.34 Z" style="stroke: #add8e5; stroke-width: 0.10; fill: none;"/>
<path d="M 56.80,48.34 L 56.80,27.77 L 70.80,42.17 L 70.80,54.51 Z" style="stroke: #add8e5; stroke-width: 0.10; fill: #add8e5;"/>
<path d="M 56.80,48.34 L 56.80,27.77 L 70.80,42.17 L 70.80,54.51 Z" style="stroke: #add8e5; stroke-width: 0.10; fill: none;"/>
<path d="M 70.80,54.51 L 70.80,42.17 L 112.80,40.11 L 112.80,58.63 Z" style="stroke: #add8e5; stroke-width: 0.10; fill: #add8e5;"/>
<path d="M 70.80,54.51 L 70.80,42.17 L 112.80,40.11 L 112.80,58.63 Z" style="stroke: #add8e5; stroke-width: 0.10; fill: none;"/>
<path d="M 112.80,58.63 L 112.80,40.11 L 154.80,42.17 L 154.80,62.74 Z" style="stroke: #add8e5; stroke-width: 0.10; fill: #add8e5;"/>
<path d="M 112.80,58.63 L 112.80,40.11 L 154.80,42.17 L 154.80,62.74 Z" style="stroke: #add8e5; stroke-width: 0.10; fill: none;"/>
<path d="M 154.80,62.74 L 154.80,42.17 L 196.80,44.23 L 196.80,64.80 Z" style="stroke: #add8e5; stroke-width: 0.10; fill: #add8e5;"/>
<path d="M 154.80,62.74 L 154.80,42.17 L 196.80,44.23 L 196.80,64.80 Z" style="stroke: #add8e5; stroke-width: 0.10; fill: none;"/>
<path d="M 196.80,64.80 L 196.80,44.23 L 238.80,46.29 L 238.80,66.86 Z" style="stroke: #add8e5; stroke-width: 0.10; fill: #add8e5;"/>
<path d="M 196.80,64.80 L 196.80,44.23 L 238.80,46.29 L 238.80,66.86 Z" style="stroke: #add8e5; stroke-width: 0.10; fill: none;"/>
<path d="M 238.80,66.86 L 238.80,46.29 L 280.80,48.34 L 280.80,70.97 Z" style="stroke: #add8e5; stroke-width: 0.10; fill: #add8e5;"/>
<path d="M 238.80,66.86 L 238.80,46.29 L 280.80,48.34 L 280.80,70.97 Z" style="stroke: #add8e5; stroke-width: 0.10; fill: none;"/>
<path d="M 28.80,7.20 L 28.80,7.20 L 42.80,15.43 L 42.80,27.77 Z" style="stroke: #add8e5; stroke-width: 0.10; fill: #add8e5;"/>
<path d="M 28.80,7.20 L 28.80,7.20 L 42.80,15.43 L 42.80,27.77 Z" style="stroke: #add8e5; stroke-width: 0.10; fill: none;"/>
<path d="M 42.80,27.77 L 42.80,15.43 L 56.80,19.54 L 56.80,36.00 Z" style="stroke: #add8e5; stroke-width: 0.10; fill: #add8e5;"/>
<path d="M 42.80,27.77 L 42.80,15.43 L 56.80,19.54 L 56.80,36.00 Z" style="stroke: #add8e5; stroke-width: 0.10; fill: none;"/>
<path d="M 56.80,36.00 L 56.80,19.54 L 70.80,33.94 L 70.80,50.40 Z" style="stroke: #add8e5; stroke-width: 0.10; fill: #add8e5;"/>
<path d="M 56.80,36.00 L 56.80,19.54 L 70.80,33.94 L 70.80,50.40 Z" style="stroke: #add8e5; stroke-width: 0.10; fill: none;"/>
<path d="M 70.80,50.40 L 70.80,33.94 L 112.80,38.06 L 112.80,58.63 Z" style="stroke: #add8e5; stroke-width: 0.10; fill: #add8e5;"/>
<path d="M 70.80,50.40 L 70.80,33.94 L 112.80,38.06 L 112.80,58.63 Z" style="stroke: #add8e5; stroke-width: 0.10; fill: none;"/>
<path d="M 112.80,58.63 L 112.80,38.06 L 154.80,48.34 L 154.80,68.91 Z" style="stroke: #add8e5; stroke-width: 0.10; fill: #add8e5;"/>
<path d="M 112.80,58.63 L 112.80,38.06 L 154.80,48.34 L 154.80,68.91 Z" style="stroke: #add8e5; stroke-width: 0.10; fill: none;"/>
<path d="M 154.80,68.91 L 154.80,48.34 L 196.80,68.91 L 196.80,89.49 Z" style="stroke: #add8e5; stroke-width: 0.10; fill: #add8e5;"/>
<path d="M 154.80,68.91 L 154.80,48.34 L 196.80,68.91 L 196.80,89.49 Z" style="stroke: #add8e5; stroke-width: 0.10; fill: none;"/>
<path d="M 196.80,89.49 L 196.80,68.91 L 238.80,83.31 L 238.80,108.00 Z" style="stroke: #add8e5; stroke-width: 0.10; fill: #add8e5;"/>
<path d="M 196.80,89.49 L 196.80,68.91 L 238.80,83.31 L 238.80,108.00 Z" style="stroke: #add8e5; stroke-width: 0.10; fill: none;"/>
<path d="M 238.80,108.00 L 238.80,83.31 L 280.80,103.89 L 280.80,132.69 Z" style="stroke: #add8e5; stroke-width: 0.10; fill: #add8e5;"/>
<path d="M 238.80,108.00 L 238.80,83.31 L 280.80,103.89 L 280.80,132.69 Z" style="stroke: #add8e5; stroke-width: 0.10; fill: none;"/>
<path d="M 28.80,7.20 L 42.80,27.77 L 56.80,38.06 L 70.80,48.34 L 112.80,50.40 L 154.80,52.46 L 196.80,54.51 L 238.80,56.57 L 280.80,58.63 " style="stroke: #0000ff; stroke-width: 1.00; fill: none;"/>
<path d="M 28.80,7.20 L 42.80,21.60 L 56.80,27.77 L 70.80,42.17 L 112.80,48.34 L 154.80,58.63 L 196.80,79.20 L 238.80,95.66 L 280.80,118.29 " style="stroke: #ff0000; stroke-width: 1.00; fill: none;"/>
<path d="M 28.30,151.20 L 281.30,151.20 " style="stroke: #000000; stroke-width: 1.00; fill: none;"/>
<path d="M 28.80,151.70 L 28.80,6.70 " style="stroke: #000000; stroke-width: 1.00; fill: none;"/>
<path d="M 28.80,155.20 L 28.80,151.20 " style="stroke: #000000; stroke-width: 1.00; fill: none;"/>
<path d="M 112.80,155.20 L 112.80,151.20 " style="stroke: #000000; stroke-width: 1.00; fill: none;"/>
<path d="M 196.80,155.20 L 196.80,151.20 " style="stroke: #000000; stroke-width: 1.00; fill: none;"/>
<path d="M 280.80,155.20 L 280.80,151.20 " style="stroke: #000000; stroke-width: 1.00; fill: none;"/>
<path d="M 24.80,151.20 L 28.80,151.20 " style="stroke: #000000; stroke-width: 1.00; fill: none;"/>
<path d="M 24.80,130.63 L 28.80,130.63 " style="stroke: #000000; stroke-width: 1.00; fill: none;"/>
<path d="M 24.80,110.06 L 28.80,110.06 " style="stroke: #000000; stroke-width: 1.00; fill: none;"/>
<path d="M 24.80,89.49 L 28.80,89.49 " style="stroke: #000000; stroke-width: 1.00; fill: none;"/>
<path d="M 24.80,68.91 L 28.80,68.91 " style="stroke: #000000; stroke-width: 1.00; fill: none;"/>
<path d="M 24.80,48.34 L 28.80,48.34 " style="stroke: #000000; stroke-width: 1.00; fill: none;"/>
<path d="M 24.80,27.77 L 28.80,27.77 " style="stroke: #000000; stroke-width: 1.00; fill: none;"/>
<path d="M 24.80,7.20 L 28.80,7.20 " style="stroke: #000000; stroke-width: 1.00; fill: none;"/>
<text x="28.80" y="158.20" style="font-family: default; font-size: 10; text-anchor: middle; alignment-baseline: hanging; "> 0</text>
<text x="112.80" y="158.20" style="font-family: default; font-size: 10; text-anchor: middle; alignment-baseline: hanging; "> 12</text>
<text x="196.80" y="158.20" style="font-family: default; font-size: 10; text-anchor: middle; alignment-baseline: hanging; "> 24</text>
<text x="280.80" y="158.20" style="font-family: default; font-size: 10; text-anchor: middle; alignment-baseline: hanging; "> 36</text>
<text x="21.80" y="151.20" style="font-family: default; font-size: 10; text-anchor: end; alignment-baseline: middle; "> 0.3</text>
<text x="21.80" y="130.63" style="font-family: default; font-size: 10; text-anchor: end; alignment-baseline: middle; "> 0.4</text>
<text x="21.80" y="110.06" style="font-family: default; font-size: 10; text-anchor: end; alignment-baseline: middle; "> 0.5</text>
<text x="21.80" y="89.49" style="font-family: default; font-size: 10; text-anchor: end; alignment-baseline: middle; "> 0.6</text>
<text x="21.80" y="68.91" style="font-family: default; font-size: 10; text-anchor: end; alignment-baseline: middle; "> 0.7</text>
<text x="21.80" y="48.34" style="font-family: default; font-size: 10; text-anchor: end; alignment-baseline: middle; "> 0.8</text>
<text x="21.80" y="27.77" style="font-family: default; font-size: 10; text-anchor: end; alignment-baseline: middle; "> 0.9</text>
<text x="21.80" y="7.20" style="font-family: default; font-size: 10; text-anchor: end; alignment-baseline: middle; "> 1.0</text>
<text x="154.80" y="171.20" style="font-family: Helvetica-Bold; font-size: 10; text-anchor: middle; alignment-baseline: hanging; "> Months</text>
<text x="84.80" y="110.06" style="font-family: default; font-size: 10; text-anchor: end; alignment-baseline: middle; "> 95% CI</text>
<path d="M 88.80,115.06 L 88.80,105.06 L 98.80,105.06 L 98.80,115.06 Z" style="stroke: #000000; stroke-width: 0.50; fill: #add8e5;"/>
<path d="M 88.80,115.06 L 88.80,105.06 L 98.80,105.06 L 98.80,115.06 Z" style="stroke: #000000; stroke-width: 0.50; fill: none;"/>
<text x="84.80" y="123.06" style="font-family: default; font-size: 10; text-anchor: end; alignment-baseline: middle; "> Group A</text>
<path d="M 88.80,123.06 L 98.80,123.06 " style="stroke: #0000ff; stroke-width: 1.00; fill: none;"/>
<text x="84.80" y="136.06" style="font-family: default; font-size: 10; text-anchor: end; alignment-baseline: middle; "> Group B</text>
<path d="M 88.80,136.06 L 98.80,136.06 " style="stroke: #ff0000; stroke-width: 1.00; fill: none;"/>
</svg>
