<!-- Creator: zplot version python version 1.3 script: /Users/remzi/Projects/Zplot/z-plot/zplot/zplot.pyc host: Remzis-MacBook-Pro.local -->
<!-- Include into html file with following line: -->
<!-- <img width="288.00" height="180.00" src="km2.svg"> -->
<svg xmlns="http://www.w3.org/2000/svg" xmlns:xlink="http://www.w3.org/1999/xlink" width="288.00" height="180.00">
<defs>


</defs>
<polygon points="28.80,7.20 28.80,7.20 42.80,17.49 42.80,38.06 " stroke="#add8e5" stroke-width="0.1" fill="#add8e5" ></polygon>
<polygon points="42.80,38.06 42.80,17.49 56.80,27.77 56.80,48.34 " stroke="#add8e5" stroke-width="0.1" fill="#add8e5" ></polygon>
<polygon points="56.80,48.34 56.80,27.77 70.80,42.17 70.80,54.51 " stroke="#add8e5" stroke-width="0.1" fill="#add8e5" ></polygon>
<polygon points="70.80,54.51 70.80,42.17 112.80,40.11 112.80,58.63 " stroke="#add8e5" stroke-width="0.1" fill="#add8e5" ></polygon>
<polygon points="112.80,58.63 112.80,40.11 154.80,42.17 154.80,62.74 " stroke="#add8e5" stroke-width="0.1" fill="#add8e5" ></polygon>
<polygon points="154.80,62.74 154.80,42.17 196.80,44.23 196.80,64.80 " stroke="#add8e5" stroke-width="0.1" fill="#add8e5" ></polygon>
<polygon points="196.80,64.80 196.80,44.23 238.80,46.29 238.80,66.86 " stroke="#add8e5" stroke-width="0.1" fill="#add8e5" ></polygon>
<polygon points="238.80,66.86 238.80,46.29 280.80,48.34 280.80,70.97 " stroke="#add8e5" stroke-width="0.1" fill="#add8e5" ></polygon>
<polygon points="28.80,7.20 28.80,7.20 42.80,15.43 42.80,27.77 " stroke="#add8e5" stroke-width="0.1" fill="#add8e5" ></polygon>
<polygon points="42.80,27.77 42.80,15.43 56.80,19.54 56.80,36.00 " stroke="#add8e5" stroke-width="0.1" fill="#add8e5" ></polygon>
<polygon points="56.80,36.00 56.80,19.54 70.80,33.94 70.80,50.40 " stroke="#add8e5" stroke-width="0.1" fill="#add8e5" ></polygon>
<polygon points="70.80,50.40 70.80,33.94 112.80,38.06 112.80,58.63 " stroke="#add8e5" stroke-width="0.1" fill="#add8e5" ></polygon>
<polygon points="112.80,58.63 112.80,38.06 154.80,48.34 154.80,68.91 " stroke="#add8e5" stroke-width="0.1" fill="#add8e5" ></polygon>
<polygon points="154.80,68.91 154.80,48.34 196.80,68.91 196.80,89.49 " stroke="#add8e5" stroke-width="0.1" fill="#add8e5" ></polygon>
<polygon points="196.80,89.49 196.80,68.91 238.80,83.31 238.80,108.00 " stroke="#add8e5" stroke-width="0.1" fill="#add8e5" ></polygon>
<polygon points="238.80,108.00 238.80,83.31 280.80,103.89 280.80,132.69 " stroke="#add8e5" stroke-width="0.1" fill="#add8e5" ></polygon>
<path d="M 28.80,7.20 L 42.80,27.77 L 56.80,38.06 L 70.80,48.34 L 112.80,50.40 L 154.80,52.46 L 196.80,54.51 L 238.80,56.57 L 280.80,58.63 " stroke="#0000ff" stroke-width="1.00px" fill="none" ></path>
<path d="M 28.80,7.20 L 42.80,21.60 L 56.80,27.77 L 70.80,42.17 L 112.80,48.34 L 154.80,58.63 L 196.80,79.20 L 238.80,95.66 L 280.80,118.29 " stroke="#ff0000" stroke-width="1.00px" fill="none" ></path>
<path d="M 28.30,151.20 L 281.30,151.20 " stroke="#000000" stroke-width="1.00px" fill="none" ></path>
<path d="M 28.80,151.70 L 28.80,6.70 " stroke="#000000" stroke-width="1.00px" fill="none" ></path>
<path d="M 28.80,155.20 L 28.80,151.20 " stroke="#000000" stroke-width="1.00px" fill="none" ></path>
<path d="M 112.80,155.20 L 112.80,151.20 " stroke="#000000" stroke-width="1.00px" fill="none" ></path>
<path d="M 196.80,155.20 L 196.80,151.20 " stroke="#000000" stroke-width="1.00px" fill="none" ></path>
<path d="M 280.80,155.20 L 280.80,151.20 " stroke="#000000" stroke-width="1.00px" fill="none" ></path>
<path d="M 24.80,151.20 L 28.80,151.20 " stroke="#000000" stroke-width="1.00px" fill="none" ></path>
<path d="M 24.80,130.63 L 28.80,130.63 " stroke="#000000" stroke-width="1.00px" fill="none" ></path>
<path d="M 24.80,110.06 L 28.80,110.06 " stroke="#000000" stroke-width="1.00px" fill="none" ></path>
<path d="M 24.80,89.49 L 28.80,89.49 " stroke="#000000" stroke-width="1.00px" fill="none" ></path>
<path d="M 24.80,68.91 L 28.80,68.91 " stroke="#000000" stroke-width="1.00px" fill="none" ></path>
<path d="M 24.80,48.34 L 28.80,48.34 " stroke="#000000" stroke-width="1.00px" fill="none" ></path>
<path d="M 24.80,27.77 L 28.80,27.77 " stroke="#000000" stroke-width="1.00px" fill="none" ></path>
<path d="M 24.80,7.20 L 28.80,7.20 " stroke="#000000" stroke-width="1.00px" fill="none" ></path>
<text x="28.80" y="158.20" style="font-family: Helvetica; font-size: 10; fill: #000000; text-anchor: middle; alignment-baseline: hanging; "> 0</text>
<text x="112.80" y="158.20" style="font-family: Helvetica; font-size: 10; fill: #000000; text-anchor: middle; alignment-baseline: hanging; "> 12</text>
<text x="196.80" y="158.20" style="font-family: Helvetica; font-size: 10; fill: #000000; text-anchor: middle; alignment-baseline: hanging; "> 24</text>
<text x="280.80" y="158.20" style="font-family: Helvetica; font-size: 10; fill: #000000; text-anchor: middle; alignment-baseline: hanging; "> 36</text>
<text x="21.80" y="151.20" style="font-family: Helvetica; font-size: 10; fill: #000000; text-anchor: end; alignment-baseline: middle; "> 0.3</text>
<text x="21.80" y="130.63" style="font-family: Helvetica; font-size: 10; fill: #000000; text-anchor: end; alignment-baseline: middle; "> 0.4</text>
<text x="21.80" y="110.06" style="font-family: Helvetica; font-size: 10; fill: #000000; text-anchor: end; alignment-baseline: middle; "> 0.5</text>
<text x="21.80" y="89.49" style="font-family: Helvetica; font-size: 10; fill: #000000; text-anchor: end; alignment-baseline: middle; "> 0.6</text>
<text x="21.80" y="68.91" style="font-family: Helvetica; font-size: 10; fill: #000000; text-anchor: end; alignment-baseline: middle; "> 0.7</text>
<text x="21.80" y="48.34" style="font-family: Helvetica; font-size: 10; fill: #000000; text-anchor: end; alignment-baseline: middle; "> 0.8</text>
<text x="21.80" y="27.77" style="font-family: Helvetica; font-size: 10; fill: #000000; text-anchor: end; alignment-baseline: middle; "> 0.9</text>
<text x="21.80" y="7.20" style="font-family: Helvetica; font-size: 10; fill: #000000; text-anchor: end; alignment-baseline: middle; "> 1.0</text>
<text x="154.80" y="171.20" style="font-family: Helvetica-Bold; font-size: 10; fill: #000000; text-anchor: middle; alignment-baseline: hanging; "> Months</text>
<text x="84.80" y="110.06" style="font-family: Helvetica; font-size: 10; fill: #000000; text-anchor: end; alignment-baseline: middle; "> 95% CI</text>
<rect x="88.80" y="105.06" height="10.00" width="10.00" stroke="#000000" stroke-width="0.5" fill="#add8e5" ></rect>
<text x="84.80" y="123.06" style="font-family: Helvetica; font-size: 10; fill: #000000; text-anchor: end; alignment-baseline: middle; "> Group A</text>
<path d="M 88.80,123.06 L 98.80,123.06 " stroke="#0000ff" stroke-width="1.00px" fill="none" ></path>
<text x="84.80" y="136.06" style="font-family: Helvetica; font-size: 10; fill: #000000; text-anchor: end; alignment-baseline: middle; "> Group B</text>
<path d="M 88.80,136.06 L 98.80,136.06 " stroke="#ff0000" stroke-width="1.00px" fill="none" ></path>
</svg>
