<!-- Creator: zplot version python version 1.3 script: /Users/remzi/Projects/Zplot/z-plot/zplot/zplot.pyc host: Remzis-MacBook-Air.local -->
<!-- Include into html file with following line: -->
<!-- <img width="288.00" height="180.00" src="rangesweep1.svg"> -->
<svg xmlns="http://www.w3.org/2000/svg" xmlns:xlink="http://www.w3.org/1999/xlink" width="288.00" height="180.00">
<defs>

<!-- arrow marker -->
<marker id="zplot_arrow_marker_0" markerWidth="24.00" markerHeight="23.00" refX="2" refY="3.50" orient="auto" markerUnits="userSpaceOnUse"> <path d="M2,2 L2,5.00 L6.00,3.50 z" fill="black" /> </marker>

</defs>
<polygon points="28.80,122.40 28.80,108.00 54.00,105.12 54.00,122.40 " stroke="#add8e5" stroke-width="0.1" fill="lightblue" ></polygon>
<polygon points="54.00,122.40 54.00,105.12 79.20,99.36 79.20,120.96 " stroke="#add8e5" stroke-width="0.1" fill="lightblue" ></polygon>
<polygon points="79.20,120.96 79.20,99.36 104.40,87.84 104.40,116.64 " stroke="#add8e5" stroke-width="0.1" fill="lightblue" ></polygon>
<polygon points="104.40,116.64 104.40,87.84 129.60,61.92 129.60,112.32 " stroke="#add8e5" stroke-width="0.1" fill="lightblue" ></polygon>
<polygon points="129.60,112.32 129.60,61.92 154.80,34.56 154.80,108.00 " stroke="#add8e5" stroke-width="0.1" fill="lightblue" ></polygon>
<polygon points="154.80,108.00 154.80,34.56 180.00,25.92 180.00,90.72 " stroke="#add8e5" stroke-width="0.1" fill="lightblue" ></polygon>
<polygon points="180.00,90.72 180.00,25.92 205.20,21.60 205.20,79.20 " stroke="#add8e5" stroke-width="0.1" fill="lightblue" ></polygon>
<polygon points="205.20,79.20 205.20,21.60 230.40,18.72 230.40,60.48 " stroke="#add8e5" stroke-width="0.1" fill="lightblue" ></polygon>
<polygon points="230.40,60.48 230.40,18.72 255.60,14.40 255.60,44.64 " stroke="#add8e5" stroke-width="0.1" fill="lightblue" ></polygon>
<polygon points="255.60,44.64 255.60,14.40 280.80,10.08 280.80,33.12 " stroke="#add8e5" stroke-width="0.1" fill="lightblue" ></polygon>
<path d="M 28.80,122.40 L 54.00,122.40 L 79.20,120.96 L 104.40,116.64 L 129.60,112.32 L 154.80,108.00 L 180.00,90.72 L 205.20,79.20 L 230.40,60.48 L 255.60,44.64 L 280.80,33.12 " stroke="#0000ff" stroke-width="1.00px" fill="none" ></path>
<path d="M 28.80,108.00 L 54.00,105.12 L 79.20,99.36 L 104.40,87.84 L 129.60,61.92 L 154.80,34.56 L 180.00,25.92 L 205.20,21.60 L 230.40,18.72 L 255.60,14.40 L 280.80,10.08 " stroke="#0000ff" stroke-width="1.00px" fill="none" ></path>
<path d="M 28.30,151.20 L 281.30,151.20 " stroke="#000000" stroke-width="1.00px" fill="none" ></path>
<path d="M 28.80,151.70 L 28.80,6.70 " stroke="#000000" stroke-width="1.00px" fill="none" ></path>
<path d="M 28.80,155.20 L 28.80,151.20 " stroke="#000000" stroke-width="1.00px" fill="none" ></path>
<path d="M 79.20,155.20 L 79.20,151.20 " stroke="#000000" stroke-width="1.00px" fill="none" ></path>
<path d="M 129.60,155.20 L 129.60,151.20 " stroke="#000000" stroke-width="1.00px" fill="none" ></path>
<path d="M 180.00,155.20 L 180.00,151.20 " stroke="#000000" stroke-width="1.00px" fill="none" ></path>
<path d="M 230.40,155.20 L 230.40,151.20 " stroke="#000000" stroke-width="1.00px" fill="none" ></path>
<path d="M 280.80,155.20 L 280.80,151.20 " stroke="#000000" stroke-width="1.00px" fill="none" ></path>
<path d="M 24.80,151.20 L 28.80,151.20 " stroke="#000000" stroke-width="1.00px" fill="none" ></path>
<path d="M 24.80,122.40 L 28.80,122.40 " stroke="#000000" stroke-width="1.00px" fill="none" ></path>
<path d="M 24.80,93.60 L 28.80,93.60 " stroke="#000000" stroke-width="1.00px" fill="none" ></path>
<path d="M 24.80,64.80 L 28.80,64.80 " stroke="#000000" stroke-width="1.00px" fill="none" ></path>
<path d="M 24.80,36.00 L 28.80,36.00 " stroke="#000000" stroke-width="1.00px" fill="none" ></path>
<path d="M 24.80,7.20 L 28.80,7.20 " stroke="#000000" stroke-width="1.00px" fill="none" ></path>
<text x="28.80" y="158.20" style="font-family: Helvetica; font-size: 10; fill: #000000; text-anchor: middle; alignment-baseline: hanging; "> -20</text>
<text x="79.20" y="158.20" style="font-family: Helvetica; font-size: 10; fill: #000000; text-anchor: middle; alignment-baseline: hanging; "> 0</text>
<text x="129.60" y="158.20" style="font-family: Helvetica; font-size: 10; fill: #000000; text-anchor: middle; alignment-baseline: hanging; "> 20</text>
<text x="180.00" y="158.20" style="font-family: Helvetica; font-size: 10; fill: #000000; text-anchor: middle; alignment-baseline: hanging; "> 40</text>
<text x="230.40" y="158.20" style="font-family: Helvetica; font-size: 10; fill: #000000; text-anchor: middle; alignment-baseline: hanging; "> 60</text>
<text x="280.80" y="158.20" style="font-family: Helvetica; font-size: 10; fill: #000000; text-anchor: middle; alignment-baseline: hanging; "> 80</text>
<text x="21.80" y="151.20" style="font-family: Helvetica; font-size: 10; fill: #000000; text-anchor: end; alignment-baseline: middle; "> 0.0</text>
<text x="21.80" y="122.40" style="font-family: Helvetica; font-size: 10; fill: #000000; text-anchor: end; alignment-baseline: middle; "> 0.2</text>
<text x="21.80" y="93.60" style="font-family: Helvetica; font-size: 10; fill: #000000; text-anchor: end; alignment-baseline: middle; "> 0.4</text>
<text x="21.80" y="64.80" style="font-family: Helvetica; font-size: 10; fill: #000000; text-anchor: end; alignment-baseline: middle; "> 0.6</text>
<text x="21.80" y="36.00" style="font-family: Helvetica; font-size: 10; fill: #000000; text-anchor: end; alignment-baseline: middle; "> 0.8</text>
<text x="21.80" y="7.20" style="font-family: Helvetica; font-size: 10; fill: #000000; text-anchor: end; alignment-baseline: middle; "> 1.0</text>
<text x="154.80" y="171.20" style="font-family: Helvetica-Bold; font-size: 10; fill: #000000; text-anchor: middle; alignment-baseline: hanging; "> Temperature (c)</text>
<path d="M 28.80,122.40 L 280.80,122.40 " stroke="#ffa500" stroke-width="0.50px" stroke-dasharray="4,2" fill="none" ></path>
<path d="M 28.80,93.60 L 280.80,93.60 " stroke="#ffa500" stroke-width="0.50px" stroke-dasharray="4,2" fill="none" ></path>
<path d="M 28.80,64.80 L 280.80,64.80 " stroke="#ffa500" stroke-width="0.50px" stroke-dasharray="4,2" fill="none" ></path>
<path d="M 28.80,36.00 L 280.80,36.00 " stroke="#ffa500" stroke-width="0.50px" stroke-dasharray="4,2" fill="none" ></path>
<path d="M 28.80,7.20 L 280.80,7.20 " stroke="#ffa500" stroke-width="0.50px" stroke-dasharray="4,2" fill="none" ></path>
<path d="M 79.20,57.60 L 79.20,93.60 " stroke="#000000" stroke-width="1.00px" fill="none" marker-end="url(#zplot_arrow_marker_0)"></path>
<path d="M 240.48,93.60 L 240.48,60.48 " stroke="#000000" stroke-width="1.00px" fill="none" marker-end="url(#zplot_arrow_marker_0)"></path>
<text x="79.20" y="54.72" transform="rotate(-90.00 79.20,54.72)" style="font-family: Helvetica-Bold; font-size: 6; fill: #000000; text-anchor: start; alignment-baseline: middle; "> F1</text>
<text x="240.48" y="96.48" transform="rotate(-90.00 240.48,96.48)" style="font-family: Helvetica-Bold; font-size: 6; fill: #000000; text-anchor: end; alignment-baseline: middle; "> F2</text>
</svg>
