<!-- Include into html file with following line: -->
<!-- <img width="300.00" height="250.00" src="rangesweep2"> -->
<svg xmlns="http://www.w3.org/2000/svg" xmlns:xlink="http://www.w3.org/1999/xlink" width="300.00" height="250.00">
<defs>
</defs>
<path d="M 40.00,81.52 L 40.00,60.70 L 52.50,83.86 L 52.50,105.78 Z" style="stroke: #0000ff; stroke-width: 0.10; fill: #0000ff;"/>
<path d="M 40.00,81.52 L 40.00,60.70 L 52.50,83.86 L 52.50,105.78 Z" style="stroke: #0000ff; stroke-width: 0.10; fill: none;"/>
<path d="M 52.50,105.78 L 52.50,83.86 L 65.00,89.56 L 65.00,96.62 Z" style="stroke: #0000ff; stroke-width: 0.10; fill: #0000ff;"/>
<path d="M 52.50,105.78 L 52.50,83.86 L 65.00,89.56 L 65.00,96.62 Z" style="stroke: #0000ff; stroke-width: 0.10; fill: none;"/>
<path d="M 65.00,96.62 L 65.00,89.56 L 90.00,93.24 L 90.00,106.26 Z" style="stroke: #0000ff; stroke-width: 0.10; fill: #0000ff;"/>
<path d="M 65.00,96.62 L 65.00,89.56 L 90.00,93.24 L 90.00,106.26 Z" style="stroke: #0000ff; stroke-width: 0.10; fill: none;"/>
<path d="M 90.00,106.26 L 90.00,93.24 L 115.00,80.36 L 115.00,102.10 Z" style="stroke: #0000ff; stroke-width: 0.10; fill: #0000ff;"/>
<path d="M 90.00,106.26 L 90.00,93.24 L 115.00,80.36 L 115.00,102.10 Z" style="stroke: #0000ff; stroke-width: 0.10; fill: none;"/>
<path d="M 115.00,102.10 L 115.00,80.36 L 140.00,92.28 L 140.00,113.04 Z" style="stroke: #0000ff; stroke-width: 0.10; fill: #0000ff;"/>
<path d="M 115.00,102.10 L 115.00,80.36 L 140.00,92.28 L 140.00,113.04 Z" style="stroke: #0000ff; stroke-width: 0.10; fill: none;"/>
<path d="M 140.00,113.04 L 140.00,92.28 L 165.00,92.58 L 165.00,113.60 Z" style="stroke: #0000ff; stroke-width: 0.10; fill: #0000ff;"/>
<path d="M 140.00,113.04 L 140.00,92.28 L 165.00,92.58 L 165.00,113.60 Z" style="stroke: #0000ff; stroke-width: 0.10; fill: none;"/>
<path d="M 165.00,113.60 L 165.00,92.58 L 190.00,89.86 L 190.00,111.16 Z" style="stroke: #0000ff; stroke-width: 0.10; fill: #0000ff;"/>
<path d="M 165.00,113.60 L 165.00,92.58 L 190.00,89.86 L 190.00,111.16 Z" style="stroke: #0000ff; stroke-width: 0.10; fill: none;"/>
<path d="M 190.00,111.16 L 190.00,89.86 L 215.00,76.12 L 215.00,97.98 Z" style="stroke: #0000ff; stroke-width: 0.10; fill: #0000ff;"/>
<path d="M 190.00,111.16 L 190.00,89.86 L 215.00,76.12 L 215.00,97.98 Z" style="stroke: #0000ff; stroke-width: 0.10; fill: none;"/>
<path d="M 215.00,97.98 L 215.00,76.12 L 240.00,84.88 L 240.00,107.66 Z" style="stroke: #0000ff; stroke-width: 0.10; fill: #0000ff;"/>
<path d="M 215.00,97.98 L 215.00,76.12 L 240.00,84.88 L 240.00,107.66 Z" style="stroke: #0000ff; stroke-width: 0.10; fill: none;"/>
<path d="M 240.00,107.66 L 240.00,84.88 L 265.00,75.90 L 265.00,114.64 Z" style="stroke: #0000ff; stroke-width: 0.10; fill: #0000ff;"/>
<path d="M 240.00,107.66 L 240.00,84.88 L 265.00,75.90 L 265.00,114.64 Z" style="stroke: #0000ff; stroke-width: 0.10; fill: none;"/>
<path d="M 265.00,114.64 L 265.00,75.90 L 290.00,84.88 L 290.00,113.08 Z" style="stroke: #0000ff; stroke-width: 0.10; fill: #0000ff;"/>
<path d="M 265.00,114.64 L 265.00,75.90 L 290.00,84.88 L 290.00,113.08 Z" style="stroke: #0000ff; stroke-width: 0.10; fill: none;"/>
<path d="M 40.00,69.10 L 40.00,52.42 L 52.50,66.78 L 52.50,88.18 Z" style="stroke: #ff0000; stroke-width: 0.10; fill: #ff0000;"/>
<path d="M 40.00,69.10 L 40.00,52.42 L 52.50,66.78 L 52.50,88.18 Z" style="stroke: #ff0000; stroke-width: 0.10; fill: none;"/>
<path d="M 52.50,88.18 L 52.50,66.78 L 65.00,67.20 L 65.00,83.66 Z" style="stroke: #ff0000; stroke-width: 0.10; fill: #ff0000;"/>
<path d="M 52.50,88.18 L 52.50,66.78 L 65.00,67.20 L 65.00,83.66 Z" style="stroke: #ff0000; stroke-width: 0.10; fill: none;"/>
<path d="M 65.00,83.66 L 65.00,67.20 L 90.00,75.80 L 90.00,91.92 Z" style="stroke: #ff0000; stroke-width: 0.10; fill: #ff0000;"/>
<path d="M 65.00,83.66 L 65.00,67.20 L 90.00,75.80 L 90.00,91.92 Z" style="stroke: #ff0000; stroke-width: 0.10; fill: none;"/>
<path d="M 90.00,91.92 L 90.00,75.80 L 115.00,90.30 L 115.00,111.22 Z" style="stroke: #ff0000; stroke-width: 0.10; fill: #ff0000;"/>
<path d="M 90.00,91.92 L 90.00,75.80 L 115.00,90.30 L 115.00,111.22 Z" style="stroke: #ff0000; stroke-width: 0.10; fill: none;"/>
<path d="M 115.00,111.22 L 115.00,90.30 L 140.00,63.48 L 140.00,126.06 Z" style="stroke: #ff0000; stroke-width: 0.10; fill: #ff0000;"/>
<path d="M 115.00,111.22 L 115.00,90.30 L 140.00,63.48 L 140.00,126.06 Z" style="stroke: #ff0000; stroke-width: 0.10; fill: none;"/>
<path d="M 140.00,126.06 L 140.00,63.48 L 165.00,68.48 L 165.00,93.40 Z" style="stroke: #ff0000; stroke-width: 0.10; fill: #ff0000;"/>
<path d="M 140.00,126.06 L 140.00,63.48 L 165.00,68.48 L 165.00,93.40 Z" style="stroke: #ff0000; stroke-width: 0.10; fill: none;"/>
<path d="M 165.00,93.40 L 165.00,68.48 L 190.00,75.32 L 190.00,107.06 Z" style="stroke: #ff0000; stroke-width: 0.10; fill: #ff0000;"/>
<path d="M 165.00,93.40 L 165.00,68.48 L 190.00,75.32 L 190.00,107.06 Z" style="stroke: #ff0000; stroke-width: 0.10; fill: none;"/>
<path d="M 190.00,107.06 L 190.00,75.32 L 215.00,72.96 L 215.00,91.90 Z" style="stroke: #ff0000; stroke-width: 0.10; fill: #ff0000;"/>
<path d="M 190.00,107.06 L 190.00,75.32 L 215.00,72.96 L 215.00,91.90 Z" style="stroke: #ff0000; stroke-width: 0.10; fill: none;"/>
<path d="M 215.00,91.90 L 215.00,72.96 L 240.00,66.88 L 240.00,89.50 Z" style="stroke: #ff0000; stroke-width: 0.10; fill: #ff0000;"/>
<path d="M 215.00,91.90 L 215.00,72.96 L 240.00,66.88 L 240.00,89.50 Z" style="stroke: #ff0000; stroke-width: 0.10; fill: none;"/>
<path d="M 240.00,89.50 L 240.00,66.88 L 265.00,73.68 L 265.00,97.24 Z" style="stroke: #ff0000; stroke-width: 0.10; fill: #ff0000;"/>
<path d="M 240.00,89.50 L 240.00,66.88 L 265.00,73.68 L 265.00,97.24 Z" style="stroke: #ff0000; stroke-width: 0.10; fill: none;"/>
<path d="M 265.00,97.24 L 265.00,73.68 L 290.00,92.62 L 290.00,113.30 Z" style="stroke: #ff0000; stroke-width: 0.10; fill: #ff0000;"/>
<path d="M 265.00,97.24 L 265.00,73.68 L 290.00,92.62 L 290.00,113.30 Z" style="stroke: #ff0000; stroke-width: 0.10; fill: none;"/>
<path d="M 40.00,71.12 L 52.50,94.82 L 65.00,93.08 L 90.00,99.74 L 115.00,91.22 L 140.00,102.66 L 165.00,103.10 L 190.00,100.52 L 215.00,87.04 L 240.00,96.26 L 265.00,95.26 L 290.00,98.98 " style="stroke: #000000; stroke-width: 0.50; fill: none;"/>
<path d="M 40.00,60.76 L 52.50,77.48 L 65.00,75.44 L 90.00,83.86 L 115.00,100.76 L 140.00,94.76 L 165.00,80.94 L 190.00,91.18 L 215.00,82.44 L 240.00,78.20 L 265.00,85.46 L 290.00,102.96 " style="stroke: #000000; stroke-width: 0.50; stroke-dasharray: 4,2; fill: none;"/>
<circle cx="40.00" cy="71.12" r="2.00" style="stroke: #000000; stroke-width: 1.00; fill: #000000;"/>
<circle cx="40.00" cy="71.12" r="2.00" style="stroke: #000000; stroke-width: 0.25; fill: none;"/>
<circle cx="52.50" cy="94.82" r="2.00" style="stroke: #000000; stroke-width: 1.00; fill: #000000;"/>
<circle cx="52.50" cy="94.82" r="2.00" style="stroke: #000000; stroke-width: 0.25; fill: none;"/>
<circle cx="65.00" cy="93.08" r="2.00" style="stroke: #000000; stroke-width: 1.00; fill: #000000;"/>
<circle cx="65.00" cy="93.08" r="2.00" style="stroke: #000000; stroke-width: 0.25; fill: none;"/>
<circle cx="90.00" cy="99.74" r="2.00" style="stroke: #000000; stroke-width: 1.00; fill: #000000;"/>
<circle cx="90.00" cy="99.74" r="2.00" style="stroke: #000000; stroke-width: 0.25; fill: none;"/>
<circle cx="115.00" cy="91.22" r="2.00" style="stroke: #000000; stroke-width: 1.00; fill: #000000;"/>
<circle cx="115.00" cy="91.22" r="2.00" style="stroke: #000000; stroke-width: 0.25; fill: none;"/>
<circle cx="140.00" cy="102.66" r="2.00" style="stroke: #000000; stroke-width: 1.00; fill: #000000;"/>
<circle cx="140.00" cy="102.66" r="2.00" style="stroke: #000000; stroke-width: 0.25; fill: none;"/>
<circle cx="165.00" cy="103.10" r="2.00" style="stroke: #000000; stroke-width: 1.00; fill: #000000;"/>
<circle cx="165.00" cy="103.10" r="2.00" style="stroke: #000000; stroke-width: 0.25; fill: none;"/>
<circle cx="190.00" cy="100.52" r="2.00" style="stroke: #000000; stroke-width: 1.00; fill: #000000;"/>
<circle cx="190.00" cy="100.52" r="2.00" style="stroke: #000000; stroke-width: 0.25; fill: none;"/>
<circle cx="215.00" cy="87.04" r="2.00" style="stroke: #000000; stroke-width: 1.00; fill: #000000;"/>
<circle cx="215.00" cy="87.04" r="2.00" style="stroke: #000000; stroke-width: 0.25; fill: none;"/>
<circle cx="240.00" cy="96.26" r="2.00" style="stroke: #000000; stroke-width: 1.00; fill: #000000;"/>
<circle cx="240.00" cy="96.26" r="2.00" style="stroke: #000000; stroke-width: 0.25; fill: none;"/>
<circle cx="265.00" cy="95.26" r="2.00" style="stroke: #000000; stroke-width: 1.00; fill: #000000;"/>
<circle cx="265.00" cy="95.26" r="2.00" style="stroke: #000000; stroke-width: 0.25; fill: none;"/>
<circle cx="290.00" cy="98.98" r="2.00" style="stroke: #000000; stroke-width: 1.00; fill: #000000;"/>
<circle cx="290.00" cy="98.98" r="2.00" style="stroke: #000000; stroke-width: 0.25; fill: none;"/>
<circle cx="40.00" cy="60.76" r="2.00" style="stroke: #000000; stroke-width: 0.25; fill: none;"/>
<circle cx="52.50" cy="77.48" r="2.00" style="stroke: #000000; stroke-width: 0.25; fill: none;"/>
<circle cx="65.00" cy="75.44" r="2.00" style="stroke: #000000; stroke-width: 0.25; fill: none;"/>
<circle cx="90.00" cy="83.86" r="2.00" style="stroke: #000000; stroke-width: 0.25; fill: none;"/>
<circle cx="115.00" cy="100.76" r="2.00" style="stroke: #000000; stroke-width: 0.25; fill: none;"/>
<circle cx="140.00" cy="94.76" r="2.00" style="stroke: #000000; stroke-width: 0.25; fill: none;"/>
<circle cx="165.00" cy="80.94" r="2.00" style="stroke: #000000; stroke-width: 0.25; fill: none;"/>
<circle cx="190.00" cy="91.18" r="2.00" style="stroke: #000000; stroke-width: 0.25; fill: none;"/>
<circle cx="215.00" cy="82.44" r="2.00" style="stroke: #000000; stroke-width: 0.25; fill: none;"/>
<circle cx="240.00" cy="78.20" r="2.00" style="stroke: #000000; stroke-width: 0.25; fill: none;"/>
<circle cx="265.00" cy="85.46" r="2.00" style="stroke: #000000; stroke-width: 0.25; fill: none;"/>
<circle cx="290.00" cy="102.96" r="2.00" style="stroke: #000000; stroke-width: 0.25; fill: none;"/>
<path d="M 39.50,210.00 L 290.50,210.00 " style="stroke: #000000; stroke-width: 1.00; fill: none;"/>
<path d="M 40.00,210.50 L 40.00,9.50 " style="stroke: #000000; stroke-width: 1.00; fill: none;"/>
<path d="M 40.00,214.00 L 40.00,210.00 " style="stroke: #000000; stroke-width: 1.00; fill: none;"/>
<path d="M 65.00,214.00 L 65.00,210.00 " style="stroke: #000000; stroke-width: 1.00; fill: none;"/>
<path d="M 90.00,214.00 L 90.00,210.00 " style="stroke: #000000; stroke-width: 1.00; fill: none;"/>
<path d="M 115.00,214.00 L 115.00,210.00 " style="stroke: #000000; stroke-width: 1.00; fill: none;"/>
<path d="M 140.00,214.00 L 140.00,210.00 " style="stroke: #000000; stroke-width: 1.00; fill: none;"/>
<path d="M 165.00,214.00 L 165.00,210.00 " style="stroke: #000000; stroke-width: 1.00; fill: none;"/>
<path d="M 190.00,214.00 L 190.00,210.00 " style="stroke: #000000; stroke-width: 1.00; fill: none;"/>
<path d="M 215.00,214.00 L 215.00,210.00 " style="stroke: #000000; stroke-width: 1.00; fill: none;"/>
<path d="M 240.00,214.00 L 240.00,210.00 " style="stroke: #000000; stroke-width: 1.00; fill: none;"/>
<path d="M 265.00,214.00 L 265.00,210.00 " style="stroke: #000000; stroke-width: 1.00; fill: none;"/>
<path d="M 290.00,214.00 L 290.00,210.00 " style="stroke: #000000; stroke-width: 1.00; fill: none;"/>
<path d="M 36.00,210.00 L 40.00,210.00 " style="stroke: #000000; stroke-width: 1.00; fill: none;"/>
<path d="M 36.00,190.00 L 40.00,190.00 " style="stroke: #000000; stroke-width: 1.00; fill: none;"/>
<path d="M 36.00,170.00 L 40.00,170.00 " style="stroke: #000000; stroke-width: 1.00; fill: none;"/>
<path d="M 36.00,150.00 L 40.00,150.00 " style="stroke: #000000; stroke-width: 1.00; fill: none;"/>
<path d="M 36.00,130.00 L 40.00,130.00 " style="stroke: #000000; stroke-width: 1.00; fill: none;"/>
<path d="M 36.00,110.00 L 40.00,110.00 " style="stroke: #000000; stroke-width: 1.00; fill: none;"/>
<path d="M 36.00,90.00 L 40.00,90.00 " style="stroke: #000000; stroke-width: 1.00; fill: none;"/>
<path d="M 36.00,70.00 L 40.00,70.00 " style="stroke: #000000; stroke-width: 1.00; fill: none;"/>
<path d="M 36.00,50.00 L 40.00,50.00 " style="stroke: #000000; stroke-width: 1.00; fill: none;"/>
<path d="M 36.00,30.00 L 40.00,30.00 " style="stroke: #000000; stroke-width: 1.00; fill: none;"/>
<path d="M 36.00,10.00 L 40.00,10.00 " style="stroke: #000000; stroke-width: 1.00; fill: none;"/>
<text x="40.00" y="217.00" style="font-family: default; font-size: 10; text-anchor: middle; alignment-baseline: hanging; "> 0</text>
<text x="65.00" y="217.00" style="font-family: default; font-size: 10; text-anchor: middle; alignment-baseline: hanging; "> 12</text>
<text x="90.00" y="217.00" style="font-family: default; font-size: 10; text-anchor: middle; alignment-baseline: hanging; "> 24</text>
<text x="115.00" y="217.00" style="font-family: default; font-size: 10; text-anchor: middle; alignment-baseline: hanging; "> 36</text>
<text x="140.00" y="217.00" style="font-family: default; font-size: 10; text-anchor: middle; alignment-baseline: hanging; "> 48</text>
<text x="165.00" y="217.00" style="font-family: default; font-size: 10; text-anchor: middle; alignment-baseline: hanging; "> 60</text>
<text x="190.00" y="217.00" style="font-family: default; font-size: 10; text-anchor: middle; alignment-baseline: hanging; "> 72</text>
<text x="215.00" y="217.00" style="font-family: default; font-size: 10; text-anchor: middle; alignment-baseline: hanging; "> 84</text>
<text x="240.00" y="217.00" style="font-family: default; font-size: 10; text-anchor: middle; alignment-baseline: hanging; "> 96</text>
<text x="265.00" y="217.00" style="font-family: default; font-size: 10; text-anchor: middle; alignment-baseline: hanging; "> 108</text>
<text x="290.00" y="217.00" style="font-family: default; font-size: 10; text-anchor: middle; alignment-baseline: hanging; "> 120</text>
<text x="33.00" y="210.00" style="font-family: default; font-size: 10; text-anchor: end; alignment-baseline: middle; "> 0</text>
<text x="33.00" y="190.00" style="font-family: default; font-size: 10; text-anchor: end; alignment-baseline: middle; "> 10</text>
<text x="33.00" y="170.00" style="font-family: default; font-size: 10; text-anchor: end; alignment-baseline: middle; "> 20</text>
<text x="33.00" y="150.00" style="font-family: default; font-size: 10; text-anchor: end; alignment-baseline: middle; "> 30</text>
<text x="33.00" y="130.00" style="font-family: default; font-size: 10; text-anchor: end; alignment-baseline: middle; "> 40</text>
<text x="33.00" y="110.00" style="font-family: default; font-size: 10; text-anchor: end; alignment-baseline: middle; "> 50</text>
<text x="33.00" y="90.00" style="font-family: default; font-size: 10; text-anchor: end; alignment-baseline: middle; "> 60</text>
<text x="33.00" y="70.00" style="font-family: default; font-size: 10; text-anchor: end; alignment-baseline: middle; "> 70</text>
<text x="33.00" y="50.00" style="font-family: default; font-size: 10; text-anchor: end; alignment-baseline: middle; "> 80</text>
<text x="33.00" y="30.00" style="font-family: default; font-size: 10; text-anchor: end; alignment-baseline: middle; "> 90</text>
<text x="33.00" y="10.00" style="font-family: default; font-size: 10; text-anchor: end; alignment-baseline: middle; "> 100</text>
<text x="165.00" y="230.00" style="font-family: default; font-size: 10; text-anchor: middle; alignment-baseline: hanging; "> Follow-up Time (months)</text>
<text x="13.32" y="110.00" transform="rotate(-90.00 13.32,110.00)" style="font-family: default; font-size: 10; text-anchor: middle; alignment-baseline: baseline; "> Average Night Driving Score</text>
<path d="M 52.50,185.00 L 52.50,175.00 L 62.50,175.00 L 62.50,185.00 Z" style="stroke: #000000; stroke-width: 0.50; fill: #0000ff;"/>
<path d="M 52.50,185.00 L 52.50,175.00 L 62.50,175.00 L 62.50,185.00 Z" style="stroke: #000000; stroke-width: 0.50; fill: none;"/>
<text x="66.50" y="180.00" style="font-family: default; font-size: 10; text-anchor: start; alignment-baseline: middle; "> Treatment A</text>
<path d="M 52.50,198.00 L 52.50,188.00 L 62.50,188.00 L 62.50,198.00 Z" style="stroke: #000000; stroke-width: 0.50; fill: #ff0000;"/>
<path d="M 52.50,198.00 L 52.50,188.00 L 62.50,188.00 L 62.50,198.00 Z" style="stroke: #000000; stroke-width: 0.50; fill: none;"/>
<text x="66.50" y="193.00" style="font-family: default; font-size: 10; text-anchor: start; alignment-baseline: middle; "> Treatment B</text>
<text x="165.00" y="10.00" style="font-family: default; font-size: 6; text-anchor: middle; alignment-baseline: baseline; "> Average Night Driving Score</text>
<text x="165.00" y="18.00" style="font-family: default; font-size: 6; text-anchor: middle; alignment-baseline: baseline; "> With Missing Values Imputed Using Approximate Bayesian Bootstrap</text>
<text x="165.00" y="26.00" style="font-family: default; font-size: 6; text-anchor: middle; alignment-baseline: baseline; "> and 10% Lower on Average than Observed Values</text>
</svg>
