<!-- Include into html file with following line: -->
<!-- <img width="300.00" height="140.00" src="bars6"> -->
<svg xmlns="http://www.w3.org/2000/svg" xmlns:xlink="http://www.w3.org/1999/xlink" width="300.00" height="140.00">
<defs>
</defs>
<path d="M 36.00,104.50 L 36.00,23.50 " style="stroke: #000000; stroke-width: 1.00; fill: none;"/>
<path d="M 32.00,104.00 L 36.00,104.00 " style="stroke: #000000; stroke-width: 1.00; fill: none;"/>
<path d="M 32.00,84.00 L 36.00,84.00 " style="stroke: #000000; stroke-width: 1.00; fill: none;"/>
<path d="M 32.00,64.00 L 36.00,64.00 " style="stroke: #000000; stroke-width: 1.00; fill: none;"/>
<path d="M 32.00,44.00 L 36.00,44.00 " style="stroke: #000000; stroke-width: 1.00; fill: none;"/>
<path d="M 32.00,24.00 L 36.00,24.00 " style="stroke: #000000; stroke-width: 1.00; fill: none;"/>
<text x="29.00" y="104.00" style="font-family: default; font-size: 10; text-anchor: end; alignment-baseline: middle; "> -5000</text>
<text x="29.00" y="84.00" style="font-family: default; font-size: 10; text-anchor: end; alignment-baseline: middle; "> 0</text>
<text x="29.00" y="64.00" style="font-family: default; font-size: 10; text-anchor: end; alignment-baseline: middle; "> 5000</text>
<text x="29.00" y="44.00" style="font-family: default; font-size: 10; text-anchor: end; alignment-baseline: middle; "> 10000</text>
<text x="29.00" y="24.00" style="font-family: default; font-size: 10; text-anchor: end; alignment-baseline: middle; "> 15000</text>
<text x="79.33" y="111.00" style="font-family: default; font-size: 10; text-anchor: middle; alignment-baseline: hanging; "> ABC Corp</text>
<text x="166.00" y="111.00" style="font-family: default; font-size: 10; text-anchor: middle; alignment-baseline: hanging; "> NetStuff</text>
<text x="252.67" y="111.00" style="font-family: default; font-size: 10; text-anchor: middle; alignment-baseline: hanging; "> MicroMason</text>
<path d="M 36.00,104.00 L 296.00,104.00 " style="stroke: #f97f72; stroke-width: 0.50; fill: none;"/>
<path d="M 36.00,84.00 L 296.00,84.00 " style="stroke: #f97f72; stroke-width: 0.50; fill: none;"/>
<path d="M 36.00,64.00 L 296.00,64.00 " style="stroke: #f97f72; stroke-width: 0.50; fill: none;"/>
<path d="M 36.00,44.00 L 296.00,44.00 " style="stroke: #f97f72; stroke-width: 0.50; fill: none;"/>
<path d="M 36.00,24.00 L 296.00,24.00 " style="stroke: #f97f72; stroke-width: 0.50; fill: none;"/>
<text x="44.67" y="22.00" style="font-family: Courier-Bold; font-size: 9; text-anchor: start; alignment-baseline: baseline; "> Annual Revenues (thousands)</text>
<path d="M 49.00,84.00 L 49.00,58.28 L 109.67,58.28 L 109.67,84.00 Z" style="stroke: #000000; stroke-width: 0.50; fill: #f97f72;"/>
<path d="M 49.00,84.00 L 49.00,58.28 L 109.67,58.28 L 109.67,84.00 Z" style="stroke: #000000; stroke-width: 0.50; fill: none;"/>
<text x="79.33" y="55.28" style="font-family: default; font-size: 10; text-anchor: middle; alignment-baseline: baseline; "> $6430</text>
<path d="M 135.67,84.00 L 135.67,87.12 L 196.33,87.12 L 196.33,84.00 Z" style="stroke: #000000; stroke-width: 0.50; fill: #f97f72;"/>
<path d="M 135.67,84.00 L 135.67,87.12 L 196.33,87.12 L 196.33,84.00 Z" style="stroke: #000000; stroke-width: 0.50; fill: none;"/>
<text x="166.00" y="90.12" style="font-family: default; font-size: 10; text-anchor: middle; alignment-baseline: hanging; "> $-780</text>
<path d="M 222.33,84.00 L 222.33,30.12 L 283.00,30.12 L 283.00,84.00 Z" style="stroke: #000000; stroke-width: 0.50; fill: #f97f72;"/>
<path d="M 222.33,84.00 L 222.33,30.12 L 283.00,30.12 L 283.00,84.00 Z" style="stroke: #000000; stroke-width: 0.50; fill: none;"/>
<text x="252.67" y="27.12" style="font-family: default; font-size: 10; text-anchor: middle; alignment-baseline: baseline; "> $13470</text>
</svg>
