<!-- Include into html file with following line: -->
<!-- <img width="180.00" height="180.00" src="example-arrow"> -->
<svg xmlns="http://www.w3.org/2000/svg" xmlns:xlink="http://www.w3.org/1999/xlink" width="180.00" height="180.00">
<defs>
</defs>
<path d="M 90.00,90.00 L 150.00,90.00 " style="stroke: #000000; stroke-width: 1.00; fill: none;"/>
<path d="M 152.00,90.00 L 150.00,89.50 L 150.00,90.50 Z" style="stroke: #000000; stroke-width: 0.50; fill: none;"/>
<path d="M 90.00,90.00 L 150.00,30.00 " style="stroke: #000000; stroke-width: 1.00; fill: none;"/>
<path d="M 152.83,27.17 L 149.29,29.29 L 150.71,30.71 Z" style="stroke: #000000; stroke-width: 0.50; fill: black;"/>
<path d="M 152.83,27.17 L 149.29,29.29 L 150.71,30.71 Z" style="stroke: #000000; stroke-width: 0.50; fill: none;"/>
<path d="M 90.00,90.00 L 90.00,30.00 " style="stroke: #000000; stroke-width: 1.00; fill: none;"/>
<path d="M 90.00,24.00 L 88.50,30.00 L 91.50,30.00 Z" style="stroke: #000000; stroke-width: 0.50; fill: none;"/>
<path d="M 90.00,90.00 L 30.00,30.00 " style="stroke: #000000; stroke-width: 1.00; fill: none;"/>
<path d="M 24.34,24.34 L 28.59,31.41 L 31.41,28.59 Z" style="stroke: #000000; stroke-width: 0.50; fill: black;"/>
<path d="M 24.34,24.34 L 28.59,31.41 L 31.41,28.59 Z" style="stroke: #000000; stroke-width: 0.50; fill: none;"/>
<path d="M 90.00,90.00 L 30.00,90.00 " style="stroke: #000000; stroke-width: 1.00; fill: none;"/>
<path d="M 20.00,90.00 L 30.00,92.50 L 30.00,87.50 Z" style="stroke: #000000; stroke-width: 0.50; fill: none;"/>
<path d="M 90.00,90.00 L 30.00,150.00 " style="stroke: #000000; stroke-width: 1.00; fill: none;"/>
<path d="M 21.51,158.49 L 32.12,152.12 L 27.88,147.88 Z" style="stroke: #000000; stroke-width: 0.50; fill: black;"/>
<path d="M 21.51,158.49 L 32.12,152.12 L 27.88,147.88 Z" style="stroke: #000000; stroke-width: 0.50; fill: none;"/>
<path d="M 90.00,90.00 L 90.00,150.00 " style="stroke: #000000; stroke-width: 1.00; fill: none;"/>
<path d="M 90.00,164.00 L 93.50,150.00 L 86.50,150.00 Z" style="stroke: #000000; stroke-width: 0.50; fill: none;"/>
<path d="M 90.00,90.00 L 150.00,150.00 " style="stroke: #000000; stroke-width: 1.00; fill: none;"/>
<path d="M 161.31,161.31 L 152.83,147.17 L 147.17,152.83 Z" style="stroke: #000000; stroke-width: 0.50; fill: black;"/>
<path d="M 161.31,161.31 L 152.83,147.17 L 147.17,152.83 Z" style="stroke: #000000; stroke-width: 0.50; fill: none;"/>
</svg>
