<!-- Include into html file with following line: -->
<!-- <img width="200.00" height="300.00" src="example-anchor-rotate"> -->
<svg xmlns="http://www.w3.org/2000/svg" xmlns:xlink="http://www.w3.org/1999/xlink" width="200.00" height="300.00">
<defs>
<clipPath id="zplot_pattern_0"> <circle cx="10.00" cy="220.00" r="1.00"/> </clipPath>
<clipPath id="zplot_pattern_1"> <circle cx="10.00" cy="140.00" r="1.00"/> </clipPath>
<clipPath id="zplot_pattern_2"> <circle cx="10.00" cy="60.00" r="1.00"/> </clipPath>
<clipPath id="zplot_pattern_3"> <circle cx="100.00" cy="220.00" r="1.00"/> </clipPath>
<clipPath id="zplot_pattern_4"> <circle cx="100.00" cy="140.00" r="1.00"/> </clipPath>
<clipPath id="zplot_pattern_5"> <circle cx="100.00" cy="60.00" r="1.00"/> </clipPath>
<clipPath id="zplot_pattern_6"> <circle cx="190.00" cy="220.00" r="1.00"/> </clipPath>
<clipPath id="zplot_pattern_7"> <circle cx="190.00" cy="140.00" r="1.00"/> </clipPath>
<clipPath id="zplot_pattern_8"> <circle cx="190.00" cy="60.00" r="1.00"/> </clipPath>
</defs>
<text x="10.00" y="220.00" transform="rotate(-90.00 10.00,220.00)" style="font-family: default; font-size: 10; text-anchor: start; alignment-baseline: baseline; "> Anchor Is l,l</text>
<text x="10.00" y="140.00" transform="rotate(-90.00 10.00,140.00)" style="font-family: default; font-size: 10; text-anchor: start; alignment-baseline: middle; "> Anchor Is l,c</text>
<text x="10.00" y="60.00" transform="rotate(-90.00 10.00,60.00)" style="font-family: default; font-size: 10; text-anchor: start; alignment-baseline: hanging; "> Anchor Is l,h</text>
<path d="M 9.00,221.00 L 9.00,219.00 L 11.00,219.00 L 11.00,221.00 L 9.00,221.00 Z" style="stroke: #000000; stroke-width: 0.00; fill: #ff0000;" clip-path="url(#zplot_pattern_0)"/>
<circle cx="10.00" cy="220.00" r="1.00" style="stroke: #ff0000; stroke-width: 1.00; fill: none;"/>
<path d="M 9.00,141.00 L 9.00,139.00 L 11.00,139.00 L 11.00,141.00 L 9.00,141.00 Z" style="stroke: #000000; stroke-width: 0.00; fill: #ff0000;" clip-path="url(#zplot_pattern_1)"/>
<circle cx="10.00" cy="140.00" r="1.00" style="stroke: #ff0000; stroke-width: 1.00; fill: none;"/>
<path d="M 9.00,61.00 L 9.00,59.00 L 11.00,59.00 L 11.00,61.00 L 9.00,61.00 Z" style="stroke: #000000; stroke-width: 0.00; fill: #ff0000;" clip-path="url(#zplot_pattern_2)"/>
<circle cx="10.00" cy="60.00" r="1.00" style="stroke: #ff0000; stroke-width: 1.00; fill: none;"/>
<text x="100.00" y="220.00" transform="rotate(-90.00 100.00,220.00)" style="font-family: default; font-size: 10; text-anchor: middle; alignment-baseline: baseline; "> Anchor Is c,l</text>
<text x="100.00" y="140.00" transform="rotate(-90.00 100.00,140.00)" style="font-family: default; font-size: 10; text-anchor: middle; alignment-baseline: middle; "> Anchor Is c,c</text>
<text x="100.00" y="60.00" transform="rotate(-90.00 100.00,60.00)" style="font-family: default; font-size: 10; text-anchor: middle; alignment-baseline: hanging; "> Anchor Is c,h</text>
<path d="M 99.00,221.00 L 99.00,219.00 L 101.00,219.00 L 101.00,221.00 L 99.00,221.00 Z" style="stroke: #000000; stroke-width: 0.00; fill: #ff0000;" clip-path="url(#zplot_pattern_3)"/>
<circle cx="100.00" cy="220.00" r="1.00" style="stroke: #ff0000; stroke-width: 1.00; fill: none;"/>
<path d="M 99.00,141.00 L 99.00,139.00 L 101.00,139.00 L 101.00,141.00 L 99.00,141.00 Z" style="stroke: #000000; stroke-width: 0.00; fill: #ff0000;" clip-path="url(#zplot_pattern_4)"/>
<circle cx="100.00" cy="140.00" r="1.00" style="stroke: #ff0000; stroke-width: 1.00; fill: none;"/>
<path d="M 99.00,61.00 L 99.00,59.00 L 101.00,59.00 L 101.00,61.00 L 99.00,61.00 Z" style="stroke: #000000; stroke-width: 0.00; fill: #ff0000;" clip-path="url(#zplot_pattern_5)"/>
<circle cx="100.00" cy="60.00" r="1.00" style="stroke: #ff0000; stroke-width: 1.00; fill: none;"/>
<text x="190.00" y="220.00" transform="rotate(-90.00 190.00,220.00)" style="font-family: default; font-size: 10; text-anchor: end; alignment-baseline: baseline; "> Anchor Is r,l</text>
<text x="190.00" y="140.00" transform="rotate(-90.00 190.00,140.00)" style="font-family: default; font-size: 10; text-anchor: end; alignment-baseline: middle; "> Anchor Is r,c</text>
<text x="190.00" y="60.00" transform="rotate(-90.00 190.00,60.00)" style="font-family: default; font-size: 10; text-anchor: end; alignment-baseline: hanging; "> Anchor Is r,h</text>
<path d="M 189.00,221.00 L 189.00,219.00 L 191.00,219.00 L 191.00,221.00 L 189.00,221.00 Z" style="stroke: #000000; stroke-width: 0.00; fill: #ff0000;" clip-path="url(#zplot_pattern_6)"/>
<circle cx="190.00" cy="220.00" r="1.00" style="stroke: #ff0000; stroke-width: 1.00; fill: none;"/>
<path d="M 189.00,141.00 L 189.00,139.00 L 191.00,139.00 L 191.00,141.00 L 189.00,141.00 Z" style="stroke: #000000; stroke-width: 0.00; fill: #ff0000;" clip-path="url(#zplot_pattern_7)"/>
<circle cx="190.00" cy="140.00" r="1.00" style="stroke: #ff0000; stroke-width: 1.00; fill: none;"/>
<path d="M 189.00,61.00 L 189.00,59.00 L 191.00,59.00 L 191.00,61.00 L 189.00,61.00 Z" style="stroke: #000000; stroke-width: 0.00; fill: #ff0000;" clip-path="url(#zplot_pattern_8)"/>
<circle cx="190.00" cy="60.00" r="1.00" style="stroke: #ff0000; stroke-width: 1.00; fill: none;"/>
</svg>
