<!-- Include into html file with following line: -->
<!-- <img width="216.00" height="172.80" src="example2"> -->
<svg xmlns="http://www.w3.org/2000/svg" xmlns:xlink="http://www.w3.org/1999/xlink" width="216.00" height="172.80">
<defs>
</defs>
<path d="M 35.50,144.00 L 202.10,144.00 " style="stroke: #000000; stroke-width: 1.00; fill: none;"/>
<path d="M 36.00,144.50 L 36.00,21.10 " style="stroke: #000000; stroke-width: 1.00; fill: none;"/>
<path d="M 36.00,148.00 L 36.00,144.00 " style="stroke: #000000; stroke-width: 1.00; fill: none;"/>
<path d="M 69.12,148.00 L 69.12,144.00 " style="stroke: #000000; stroke-width: 1.00; fill: none;"/>
<path d="M 102.24,148.00 L 102.24,144.00 " style="stroke: #000000; stroke-width: 1.00; fill: none;"/>
<path d="M 135.36,148.00 L 135.36,144.00 " style="stroke: #000000; stroke-width: 1.00; fill: none;"/>
<path d="M 168.48,148.00 L 168.48,144.00 " style="stroke: #000000; stroke-width: 1.00; fill: none;"/>
<path d="M 201.60,148.00 L 201.60,144.00 " style="stroke: #000000; stroke-width: 1.00; fill: none;"/>
<path d="M 32.00,144.00 L 36.00,144.00 " style="stroke: #000000; stroke-width: 1.00; fill: none;"/>
<path d="M 32.00,119.52 L 36.00,119.52 " style="stroke: #000000; stroke-width: 1.00; fill: none;"/>
<path d="M 32.00,95.04 L 36.00,95.04 " style="stroke: #000000; stroke-width: 1.00; fill: none;"/>
<path d="M 32.00,70.56 L 36.00,70.56 " style="stroke: #000000; stroke-width: 1.00; fill: none;"/>
<path d="M 32.00,46.08 L 36.00,46.08 " style="stroke: #000000; stroke-width: 1.00; fill: none;"/>
<path d="M 32.00,21.60 L 36.00,21.60 " style="stroke: #000000; stroke-width: 1.00; fill: none;"/>
<text x="36.00" y="151.00" style="font-family: default; font-size: 10; text-anchor: middle; alignment-baseline: hanging; "> 0</text>
<text x="69.12" y="151.00" style="font-family: default; font-size: 10; text-anchor: middle; alignment-baseline: hanging; "> 2</text>
<text x="102.24" y="151.00" style="font-family: default; font-size: 10; text-anchor: middle; alignment-baseline: hanging; "> 4</text>
<text x="135.36" y="151.00" style="font-family: default; font-size: 10; text-anchor: middle; alignment-baseline: hanging; "> 6</text>
<text x="168.48" y="151.00" style="font-family: default; font-size: 10; text-anchor: middle; alignment-baseline: hanging; "> 8</text>
<text x="201.60" y="151.00" style="font-family: default; font-size: 10; text-anchor: middle; alignment-baseline: hanging; "> 10</text>
<text x="29.00" y="144.00" style="font-family: default; font-size: 10; text-anchor: end; alignment-baseline: middle; "> 0</text>
<text x="29.00" y="119.52" style="font-family: default; font-size: 10; text-anchor: end; alignment-baseline: middle; "> 2</text>
<text x="29.00" y="95.04" style="font-family: default; font-size: 10; text-anchor: end; alignment-baseline: middle; "> 4</text>
<text x="29.00" y="70.56" style="font-family: default; font-size: 10; text-anchor: end; alignment-baseline: middle; "> 6</text>
<text x="29.00" y="46.08" style="font-family: default; font-size: 10; text-anchor: end; alignment-baseline: middle; "> 8</text>
<text x="29.00" y="21.60" style="font-family: default; font-size: 10; text-anchor: end; alignment-baseline: middle; "> 10</text>
<text x="118.80" y="14.10" style="font-family: default; font-size: 10; text-anchor: middle; alignment-baseline: baseline; "> A Sample Graph</text>
<text x="118.80" y="164.00" style="font-family: default; font-size: 10; text-anchor: middle; alignment-baseline: hanging; "> The X-Axis</text>
<text x="14.88" y="82.80" transform="rotate(-90.00 14.88,82.80)" style="font-family: default; font-size: 10; text-anchor: middle; alignment-baseline: baseline; "> The Y-Axis</text>
<path d="M 50.56,133.76 L 52.56,129.76 L 54.56,133.76 Z" style="stroke: #ff0000; stroke-width: 1.00; fill: #ff0000;"/>
<path d="M 50.56,133.76 L 52.56,129.76 L 54.56,133.76 Z" style="stroke: #ff0000; stroke-width: 1.00; fill: none;"/>
<path d="M 67.12,121.52 L 69.12,117.52 L 71.12,121.52 Z" style="stroke: #ff0000; stroke-width: 1.00; fill: #ff0000;"/>
<path d="M 67.12,121.52 L 69.12,117.52 L 71.12,121.52 Z" style="stroke: #ff0000; stroke-width: 1.00; fill: none;"/>
<path d="M 83.68,109.28 L 85.68,105.28 L 87.68,109.28 Z" style="stroke: #ff0000; stroke-width: 1.00; fill: #ff0000;"/>
<path d="M 83.68,109.28 L 85.68,105.28 L 87.68,109.28 Z" style="stroke: #ff0000; stroke-width: 1.00; fill: none;"/>
<path d="M 100.24,72.56 L 102.24,68.56 L 104.24,72.56 Z" style="stroke: #ff0000; stroke-width: 1.00; fill: #ff0000;"/>
<path d="M 100.24,72.56 L 102.24,68.56 L 104.24,72.56 Z" style="stroke: #ff0000; stroke-width: 1.00; fill: none;"/>
<path d="M 116.80,109.28 L 118.80,105.28 L 120.80,109.28 Z" style="stroke: #ff0000; stroke-width: 1.00; fill: #ff0000;"/>
<path d="M 116.80,109.28 L 118.80,105.28 L 120.80,109.28 Z" style="stroke: #ff0000; stroke-width: 1.00; fill: none;"/>
<path d="M 133.36,121.52 L 135.36,117.52 L 137.36,121.52 Z" style="stroke: #ff0000; stroke-width: 1.00; fill: #ff0000;"/>
<path d="M 133.36,121.52 L 135.36,117.52 L 137.36,121.52 Z" style="stroke: #ff0000; stroke-width: 1.00; fill: none;"/>
<path d="M 149.92,133.76 L 151.92,129.76 L 153.92,133.76 Z" style="stroke: #ff0000; stroke-width: 1.00; fill: #ff0000;"/>
<path d="M 149.92,133.76 L 151.92,129.76 L 153.92,133.76 Z" style="stroke: #ff0000; stroke-width: 1.00; fill: none;"/>
<path d="M 166.48,121.52 L 168.48,117.52 L 170.48,121.52 Z" style="stroke: #ff0000; stroke-width: 1.00; fill: #ff0000;"/>
<path d="M 166.48,121.52 L 168.48,117.52 L 170.48,121.52 Z" style="stroke: #ff0000; stroke-width: 1.00; fill: none;"/>
<path d="M 183.04,97.04 L 185.04,93.04 L 187.04,97.04 Z" style="stroke: #ff0000; stroke-width: 1.00; fill: #ff0000;"/>
<path d="M 183.04,97.04 L 185.04,93.04 L 187.04,97.04 Z" style="stroke: #ff0000; stroke-width: 1.00; fill: none;"/>
<path d="M 199.60,48.08 L 201.60,44.08 L 203.60,48.08 Z" style="stroke: #ff0000; stroke-width: 1.00; fill: #ff0000;"/>
<path d="M 199.60,48.08 L 201.60,44.08 L 203.60,48.08 Z" style="stroke: #ff0000; stroke-width: 1.00; fill: none;"/>
<circle cx="102.24" cy="70.56" r="5.00" style="stroke: #007f00; stroke-width: 2.00; fill: none;"/>
<circle cx="201.60" cy="46.08" r="5.00" style="stroke: #007f00; stroke-width: 2.00; fill: none;"/>
</svg>
