<!-- Creator: zplot version python version 1.0 script: /Users/remzi/Projects/Zplot-New/z-plot/zplot.pyc host: Remzis-MacBook-Air.local -->
<!-- Include into html file with following line: -->
<!-- <img width="300.00" height="210.00" src="example-multi.svg"> -->
<svg xmlns="http://www.w3.org/2000/svg"
xmlns:xlink="http://www.w3.org/1999/xlink">
<defs>

</defs>
<path d="M 9.50,200.00 L 70.50,200.00 " stroke="#000000" stroke-width="1.00px" fill="none"></path>
<path d="M 10.00,200.50 L 10.00,159.50 " stroke="#000000" stroke-width="1.00px" fill="none"></path>
<text x="40.00" y="152.50" style="font-family: Helvetica; font-size: 10; fill: #000000; text-anchor: middle; alignment-baseline: baseline; "> Lines</text>
<path d="M 15.45,196.00 L 20.91,192.00 L 26.36,188.00 L 31.82,176.00 L 37.27,188.00 L 42.73,192.00 L 48.18,196.00 L 53.64,192.00 L 59.09,184.00 L 64.55,168.00 " stroke="#000000" stroke-width="0.50px" fill="none"></path>
<path d="M 79.50,200.00 L 140.50,200.00 " stroke="#000000" stroke-width="1.00px" fill="none"></path>
<path d="M 80.00,200.50 L 80.00,159.50 " stroke="#000000" stroke-width="1.00px" fill="none"></path>
<text x="110.00" y="152.50" style="font-family: Helvetica; font-size: 10; fill: #000000; text-anchor: middle; alignment-baseline: baseline; "> Points</text>
<path d="M 83.45,198.00 L 87.45,194.00 " stroke="#000000" stroke-width="0.50px" fill="none"></path>
<path d="M 83.45,194.00 L 87.45,198.00 " stroke="#000000" stroke-width="0.50px" fill="none"></path>
<path d="M 88.91,194.00 L 92.91,190.00 " stroke="#000000" stroke-width="0.50px" fill="none"></path>
<path d="M 88.91,190.00 L 92.91,194.00 " stroke="#000000" stroke-width="0.50px" fill="none"></path>
<path d="M 94.36,190.00 L 98.36,186.00 " stroke="#000000" stroke-width="0.50px" fill="none"></path>
<path d="M 94.36,186.00 L 98.36,190.00 " stroke="#000000" stroke-width="0.50px" fill="none"></path>
<path d="M 99.82,178.00 L 103.82,174.00 " stroke="#000000" stroke-width="0.50px" fill="none"></path>
<path d="M 99.82,174.00 L 103.82,178.00 " stroke="#000000" stroke-width="0.50px" fill="none"></path>
<path d="M 105.27,190.00 L 109.27,186.00 " stroke="#000000" stroke-width="0.50px" fill="none"></path>
<path d="M 105.27,186.00 L 109.27,190.00 " stroke="#000000" stroke-width="0.50px" fill="none"></path>
<path d="M 110.73,194.00 L 114.73,190.00 " stroke="#000000" stroke-width="0.50px" fill="none"></path>
<path d="M 110.73,190.00 L 114.73,194.00 " stroke="#000000" stroke-width="0.50px" fill="none"></path>
<path d="M 116.18,198.00 L 120.18,194.00 " stroke="#000000" stroke-width="0.50px" fill="none"></path>
<path d="M 116.18,194.00 L 120.18,198.00 " stroke="#000000" stroke-width="0.50px" fill="none"></path>
<path d="M 121.64,194.00 L 125.64,190.00 " stroke="#000000" stroke-width="0.50px" fill="none"></path>
<path d="M 121.64,190.00 L 125.64,194.00 " stroke="#000000" stroke-width="0.50px" fill="none"></path>
<path d="M 127.09,186.00 L 131.09,182.00 " stroke="#000000" stroke-width="0.50px" fill="none"></path>
<path d="M 127.09,182.00 L 131.09,186.00 " stroke="#000000" stroke-width="0.50px" fill="none"></path>
<path d="M 132.55,170.00 L 136.55,166.00 " stroke="#000000" stroke-width="0.50px" fill="none"></path>
<path d="M 132.55,166.00 L 136.55,170.00 " stroke="#000000" stroke-width="0.50px" fill="none"></path>
<path d="M 149.50,200.00 L 210.50,200.00 " stroke="#000000" stroke-width="1.00px" fill="none"></path>
<path d="M 150.00,200.50 L 150.00,159.50 " stroke="#000000" stroke-width="1.00px" fill="none"></path>
<text x="180.00" y="152.50" style="font-family: Helvetica; font-size: 10; fill: #000000; text-anchor: middle; alignment-baseline: baseline; "> Lines + Points</text>
<path d="M 155.45,196.00 L 160.91,192.00 L 166.36,188.00 L 171.82,176.00 L 177.27,188.00 L 182.73,192.00 L 188.18,196.00 L 193.64,192.00 L 199.09,184.00 L 204.55,168.00 " stroke="#000000" stroke-width="0.50px" fill="none"></path>
<path d="M 153.45,198.00 L 157.45,194.00 " stroke="#000000" stroke-width="0.50px" fill="none"></path>
<path d="M 153.45,194.00 L 157.45,198.00 " stroke="#000000" stroke-width="0.50px" fill="none"></path>
<path d="M 158.91,194.00 L 162.91,190.00 " stroke="#000000" stroke-width="0.50px" fill="none"></path>
<path d="M 158.91,190.00 L 162.91,194.00 " stroke="#000000" stroke-width="0.50px" fill="none"></path>
<path d="M 164.36,190.00 L 168.36,186.00 " stroke="#000000" stroke-width="0.50px" fill="none"></path>
<path d="M 164.36,186.00 L 168.36,190.00 " stroke="#000000" stroke-width="0.50px" fill="none"></path>
<path d="M 169.82,178.00 L 173.82,174.00 " stroke="#000000" stroke-width="0.50px" fill="none"></path>
<path d="M 169.82,174.00 L 173.82,178.00 " stroke="#000000" stroke-width="0.50px" fill="none"></path>
<path d="M 175.27,190.00 L 179.27,186.00 " stroke="#000000" stroke-width="0.50px" fill="none"></path>
<path d="M 175.27,186.00 L 179.27,190.00 " stroke="#000000" stroke-width="0.50px" fill="none"></path>
<path d="M 180.73,194.00 L 184.73,190.00 " stroke="#000000" stroke-width="0.50px" fill="none"></path>
<path d="M 180.73,190.00 L 184.73,194.00 " stroke="#000000" stroke-width="0.50px" fill="none"></path>
<path d="M 186.18,198.00 L 190.18,194.00 " stroke="#000000" stroke-width="0.50px" fill="none"></path>
<path d="M 186.18,194.00 L 190.18,198.00 " stroke="#000000" stroke-width="0.50px" fill="none"></path>
<path d="M 191.64,194.00 L 195.64,190.00 " stroke="#000000" stroke-width="0.50px" fill="none"></path>
<path d="M 191.64,190.00 L 195.64,194.00 " stroke="#000000" stroke-width="0.50px" fill="none"></path>
<path d="M 197.09,186.00 L 201.09,182.00 " stroke="#000000" stroke-width="0.50px" fill="none"></path>
<path d="M 197.09,182.00 L 201.09,186.00 " stroke="#000000" stroke-width="0.50px" fill="none"></path>
<path d="M 202.55,170.00 L 206.55,166.00 " stroke="#000000" stroke-width="0.50px" fill="none"></path>
<path d="M 202.55,166.00 L 206.55,170.00 " stroke="#000000" stroke-width="0.50px" fill="none"></path>
<path d="M 219.50,200.00 L 280.50,200.00 " stroke="#000000" stroke-width="1.00px" fill="none"></path>
<path d="M 220.00,200.50 L 220.00,159.50 " stroke="#000000" stroke-width="1.00px" fill="none"></path>
<text x="250.00" y="152.50" style="font-family: Helvetica; font-size: 10; fill: #000000; text-anchor: middle; alignment-baseline: baseline; "> Filled</text>
<polygon points="225.45,200.00 225.45,196.00 230.91,192.00 230.91,200.00 " stroke="#d3d3d3" stroke-width="0.1" fill="lightgrey" ></polygon>
<polygon points="230.91,200.00 230.91,192.00 236.36,188.00 236.36,200.00 " stroke="#d3d3d3" stroke-width="0.1" fill="lightgrey" ></polygon>
<polygon points="236.36,200.00 236.36,188.00 241.82,176.00 241.82,200.00 " stroke="#d3d3d3" stroke-width="0.1" fill="lightgrey" ></polygon>
<polygon points="241.82,200.00 241.82,176.00 247.27,188.00 247.27,200.00 " stroke="#d3d3d3" stroke-width="0.1" fill="lightgrey" ></polygon>
<polygon points="247.27,200.00 247.27,188.00 252.73,192.00 252.73,200.00 " stroke="#d3d3d3" stroke-width="0.1" fill="lightgrey" ></polygon>
<polygon points="252.73,200.00 252.73,192.00 258.18,196.00 258.18,200.00 " stroke="#d3d3d3" stroke-width="0.1" fill="lightgrey" ></polygon>
<polygon points="258.18,200.00 258.18,196.00 263.64,192.00 263.64,200.00 " stroke="#d3d3d3" stroke-width="0.1" fill="lightgrey" ></polygon>
<polygon points="263.64,200.00 263.64,192.00 269.09,184.00 269.09,200.00 " stroke="#d3d3d3" stroke-width="0.1" fill="lightgrey" ></polygon>
<polygon points="269.09,200.00 269.09,184.00 274.55,168.00 274.55,200.00 " stroke="#d3d3d3" stroke-width="0.1" fill="lightgrey" ></polygon>
<path d="M 225.45,196.00 L 230.91,192.00 L 236.36,188.00 L 241.82,176.00 L 247.27,188.00 L 252.73,192.00 L 258.18,196.00 L 263.64,192.00 L 269.09,184.00 L 274.55,168.00 " stroke="#000000" stroke-width="0.50px" fill="none"></path>
<path d="M 9.50,130.00 L 70.50,130.00 " stroke="#000000" stroke-width="1.00px" fill="none"></path>
<path d="M 10.00,130.50 L 10.00,89.50 " stroke="#000000" stroke-width="1.00px" fill="none"></path>
<text x="40.00" y="82.50" style="font-family: Helvetica; font-size: 10; fill: #000000; text-anchor: middle; alignment-baseline: baseline; "> Error Bars</text>
<path d="M 15.45,128.00 L 15.45,122.00 " stroke="#000000" stroke-width="0.50px" fill="none"></path>
<path d="M 13.45,122.00 L 17.45,122.00 " stroke="#000000" stroke-width="0.50px" fill="none"></path>
<path d="M 13.45,128.00 L 17.45,128.00 " stroke="#000000" stroke-width="0.50px" fill="none"></path>
<path d="M 20.91,124.00 L 20.91,120.00 " stroke="#000000" stroke-width="0.50px" fill="none"></path>
<path d="M 18.91,120.00 L 22.91,120.00 " stroke="#000000" stroke-width="0.50px" fill="none"></path>
<path d="M 18.91,124.00 L 22.91,124.00 " stroke="#000000" stroke-width="0.50px" fill="none"></path>
<path d="M 26.36,122.00 L 26.36,110.00 " stroke="#000000" stroke-width="0.50px" fill="none"></path>
<path d="M 24.36,110.00 L 28.36,110.00 " stroke="#000000" stroke-width="0.50px" fill="none"></path>
<path d="M 24.36,122.00 L 28.36,122.00 " stroke="#000000" stroke-width="0.50px" fill="none"></path>
<path d="M 31.82,110.00 L 31.82,102.00 " stroke="#000000" stroke-width="0.50px" fill="none"></path>
<path d="M 29.82,102.00 L 33.82,102.00 " stroke="#000000" stroke-width="0.50px" fill="none"></path>
<path d="M 29.82,110.00 L 33.82,110.00 " stroke="#000000" stroke-width="0.50px" fill="none"></path>
<path d="M 37.27,126.00 L 37.27,116.00 " stroke="#000000" stroke-width="0.50px" fill="none"></path>
<path d="M 35.27,116.00 L 39.27,116.00 " stroke="#000000" stroke-width="0.50px" fill="none"></path>
<path d="M 35.27,126.00 L 39.27,126.00 " stroke="#000000" stroke-width="0.50px" fill="none"></path>
<path d="M 42.73,128.00 L 42.73,114.00 " stroke="#000000" stroke-width="0.50px" fill="none"></path>
<path d="M 40.73,114.00 L 44.73,114.00 " stroke="#000000" stroke-width="0.50px" fill="none"></path>
<path d="M 40.73,128.00 L 44.73,128.00 " stroke="#000000" stroke-width="0.50px" fill="none"></path>
<path d="M 48.18,128.00 L 48.18,118.00 " stroke="#000000" stroke-width="0.50px" fill="none"></path>
<path d="M 46.18,118.00 L 50.18,118.00 " stroke="#000000" stroke-width="0.50px" fill="none"></path>
<path d="M 46.18,128.00 L 50.18,128.00 " stroke="#000000" stroke-width="0.50px" fill="none"></path>
<path d="M 53.64,126.00 L 53.64,118.00 " stroke="#000000" stroke-width="0.50px" fill="none"></path>
<path d="M 51.64,118.00 L 55.64,118.00 " stroke="#000000" stroke-width="0.50px" fill="none"></path>
<path d="M 51.64,126.00 L 55.64,126.00 " stroke="#000000" stroke-width="0.50px" fill="none"></path>
<path d="M 59.09,122.00 L 59.09,110.00 " stroke="#000000" stroke-width="0.50px" fill="none"></path>
<path d="M 57.09,110.00 L 61.09,110.00 " stroke="#000000" stroke-width="0.50px" fill="none"></path>
<path d="M 57.09,122.00 L 61.09,122.00 " stroke="#000000" stroke-width="0.50px" fill="none"></path>
<path d="M 64.55,106.00 L 64.55,96.00 " stroke="#000000" stroke-width="0.50px" fill="none"></path>
<path d="M 62.55,96.00 L 66.55,96.00 " stroke="#000000" stroke-width="0.50px" fill="none"></path>
<path d="M 62.55,106.00 L 66.55,106.00 " stroke="#000000" stroke-width="0.50px" fill="none"></path>
<circle cx="15.45" cy="126.00" r="0.50" stroke="#000000" stroke-width="0.5" fill="none"></circle>
<circle cx="20.91" cy="122.00" r="0.50" stroke="#000000" stroke-width="0.5" fill="none"></circle>
<circle cx="26.36" cy="118.00" r="0.50" stroke="#000000" stroke-width="0.5" fill="none"></circle>
<circle cx="31.82" cy="106.00" r="0.50" stroke="#000000" stroke-width="0.5" fill="none"></circle>
<circle cx="37.27" cy="118.00" r="0.50" stroke="#000000" stroke-width="0.5" fill="none"></circle>
<circle cx="42.73" cy="122.00" r="0.50" stroke="#000000" stroke-width="0.5" fill="none"></circle>
<circle cx="48.18" cy="126.00" r="0.50" stroke="#000000" stroke-width="0.5" fill="none"></circle>
<circle cx="53.64" cy="122.00" r="0.50" stroke="#000000" stroke-width="0.5" fill="none"></circle>
<circle cx="59.09" cy="114.00" r="0.50" stroke="#000000" stroke-width="0.5" fill="none"></circle>
<circle cx="64.55" cy="98.00" r="0.50" stroke="#000000" stroke-width="0.5" fill="none"></circle>
<path d="M 79.50,130.00 L 140.50,130.00 " stroke="#000000" stroke-width="1.00px" fill="none"></path>
<path d="M 80.00,130.50 L 80.00,89.50 " stroke="#000000" stroke-width="1.00px" fill="none"></path>
<text x="110.00" y="82.50" style="font-family: Helvetica; font-size: 10; fill: #000000; text-anchor: middle; alignment-baseline: baseline; "> Box Plots</text>
<path d="M 85.45,132.00 L 85.45,118.00 " stroke="#000000" stroke-width="0.50px" fill="none"></path>
<path d="M 83.45,118.00 L 87.45,118.00 " stroke="#000000" stroke-width="0.50px" fill="none"></path>
<path d="M 83.45,132.00 L 87.45,132.00 " stroke="#000000" stroke-width="0.50px" fill="none"></path>
<path d="M 90.91,128.00 L 90.91,116.00 " stroke="#000000" stroke-width="0.50px" fill="none"></path>
<path d="M 88.91,116.00 L 92.91,116.00 " stroke="#000000" stroke-width="0.50px" fill="none"></path>
<path d="M 88.91,128.00 L 92.91,128.00 " stroke="#000000" stroke-width="0.50px" fill="none"></path>
<path d="M 96.36,126.00 L 96.36,106.00 " stroke="#000000" stroke-width="0.50px" fill="none"></path>
<path d="M 94.36,106.00 L 98.36,106.00 " stroke="#000000" stroke-width="0.50px" fill="none"></path>
<path d="M 94.36,126.00 L 98.36,126.00 " stroke="#000000" stroke-width="0.50px" fill="none"></path>
<path d="M 101.82,114.00 L 101.82,98.00 " stroke="#000000" stroke-width="0.50px" fill="none"></path>
<path d="M 99.82,98.00 L 103.82,98.00 " stroke="#000000" stroke-width="0.50px" fill="none"></path>
<path d="M 99.82,114.00 L 103.82,114.00 " stroke="#000000" stroke-width="0.50px" fill="none"></path>
<path d="M 107.27,130.00 L 107.27,112.00 " stroke="#000000" stroke-width="0.50px" fill="none"></path>
<path d="M 105.27,112.00 L 109.27,112.00 " stroke="#000000" stroke-width="0.50px" fill="none"></path>
<path d="M 105.27,130.00 L 109.27,130.00 " stroke="#000000" stroke-width="0.50px" fill="none"></path>
<path d="M 112.73,132.00 L 112.73,110.00 " stroke="#000000" stroke-width="0.50px" fill="none"></path>
<path d="M 110.73,110.00 L 114.73,110.00 " stroke="#000000" stroke-width="0.50px" fill="none"></path>
<path d="M 110.73,132.00 L 114.73,132.00 " stroke="#000000" stroke-width="0.50px" fill="none"></path>
<path d="M 118.18,132.00 L 118.18,114.00 " stroke="#000000" stroke-width="0.50px" fill="none"></path>
<path d="M 116.18,114.00 L 120.18,114.00 " stroke="#000000" stroke-width="0.50px" fill="none"></path>
<path d="M 116.18,132.00 L 120.18,132.00 " stroke="#000000" stroke-width="0.50px" fill="none"></path>
<path d="M 123.64,130.00 L 123.64,114.00 " stroke="#000000" stroke-width="0.50px" fill="none"></path>
<path d="M 121.64,114.00 L 125.64,114.00 " stroke="#000000" stroke-width="0.50px" fill="none"></path>
<path d="M 121.64,130.00 L 125.64,130.00 " stroke="#000000" stroke-width="0.50px" fill="none"></path>
<path d="M 129.09,126.00 L 129.09,106.00 " stroke="#000000" stroke-width="0.50px" fill="none"></path>
<path d="M 127.09,106.00 L 131.09,106.00 " stroke="#000000" stroke-width="0.50px" fill="none"></path>
<path d="M 127.09,126.00 L 131.09,126.00 " stroke="#000000" stroke-width="0.50px" fill="none"></path>
<path d="M 134.55,110.00 L 134.55,92.00 " stroke="#000000" stroke-width="0.50px" fill="none"></path>
<path d="M 132.55,92.00 L 136.55,92.00 " stroke="#000000" stroke-width="0.50px" fill="none"></path>
<path d="M 132.55,110.00 L 136.55,110.00 " stroke="#000000" stroke-width="0.50px" fill="none"></path>
<rect x="83.27" y="122.00" height="6.00" width="4.36" stroke="#000000" stroke-width="0.5" fill="lightgrey" ></rect>
<rect x="88.73" y="120.00" height="4.00" width="4.36" stroke="#000000" stroke-width="0.5" fill="lightgrey" ></rect>
<rect x="94.18" y="110.00" height="12.00" width="4.36" stroke="#000000" stroke-width="0.5" fill="lightgrey" ></rect>
<rect x="99.64" y="102.00" height="8.00" width="4.36" stroke="#000000" stroke-width="0.5" fill="lightgrey" ></rect>
<rect x="105.09" y="116.00" height="10.00" width="4.36" stroke="#000000" stroke-width="0.5" fill="lightgrey" ></rect>
<rect x="110.55" y="114.00" height="14.00" width="4.36" stroke="#000000" stroke-width="0.5" fill="lightgrey" ></rect>
<rect x="116.00" y="118.00" height="10.00" width="4.36" stroke="#000000" stroke-width="0.5" fill="lightgrey" ></rect>
<rect x="121.45" y="118.00" height="8.00" width="4.36" stroke="#000000" stroke-width="0.5" fill="lightgrey" ></rect>
<rect x="126.91" y="110.00" height="12.00" width="4.36" stroke="#000000" stroke-width="0.5" fill="lightgrey" ></rect>
<rect x="132.36" y="96.00" height="10.00" width="4.36" stroke="#000000" stroke-width="0.5" fill="lightgrey" ></rect>
<circle cx="85.45" cy="126.00" r="0.50" stroke="#000000" stroke-width="0.5" fill="none"></circle>
<circle cx="90.91" cy="122.00" r="0.50" stroke="#000000" stroke-width="0.5" fill="none"></circle>
<circle cx="96.36" cy="118.00" r="0.50" stroke="#000000" stroke-width="0.5" fill="none"></circle>
<circle cx="101.82" cy="106.00" r="0.50" stroke="#000000" stroke-width="0.5" fill="none"></circle>
<circle cx="107.27" cy="118.00" r="0.50" stroke="#000000" stroke-width="0.5" fill="none"></circle>
<circle cx="112.73" cy="122.00" r="0.50" stroke="#000000" stroke-width="0.5" fill="none"></circle>
<circle cx="118.18" cy="126.00" r="0.50" stroke="#000000" stroke-width="0.5" fill="none"></circle>
<circle cx="123.64" cy="122.00" r="0.50" stroke="#000000" stroke-width="0.5" fill="none"></circle>
<circle cx="129.09" cy="114.00" r="0.50" stroke="#000000" stroke-width="0.5" fill="none"></circle>
<circle cx="134.55" cy="98.00" r="0.50" stroke="#000000" stroke-width="0.5" fill="none"></circle>
<path d="M 149.50,130.00 L 210.50,130.00 " stroke="#000000" stroke-width="1.00px" fill="none"></path>
<path d="M 150.00,130.50 L 150.00,89.50 " stroke="#000000" stroke-width="1.00px" fill="none"></path>
<text x="180.00" y="82.50" style="font-family: Helvetica; font-size: 10; fill: #000000; text-anchor: middle; alignment-baseline: baseline; "> Intervals</text>
<path d="M 152.73,126.00 L 160.91,126.00 " stroke="#000000" stroke-width="0.50px" fill="none"></path>
<path d="M 160.91,128.00 L 160.91,124.00 " stroke="#000000" stroke-width="0.50px" fill="none"></path>
<path d="M 152.73,128.00 L 152.73,124.00 " stroke="#000000" stroke-width="0.50px" fill="none"></path>
<path d="M 158.18,122.00 L 163.64,122.00 " stroke="#000000" stroke-width="0.50px" fill="none"></path>
<path d="M 163.64,124.00 L 163.64,120.00 " stroke="#000000" stroke-width="0.50px" fill="none"></path>
<path d="M 158.18,124.00 L 158.18,120.00 " stroke="#000000" stroke-width="0.50px" fill="none"></path>
<path d="M 160.91,118.00 L 177.27,118.00 " stroke="#000000" stroke-width="0.50px" fill="none"></path>
<path d="M 177.27,120.00 L 177.27,116.00 " stroke="#000000" stroke-width="0.50px" fill="none"></path>
<path d="M 160.91,120.00 L 160.91,116.00 " stroke="#000000" stroke-width="0.50px" fill="none"></path>
<path d="M 177.27,114.00 L 188.18,114.00 " stroke="#000000" stroke-width="0.50px" fill="none"></path>
<path d="M 188.18,116.00 L 188.18,112.00 " stroke="#000000" stroke-width="0.50px" fill="none"></path>
<path d="M 177.27,116.00 L 177.27,112.00 " stroke="#000000" stroke-width="0.50px" fill="none"></path>
<path d="M 155.45,110.00 L 169.09,110.00 " stroke="#000000" stroke-width="0.50px" fill="none"></path>
<path d="M 169.09,112.00 L 169.09,108.00 " stroke="#000000" stroke-width="0.50px" fill="none"></path>
<path d="M 155.45,112.00 L 155.45,108.00 " stroke="#000000" stroke-width="0.50px" fill="none"></path>
<path d="M 152.73,106.00 L 171.82,106.00 " stroke="#000000" stroke-width="0.50px" fill="none"></path>
<path d="M 171.82,108.00 L 171.82,104.00 " stroke="#000000" stroke-width="0.50px" fill="none"></path>
<path d="M 152.73,108.00 L 152.73,104.00 " stroke="#000000" stroke-width="0.50px" fill="none"></path>
<path d="M 152.73,102.00 L 166.36,102.00 " stroke="#000000" stroke-width="0.50px" fill="none"></path>
<path d="M 166.36,104.00 L 166.36,100.00 " stroke="#000000" stroke-width="0.50px" fill="none"></path>
<path d="M 152.73,104.00 L 152.73,100.00 " stroke="#000000" stroke-width="0.50px" fill="none"></path>
<path d="M 155.45,98.00 L 166.36,98.00 " stroke="#000000" stroke-width="0.50px" fill="none"></path>
<path d="M 166.36,100.00 L 166.36,96.00 " stroke="#000000" stroke-width="0.50px" fill="none"></path>
<path d="M 155.45,100.00 L 155.45,96.00 " stroke="#000000" stroke-width="0.50px" fill="none"></path>
<path d="M 160.91,94.00 L 177.27,94.00 " stroke="#000000" stroke-width="0.50px" fill="none"></path>
<path d="M 177.27,96.00 L 177.27,92.00 " stroke="#000000" stroke-width="0.50px" fill="none"></path>
<path d="M 160.91,96.00 L 160.91,92.00 " stroke="#000000" stroke-width="0.50px" fill="none"></path>
<path d="M 182.73,90.00 L 196.36,90.00 " stroke="#000000" stroke-width="0.50px" fill="none"></path>
<path d="M 196.36,92.00 L 196.36,88.00 " stroke="#000000" stroke-width="0.50px" fill="none"></path>
<path d="M 182.73,92.00 L 182.73,88.00 " stroke="#000000" stroke-width="0.50px" fill="none"></path>
<path d="M 219.50,130.00 L 280.50,130.00 " stroke="#000000" stroke-width="1.00px" fill="none"></path>
<path d="M 220.00,130.50 L 220.00,89.50 " stroke="#000000" stroke-width="1.00px" fill="none"></path>
<text x="250.00" y="82.50" style="font-family: Helvetica; font-size: 10; fill: #000000; text-anchor: middle; alignment-baseline: baseline; "> Functions</text>
<path d="M 220.00,130.00 L 220.55,129.60 L 221.09,129.20 L 221.64,128.80 L 222.18,128.40 L 222.73,128.00 L 223.27,127.60 L 223.82,127.20 L 224.36,126.80 L 224.91,126.40 L 225.45,126.00 L 226.00,125.60 L 226.55,125.20 L 227.09,124.80 L 227.64,124.40 L 228.18,124.00 L 228.73,123.60 L 229.27,123.20 L 229.82,122.80 L 230.36,122.40 L 230.91,122.00 L 231.45,121.60 L 232.00,121.20 L 232.55,120.80 L 233.09,120.40 L 233.64,120.00 L 234.18,119.60 L 234.73,119.20 L 235.27,118.80 L 235.82,118.40 L 236.36,118.00 L 236.91,117.60 L 237.45,117.20 L 238.00,116.80 L 238.55,116.40 L 239.09,116.00 L 239.64,115.60 L 240.18,115.20 L 240.73,114.80 L 241.27,114.40 L 241.82,114.00 L 242.36,113.60 L 242.91,113.20 L 243.45,112.80 L 244.00,112.40 L 244.55,112.00 L 245.09,111.60 L 245.64,111.20 L 246.18,110.80 L 246.73,110.40 L 247.27,110.00 L 247.82,109.60 L 248.36,109.20 L 248.91,108.80 L 249.45,108.40 L 250.00,108.00 L 250.55,107.60 L 251.09,107.20 L 251.64,106.80 L 252.18,106.40 L 252.73,106.00 L 253.27,105.60 L 253.82,105.20 L 254.36,104.80 L 254.91,104.40 L 255.45,104.00 L 256.00,103.60 L 256.55,103.20 L 257.09,102.80 L 257.64,102.40 L 258.18,102.00 L 258.73,101.60 L 259.27,101.20 L 259.82,100.80 L 260.36,100.40 L 260.91,100.00 L 261.45,99.60 L 262.00,99.20 L 262.55,98.80 L 263.09,98.40 L 263.64,98.00 L 264.18,97.60 L 264.73,97.20 L 265.27,96.80 L 265.82,96.40 L 266.36,96.00 L 266.91,95.60 L 267.45,95.20 L 268.00,94.80 L 268.55,94.40 L 269.09,94.00 L 269.64,93.60 L 270.18,93.20 L 270.73,92.80 L 271.27,92.40 L 271.82,92.00 L 272.36,91.60 L 272.91,91.20 L 273.45,90.80 L 274.00,90.40 L 274.55,90.00 " stroke="#000000" stroke-width="0.50px" fill="none"></path>
<path d="M 220.00,130.00 L 220.05,130.00 L 220.11,130.00 L 220.16,130.00 L 220.22,129.99 L 220.27,129.99 L 220.33,129.99 L 220.38,129.98 L 220.44,129.97 L 220.49,129.97 L 220.55,129.96 L 220.60,129.95 L 220.65,129.94 L 220.71,129.93 L 220.76,129.92 L 220.82,129.91 L 220.87,129.90 L 220.93,129.88 L 220.98,129.87 L 221.04,129.86 L 221.09,129.84 L 221.15,129.82 L 221.20,129.81 L 221.25,129.79 L 221.31,129.77 L 221.36,129.75 L 221.42,129.73 L 221.47,129.71 L 221.53,129.69 L 221.58,129.66 L 221.64,129.64 L 221.69,129.62 L 221.75,129.59 L 221.80,129.56 L 221.85,129.54 L 221.91,129.51 L 221.96,129.48 L 222.02,129.45 L 222.07,129.42 L 222.13,129.39 L 222.18,129.36 L 222.24,129.33 L 222.29,129.29 L 222.35,129.26 L 222.40,129.23 L 222.45,129.19 L 222.51,129.15 L 222.56,129.12 L 222.62,129.08 L 222.67,129.04 L 222.73,129.00 L 222.78,128.96 L 222.84,128.92 L 222.89,128.88 L 222.95,128.83 L 223.00,128.79 L 223.05,128.75 L 223.11,128.70 L 223.16,128.65 L 223.22,128.61 L 223.27,128.56 L 223.33,128.51 L 223.38,128.46 L 223.44,128.41 L 223.49,128.36 L 223.55,128.31 L 223.60,128.26 L 223.65,128.20 L 223.71,128.15 L 223.76,128.10 L 223.82,128.04 L 223.87,127.98 L 223.93,127.93 L 223.98,127.87 L 224.04,127.81 L 224.09,127.75 L 224.15,127.69 L 224.20,127.63 L 224.25,127.57 L 224.31,127.50 L 224.36,127.44 L 224.42,127.38 L 224.47,127.31 L 224.53,127.24 L 224.58,127.18 L 224.64,127.11 L 224.69,127.04 L 224.75,126.97 L 224.80,126.90 L 224.85,126.83 L 224.91,126.76 L 224.96,126.69 L 225.02,126.61 L 225.07,126.54 L 225.13,126.47 L 225.18,126.39 L 225.24,126.31 L 225.29,126.24 L 225.35,126.16 L 225.40,126.08 L 225.45,126.00 L 225.51,125.92 L 225.56,125.84 L 225.62,125.76 L 225.67,125.67 L 225.73,125.59 L 225.78,125.51 L 225.84,125.42 L 225.89,125.33 L 225.95,125.25 L 226.00,125.16 L 226.05,125.07 L 226.11,124.98 L 226.16,124.89 L 226.22,124.80 L 226.27,124.71 L 226.33,124.62 L 226.38,124.52 L 226.44,124.43 L 226.49,124.34 L 226.55,124.24 L 226.60,124.14 L 226.65,124.05 L 226.71,123.95 L 226.76,123.85 L 226.82,123.75 L 226.87,123.65 L 226.93,123.55 L 226.98,123.45 L 227.04,123.34 L 227.09,123.24 L 227.15,123.14 L 227.20,123.03 L 227.25,122.92 L 227.31,122.82 L 227.36,122.71 L 227.42,122.60 L 227.47,122.49 L 227.53,122.38 L 227.58,122.27 L 227.64,122.16 L 227.69,122.05 L 227.75,121.93 L 227.80,121.82 L 227.85,121.71 L 227.91,121.59 L 227.96,121.47 L 228.02,121.36 L 228.07,121.24 L 228.13,121.12 L 228.18,121.00 L 228.24,120.88 L 228.29,120.76 L 228.35,120.64 L 228.40,120.51 L 228.45,120.39 L 228.51,120.27 L 228.56,120.14 L 228.62,120.01 L 228.67,119.89 L 228.73,119.76 L 228.78,119.63 L 228.84,119.50 L 228.89,119.37 L 228.95,119.24 L 229.00,119.11 L 229.05,118.98 L 229.11,118.84 L 229.16,118.71 L 229.22,118.58 L 229.27,118.44 L 229.33,118.30 L 229.38,118.17 L 229.44,118.03 L 229.49,117.89 L 229.55,117.75 L 229.60,117.61 L 229.65,117.47 L 229.71,117.33 L 229.76,117.18 L 229.82,117.04 L 229.87,116.90 L 229.93,116.75 L 229.98,116.60 L 230.04,116.46 L 230.09,116.31 L 230.15,116.16 L 230.20,116.01 L 230.25,115.86 L 230.31,115.71 L 230.36,115.56 L 230.42,115.41 L 230.47,115.25 L 230.53,115.10 L 230.58,114.95 L 230.64,114.79 L 230.69,114.63 L 230.75,114.48 L 230.80,114.32 L 230.85,114.16 L 230.91,114.00 L 230.96,113.84 L 231.02,113.68 L 231.07,113.52 L 231.13,113.35 L 231.18,113.19 L 231.24,113.03 L 231.29,112.86 L 231.35,112.69 L 231.40,112.53 L 231.45,112.36 L 231.51,112.19 L 231.56,112.02 L 231.62,111.85 L 231.67,111.68 L 231.73,111.51 L 231.78,111.34 L 231.84,111.16 L 231.89,110.99 L 231.95,110.82 L 232.00,110.64 L 232.05,110.46 L 232.11,110.29 L 232.16,110.11 L 232.22,109.93 L 232.27,109.75 L 232.33,109.57 L 232.38,109.39 L 232.44,109.21 L 232.49,109.02 L 232.55,108.84 L 232.60,108.66 L 232.65,108.47 L 232.71,108.28 L 232.76,108.10 L 232.82,107.91 L 232.87,107.72 L 232.93,107.53 L 232.98,107.34 L 233.04,107.15 L 233.09,106.96 L 233.15,106.77 L 233.20,106.57 L 233.25,106.38 L 233.31,106.19 L 233.36,105.99 L 233.42,105.79 L 233.47,105.60 L 233.53,105.40 L 233.58,105.20 L 233.64,105.00 L 233.69,104.80 L 233.75,104.60 L 233.80,104.40 L 233.85,104.19 L 233.91,103.99 L 233.96,103.79 L 234.02,103.58 L 234.07,103.37 L 234.13,103.17 L 234.18,102.96 L 234.24,102.75 L 234.29,102.54 L 234.35,102.33 L 234.40,102.12 L 234.45,101.91 L 234.51,101.70 L 234.56,101.48 L 234.62,101.27 L 234.67,101.06 L 234.73,100.84 L 234.78,100.62 L 234.84,100.41 L 234.89,100.19 L 234.95,99.97 L 235.00,99.75 L 235.05,99.53 L 235.11,99.31 L 235.16,99.09 L 235.22,98.86 L 235.27,98.64 L 235.33,98.42 L 235.38,98.19 L 235.44,97.96 L 235.49,97.74 L 235.55,97.51 L 235.60,97.28 L 235.65,97.05 L 235.71,96.82 L 235.76,96.59 L 235.82,96.36 L 235.87,96.13 L 235.93,95.89 L 235.98,95.66 L 236.04,95.43 L 236.09,95.19 L 236.15,94.95 L 236.20,94.72 L 236.25,94.48 L 236.31,94.24 L 236.36,94.00 L 236.42,93.76 L 236.47,93.52 L 236.53,93.28 L 236.58,93.03 L 236.64,92.79 L 236.69,92.55 L 236.75,92.30 L 236.80,92.05 L 236.85,91.81 L 236.91,91.56 L 236.96,91.31 L 237.02,91.06 L 237.07,90.81 L 237.13,90.56 L 237.18,90.31 L 237.24,90.06 " stroke="#000000" stroke-width="0.50px" fill="none"></path>
<path d="M 220.00,130.00 L 220.55,129.20 L 221.09,128.40 L 221.64,127.60 L 222.18,126.80 L 222.73,126.00 L 223.27,125.20 L 223.82,124.40 L 224.36,123.60 L 224.91,122.80 L 225.45,122.00 L 226.00,121.20 L 226.55,120.40 L 227.09,119.60 L 227.64,118.80 L 228.18,118.00 L 228.73,117.20 L 229.27,116.40 L 229.82,115.60 L 230.36,114.80 L 230.91,114.00 L 231.45,113.20 L 232.00,112.40 L 232.55,111.60 L 233.09,110.80 L 233.64,110.00 L 234.18,109.20 L 234.73,108.40 L 235.27,107.60 L 235.82,106.80 L 236.36,106.00 L 236.91,105.20 L 237.45,104.40 L 238.00,103.60 L 238.55,102.80 L 239.09,102.00 L 239.64,101.20 L 240.18,100.40 L 240.73,99.60 L 241.27,98.80 L 241.82,98.00 L 242.36,97.20 L 242.91,96.40 L 243.45,95.60 L 244.00,94.80 L 244.55,94.00 L 245.09,93.20 L 245.64,92.40 L 246.18,91.60 L 246.73,90.80 L 247.27,90.00 " stroke="#000000" stroke-width="0.50px" fill="none"></path>
<text x="228.18" y="94.00" style="font-family: Helvetica; font-size: 6; fill: #000000; text-anchor: middle; alignment-baseline: middle; "> y=x*x</text>
<text x="250.00" y="98.00" style="font-family: Helvetica; font-size: 6; fill: #000000; text-anchor: middle; alignment-baseline: middle; "> y=x</text>
<text x="260.91" y="110.00" style="font-family: Helvetica; font-size: 6; fill: #000000; text-anchor: middle; alignment-baseline: middle; "> y=2x</text>
<path d="M 9.50,60.00 L 70.50,60.00 " stroke="#000000" stroke-width="1.00px" fill="none"></path>
<path d="M 10.00,60.50 L 10.00,19.50 " stroke="#000000" stroke-width="1.00px" fill="none"></path>
<text x="40.00" y="12.50" style="font-family: Helvetica; font-size: 10; fill: #000000; text-anchor: middle; alignment-baseline: baseline; "> Vertical Bars</text>
<rect x="13.27" y="56.00" height="4.00" width="4.36" fill="lightgrey" ></rect>
<rect x="18.73" y="52.00" height="8.00" width="4.36" fill="lightgrey" ></rect>
<rect x="24.18" y="48.00" height="12.00" width="4.36" fill="lightgrey" ></rect>
<rect x="29.64" y="36.00" height="24.00" width="4.36" fill="lightgrey" ></rect>
<rect x="35.09" y="48.00" height="12.00" width="4.36" fill="lightgrey" ></rect>
<rect x="40.55" y="52.00" height="8.00" width="4.36" fill="lightgrey" ></rect>
<rect x="46.00" y="56.00" height="4.00" width="4.36" fill="lightgrey" ></rect>
<rect x="51.45" y="52.00" height="8.00" width="4.36" fill="lightgrey" ></rect>
<rect x="56.91" y="44.00" height="16.00" width="4.36" fill="lightgrey" ></rect>
<rect x="62.36" y="28.00" height="32.00" width="4.36" fill="lightgrey" ></rect>
<path d="M 79.50,60.00 L 140.50,60.00 " stroke="#000000" stroke-width="1.00px" fill="none"></path>
<path d="M 80.00,60.50 L 80.00,19.50 " stroke="#000000" stroke-width="1.00px" fill="none"></path>
<text x="110.00" y="12.50" style="font-family: Helvetica; font-size: 10; fill: #000000; text-anchor: middle; alignment-baseline: baseline; "> Stacked Bars</text>
<rect x="83.27" y="56.00" height="4.00" width="4.36" fill="lightgrey" ></rect>
<rect x="88.73" y="52.00" height="8.00" width="4.36" fill="lightgrey" ></rect>
<rect x="94.18" y="48.00" height="12.00" width="4.36" fill="lightgrey" ></rect>
<rect x="99.64" y="36.00" height="24.00" width="4.36" fill="lightgrey" ></rect>
<rect x="105.09" y="48.00" height="12.00" width="4.36" fill="lightgrey" ></rect>
<rect x="110.55" y="52.00" height="8.00" width="4.36" fill="lightgrey" ></rect>
<rect x="116.00" y="56.00" height="4.00" width="4.36" fill="lightgrey" ></rect>
<rect x="121.45" y="52.00" height="8.00" width="4.36" fill="lightgrey" ></rect>
<rect x="126.91" y="44.00" height="16.00" width="4.36" fill="lightgrey" ></rect>
<rect x="132.36" y="28.00" height="32.00" width="4.36" fill="lightgrey" ></rect>
<rect x="83.27" y="58.00" height="2.00" width="4.36" fill="darkgray" ></rect>
<rect x="88.73" y="54.00" height="6.00" width="4.36" fill="darkgray" ></rect>
<rect x="94.18" y="52.00" height="8.00" width="4.36" fill="darkgray" ></rect>
<rect x="99.64" y="40.00" height="20.00" width="4.36" fill="darkgray" ></rect>
<rect x="105.09" y="56.00" height="4.00" width="4.36" fill="darkgray" ></rect>
<rect x="110.55" y="58.00" height="2.00" width="4.36" fill="darkgray" ></rect>
<rect x="116.00" y="58.00" height="2.00" width="4.36" fill="darkgray" ></rect>
<rect x="121.45" y="56.00" height="4.00" width="4.36" fill="darkgray" ></rect>
<rect x="126.91" y="52.00" height="8.00" width="4.36" fill="darkgray" ></rect>
<rect x="132.36" y="36.00" height="24.00" width="4.36" fill="darkgray" ></rect>
<path d="M 149.50,60.00 L 210.50,60.00 " stroke="#000000" stroke-width="1.00px" fill="none"></path>
<path d="M 150.00,60.50 L 150.00,19.50 " stroke="#000000" stroke-width="1.00px" fill="none"></path>
<text x="180.00" y="12.50" style="font-family: Helvetica; font-size: 10; fill: #000000; text-anchor: middle; alignment-baseline: baseline; "> Horizontal Bars</text>
<rect x="150.00" y="54.40" height="3.20" width="5.45" fill="lightgrey" ></rect>
<rect x="150.00" y="50.40" height="3.20" width="10.91" fill="lightgrey" ></rect>
<rect x="150.00" y="46.40" height="3.20" width="16.36" fill="lightgrey" ></rect>
<rect x="150.00" y="34.40" height="3.20" width="21.82" fill="lightgrey" ></rect>
<rect x="150.00" y="46.40" height="3.20" width="27.27" fill="lightgrey" ></rect>
<rect x="150.00" y="50.40" height="3.20" width="32.73" fill="lightgrey" ></rect>
<rect x="150.00" y="54.40" height="3.20" width="38.18" fill="lightgrey" ></rect>
<rect x="150.00" y="50.40" height="3.20" width="43.64" fill="lightgrey" ></rect>
<rect x="150.00" y="42.40" height="3.20" width="49.09" fill="lightgrey" ></rect>
<rect x="150.00" y="26.40" height="3.20" width="54.55" fill="lightgrey" ></rect>
</svg>
