<!-- Include into html file with following line: -->
<!-- <img width="200.00" height="300.00" src="example-anchor-rotate"> -->
<svg xmlns="http://www.w3.org/2000/svg" xmlns:xlink="http://www.w3.org/1999/xlink" width="200.00" height="300.00">
<defs>
</defs>
<text x="10.00" y="220.00" transform="rotate(-90.00 10.00,220.00)" style="font-family: default; font-size: 10; text-anchor: start; alignment-baseline: baseline; "> Anchor Is l,l</text>
<text x="10.00" y="140.00" transform="rotate(-90.00 10.00,140.00)" style="font-family: default; font-size: 10; text-anchor: start; alignment-baseline: middle; "> Anchor Is l,c</text>
<text x="10.00" y="60.00" transform="rotate(-90.00 10.00,60.00)" style="font-family: default; font-size: 10; text-anchor: start; alignment-baseline: hanging; "> Anchor Is l,h</text>
<circle cx="10.00" cy="220.00" r="1.00" style="stroke: #ff0000; stroke-width: 1.00; fill: #ff0000;"/>
<circle cx="10.00" cy="220.00" r="1.00" style="stroke: #ff0000; stroke-width: 1.00; fill: none;"/>
<circle cx="10.00" cy="140.00" r="1.00" style="stroke: #ff0000; stroke-width: 1.00; fill: #ff0000;"/>
<circle cx="10.00" cy="140.00" r="1.00" style="stroke: #ff0000; stroke-width: 1.00; fill: none;"/>
<circle cx="10.00" cy="60.00" r="1.00" style="stroke: #ff0000; stroke-width: 1.00; fill: #ff0000;"/>
<circle cx="10.00" cy="60.00" r="1.00" style="stroke: #ff0000; stroke-width: 1.00; fill: none;"/>
<text x="100.00" y="220.00" transform="rotate(-90.00 100.00,220.00)" style="font-family: default; font-size: 10; text-anchor: middle; alignment-baseline: baseline; "> Anchor Is c,l</text>
<text x="100.00" y="140.00" transform="rotate(-90.00 100.00,140.00)" style="font-family: default; font-size: 10; text-anchor: middle; alignment-baseline: middle; "> Anchor Is c,c</text>
<text x="100.00" y="60.00" transform="rotate(-90.00 100.00,60.00)" style="font-family: default; font-size: 10; text-anchor: middle; alignment-baseline: hanging; "> Anchor Is c,h</text>
<circle cx="100.00" cy="220.00" r="1.00" style="stroke: #ff0000; stroke-width: 1.00; fill: #ff0000;"/>
<circle cx="100.00" cy="220.00" r="1.00" style="stroke: #ff0000; stroke-width: 1.00; fill: none;"/>
<circle cx="100.00" cy="140.00" r="1.00" style="stroke: #ff0000; stroke-width: 1.00; fill: #ff0000;"/>
<circle cx="100.00" cy="140.00" r="1.00" style="stroke: #ff0000; stroke-width: 1.00; fill: none;"/>
<circle cx="100.00" cy="60.00" r="1.00" style="stroke: #ff0000; stroke-width: 1.00; fill: #ff0000;"/>
<circle cx="100.00" cy="60.00" r="1.00" style="stroke: #ff0000; stroke-width: 1.00; fill: none;"/>
<text x="190.00" y="220.00" transform="rotate(-90.00 190.00,220.00)" style="font-family: default; font-size: 10; text-anchor: end; alignment-baseline: baseline; "> Anchor Is r,l</text>
<text x="190.00" y="140.00" transform="rotate(-90.00 190.00,140.00)" style="font-family: default; font-size: 10; text-anchor: end; alignment-baseline: middle; "> Anchor Is r,c</text>
<text x="190.00" y="60.00" transform="rotate(-90.00 190.00,60.00)" style="font-family: default; font-size: 10; text-anchor: end; alignment-baseline: hanging; "> Anchor Is r,h</text>
<circle cx="190.00" cy="220.00" r="1.00" style="stroke: #ff0000; stroke-width: 1.00; fill: #ff0000;"/>
<circle cx="190.00" cy="220.00" r="1.00" style="stroke: #ff0000; stroke-width: 1.00; fill: none;"/>
<circle cx="190.00" cy="140.00" r="1.00" style="stroke: #ff0000; stroke-width: 1.00; fill: #ff0000;"/>
<circle cx="190.00" cy="140.00" r="1.00" style="stroke: #ff0000; stroke-width: 1.00; fill: none;"/>
<circle cx="190.00" cy="60.00" r="1.00" style="stroke: #ff0000; stroke-width: 1.00; fill: #ff0000;"/>
<circle cx="190.00" cy="60.00" r="1.00" style="stroke: #ff0000; stroke-width: 1.00; fill: none;"/>
</svg>
