<!-- Include into html file with following line: -->
<!-- <img width="216.00" height="144.00" src="horizontalintervals"> -->
<svg xmlns="http://www.w3.org/2000/svg" xmlns:xlink="http://www.w3.org/1999/xlink" width="216.00" height="144.00">
<defs>
</defs>
<path d="M 49.50,114.00 L 201.50,114.00 " style="stroke: #000000; stroke-width: 1.00; fill: none;"/>
<path d="M 50.00,114.50 L 50.00,14.50 " style="stroke: #000000; stroke-width: 1.00; fill: none;"/>
<path d="M 50.00,118.00 L 50.00,114.00 " style="stroke: #000000; stroke-width: 1.00; fill: none;"/>
<path d="M 100.33,118.00 L 100.33,114.00 " style="stroke: #000000; stroke-width: 1.00; fill: none;"/>
<path d="M 150.67,118.00 L 150.67,114.00 " style="stroke: #000000; stroke-width: 1.00; fill: none;"/>
<path d="M 201.00,118.00 L 201.00,114.00 " style="stroke: #000000; stroke-width: 1.00; fill: none;"/>
<path d="M 46.00,114.00 L 50.00,114.00 " style="stroke: #000000; stroke-width: 1.00; fill: none;"/>
<path d="M 46.00,101.62 L 50.00,101.62 " style="stroke: #000000; stroke-width: 1.00; fill: none;"/>
<path d="M 46.00,89.25 L 50.00,89.25 " style="stroke: #000000; stroke-width: 1.00; fill: none;"/>
<path d="M 46.00,76.88 L 50.00,76.88 " style="stroke: #000000; stroke-width: 1.00; fill: none;"/>
<path d="M 46.00,64.50 L 50.00,64.50 " style="stroke: #000000; stroke-width: 1.00; fill: none;"/>
<path d="M 46.00,52.12 L 50.00,52.12 " style="stroke: #000000; stroke-width: 1.00; fill: none;"/>
<path d="M 46.00,39.75 L 50.00,39.75 " style="stroke: #000000; stroke-width: 1.00; fill: none;"/>
<path d="M 46.00,27.38 L 50.00,27.38 " style="stroke: #000000; stroke-width: 1.00; fill: none;"/>
<path d="M 46.00,15.00 L 50.00,15.00 " style="stroke: #000000; stroke-width: 1.00; fill: none;"/>
<text x="50.00" y="121.00" style="font-family: default; font-size: 10; text-anchor: middle; alignment-baseline: hanging; "> 0</text>
<text x="100.33" y="121.00" style="font-family: default; font-size: 10; text-anchor: middle; alignment-baseline: hanging; "> 300</text>
<text x="150.67" y="121.00" style="font-family: default; font-size: 10; text-anchor: middle; alignment-baseline: hanging; "> 600</text>
<text x="201.00" y="121.00" style="font-family: default; font-size: 10; text-anchor: middle; alignment-baseline: hanging; "> 900</text>
<text x="43.00" y="114.00" style="font-family: default; font-size: 10; text-anchor: end; alignment-baseline: middle; "> 0</text>
<text x="43.00" y="101.62" style="font-family: default; font-size: 10; text-anchor: end; alignment-baseline: middle; "> 1</text>
<text x="43.00" y="89.25" style="font-family: default; font-size: 10; text-anchor: end; alignment-baseline: middle; "> 2</text>
<text x="43.00" y="76.88" style="font-family: default; font-size: 10; text-anchor: end; alignment-baseline: middle; "> 3</text>
<text x="43.00" y="64.50" style="font-family: default; font-size: 10; text-anchor: end; alignment-baseline: middle; "> 4</text>
<text x="43.00" y="52.12" style="font-family: default; font-size: 10; text-anchor: end; alignment-baseline: middle; "> 5</text>
<text x="43.00" y="39.75" style="font-family: default; font-size: 10; text-anchor: end; alignment-baseline: middle; "> 6</text>
<text x="43.00" y="27.38" style="font-family: default; font-size: 10; text-anchor: end; alignment-baseline: middle; "> 7</text>
<text x="43.00" y="15.00" style="font-family: default; font-size: 10; text-anchor: end; alignment-baseline: middle; "> 8</text>
<text x="125.50" y="134.00" style="font-family: default; font-size: 10; text-anchor: middle; alignment-baseline: hanging; "> Throughput (MB)</text>
<text x="34.44" y="64.50" transform="rotate(-90.00 34.44,64.50)" style="font-family: default; font-size: 10; text-anchor: middle; alignment-baseline: baseline; "> Nodes</text>
<path d="M 63.78,101.62 L 67.74,101.62 " style="stroke: #000000; stroke-width: 1.00; fill: none;"/>
<path d="M 67.74,103.12 L 67.74,100.12 " style="stroke: #000000; stroke-width: 1.00; fill: none;"/>
<path d="M 63.78,103.12 L 63.78,100.12 " style="stroke: #000000; stroke-width: 1.00; fill: none;"/>
<path d="M 78.09,89.25 L 88.45,89.25 " style="stroke: #000000; stroke-width: 1.00; fill: none;"/>
<path d="M 88.45,90.75 L 88.45,87.75 " style="stroke: #000000; stroke-width: 1.00; fill: none;"/>
<path d="M 78.09,90.75 L 78.09,87.75 " style="stroke: #000000; stroke-width: 1.00; fill: none;"/>
<path d="M 92.07,76.88 L 108.65,76.88 " style="stroke: #000000; stroke-width: 1.00; fill: none;"/>
<path d="M 108.65,78.38 L 108.65,75.38 " style="stroke: #000000; stroke-width: 1.00; fill: none;"/>
<path d="M 92.07,78.38 L 92.07,75.38 " style="stroke: #000000; stroke-width: 1.00; fill: none;"/>
<path d="M 104.56,64.50 L 126.14,64.50 " style="stroke: #000000; stroke-width: 1.00; fill: none;"/>
<path d="M 126.14,66.00 L 126.14,63.00 " style="stroke: #000000; stroke-width: 1.00; fill: none;"/>
<path d="M 104.56,66.00 L 104.56,63.00 " style="stroke: #000000; stroke-width: 1.00; fill: none;"/>
<path d="M 123.32,52.12 L 145.58,52.12 " style="stroke: #000000; stroke-width: 1.00; fill: none;"/>
<path d="M 145.58,53.62 L 145.58,50.62 " style="stroke: #000000; stroke-width: 1.00; fill: none;"/>
<path d="M 123.32,53.62 L 123.32,50.62 " style="stroke: #000000; stroke-width: 1.00; fill: none;"/>
<path d="M 134.61,39.75 L 161.79,39.75 " style="stroke: #000000; stroke-width: 1.00; fill: none;"/>
<path d="M 161.79,41.25 L 161.79,38.25 " style="stroke: #000000; stroke-width: 1.00; fill: none;"/>
<path d="M 134.61,41.25 L 134.61,38.25 " style="stroke: #000000; stroke-width: 1.00; fill: none;"/>
<path d="M 161.58,27.38 L 175.27,27.38 " style="stroke: #000000; stroke-width: 1.00; fill: none;"/>
<path d="M 175.27,28.88 L 175.27,25.88 " style="stroke: #000000; stroke-width: 1.00; fill: none;"/>
<path d="M 161.58,28.88 L 161.58,25.88 " style="stroke: #000000; stroke-width: 1.00; fill: none;"/>
<path d="M 166.56,15.00 L 204.74,15.00 " style="stroke: #000000; stroke-width: 1.00; fill: none;"/>
<path d="M 204.74,16.50 L 204.74,13.50 " style="stroke: #000000; stroke-width: 1.00; fill: none;"/>
<path d="M 166.56,16.50 L 166.56,13.50 " style="stroke: #000000; stroke-width: 1.00; fill: none;"/>
</svg>
