<!-- Include into html file with following line: -->
<!-- <img width="216.00" height="144.00" src="horizontalbars"> -->
<svg xmlns="http://www.w3.org/2000/svg" xmlns:xlink="http://www.w3.org/1999/xlink" width="216.00" height="144.00">
<defs>
</defs>
<path d="M 35.50,108.00 L 201.50,108.00 " style="stroke: #000000; stroke-width: 1.00; fill: none;"/>
<path d="M 36.00,108.50 L 36.00,14.50 " style="stroke: #000000; stroke-width: 1.00; fill: none;"/>
<path d="M 36.00,112.00 L 36.00,108.00 " style="stroke: #000000; stroke-width: 1.00; fill: none;"/>
<path d="M 77.25,112.00 L 77.25,108.00 " style="stroke: #000000; stroke-width: 1.00; fill: none;"/>
<path d="M 118.50,112.00 L 118.50,108.00 " style="stroke: #000000; stroke-width: 1.00; fill: none;"/>
<path d="M 159.75,112.00 L 159.75,108.00 " style="stroke: #000000; stroke-width: 1.00; fill: none;"/>
<path d="M 201.00,112.00 L 201.00,108.00 " style="stroke: #000000; stroke-width: 1.00; fill: none;"/>
<path d="M 32.00,96.38 L 36.00,96.38 " style="stroke: #000000; stroke-width: 1.00; fill: none;"/>
<path d="M 32.00,73.12 L 36.00,73.12 " style="stroke: #000000; stroke-width: 1.00; fill: none;"/>
<path d="M 32.00,49.88 L 36.00,49.88 " style="stroke: #000000; stroke-width: 1.00; fill: none;"/>
<path d="M 32.00,26.62 L 36.00,26.62 " style="stroke: #000000; stroke-width: 1.00; fill: none;"/>
<text x="36.00" y="115.00" style="font-family: default; font-size: 10; text-anchor: middle; alignment-baseline: hanging; "> 0</text>
<text x="77.25" y="115.00" style="font-family: default; font-size: 10; text-anchor: middle; alignment-baseline: hanging; "> 20</text>
<text x="118.50" y="115.00" style="font-family: default; font-size: 10; text-anchor: middle; alignment-baseline: hanging; "> 40</text>
<text x="159.75" y="115.00" style="font-family: default; font-size: 10; text-anchor: middle; alignment-baseline: hanging; "> 60</text>
<text x="201.00" y="115.00" style="font-family: default; font-size: 10; text-anchor: middle; alignment-baseline: hanging; "> 80</text>
<text x="29.00" y="96.38" style="font-family: default; font-size: 10; text-anchor: end; alignment-baseline: middle; "> A</text>
<text x="29.00" y="73.12" style="font-family: default; font-size: 10; text-anchor: end; alignment-baseline: middle; "> B</text>
<text x="29.00" y="49.88" style="font-family: default; font-size: 10; text-anchor: end; alignment-baseline: middle; "> C</text>
<text x="29.00" y="26.62" style="font-family: default; font-size: 10; text-anchor: end; alignment-baseline: middle; "> D</text>
<text x="118.50" y="128.00" style="font-family: default; font-size: 10; text-anchor: middle; alignment-baseline: hanging; "> Latency (ms)</text>
<text x="18.78" y="61.50" transform="rotate(-90.00 18.78,61.50)" style="font-family: default; font-size: 10; text-anchor: middle; alignment-baseline: baseline; "> Operation</text>
<path d="M 36.00,105.67 L 36.00,87.08 L 139.12,87.08 L 139.12,105.67 Z" style="stroke: #000000; stroke-width: 0.00; fill: red;"/>
<path d="M 36.00,82.42 L 36.00,63.83 L 128.81,63.83 L 128.81,82.42 Z" style="stroke: #000000; stroke-width: 0.00; fill: red;"/>
<path d="M 36.00,59.17 L 36.00,40.58 L 56.62,40.58 L 56.62,59.17 Z" style="stroke: #000000; stroke-width: 0.00; fill: red;"/>
<path d="M 36.00,35.92 L 36.00,17.33 L 66.94,17.33 L 66.94,35.92 Z" style="stroke: #000000; stroke-width: 0.00; fill: red;"/>
<path d="M 139.12,105.67 L 139.12,87.08 L 149.44,87.08 L 149.44,105.67 Z" style="stroke: #000000; stroke-width: 0.00; fill: green;"/>
<path d="M 128.81,82.42 L 128.81,63.83 L 141.19,63.83 L 141.19,82.42 Z" style="stroke: #000000; stroke-width: 0.00; fill: green;"/>
<path d="M 56.62,59.17 L 56.62,40.58 L 66.94,40.58 L 66.94,59.17 Z" style="stroke: #000000; stroke-width: 0.00; fill: green;"/>
<path d="M 66.94,35.92 L 66.94,17.33 L 128.81,17.33 L 128.81,35.92 Z" style="stroke: #000000; stroke-width: 0.00; fill: green;"/>
<path d="M 149.44,105.67 L 149.44,87.08 L 170.06,87.08 L 170.06,105.67 Z" style="stroke: #000000; stroke-width: 0.00; fill: blue;"/>
<path d="M 141.19,82.42 L 141.19,63.83 L 165.94,63.83 L 165.94,82.42 Z" style="stroke: #000000; stroke-width: 0.00; fill: blue;"/>
<path d="M 66.94,59.17 L 66.94,40.58 L 118.50,40.58 L 118.50,59.17 Z" style="stroke: #000000; stroke-width: 0.00; fill: blue;"/>
<path d="M 128.81,35.92 L 128.81,17.33 L 149.44,17.33 L 149.44,35.92 Z" style="stroke: #000000; stroke-width: 0.00; fill: blue;"/>
</svg>
