<!--Creator: zplot version python version 1.0 script: /Users/remzi/Projects/Zplot-New/z-plot/zplot.pyc host: Remzis-MacBook-Air.local-->
<svg xmlns="http://www.w3.org/2000/svg"
xmlns:xlink="http://www.w3.org/1999/xlink">
<path d="M 49.50,114.00 L 201.50,114.00 " stroke="#000000" stroke-width="1.00px" fill="none"></path>
<path d="M 50.00,114.50 L 50.00,14.50 " stroke="#000000" stroke-width="1.00px" fill="none"></path>
<path d="M 50.00,118.00 L 50.00,114.00 " stroke="#000000" stroke-width="1.00px" fill="none"></path>
<path d="M 100.33,118.00 L 100.33,114.00 " stroke="#000000" stroke-width="1.00px" fill="none"></path>
<path d="M 150.67,118.00 L 150.67,114.00 " stroke="#000000" stroke-width="1.00px" fill="none"></path>
<path d="M 201.00,118.00 L 201.00,114.00 " stroke="#000000" stroke-width="1.00px" fill="none"></path>
<path d="M 46.00,114.00 L 50.00,114.00 " stroke="#000000" stroke-width="1.00px" fill="none"></path>
<path d="M 46.00,101.62 L 50.00,101.62 " stroke="#000000" stroke-width="1.00px" fill="none"></path>
<path d="M 46.00,89.25 L 50.00,89.25 " stroke="#000000" stroke-width="1.00px" fill="none"></path>
<path d="M 46.00,76.88 L 50.00,76.88 " stroke="#000000" stroke-width="1.00px" fill="none"></path>
<path d="M 46.00,64.50 L 50.00,64.50 " stroke="#000000" stroke-width="1.00px" fill="none"></path>
<path d="M 46.00,52.12 L 50.00,52.12 " stroke="#000000" stroke-width="1.00px" fill="none"></path>
<path d="M 46.00,39.75 L 50.00,39.75 " stroke="#000000" stroke-width="1.00px" fill="none"></path>
<path d="M 46.00,27.38 L 50.00,27.38 " stroke="#000000" stroke-width="1.00px" fill="none"></path>
<path d="M 46.00,15.00 L 50.00,15.00 " stroke="#000000" stroke-width="1.00px" fill="none"></path>
<text x="50.00" y="128.20" style="font-family: Helvetica; font-size: 10; fill: #000000; text-anchor: middle; "> 0</text>
<text x="100.33" y="128.20" style="font-family: Helvetica; font-size: 10; fill: #000000; text-anchor: middle; "> 300</text>
<text x="150.67" y="128.20" style="font-family: Helvetica; font-size: 10; fill: #000000; text-anchor: middle; "> 600</text>
<text x="201.00" y="128.20" style="font-family: Helvetica; font-size: 10; fill: #000000; text-anchor: middle; "> 900</text>
<text x="43.00" y="117.60" style="font-family: Helvetica; font-size: 10; fill: #000000; text-anchor: end; "> 0</text>
<text x="43.00" y="105.22" style="font-family: Helvetica; font-size: 10; fill: #000000; text-anchor: end; "> 1</text>
<text x="43.00" y="92.85" style="font-family: Helvetica; font-size: 10; fill: #000000; text-anchor: end; "> 2</text>
<text x="43.00" y="80.47" style="font-family: Helvetica; font-size: 10; fill: #000000; text-anchor: end; "> 3</text>
<text x="43.00" y="68.10" style="font-family: Helvetica; font-size: 10; fill: #000000; text-anchor: end; "> 4</text>
<text x="43.00" y="55.72" style="font-family: Helvetica; font-size: 10; fill: #000000; text-anchor: end; "> 5</text>
<text x="43.00" y="43.35" style="font-family: Helvetica; font-size: 10; fill: #000000; text-anchor: end; "> 6</text>
<text x="43.00" y="30.97" style="font-family: Helvetica; font-size: 10; fill: #000000; text-anchor: end; "> 7</text>
<text x="43.00" y="18.60" style="font-family: Helvetica; font-size: 10; fill: #000000; text-anchor: end; "> 8</text>
<text x="125.50" y="141.20" style="font-family: Helvetica; font-size: 10; fill: #000000; text-anchor: middle; "> Throughput (MB)</text>
<text x="33.10" y="64.50" transform="rotate(-90.00 33.10,64.50)" style="font-family: Helvetica; font-size: 10; fill: #000000; text-anchor: middle; "> Nodes</text>
<path d="M 63.78,101.62 L 67.74,101.62 " stroke="#000000" stroke-width="1.00px" fill="none"></path>
<path d="M 67.74,103.12 L 67.74,100.12 " stroke="#000000" stroke-width="1.00px" fill="none"></path>
<path d="M 63.78,103.12 L 63.78,100.12 " stroke="#000000" stroke-width="1.00px" fill="none"></path>
<path d="M 78.09,89.25 L 88.45,89.25 " stroke="#000000" stroke-width="1.00px" fill="none"></path>
<path d="M 88.45,90.75 L 88.45,87.75 " stroke="#000000" stroke-width="1.00px" fill="none"></path>
<path d="M 78.09,90.75 L 78.09,87.75 " stroke="#000000" stroke-width="1.00px" fill="none"></path>
<path d="M 92.07,76.88 L 108.65,76.88 " stroke="#000000" stroke-width="1.00px" fill="none"></path>
<path d="M 108.65,78.38 L 108.65,75.38 " stroke="#000000" stroke-width="1.00px" fill="none"></path>
<path d="M 92.07,78.38 L 92.07,75.38 " stroke="#000000" stroke-width="1.00px" fill="none"></path>
<path d="M 104.56,64.50 L 126.14,64.50 " stroke="#000000" stroke-width="1.00px" fill="none"></path>
<path d="M 126.14,66.00 L 126.14,63.00 " stroke="#000000" stroke-width="1.00px" fill="none"></path>
<path d="M 104.56,66.00 L 104.56,63.00 " stroke="#000000" stroke-width="1.00px" fill="none"></path>
<path d="M 123.32,52.12 L 145.58,52.12 " stroke="#000000" stroke-width="1.00px" fill="none"></path>
<path d="M 145.58,53.62 L 145.58,50.62 " stroke="#000000" stroke-width="1.00px" fill="none"></path>
<path d="M 123.32,53.62 L 123.32,50.62 " stroke="#000000" stroke-width="1.00px" fill="none"></path>
<path d="M 134.61,39.75 L 161.79,39.75 " stroke="#000000" stroke-width="1.00px" fill="none"></path>
<path d="M 161.79,41.25 L 161.79,38.25 " stroke="#000000" stroke-width="1.00px" fill="none"></path>
<path d="M 134.61,41.25 L 134.61,38.25 " stroke="#000000" stroke-width="1.00px" fill="none"></path>
<path d="M 161.58,27.38 L 175.27,27.38 " stroke="#000000" stroke-width="1.00px" fill="none"></path>
<path d="M 175.27,28.88 L 175.27,25.88 " stroke="#000000" stroke-width="1.00px" fill="none"></path>
<path d="M 161.58,28.88 L 161.58,25.88 " stroke="#000000" stroke-width="1.00px" fill="none"></path>
<path d="M 166.56,15.00 L 204.74,15.00 " stroke="#000000" stroke-width="1.00px" fill="none"></path>
<path d="M 204.74,16.50 L 204.74,13.50 " stroke="#000000" stroke-width="1.00px" fill="none"></path>
<path d="M 166.56,16.50 L 166.56,13.50 " stroke="#000000" stroke-width="1.00px" fill="none"></path>
</svg>
