<!-- Creator: zplot version python version 1.3 script: /Users/remzi/Projects/Zplot/z-plot/zplot/zplot.pyc host: Remzis-MacBook-Pro.local -->
<!-- Include into html file with following line: -->
<!-- <img width="216.00" height="144.00" src="line.svg"> -->
<svg xmlns="http://www.w3.org/2000/svg" xmlns:xlink="http://www.w3.org/1999/xlink" width="216.00" height="144.00">
<defs>


</defs>
<path d="M 35.50,108.00 L 201.50,108.00 " stroke="#000000" stroke-width="1.00px" fill="none" ></path>
<path d="M 36.00,108.50 L 36.00,14.50 " stroke="#000000" stroke-width="1.00px" fill="none" ></path>
<path d="M 36.00,112.00 L 36.00,108.00 " stroke="#000000" stroke-width="1.00px" fill="none" ></path>
<path d="M 77.25,112.00 L 77.25,108.00 " stroke="#000000" stroke-width="1.00px" fill="none" ></path>
<path d="M 118.50,112.00 L 118.50,108.00 " stroke="#000000" stroke-width="1.00px" fill="none" ></path>
<path d="M 159.75,112.00 L 159.75,108.00 " stroke="#000000" stroke-width="1.00px" fill="none" ></path>
<path d="M 201.00,112.00 L 201.00,108.00 " stroke="#000000" stroke-width="1.00px" fill="none" ></path>
<path d="M 32.00,108.00 L 36.00,108.00 " stroke="#000000" stroke-width="1.00px" fill="none" ></path>
<path d="M 32.00,89.40 L 36.00,89.40 " stroke="#000000" stroke-width="1.00px" fill="none" ></path>
<path d="M 32.00,70.80 L 36.00,70.80 " stroke="#000000" stroke-width="1.00px" fill="none" ></path>
<path d="M 32.00,52.20 L 36.00,52.20 " stroke="#000000" stroke-width="1.00px" fill="none" ></path>
<path d="M 32.00,33.60 L 36.00,33.60 " stroke="#000000" stroke-width="1.00px" fill="none" ></path>
<path d="M 32.00,15.00 L 36.00,15.00 " stroke="#000000" stroke-width="1.00px" fill="none" ></path>
<text x="36.00" y="115.00" style="font-family: Helvetica; font-size: 10; fill: #000000; text-anchor: middle; alignment-baseline: hanging; "> 0</text>
<text x="77.25" y="115.00" style="font-family: Helvetica; font-size: 10; fill: #000000; text-anchor: middle; alignment-baseline: hanging; "> 256</text>
<text x="118.50" y="115.00" style="font-family: Helvetica; font-size: 10; fill: #000000; text-anchor: middle; alignment-baseline: hanging; "> 512</text>
<text x="159.75" y="115.00" style="font-family: Helvetica; font-size: 10; fill: #000000; text-anchor: middle; alignment-baseline: hanging; "> 768</text>
<text x="201.00" y="115.00" style="font-family: Helvetica; font-size: 10; fill: #000000; text-anchor: middle; alignment-baseline: hanging; "> 1024</text>
<text x="29.00" y="108.00" style="font-family: Helvetica; font-size: 10; fill: #000000; text-anchor: end; alignment-baseline: middle; "> 0</text>
<text x="29.00" y="89.40" style="font-family: Helvetica; font-size: 10; fill: #000000; text-anchor: end; alignment-baseline: middle; "> 2</text>
<text x="29.00" y="70.80" style="font-family: Helvetica; font-size: 10; fill: #000000; text-anchor: end; alignment-baseline: middle; "> 4</text>
<text x="29.00" y="52.20" style="font-family: Helvetica; font-size: 10; fill: #000000; text-anchor: end; alignment-baseline: middle; "> 6</text>
<text x="29.00" y="33.60" style="font-family: Helvetica; font-size: 10; fill: #000000; text-anchor: end; alignment-baseline: middle; "> 8</text>
<text x="29.00" y="15.00" style="font-family: Helvetica; font-size: 10; fill: #000000; text-anchor: end; alignment-baseline: middle; "> 10</text>
<text x="118.50" y="128.00" style="font-family: Helvetica; font-size: 10; fill: #000000; text-anchor: middle; alignment-baseline: hanging; "> File Size (mb)</text>
<text x="14.88" y="61.50" transform="rotate(-90.00 14.88,61.50)" style="font-family: Helvetica; font-size: 10; fill: #000000; text-anchor: middle; alignment-baseline: baseline; "> Copy Time (s)</text>
<path d="M 36.16,107.92 L 36.32,107.84 L 36.64,107.63 L 37.29,107.24 L 38.58,106.50 L 41.16,104.59 L 46.31,102.80 L 56.62,95.99 L 77.25,88.07 L 118.50,51.96 L 201.00,16.51 " stroke="#999999" stroke-width="2.00px" fill="none" ></path>
<path d="M 36.16,107.96 L 36.32,107.93 L 36.64,107.87 L 37.29,107.65 L 38.58,107.28 L 41.16,106.51 L 46.31,104.95 L 56.62,103.57 L 77.25,95.63 L 118.50,84.99 L 201.00,72.89 " stroke="#000000" stroke-width="1.00px" stroke-dasharray="3,1" fill="none" ></path>
<path d="M 56.00,25.00 L 66.00,25.00 " stroke="#999999" stroke-width="2.00px" fill="none" ></path>
<text x="70.00" y="25.00" style="font-family: Helvetica; font-size: 10; fill: #000000; text-anchor: start; alignment-baseline: middle; "> disk</text>
<path d="M 56.00,38.00 L 66.00,38.00 " stroke="#000000" stroke-width="1.00px" stroke-dasharray="3,1" fill="none" ></path>
<text x="70.00" y="38.00" style="font-family: Helvetica; font-size: 10; fill: #000000; text-anchor: start; alignment-baseline: middle; "> SSD</text>
</svg>
