<svg xmlns="http://www.w3.org/2000/svg"
xmlns:xlink="http://www.w3.org/1999/xlink">
<path d="M 35.50,108.00 L 201.50,108.00 " stroke="#000000" stroke-width="1.00px" fill="none"></path>
<path d="M 36.00,108.50 L 36.00,14.50 " stroke="#000000" stroke-width="1.00px" fill="none"></path>
<path d="M 36.00,112.00 L 36.00,108.00 " stroke="#000000" stroke-width="1.00px" fill="none"></path>
<path d="M 77.25,112.00 L 77.25,108.00 " stroke="#000000" stroke-width="1.00px" fill="none"></path>
<path d="M 118.50,112.00 L 118.50,108.00 " stroke="#000000" stroke-width="1.00px" fill="none"></path>
<path d="M 159.75,112.00 L 159.75,108.00 " stroke="#000000" stroke-width="1.00px" fill="none"></path>
<path d="M 201.00,112.00 L 201.00,108.00 " stroke="#000000" stroke-width="1.00px" fill="none"></path>
<path d="M 32.00,108.00 L 36.00,108.00 " stroke="#000000" stroke-width="1.00px" fill="none"></path>
<path d="M 32.00,89.40 L 36.00,89.40 " stroke="#000000" stroke-width="1.00px" fill="none"></path>
<path d="M 32.00,70.80 L 36.00,70.80 " stroke="#000000" stroke-width="1.00px" fill="none"></path>
<path d="M 32.00,52.20 L 36.00,52.20 " stroke="#000000" stroke-width="1.00px" fill="none"></path>
<path d="M 32.00,33.60 L 36.00,33.60 " stroke="#000000" stroke-width="1.00px" fill="none"></path>
<path d="M 32.00,15.00 L 36.00,15.00 " stroke="#000000" stroke-width="1.00px" fill="none"></path>
<text x="36.00" y="123.00" style="font-family: Helvetica; font-size: 10; fill: #000000; text-anchor: middle; "> 0</text>
<text x="77.25" y="123.00" style="font-family: Helvetica; font-size: 10; fill: #000000; text-anchor: middle; "> 256</text>
<text x="118.50" y="123.00" style="font-family: Helvetica; font-size: 10; fill: #000000; text-anchor: middle; "> 512</text>
<text x="159.75" y="123.00" style="font-family: Helvetica; font-size: 10; fill: #000000; text-anchor: middle; "> 768</text>
<text x="201.00" y="123.00" style="font-family: Helvetica; font-size: 10; fill: #000000; text-anchor: middle; "> 1024</text>
<text x="29.00" y="111.00" style="font-family: Helvetica; font-size: 10; fill: #000000; text-anchor: end; "> 0</text>
<text x="29.00" y="92.40" style="font-family: Helvetica; font-size: 10; fill: #000000; text-anchor: end; "> 2</text>
<text x="29.00" y="73.80" style="font-family: Helvetica; font-size: 10; fill: #000000; text-anchor: end; "> 4</text>
<text x="29.00" y="55.20" style="font-family: Helvetica; font-size: 10; fill: #000000; text-anchor: end; "> 6</text>
<text x="29.00" y="36.60" style="font-family: Helvetica; font-size: 10; fill: #000000; text-anchor: end; "> 8</text>
<text x="29.00" y="18.00" style="font-family: Helvetica; font-size: 10; fill: #000000; text-anchor: end; "> 10</text>
<text x="118.50" y="136.00" style="font-family: Helvetica; font-size: 10; fill: #000000; text-anchor: middle; "> File Size (mb)</text>
<text x="13.70" y="61.50" transform="rotate(-90.00 13.70,61.50)" style="font-family: Helvetica; font-size: 10; fill: #000000; text-anchor: middle; "> Copy Time (s)</text>
<path d="M 36.16,107.92 L 36.32,107.84 L 36.64,107.63 L 37.29,107.24 L 38.58,106.50 L 41.16,104.59 L 46.31,102.80 L 56.62,95.99 L 77.25,88.07 L 118.50,51.96 L 201.00,16.51 " stroke="#999999" stroke-width="2.00px" fill="none"></path>
<path d="M 36.16,107.96 L 36.32,107.93 L 36.64,107.87 L 37.29,107.65 L 38.58,107.28 L 41.16,106.51 L 46.31,104.95 L 56.62,103.57 L 77.25,95.63 L 118.50,84.99 L 201.00,72.89 " stroke="#000000" stroke-width="1.00px" stroke-dasharray="3,1" fill="none"></path>
<path d="M 56.00,25.00 L 66.00,25.00 " stroke="#999999" stroke-width="2.00px" fill="none"></path>
<text x="70.00" y="28.00" style="font-family: Helvetica; font-size: 10; fill: #000000; text-anchor: start; "> disk</text>
<path d="M 56.00,38.00 L 66.00,38.00 " stroke="#000000" stroke-width="1.00px" stroke-dasharray="3,1" fill="none"></path>
<text x="70.00" y="41.00" style="font-family: Helvetica; font-size: 10; fill: #000000; text-anchor: start; "> SSD</text>
</svg>
