<svg xmlns="http://www.w3.org/2000/svg"
xmlns:xlink="http://www.w3.org/1999/xlink">
<path d="M 49.50,114.00 L 201.50,114.00 " stroke="#000000" stroke-width="1.00px" fill="none"></path>
<path d="M 50.00,114.50 L 50.00,14.50 " stroke="#000000" stroke-width="1.00px" fill="none"></path>
<path d="M 50.00,118.00 L 50.00,114.00 " stroke="#000000" stroke-width="1.00px" fill="none"></path>
<path d="M 68.88,118.00 L 68.88,114.00 " stroke="#000000" stroke-width="1.00px" fill="none"></path>
<path d="M 87.75,118.00 L 87.75,114.00 " stroke="#000000" stroke-width="1.00px" fill="none"></path>
<path d="M 106.62,118.00 L 106.62,114.00 " stroke="#000000" stroke-width="1.00px" fill="none"></path>
<path d="M 125.50,118.00 L 125.50,114.00 " stroke="#000000" stroke-width="1.00px" fill="none"></path>
<path d="M 144.38,118.00 L 144.38,114.00 " stroke="#000000" stroke-width="1.00px" fill="none"></path>
<path d="M 163.25,118.00 L 163.25,114.00 " stroke="#000000" stroke-width="1.00px" fill="none"></path>
<path d="M 182.12,118.00 L 182.12,114.00 " stroke="#000000" stroke-width="1.00px" fill="none"></path>
<path d="M 201.00,118.00 L 201.00,114.00 " stroke="#000000" stroke-width="1.00px" fill="none"></path>
<path d="M 46.00,114.00 L 50.00,114.00 " stroke="#000000" stroke-width="1.00px" fill="none"></path>
<path d="M 46.00,81.00 L 50.00,81.00 " stroke="#000000" stroke-width="1.00px" fill="none"></path>
<path d="M 46.00,48.00 L 50.00,48.00 " stroke="#000000" stroke-width="1.00px" fill="none"></path>
<path d="M 46.00,15.00 L 50.00,15.00 " stroke="#000000" stroke-width="1.00px" fill="none"></path>
<text x="50.00" y="129.00" style="font-family: Helvetica; font-size: 10; fill: #000000; text-anchor: middle; "> 0</text>
<text x="68.88" y="129.00" style="font-family: Helvetica; font-size: 10; fill: #000000; text-anchor: middle; "> 1</text>
<text x="87.75" y="129.00" style="font-family: Helvetica; font-size: 10; fill: #000000; text-anchor: middle; "> 2</text>
<text x="106.62" y="129.00" style="font-family: Helvetica; font-size: 10; fill: #000000; text-anchor: middle; "> 3</text>
<text x="125.50" y="129.00" style="font-family: Helvetica; font-size: 10; fill: #000000; text-anchor: middle; "> 4</text>
<text x="144.38" y="129.00" style="font-family: Helvetica; font-size: 10; fill: #000000; text-anchor: middle; "> 5</text>
<text x="163.25" y="129.00" style="font-family: Helvetica; font-size: 10; fill: #000000; text-anchor: middle; "> 6</text>
<text x="182.12" y="129.00" style="font-family: Helvetica; font-size: 10; fill: #000000; text-anchor: middle; "> 7</text>
<text x="201.00" y="129.00" style="font-family: Helvetica; font-size: 10; fill: #000000; text-anchor: middle; "> 8</text>
<text x="43.00" y="117.00" style="font-family: Helvetica; font-size: 10; fill: #000000; text-anchor: end; "> 0</text>
<text x="43.00" y="84.00" style="font-family: Helvetica; font-size: 10; fill: #000000; text-anchor: end; "> 300</text>
<text x="43.00" y="51.00" style="font-family: Helvetica; font-size: 10; fill: #000000; text-anchor: end; "> 600</text>
<text x="43.00" y="18.00" style="font-family: Helvetica; font-size: 10; fill: #000000; text-anchor: end; "> 900</text>
<text x="125.50" y="142.00" style="font-family: Helvetica; font-size: 10; fill: #000000; text-anchor: middle; "> Nodes</text>
<text x="19.30" y="64.50" transform="rotate(-90.00 19.30,64.50)" style="font-family: Helvetica; font-size: 10; fill: #000000; text-anchor: middle; "> Throughput (MB)</text>
<path d="M 68.88,104.96 L 68.88,102.37 " stroke="#000000" stroke-width="1.00px" fill="none"></path>
<path d="M 67.38,102.37 L 70.38,102.37 " stroke="#000000" stroke-width="1.00px" fill="none"></path>
<path d="M 67.38,104.96 L 70.38,104.96 " stroke="#000000" stroke-width="1.00px" fill="none"></path>
<path d="M 87.75,95.59 L 87.75,88.79 " stroke="#000000" stroke-width="1.00px" fill="none"></path>
<path d="M 86.25,88.79 L 89.25,88.79 " stroke="#000000" stroke-width="1.00px" fill="none"></path>
<path d="M 86.25,95.59 L 89.25,95.59 " stroke="#000000" stroke-width="1.00px" fill="none"></path>
<path d="M 106.62,86.42 L 106.62,75.55 " stroke="#000000" stroke-width="1.00px" fill="none"></path>
<path d="M 105.12,75.55 L 108.12,75.55 " stroke="#000000" stroke-width="1.00px" fill="none"></path>
<path d="M 105.12,86.42 L 108.12,86.42 " stroke="#000000" stroke-width="1.00px" fill="none"></path>
<path d="M 125.50,78.23 L 125.50,64.08 " stroke="#000000" stroke-width="1.00px" fill="none"></path>
<path d="M 124.00,64.08 L 127.00,64.08 " stroke="#000000" stroke-width="1.00px" fill="none"></path>
<path d="M 124.00,78.23 L 127.00,78.23 " stroke="#000000" stroke-width="1.00px" fill="none"></path>
<path d="M 144.38,65.93 L 144.38,51.33 " stroke="#000000" stroke-width="1.00px" fill="none"></path>
<path d="M 142.88,51.33 L 145.88,51.33 " stroke="#000000" stroke-width="1.00px" fill="none"></path>
<path d="M 142.88,65.93 L 145.88,65.93 " stroke="#000000" stroke-width="1.00px" fill="none"></path>
<path d="M 163.25,58.53 L 163.25,40.70 " stroke="#000000" stroke-width="1.00px" fill="none"></path>
<path d="M 161.75,40.70 L 164.75,40.70 " stroke="#000000" stroke-width="1.00px" fill="none"></path>
<path d="M 161.75,58.53 L 164.75,58.53 " stroke="#000000" stroke-width="1.00px" fill="none"></path>
<path d="M 182.12,40.85 L 182.12,31.87 " stroke="#000000" stroke-width="1.00px" fill="none"></path>
<path d="M 180.62,31.87 L 183.62,31.87 " stroke="#000000" stroke-width="1.00px" fill="none"></path>
<path d="M 180.62,40.85 L 183.62,40.85 " stroke="#000000" stroke-width="1.00px" fill="none"></path>
<path d="M 201.00,37.58 L 201.00,12.55 " stroke="#000000" stroke-width="1.00px" fill="none"></path>
<path d="M 199.50,12.55 L 202.50,12.55 " stroke="#000000" stroke-width="1.00px" fill="none"></path>
<path d="M 199.50,37.58 L 202.50,37.58 " stroke="#000000" stroke-width="1.00px" fill="none"></path>
</svg>
